G04 #@! TF.GenerationSoftware,KiCad,Pcbnew,5.0.2-bee76a0~70~ubuntu16.04.1*
G04 #@! TF.CreationDate,2021-10-26T00:07:22+01:00*
G04 #@! TF.ProjectId,Podcar_PCB,506f6463-6172-45f5-9043-422e6b696361,rev?*
G04 #@! TF.SameCoordinates,Original*
G04 #@! TF.FileFunction,Soldermask,Top*
G04 #@! TF.FilePolarity,Negative*
%FSLAX46Y46*%
G04 Gerber Fmt 4.6, Leading zero omitted, Abs format (unit mm)*
G04 Created by KiCad (PCBNEW 5.0.2-bee76a0~70~ubuntu16.04.1) date Tue 26 Oct 2021 00:07:22 BST*
%MOMM*%
%LPD*%
G01*
G04 APERTURE LIST*
%ADD10C,0.100000*%
G04 APERTURE END LIST*
D10*
G36*
X279266703Y-138361486D02*
X279557883Y-138482097D01*
X279819944Y-138657201D01*
X280042799Y-138880056D01*
X280217903Y-139142117D01*
X280338514Y-139433297D01*
X280400000Y-139742412D01*
X280400000Y-140057588D01*
X280338514Y-140366703D01*
X280217903Y-140657883D01*
X280042799Y-140919944D01*
X279819944Y-141142799D01*
X279557883Y-141317903D01*
X279266703Y-141438514D01*
X278957588Y-141500000D01*
X278642412Y-141500000D01*
X278333297Y-141438514D01*
X278042117Y-141317903D01*
X277780056Y-141142799D01*
X277557201Y-140919944D01*
X277382097Y-140657883D01*
X277261486Y-140366703D01*
X277200000Y-140057588D01*
X277200000Y-139742412D01*
X277261486Y-139433297D01*
X277382097Y-139142117D01*
X277557201Y-138880056D01*
X277780056Y-138657201D01*
X278042117Y-138482097D01*
X278333297Y-138361486D01*
X278642412Y-138300000D01*
X278957588Y-138300000D01*
X279266703Y-138361486D01*
X279266703Y-138361486D01*
G37*
G36*
X17266703Y-137961486D02*
X17557883Y-138082097D01*
X17819944Y-138257201D01*
X18042799Y-138480056D01*
X18217903Y-138742117D01*
X18338514Y-139033297D01*
X18400000Y-139342412D01*
X18400000Y-139657588D01*
X18338514Y-139966703D01*
X18217903Y-140257883D01*
X18042799Y-140519944D01*
X17819944Y-140742799D01*
X17557883Y-140917903D01*
X17266703Y-141038514D01*
X16957588Y-141100000D01*
X16642412Y-141100000D01*
X16333297Y-141038514D01*
X16042117Y-140917903D01*
X15780056Y-140742799D01*
X15557201Y-140519944D01*
X15382097Y-140257883D01*
X15261486Y-139966703D01*
X15200000Y-139657588D01*
X15200000Y-139342412D01*
X15261486Y-139033297D01*
X15382097Y-138742117D01*
X15557201Y-138480056D01*
X15780056Y-138257201D01*
X16042117Y-138082097D01*
X16333297Y-137961486D01*
X16642412Y-137900000D01*
X16957588Y-137900000D01*
X17266703Y-137961486D01*
X17266703Y-137961486D01*
G37*
G36*
X161140935Y-135438429D02*
X161237534Y-135457644D01*
X161510517Y-135570717D01*
X161701426Y-135698279D01*
X161756197Y-135734876D01*
X161965124Y-135943803D01*
X161965126Y-135943806D01*
X162114870Y-136167912D01*
X162129284Y-136189485D01*
X162242356Y-136462467D01*
X162283497Y-136669293D01*
X162300000Y-136752263D01*
X162300000Y-137047737D01*
X162242356Y-137337534D01*
X162129283Y-137610517D01*
X162040893Y-137742801D01*
X161965124Y-137856197D01*
X161756197Y-138065124D01*
X161756194Y-138065126D01*
X161510517Y-138229283D01*
X161237534Y-138342356D01*
X161141361Y-138361486D01*
X160947739Y-138400000D01*
X160652261Y-138400000D01*
X160458639Y-138361486D01*
X160362466Y-138342356D01*
X160089483Y-138229283D01*
X159843806Y-138065126D01*
X159843803Y-138065124D01*
X159634876Y-137856197D01*
X159559107Y-137742801D01*
X159470717Y-137610517D01*
X159357644Y-137337534D01*
X159300000Y-137047737D01*
X159300000Y-136752263D01*
X159316504Y-136669293D01*
X159357644Y-136462467D01*
X159470716Y-136189485D01*
X159485131Y-136167912D01*
X159634874Y-135943806D01*
X159634876Y-135943803D01*
X159843803Y-135734876D01*
X159898574Y-135698279D01*
X160089483Y-135570717D01*
X160362466Y-135457644D01*
X160459065Y-135438429D01*
X160652261Y-135400000D01*
X160947739Y-135400000D01*
X161140935Y-135438429D01*
X161140935Y-135438429D01*
G37*
G36*
X105140935Y-135438429D02*
X105237534Y-135457644D01*
X105510517Y-135570717D01*
X105701426Y-135698279D01*
X105756197Y-135734876D01*
X105965124Y-135943803D01*
X105965126Y-135943806D01*
X106114870Y-136167912D01*
X106129284Y-136189485D01*
X106242356Y-136462467D01*
X106283497Y-136669293D01*
X106300000Y-136752263D01*
X106300000Y-137047737D01*
X106242356Y-137337534D01*
X106129283Y-137610517D01*
X106040893Y-137742801D01*
X105965124Y-137856197D01*
X105756197Y-138065124D01*
X105756194Y-138065126D01*
X105510517Y-138229283D01*
X105237534Y-138342356D01*
X105141361Y-138361486D01*
X104947739Y-138400000D01*
X104652261Y-138400000D01*
X104458639Y-138361486D01*
X104362466Y-138342356D01*
X104089483Y-138229283D01*
X103843806Y-138065126D01*
X103843803Y-138065124D01*
X103634876Y-137856197D01*
X103559107Y-137742801D01*
X103470717Y-137610517D01*
X103357644Y-137337534D01*
X103300000Y-137047737D01*
X103300000Y-136752263D01*
X103316504Y-136669293D01*
X103357644Y-136462467D01*
X103470716Y-136189485D01*
X103485131Y-136167912D01*
X103634874Y-135943806D01*
X103634876Y-135943803D01*
X103843803Y-135734876D01*
X103898574Y-135698279D01*
X104089483Y-135570717D01*
X104362466Y-135457644D01*
X104459065Y-135438429D01*
X104652261Y-135400000D01*
X104947739Y-135400000D01*
X105140935Y-135438429D01*
X105140935Y-135438429D01*
G37*
G36*
X41306703Y-134961486D02*
X41597883Y-135082097D01*
X41859944Y-135257201D01*
X42082799Y-135480056D01*
X42257903Y-135742117D01*
X42378514Y-136033297D01*
X42440000Y-136342412D01*
X42440000Y-136657588D01*
X42378514Y-136966703D01*
X42257903Y-137257883D01*
X42082799Y-137519944D01*
X41859944Y-137742799D01*
X41597883Y-137917903D01*
X41306703Y-138038514D01*
X40997588Y-138100000D01*
X40682412Y-138100000D01*
X40373297Y-138038514D01*
X40082117Y-137917903D01*
X39820056Y-137742799D01*
X39597201Y-137519944D01*
X39422097Y-137257883D01*
X39301486Y-136966703D01*
X39240000Y-136657588D01*
X39240000Y-136342412D01*
X39301486Y-136033297D01*
X39422097Y-135742117D01*
X39597201Y-135480056D01*
X39820056Y-135257201D01*
X40082117Y-135082097D01*
X40373297Y-134961486D01*
X40682412Y-134900000D01*
X40997588Y-134900000D01*
X41306703Y-134961486D01*
X41306703Y-134961486D01*
G37*
G36*
X52100712Y-135640565D02*
X52185295Y-135648896D01*
X52305727Y-135685429D01*
X52348088Y-135698279D01*
X52498112Y-135778468D01*
X52629612Y-135886388D01*
X52737532Y-136017888D01*
X52817721Y-136167912D01*
X52817722Y-136167916D01*
X52867104Y-136330705D01*
X52883778Y-136500000D01*
X52867104Y-136669295D01*
X52830571Y-136789727D01*
X52817721Y-136832088D01*
X52737532Y-136982112D01*
X52629612Y-137113612D01*
X52498112Y-137221532D01*
X52348088Y-137301721D01*
X52305727Y-137314571D01*
X52185295Y-137351104D01*
X52100712Y-137359435D01*
X52058421Y-137363600D01*
X51973579Y-137363600D01*
X51931288Y-137359435D01*
X51846705Y-137351104D01*
X51726273Y-137314571D01*
X51683912Y-137301721D01*
X51533888Y-137221532D01*
X51402388Y-137113612D01*
X51294468Y-136982112D01*
X51214279Y-136832088D01*
X51201429Y-136789727D01*
X51164896Y-136669295D01*
X51148222Y-136500000D01*
X51164896Y-136330705D01*
X51214278Y-136167916D01*
X51214279Y-136167912D01*
X51294468Y-136017888D01*
X51402388Y-135886388D01*
X51533888Y-135778468D01*
X51683912Y-135698279D01*
X51726273Y-135685429D01*
X51846705Y-135648896D01*
X51931288Y-135640565D01*
X51973579Y-135636400D01*
X52058421Y-135636400D01*
X52100712Y-135640565D01*
X52100712Y-135640565D01*
G37*
G36*
X89184712Y-135640565D02*
X89269295Y-135648896D01*
X89389727Y-135685429D01*
X89432088Y-135698279D01*
X89582112Y-135778468D01*
X89713612Y-135886388D01*
X89821532Y-136017888D01*
X89901721Y-136167912D01*
X89901722Y-136167916D01*
X89951104Y-136330705D01*
X89967778Y-136500000D01*
X89951104Y-136669295D01*
X89914571Y-136789727D01*
X89901721Y-136832088D01*
X89821532Y-136982112D01*
X89713612Y-137113612D01*
X89582112Y-137221532D01*
X89432088Y-137301721D01*
X89389727Y-137314571D01*
X89269295Y-137351104D01*
X89184712Y-137359435D01*
X89142421Y-137363600D01*
X89057579Y-137363600D01*
X89015288Y-137359435D01*
X88930705Y-137351104D01*
X88810273Y-137314571D01*
X88767912Y-137301721D01*
X88617888Y-137221532D01*
X88486388Y-137113612D01*
X88378468Y-136982112D01*
X88298279Y-136832088D01*
X88285429Y-136789727D01*
X88248896Y-136669295D01*
X88232222Y-136500000D01*
X88248896Y-136330705D01*
X88298278Y-136167916D01*
X88298279Y-136167912D01*
X88378468Y-136017888D01*
X88486388Y-135886388D01*
X88617888Y-135778468D01*
X88767912Y-135698279D01*
X88810273Y-135685429D01*
X88930705Y-135648896D01*
X89015288Y-135640565D01*
X89057579Y-135636400D01*
X89142421Y-135636400D01*
X89184712Y-135640565D01*
X89184712Y-135640565D01*
G37*
G36*
X86644712Y-135640565D02*
X86729295Y-135648896D01*
X86849727Y-135685429D01*
X86892088Y-135698279D01*
X87042112Y-135778468D01*
X87173612Y-135886388D01*
X87281532Y-136017888D01*
X87361721Y-136167912D01*
X87361722Y-136167916D01*
X87411104Y-136330705D01*
X87427778Y-136500000D01*
X87411104Y-136669295D01*
X87374571Y-136789727D01*
X87361721Y-136832088D01*
X87281532Y-136982112D01*
X87173612Y-137113612D01*
X87042112Y-137221532D01*
X86892088Y-137301721D01*
X86849727Y-137314571D01*
X86729295Y-137351104D01*
X86644712Y-137359435D01*
X86602421Y-137363600D01*
X86517579Y-137363600D01*
X86475288Y-137359435D01*
X86390705Y-137351104D01*
X86270273Y-137314571D01*
X86227912Y-137301721D01*
X86077888Y-137221532D01*
X85946388Y-137113612D01*
X85838468Y-136982112D01*
X85758279Y-136832088D01*
X85745429Y-136789727D01*
X85708896Y-136669295D01*
X85692222Y-136500000D01*
X85708896Y-136330705D01*
X85758278Y-136167916D01*
X85758279Y-136167912D01*
X85838468Y-136017888D01*
X85946388Y-135886388D01*
X86077888Y-135778468D01*
X86227912Y-135698279D01*
X86270273Y-135685429D01*
X86390705Y-135648896D01*
X86475288Y-135640565D01*
X86517579Y-135636400D01*
X86602421Y-135636400D01*
X86644712Y-135640565D01*
X86644712Y-135640565D01*
G37*
G36*
X84104712Y-135640565D02*
X84189295Y-135648896D01*
X84309727Y-135685429D01*
X84352088Y-135698279D01*
X84502112Y-135778468D01*
X84633612Y-135886388D01*
X84741532Y-136017888D01*
X84821721Y-136167912D01*
X84821722Y-136167916D01*
X84871104Y-136330705D01*
X84887778Y-136500000D01*
X84871104Y-136669295D01*
X84834571Y-136789727D01*
X84821721Y-136832088D01*
X84741532Y-136982112D01*
X84633612Y-137113612D01*
X84502112Y-137221532D01*
X84352088Y-137301721D01*
X84309727Y-137314571D01*
X84189295Y-137351104D01*
X84104712Y-137359435D01*
X84062421Y-137363600D01*
X83977579Y-137363600D01*
X83935288Y-137359435D01*
X83850705Y-137351104D01*
X83730273Y-137314571D01*
X83687912Y-137301721D01*
X83537888Y-137221532D01*
X83406388Y-137113612D01*
X83298468Y-136982112D01*
X83218279Y-136832088D01*
X83205429Y-136789727D01*
X83168896Y-136669295D01*
X83152222Y-136500000D01*
X83168896Y-136330705D01*
X83218278Y-136167916D01*
X83218279Y-136167912D01*
X83298468Y-136017888D01*
X83406388Y-135886388D01*
X83537888Y-135778468D01*
X83687912Y-135698279D01*
X83730273Y-135685429D01*
X83850705Y-135648896D01*
X83935288Y-135640565D01*
X83977579Y-135636400D01*
X84062421Y-135636400D01*
X84104712Y-135640565D01*
X84104712Y-135640565D01*
G37*
G36*
X81564712Y-135640565D02*
X81649295Y-135648896D01*
X81769727Y-135685429D01*
X81812088Y-135698279D01*
X81962112Y-135778468D01*
X82093612Y-135886388D01*
X82201532Y-136017888D01*
X82281721Y-136167912D01*
X82281722Y-136167916D01*
X82331104Y-136330705D01*
X82347778Y-136500000D01*
X82331104Y-136669295D01*
X82294571Y-136789727D01*
X82281721Y-136832088D01*
X82201532Y-136982112D01*
X82093612Y-137113612D01*
X81962112Y-137221532D01*
X81812088Y-137301721D01*
X81769727Y-137314571D01*
X81649295Y-137351104D01*
X81564712Y-137359435D01*
X81522421Y-137363600D01*
X81437579Y-137363600D01*
X81395288Y-137359435D01*
X81310705Y-137351104D01*
X81190273Y-137314571D01*
X81147912Y-137301721D01*
X80997888Y-137221532D01*
X80866388Y-137113612D01*
X80758468Y-136982112D01*
X80678279Y-136832088D01*
X80665429Y-136789727D01*
X80628896Y-136669295D01*
X80612222Y-136500000D01*
X80628896Y-136330705D01*
X80678278Y-136167916D01*
X80678279Y-136167912D01*
X80758468Y-136017888D01*
X80866388Y-135886388D01*
X80997888Y-135778468D01*
X81147912Y-135698279D01*
X81190273Y-135685429D01*
X81310705Y-135648896D01*
X81395288Y-135640565D01*
X81437579Y-135636400D01*
X81522421Y-135636400D01*
X81564712Y-135640565D01*
X81564712Y-135640565D01*
G37*
G36*
X79024712Y-135640565D02*
X79109295Y-135648896D01*
X79229727Y-135685429D01*
X79272088Y-135698279D01*
X79422112Y-135778468D01*
X79553612Y-135886388D01*
X79661532Y-136017888D01*
X79741721Y-136167912D01*
X79741722Y-136167916D01*
X79791104Y-136330705D01*
X79807778Y-136500000D01*
X79791104Y-136669295D01*
X79754571Y-136789727D01*
X79741721Y-136832088D01*
X79661532Y-136982112D01*
X79553612Y-137113612D01*
X79422112Y-137221532D01*
X79272088Y-137301721D01*
X79229727Y-137314571D01*
X79109295Y-137351104D01*
X79024712Y-137359435D01*
X78982421Y-137363600D01*
X78897579Y-137363600D01*
X78855288Y-137359435D01*
X78770705Y-137351104D01*
X78650273Y-137314571D01*
X78607912Y-137301721D01*
X78457888Y-137221532D01*
X78326388Y-137113612D01*
X78218468Y-136982112D01*
X78138279Y-136832088D01*
X78125429Y-136789727D01*
X78088896Y-136669295D01*
X78072222Y-136500000D01*
X78088896Y-136330705D01*
X78138278Y-136167916D01*
X78138279Y-136167912D01*
X78218468Y-136017888D01*
X78326388Y-135886388D01*
X78457888Y-135778468D01*
X78607912Y-135698279D01*
X78650273Y-135685429D01*
X78770705Y-135648896D01*
X78855288Y-135640565D01*
X78897579Y-135636400D01*
X78982421Y-135636400D01*
X79024712Y-135640565D01*
X79024712Y-135640565D01*
G37*
G36*
X76484712Y-135640565D02*
X76569295Y-135648896D01*
X76689727Y-135685429D01*
X76732088Y-135698279D01*
X76882112Y-135778468D01*
X77013612Y-135886388D01*
X77121532Y-136017888D01*
X77201721Y-136167912D01*
X77201722Y-136167916D01*
X77251104Y-136330705D01*
X77267778Y-136500000D01*
X77251104Y-136669295D01*
X77214571Y-136789727D01*
X77201721Y-136832088D01*
X77121532Y-136982112D01*
X77013612Y-137113612D01*
X76882112Y-137221532D01*
X76732088Y-137301721D01*
X76689727Y-137314571D01*
X76569295Y-137351104D01*
X76484712Y-137359435D01*
X76442421Y-137363600D01*
X76357579Y-137363600D01*
X76315288Y-137359435D01*
X76230705Y-137351104D01*
X76110273Y-137314571D01*
X76067912Y-137301721D01*
X75917888Y-137221532D01*
X75786388Y-137113612D01*
X75678468Y-136982112D01*
X75598279Y-136832088D01*
X75585429Y-136789727D01*
X75548896Y-136669295D01*
X75532222Y-136500000D01*
X75548896Y-136330705D01*
X75598278Y-136167916D01*
X75598279Y-136167912D01*
X75678468Y-136017888D01*
X75786388Y-135886388D01*
X75917888Y-135778468D01*
X76067912Y-135698279D01*
X76110273Y-135685429D01*
X76230705Y-135648896D01*
X76315288Y-135640565D01*
X76357579Y-135636400D01*
X76442421Y-135636400D01*
X76484712Y-135640565D01*
X76484712Y-135640565D01*
G37*
G36*
X73944712Y-135640565D02*
X74029295Y-135648896D01*
X74149727Y-135685429D01*
X74192088Y-135698279D01*
X74342112Y-135778468D01*
X74473612Y-135886388D01*
X74581532Y-136017888D01*
X74661721Y-136167912D01*
X74661722Y-136167916D01*
X74711104Y-136330705D01*
X74727778Y-136500000D01*
X74711104Y-136669295D01*
X74674571Y-136789727D01*
X74661721Y-136832088D01*
X74581532Y-136982112D01*
X74473612Y-137113612D01*
X74342112Y-137221532D01*
X74192088Y-137301721D01*
X74149727Y-137314571D01*
X74029295Y-137351104D01*
X73944712Y-137359435D01*
X73902421Y-137363600D01*
X73817579Y-137363600D01*
X73775288Y-137359435D01*
X73690705Y-137351104D01*
X73570273Y-137314571D01*
X73527912Y-137301721D01*
X73377888Y-137221532D01*
X73246388Y-137113612D01*
X73138468Y-136982112D01*
X73058279Y-136832088D01*
X73045429Y-136789727D01*
X73008896Y-136669295D01*
X72992222Y-136500000D01*
X73008896Y-136330705D01*
X73058278Y-136167916D01*
X73058279Y-136167912D01*
X73138468Y-136017888D01*
X73246388Y-135886388D01*
X73377888Y-135778468D01*
X73527912Y-135698279D01*
X73570273Y-135685429D01*
X73690705Y-135648896D01*
X73775288Y-135640565D01*
X73817579Y-135636400D01*
X73902421Y-135636400D01*
X73944712Y-135640565D01*
X73944712Y-135640565D01*
G37*
G36*
X71404712Y-135640565D02*
X71489295Y-135648896D01*
X71609727Y-135685429D01*
X71652088Y-135698279D01*
X71802112Y-135778468D01*
X71933612Y-135886388D01*
X72041532Y-136017888D01*
X72121721Y-136167912D01*
X72121722Y-136167916D01*
X72171104Y-136330705D01*
X72187778Y-136500000D01*
X72171104Y-136669295D01*
X72134571Y-136789727D01*
X72121721Y-136832088D01*
X72041532Y-136982112D01*
X71933612Y-137113612D01*
X71802112Y-137221532D01*
X71652088Y-137301721D01*
X71609727Y-137314571D01*
X71489295Y-137351104D01*
X71404712Y-137359435D01*
X71362421Y-137363600D01*
X71277579Y-137363600D01*
X71235288Y-137359435D01*
X71150705Y-137351104D01*
X71030273Y-137314571D01*
X70987912Y-137301721D01*
X70837888Y-137221532D01*
X70706388Y-137113612D01*
X70598468Y-136982112D01*
X70518279Y-136832088D01*
X70505429Y-136789727D01*
X70468896Y-136669295D01*
X70452222Y-136500000D01*
X70468896Y-136330705D01*
X70518278Y-136167916D01*
X70518279Y-136167912D01*
X70598468Y-136017888D01*
X70706388Y-135886388D01*
X70837888Y-135778468D01*
X70987912Y-135698279D01*
X71030273Y-135685429D01*
X71150705Y-135648896D01*
X71235288Y-135640565D01*
X71277579Y-135636400D01*
X71362421Y-135636400D01*
X71404712Y-135640565D01*
X71404712Y-135640565D01*
G37*
G36*
X59720712Y-135640565D02*
X59805295Y-135648896D01*
X59925727Y-135685429D01*
X59968088Y-135698279D01*
X60118112Y-135778468D01*
X60249612Y-135886388D01*
X60357532Y-136017888D01*
X60437721Y-136167912D01*
X60437722Y-136167916D01*
X60487104Y-136330705D01*
X60503778Y-136500000D01*
X60487104Y-136669295D01*
X60450571Y-136789727D01*
X60437721Y-136832088D01*
X60357532Y-136982112D01*
X60249612Y-137113612D01*
X60118112Y-137221532D01*
X59968088Y-137301721D01*
X59925727Y-137314571D01*
X59805295Y-137351104D01*
X59720712Y-137359435D01*
X59678421Y-137363600D01*
X59593579Y-137363600D01*
X59551288Y-137359435D01*
X59466705Y-137351104D01*
X59346273Y-137314571D01*
X59303912Y-137301721D01*
X59153888Y-137221532D01*
X59022388Y-137113612D01*
X58914468Y-136982112D01*
X58834279Y-136832088D01*
X58821429Y-136789727D01*
X58784896Y-136669295D01*
X58768222Y-136500000D01*
X58784896Y-136330705D01*
X58834278Y-136167916D01*
X58834279Y-136167912D01*
X58914468Y-136017888D01*
X59022388Y-135886388D01*
X59153888Y-135778468D01*
X59303912Y-135698279D01*
X59346273Y-135685429D01*
X59466705Y-135648896D01*
X59551288Y-135640565D01*
X59593579Y-135636400D01*
X59678421Y-135636400D01*
X59720712Y-135640565D01*
X59720712Y-135640565D01*
G37*
G36*
X64800712Y-135640565D02*
X64885295Y-135648896D01*
X65005727Y-135685429D01*
X65048088Y-135698279D01*
X65198112Y-135778468D01*
X65329612Y-135886388D01*
X65437532Y-136017888D01*
X65517721Y-136167912D01*
X65517722Y-136167916D01*
X65567104Y-136330705D01*
X65583778Y-136500000D01*
X65567104Y-136669295D01*
X65530571Y-136789727D01*
X65517721Y-136832088D01*
X65437532Y-136982112D01*
X65329612Y-137113612D01*
X65198112Y-137221532D01*
X65048088Y-137301721D01*
X65005727Y-137314571D01*
X64885295Y-137351104D01*
X64800712Y-137359435D01*
X64758421Y-137363600D01*
X64673579Y-137363600D01*
X64631288Y-137359435D01*
X64546705Y-137351104D01*
X64426273Y-137314571D01*
X64383912Y-137301721D01*
X64233888Y-137221532D01*
X64102388Y-137113612D01*
X63994468Y-136982112D01*
X63914279Y-136832088D01*
X63901429Y-136789727D01*
X63864896Y-136669295D01*
X63848222Y-136500000D01*
X63864896Y-136330705D01*
X63914278Y-136167916D01*
X63914279Y-136167912D01*
X63994468Y-136017888D01*
X64102388Y-135886388D01*
X64233888Y-135778468D01*
X64383912Y-135698279D01*
X64426273Y-135685429D01*
X64546705Y-135648896D01*
X64631288Y-135640565D01*
X64673579Y-135636400D01*
X64758421Y-135636400D01*
X64800712Y-135640565D01*
X64800712Y-135640565D01*
G37*
G36*
X62260712Y-135640565D02*
X62345295Y-135648896D01*
X62465727Y-135685429D01*
X62508088Y-135698279D01*
X62658112Y-135778468D01*
X62789612Y-135886388D01*
X62897532Y-136017888D01*
X62977721Y-136167912D01*
X62977722Y-136167916D01*
X63027104Y-136330705D01*
X63043778Y-136500000D01*
X63027104Y-136669295D01*
X62990571Y-136789727D01*
X62977721Y-136832088D01*
X62897532Y-136982112D01*
X62789612Y-137113612D01*
X62658112Y-137221532D01*
X62508088Y-137301721D01*
X62465727Y-137314571D01*
X62345295Y-137351104D01*
X62260712Y-137359435D01*
X62218421Y-137363600D01*
X62133579Y-137363600D01*
X62091288Y-137359435D01*
X62006705Y-137351104D01*
X61886273Y-137314571D01*
X61843912Y-137301721D01*
X61693888Y-137221532D01*
X61562388Y-137113612D01*
X61454468Y-136982112D01*
X61374279Y-136832088D01*
X61361429Y-136789727D01*
X61324896Y-136669295D01*
X61308222Y-136500000D01*
X61324896Y-136330705D01*
X61374278Y-136167916D01*
X61374279Y-136167912D01*
X61454468Y-136017888D01*
X61562388Y-135886388D01*
X61693888Y-135778468D01*
X61843912Y-135698279D01*
X61886273Y-135685429D01*
X62006705Y-135648896D01*
X62091288Y-135640565D01*
X62133579Y-135636400D01*
X62218421Y-135636400D01*
X62260712Y-135640565D01*
X62260712Y-135640565D01*
G37*
G36*
X44480712Y-135640565D02*
X44565295Y-135648896D01*
X44685727Y-135685429D01*
X44728088Y-135698279D01*
X44878112Y-135778468D01*
X45009612Y-135886388D01*
X45117532Y-136017888D01*
X45197721Y-136167912D01*
X45197722Y-136167916D01*
X45247104Y-136330705D01*
X45263778Y-136500000D01*
X45247104Y-136669295D01*
X45210571Y-136789727D01*
X45197721Y-136832088D01*
X45117532Y-136982112D01*
X45009612Y-137113612D01*
X44878112Y-137221532D01*
X44728088Y-137301721D01*
X44685727Y-137314571D01*
X44565295Y-137351104D01*
X44480712Y-137359435D01*
X44438421Y-137363600D01*
X44353579Y-137363600D01*
X44311288Y-137359435D01*
X44226705Y-137351104D01*
X44106273Y-137314571D01*
X44063912Y-137301721D01*
X43913888Y-137221532D01*
X43782388Y-137113612D01*
X43674468Y-136982112D01*
X43594279Y-136832088D01*
X43581429Y-136789727D01*
X43544896Y-136669295D01*
X43528222Y-136500000D01*
X43544896Y-136330705D01*
X43594278Y-136167916D01*
X43594279Y-136167912D01*
X43674468Y-136017888D01*
X43782388Y-135886388D01*
X43913888Y-135778468D01*
X44063912Y-135698279D01*
X44106273Y-135685429D01*
X44226705Y-135648896D01*
X44311288Y-135640565D01*
X44353579Y-135636400D01*
X44438421Y-135636400D01*
X44480712Y-135640565D01*
X44480712Y-135640565D01*
G37*
G36*
X47020712Y-135640565D02*
X47105295Y-135648896D01*
X47225727Y-135685429D01*
X47268088Y-135698279D01*
X47418112Y-135778468D01*
X47549612Y-135886388D01*
X47657532Y-136017888D01*
X47737721Y-136167912D01*
X47737722Y-136167916D01*
X47787104Y-136330705D01*
X47803778Y-136500000D01*
X47787104Y-136669295D01*
X47750571Y-136789727D01*
X47737721Y-136832088D01*
X47657532Y-136982112D01*
X47549612Y-137113612D01*
X47418112Y-137221532D01*
X47268088Y-137301721D01*
X47225727Y-137314571D01*
X47105295Y-137351104D01*
X47020712Y-137359435D01*
X46978421Y-137363600D01*
X46893579Y-137363600D01*
X46851288Y-137359435D01*
X46766705Y-137351104D01*
X46646273Y-137314571D01*
X46603912Y-137301721D01*
X46453888Y-137221532D01*
X46322388Y-137113612D01*
X46214468Y-136982112D01*
X46134279Y-136832088D01*
X46121429Y-136789727D01*
X46084896Y-136669295D01*
X46068222Y-136500000D01*
X46084896Y-136330705D01*
X46134278Y-136167916D01*
X46134279Y-136167912D01*
X46214468Y-136017888D01*
X46322388Y-135886388D01*
X46453888Y-135778468D01*
X46603912Y-135698279D01*
X46646273Y-135685429D01*
X46766705Y-135648896D01*
X46851288Y-135640565D01*
X46893579Y-135636400D01*
X46978421Y-135636400D01*
X47020712Y-135640565D01*
X47020712Y-135640565D01*
G37*
G36*
X49560712Y-135640565D02*
X49645295Y-135648896D01*
X49765727Y-135685429D01*
X49808088Y-135698279D01*
X49958112Y-135778468D01*
X50089612Y-135886388D01*
X50197532Y-136017888D01*
X50277721Y-136167912D01*
X50277722Y-136167916D01*
X50327104Y-136330705D01*
X50343778Y-136500000D01*
X50327104Y-136669295D01*
X50290571Y-136789727D01*
X50277721Y-136832088D01*
X50197532Y-136982112D01*
X50089612Y-137113612D01*
X49958112Y-137221532D01*
X49808088Y-137301721D01*
X49765727Y-137314571D01*
X49645295Y-137351104D01*
X49560712Y-137359435D01*
X49518421Y-137363600D01*
X49433579Y-137363600D01*
X49391288Y-137359435D01*
X49306705Y-137351104D01*
X49186273Y-137314571D01*
X49143912Y-137301721D01*
X48993888Y-137221532D01*
X48862388Y-137113612D01*
X48754468Y-136982112D01*
X48674279Y-136832088D01*
X48661429Y-136789727D01*
X48624896Y-136669295D01*
X48608222Y-136500000D01*
X48624896Y-136330705D01*
X48674278Y-136167916D01*
X48674279Y-136167912D01*
X48754468Y-136017888D01*
X48862388Y-135886388D01*
X48993888Y-135778468D01*
X49143912Y-135698279D01*
X49186273Y-135685429D01*
X49306705Y-135648896D01*
X49391288Y-135640565D01*
X49433579Y-135636400D01*
X49518421Y-135636400D01*
X49560712Y-135640565D01*
X49560712Y-135640565D01*
G37*
G36*
X54640712Y-135640565D02*
X54725295Y-135648896D01*
X54845727Y-135685429D01*
X54888088Y-135698279D01*
X55038112Y-135778468D01*
X55169612Y-135886388D01*
X55277532Y-136017888D01*
X55357721Y-136167912D01*
X55357722Y-136167916D01*
X55407104Y-136330705D01*
X55423778Y-136500000D01*
X55407104Y-136669295D01*
X55370571Y-136789727D01*
X55357721Y-136832088D01*
X55277532Y-136982112D01*
X55169612Y-137113612D01*
X55038112Y-137221532D01*
X54888088Y-137301721D01*
X54845727Y-137314571D01*
X54725295Y-137351104D01*
X54640712Y-137359435D01*
X54598421Y-137363600D01*
X54513579Y-137363600D01*
X54471288Y-137359435D01*
X54386705Y-137351104D01*
X54266273Y-137314571D01*
X54223912Y-137301721D01*
X54073888Y-137221532D01*
X53942388Y-137113612D01*
X53834468Y-136982112D01*
X53754279Y-136832088D01*
X53741429Y-136789727D01*
X53704896Y-136669295D01*
X53688222Y-136500000D01*
X53704896Y-136330705D01*
X53754278Y-136167916D01*
X53754279Y-136167912D01*
X53834468Y-136017888D01*
X53942388Y-135886388D01*
X54073888Y-135778468D01*
X54223912Y-135698279D01*
X54266273Y-135685429D01*
X54386705Y-135648896D01*
X54471288Y-135640565D01*
X54513579Y-135636400D01*
X54598421Y-135636400D01*
X54640712Y-135640565D01*
X54640712Y-135640565D01*
G37*
G36*
X57180712Y-135640565D02*
X57265295Y-135648896D01*
X57385727Y-135685429D01*
X57428088Y-135698279D01*
X57578112Y-135778468D01*
X57709612Y-135886388D01*
X57817532Y-136017888D01*
X57897721Y-136167912D01*
X57897722Y-136167916D01*
X57947104Y-136330705D01*
X57963778Y-136500000D01*
X57947104Y-136669295D01*
X57910571Y-136789727D01*
X57897721Y-136832088D01*
X57817532Y-136982112D01*
X57709612Y-137113612D01*
X57578112Y-137221532D01*
X57428088Y-137301721D01*
X57385727Y-137314571D01*
X57265295Y-137351104D01*
X57180712Y-137359435D01*
X57138421Y-137363600D01*
X57053579Y-137363600D01*
X57011288Y-137359435D01*
X56926705Y-137351104D01*
X56806273Y-137314571D01*
X56763912Y-137301721D01*
X56613888Y-137221532D01*
X56482388Y-137113612D01*
X56374468Y-136982112D01*
X56294279Y-136832088D01*
X56281429Y-136789727D01*
X56244896Y-136669295D01*
X56228222Y-136500000D01*
X56244896Y-136330705D01*
X56294278Y-136167916D01*
X56294279Y-136167912D01*
X56374468Y-136017888D01*
X56482388Y-135886388D01*
X56613888Y-135778468D01*
X56763912Y-135698279D01*
X56806273Y-135685429D01*
X56926705Y-135648896D01*
X57011288Y-135640565D01*
X57053579Y-135636400D01*
X57138421Y-135636400D01*
X57180712Y-135640565D01*
X57180712Y-135640565D01*
G37*
G36*
X67340712Y-135640565D02*
X67425295Y-135648896D01*
X67545727Y-135685429D01*
X67588088Y-135698279D01*
X67738112Y-135778468D01*
X67869612Y-135886388D01*
X67977532Y-136017888D01*
X68057721Y-136167912D01*
X68057722Y-136167916D01*
X68107104Y-136330705D01*
X68123778Y-136500000D01*
X68107104Y-136669295D01*
X68070571Y-136789727D01*
X68057721Y-136832088D01*
X67977532Y-136982112D01*
X67869612Y-137113612D01*
X67738112Y-137221532D01*
X67588088Y-137301721D01*
X67545727Y-137314571D01*
X67425295Y-137351104D01*
X67340712Y-137359435D01*
X67298421Y-137363600D01*
X67213579Y-137363600D01*
X67171288Y-137359435D01*
X67086705Y-137351104D01*
X66966273Y-137314571D01*
X66923912Y-137301721D01*
X66773888Y-137221532D01*
X66642388Y-137113612D01*
X66534468Y-136982112D01*
X66454279Y-136832088D01*
X66441429Y-136789727D01*
X66404896Y-136669295D01*
X66388222Y-136500000D01*
X66404896Y-136330705D01*
X66454278Y-136167916D01*
X66454279Y-136167912D01*
X66534468Y-136017888D01*
X66642388Y-135886388D01*
X66773888Y-135778468D01*
X66923912Y-135698279D01*
X66966273Y-135685429D01*
X67086705Y-135648896D01*
X67171288Y-135640565D01*
X67213579Y-135636400D01*
X67298421Y-135636400D01*
X67340712Y-135640565D01*
X67340712Y-135640565D01*
G37*
G36*
X278540935Y-122438429D02*
X278637534Y-122457644D01*
X278910517Y-122570717D01*
X279070930Y-122677902D01*
X279156197Y-122734876D01*
X279365124Y-122943803D01*
X279529284Y-123189485D01*
X279642356Y-123462467D01*
X279700000Y-123752261D01*
X279700000Y-124047739D01*
X279642356Y-124337533D01*
X279529284Y-124610515D01*
X279365124Y-124856197D01*
X279156197Y-125065124D01*
X279156194Y-125065126D01*
X278910517Y-125229283D01*
X278637534Y-125342356D01*
X278540935Y-125361571D01*
X278347739Y-125400000D01*
X278052261Y-125400000D01*
X277859065Y-125361571D01*
X277762466Y-125342356D01*
X277489483Y-125229283D01*
X277243806Y-125065126D01*
X277243803Y-125065124D01*
X277034876Y-124856197D01*
X276870716Y-124610515D01*
X276757644Y-124337533D01*
X276700000Y-124047739D01*
X276700000Y-123752261D01*
X276757644Y-123462467D01*
X276870716Y-123189485D01*
X277034876Y-122943803D01*
X277243803Y-122734876D01*
X277329070Y-122677902D01*
X277489483Y-122570717D01*
X277762466Y-122457644D01*
X277859065Y-122438429D01*
X278052261Y-122400000D01*
X278347739Y-122400000D01*
X278540935Y-122438429D01*
X278540935Y-122438429D01*
G37*
G36*
X172540935Y-122438429D02*
X172637534Y-122457644D01*
X172910517Y-122570717D01*
X173070930Y-122677902D01*
X173156197Y-122734876D01*
X173365124Y-122943803D01*
X173529284Y-123189485D01*
X173642356Y-123462467D01*
X173700000Y-123752261D01*
X173700000Y-124047739D01*
X173642356Y-124337533D01*
X173529284Y-124610515D01*
X173365124Y-124856197D01*
X173156197Y-125065124D01*
X173156194Y-125065126D01*
X172910517Y-125229283D01*
X172637534Y-125342356D01*
X172540935Y-125361571D01*
X172347739Y-125400000D01*
X172052261Y-125400000D01*
X171859065Y-125361571D01*
X171762466Y-125342356D01*
X171489483Y-125229283D01*
X171243806Y-125065126D01*
X171243803Y-125065124D01*
X171034876Y-124856197D01*
X170870716Y-124610515D01*
X170757644Y-124337533D01*
X170700000Y-124047739D01*
X170700000Y-123752261D01*
X170757644Y-123462467D01*
X170870716Y-123189485D01*
X171034876Y-122943803D01*
X171243803Y-122734876D01*
X171329070Y-122677902D01*
X171489483Y-122570717D01*
X171762466Y-122457644D01*
X171859065Y-122438429D01*
X172052261Y-122400000D01*
X172347739Y-122400000D01*
X172540935Y-122438429D01*
X172540935Y-122438429D01*
G37*
G36*
X92106703Y-119721486D02*
X92397883Y-119842097D01*
X92659944Y-120017201D01*
X92882799Y-120240056D01*
X93057903Y-120502117D01*
X93178514Y-120793297D01*
X93240000Y-121102412D01*
X93240000Y-121417588D01*
X93178514Y-121726703D01*
X93057903Y-122017883D01*
X92882799Y-122279944D01*
X92659944Y-122502799D01*
X92397883Y-122677903D01*
X92106703Y-122798514D01*
X91797588Y-122860000D01*
X91482412Y-122860000D01*
X91173297Y-122798514D01*
X90882117Y-122677903D01*
X90620056Y-122502799D01*
X90397201Y-122279944D01*
X90222097Y-122017883D01*
X90101486Y-121726703D01*
X90040000Y-121417588D01*
X90040000Y-121102412D01*
X90101486Y-120793297D01*
X90222097Y-120502117D01*
X90397201Y-120240056D01*
X90620056Y-120017201D01*
X90882117Y-119842097D01*
X91173297Y-119721486D01*
X91482412Y-119660000D01*
X91797588Y-119660000D01*
X92106703Y-119721486D01*
X92106703Y-119721486D01*
G37*
G36*
X113973195Y-120657522D02*
X114022267Y-120667283D01*
X114160942Y-120724724D01*
X114285750Y-120808118D01*
X114391882Y-120914250D01*
X114475276Y-121039058D01*
X114532717Y-121177734D01*
X114562000Y-121324948D01*
X114562000Y-121475052D01*
X114532717Y-121622266D01*
X114475276Y-121760942D01*
X114391882Y-121885750D01*
X114285750Y-121991882D01*
X114285747Y-121991884D01*
X114160942Y-122075276D01*
X114022267Y-122132717D01*
X113973195Y-122142478D01*
X113875052Y-122162000D01*
X113724948Y-122162000D01*
X113626805Y-122142478D01*
X113577733Y-122132717D01*
X113439058Y-122075276D01*
X113314253Y-121991884D01*
X113314250Y-121991882D01*
X113208118Y-121885750D01*
X113124724Y-121760942D01*
X113067283Y-121622266D01*
X113038000Y-121475052D01*
X113038000Y-121324948D01*
X113067283Y-121177734D01*
X113124724Y-121039058D01*
X113208118Y-120914250D01*
X113314250Y-120808118D01*
X113439058Y-120724724D01*
X113577733Y-120667283D01*
X113626805Y-120657522D01*
X113724948Y-120638000D01*
X113875052Y-120638000D01*
X113973195Y-120657522D01*
X113973195Y-120657522D01*
G37*
G36*
X111973195Y-120657522D02*
X112022267Y-120667283D01*
X112160942Y-120724724D01*
X112285750Y-120808118D01*
X112391882Y-120914250D01*
X112475276Y-121039058D01*
X112532717Y-121177734D01*
X112562000Y-121324948D01*
X112562000Y-121475052D01*
X112532717Y-121622266D01*
X112475276Y-121760942D01*
X112391882Y-121885750D01*
X112285750Y-121991882D01*
X112285747Y-121991884D01*
X112160942Y-122075276D01*
X112022267Y-122132717D01*
X111973195Y-122142478D01*
X111875052Y-122162000D01*
X111724948Y-122162000D01*
X111626805Y-122142478D01*
X111577733Y-122132717D01*
X111439058Y-122075276D01*
X111314253Y-121991884D01*
X111314250Y-121991882D01*
X111208118Y-121885750D01*
X111124724Y-121760942D01*
X111067283Y-121622266D01*
X111038000Y-121475052D01*
X111038000Y-121324948D01*
X111067283Y-121177734D01*
X111124724Y-121039058D01*
X111208118Y-120914250D01*
X111314250Y-120808118D01*
X111439058Y-120724724D01*
X111577733Y-120667283D01*
X111626805Y-120657522D01*
X111724948Y-120638000D01*
X111875052Y-120638000D01*
X111973195Y-120657522D01*
X111973195Y-120657522D01*
G37*
G36*
X109973195Y-120657522D02*
X110022267Y-120667283D01*
X110160942Y-120724724D01*
X110285750Y-120808118D01*
X110391882Y-120914250D01*
X110475276Y-121039058D01*
X110532717Y-121177734D01*
X110562000Y-121324948D01*
X110562000Y-121475052D01*
X110532717Y-121622266D01*
X110475276Y-121760942D01*
X110391882Y-121885750D01*
X110285750Y-121991882D01*
X110285747Y-121991884D01*
X110160942Y-122075276D01*
X110022267Y-122132717D01*
X109973195Y-122142478D01*
X109875052Y-122162000D01*
X109724948Y-122162000D01*
X109626805Y-122142478D01*
X109577733Y-122132717D01*
X109439058Y-122075276D01*
X109314253Y-121991884D01*
X109314250Y-121991882D01*
X109208118Y-121885750D01*
X109124724Y-121760942D01*
X109067283Y-121622266D01*
X109038000Y-121475052D01*
X109038000Y-121324948D01*
X109067283Y-121177734D01*
X109124724Y-121039058D01*
X109208118Y-120914250D01*
X109314250Y-120808118D01*
X109439058Y-120724724D01*
X109577733Y-120667283D01*
X109626805Y-120657522D01*
X109724948Y-120638000D01*
X109875052Y-120638000D01*
X109973195Y-120657522D01*
X109973195Y-120657522D01*
G37*
G36*
X91851712Y-115320565D02*
X91936295Y-115328896D01*
X92056727Y-115365429D01*
X92099088Y-115378279D01*
X92249112Y-115458468D01*
X92380612Y-115566388D01*
X92488532Y-115697888D01*
X92568721Y-115847912D01*
X92568722Y-115847916D01*
X92618104Y-116010705D01*
X92634778Y-116180000D01*
X92618104Y-116349295D01*
X92581571Y-116469727D01*
X92568721Y-116512088D01*
X92488532Y-116662112D01*
X92380612Y-116793612D01*
X92249112Y-116901532D01*
X92099088Y-116981721D01*
X92056727Y-116994571D01*
X91936295Y-117031104D01*
X91851712Y-117039435D01*
X91809421Y-117043600D01*
X91724579Y-117043600D01*
X91682288Y-117039435D01*
X91597705Y-117031104D01*
X91477273Y-116994571D01*
X91434912Y-116981721D01*
X91284888Y-116901532D01*
X91153388Y-116793612D01*
X91045468Y-116662112D01*
X90965279Y-116512088D01*
X90952429Y-116469727D01*
X90915896Y-116349295D01*
X90899222Y-116180000D01*
X90915896Y-116010705D01*
X90965278Y-115847916D01*
X90965279Y-115847912D01*
X91045468Y-115697888D01*
X91153388Y-115566388D01*
X91284888Y-115458468D01*
X91434912Y-115378279D01*
X91477273Y-115365429D01*
X91597705Y-115328896D01*
X91682288Y-115320565D01*
X91724579Y-115316400D01*
X91809421Y-115316400D01*
X91851712Y-115320565D01*
X91851712Y-115320565D01*
G37*
G36*
X89311712Y-115320565D02*
X89396295Y-115328896D01*
X89516727Y-115365429D01*
X89559088Y-115378279D01*
X89709112Y-115458468D01*
X89840612Y-115566388D01*
X89948532Y-115697888D01*
X90028721Y-115847912D01*
X90028722Y-115847916D01*
X90078104Y-116010705D01*
X90094778Y-116180000D01*
X90078104Y-116349295D01*
X90041571Y-116469727D01*
X90028721Y-116512088D01*
X89948532Y-116662112D01*
X89840612Y-116793612D01*
X89709112Y-116901532D01*
X89559088Y-116981721D01*
X89516727Y-116994571D01*
X89396295Y-117031104D01*
X89311712Y-117039435D01*
X89269421Y-117043600D01*
X89184579Y-117043600D01*
X89142288Y-117039435D01*
X89057705Y-117031104D01*
X88937273Y-116994571D01*
X88894912Y-116981721D01*
X88744888Y-116901532D01*
X88613388Y-116793612D01*
X88505468Y-116662112D01*
X88425279Y-116512088D01*
X88412429Y-116469727D01*
X88375896Y-116349295D01*
X88359222Y-116180000D01*
X88375896Y-116010705D01*
X88425278Y-115847916D01*
X88425279Y-115847912D01*
X88505468Y-115697888D01*
X88613388Y-115566388D01*
X88744888Y-115458468D01*
X88894912Y-115378279D01*
X88937273Y-115365429D01*
X89057705Y-115328896D01*
X89142288Y-115320565D01*
X89184579Y-115316400D01*
X89269421Y-115316400D01*
X89311712Y-115320565D01*
X89311712Y-115320565D01*
G37*
G36*
X91851712Y-112780565D02*
X91936295Y-112788896D01*
X92056727Y-112825429D01*
X92099088Y-112838279D01*
X92249112Y-112918468D01*
X92380612Y-113026388D01*
X92488532Y-113157888D01*
X92568721Y-113307912D01*
X92568722Y-113307916D01*
X92618104Y-113470705D01*
X92634778Y-113640000D01*
X92618104Y-113809295D01*
X92581571Y-113929727D01*
X92568721Y-113972088D01*
X92488532Y-114122112D01*
X92380612Y-114253612D01*
X92249112Y-114361532D01*
X92099088Y-114441721D01*
X92056727Y-114454571D01*
X91936295Y-114491104D01*
X91851712Y-114499435D01*
X91809421Y-114503600D01*
X91724579Y-114503600D01*
X91682288Y-114499435D01*
X91597705Y-114491104D01*
X91477273Y-114454571D01*
X91434912Y-114441721D01*
X91284888Y-114361532D01*
X91153388Y-114253612D01*
X91045468Y-114122112D01*
X90965279Y-113972088D01*
X90952429Y-113929727D01*
X90915896Y-113809295D01*
X90899222Y-113640000D01*
X90915896Y-113470705D01*
X90965278Y-113307916D01*
X90965279Y-113307912D01*
X91045468Y-113157888D01*
X91153388Y-113026388D01*
X91284888Y-112918468D01*
X91434912Y-112838279D01*
X91477273Y-112825429D01*
X91597705Y-112788896D01*
X91682288Y-112780565D01*
X91724579Y-112776400D01*
X91809421Y-112776400D01*
X91851712Y-112780565D01*
X91851712Y-112780565D01*
G37*
G36*
X89311712Y-112780565D02*
X89396295Y-112788896D01*
X89516727Y-112825429D01*
X89559088Y-112838279D01*
X89709112Y-112918468D01*
X89840612Y-113026388D01*
X89948532Y-113157888D01*
X90028721Y-113307912D01*
X90028722Y-113307916D01*
X90078104Y-113470705D01*
X90094778Y-113640000D01*
X90078104Y-113809295D01*
X90041571Y-113929727D01*
X90028721Y-113972088D01*
X89948532Y-114122112D01*
X89840612Y-114253612D01*
X89709112Y-114361532D01*
X89559088Y-114441721D01*
X89516727Y-114454571D01*
X89396295Y-114491104D01*
X89311712Y-114499435D01*
X89269421Y-114503600D01*
X89184579Y-114503600D01*
X89142288Y-114499435D01*
X89057705Y-114491104D01*
X88937273Y-114454571D01*
X88894912Y-114441721D01*
X88744888Y-114361532D01*
X88613388Y-114253612D01*
X88505468Y-114122112D01*
X88425279Y-113972088D01*
X88412429Y-113929727D01*
X88375896Y-113809295D01*
X88359222Y-113640000D01*
X88375896Y-113470705D01*
X88425278Y-113307916D01*
X88425279Y-113307912D01*
X88505468Y-113157888D01*
X88613388Y-113026388D01*
X88744888Y-112918468D01*
X88894912Y-112838279D01*
X88937273Y-112825429D01*
X89057705Y-112788896D01*
X89142288Y-112780565D01*
X89184579Y-112776400D01*
X89269421Y-112776400D01*
X89311712Y-112780565D01*
X89311712Y-112780565D01*
G37*
G36*
X91851712Y-110240565D02*
X91936295Y-110248896D01*
X92056727Y-110285429D01*
X92099088Y-110298279D01*
X92249112Y-110378468D01*
X92380612Y-110486388D01*
X92488532Y-110617888D01*
X92568721Y-110767912D01*
X92568722Y-110767916D01*
X92618104Y-110930705D01*
X92634778Y-111100000D01*
X92618104Y-111269295D01*
X92581571Y-111389727D01*
X92568721Y-111432088D01*
X92488532Y-111582112D01*
X92380612Y-111713612D01*
X92249112Y-111821532D01*
X92099088Y-111901721D01*
X92056727Y-111914571D01*
X91936295Y-111951104D01*
X91851712Y-111959435D01*
X91809421Y-111963600D01*
X91724579Y-111963600D01*
X91682288Y-111959435D01*
X91597705Y-111951104D01*
X91477273Y-111914571D01*
X91434912Y-111901721D01*
X91284888Y-111821532D01*
X91153388Y-111713612D01*
X91045468Y-111582112D01*
X90965279Y-111432088D01*
X90952429Y-111389727D01*
X90915896Y-111269295D01*
X90899222Y-111100000D01*
X90915896Y-110930705D01*
X90965278Y-110767916D01*
X90965279Y-110767912D01*
X91045468Y-110617888D01*
X91153388Y-110486388D01*
X91284888Y-110378468D01*
X91434912Y-110298279D01*
X91477273Y-110285429D01*
X91597705Y-110248896D01*
X91682288Y-110240565D01*
X91724579Y-110236400D01*
X91809421Y-110236400D01*
X91851712Y-110240565D01*
X91851712Y-110240565D01*
G37*
G36*
X89311712Y-110240565D02*
X89396295Y-110248896D01*
X89516727Y-110285429D01*
X89559088Y-110298279D01*
X89709112Y-110378468D01*
X89840612Y-110486388D01*
X89948532Y-110617888D01*
X90028721Y-110767912D01*
X90028722Y-110767916D01*
X90078104Y-110930705D01*
X90094778Y-111100000D01*
X90078104Y-111269295D01*
X90041571Y-111389727D01*
X90028721Y-111432088D01*
X89948532Y-111582112D01*
X89840612Y-111713612D01*
X89709112Y-111821532D01*
X89559088Y-111901721D01*
X89516727Y-111914571D01*
X89396295Y-111951104D01*
X89311712Y-111959435D01*
X89269421Y-111963600D01*
X89184579Y-111963600D01*
X89142288Y-111959435D01*
X89057705Y-111951104D01*
X88937273Y-111914571D01*
X88894912Y-111901721D01*
X88744888Y-111821532D01*
X88613388Y-111713612D01*
X88505468Y-111582112D01*
X88425279Y-111432088D01*
X88412429Y-111389727D01*
X88375896Y-111269295D01*
X88359222Y-111100000D01*
X88375896Y-110930705D01*
X88425278Y-110767916D01*
X88425279Y-110767912D01*
X88505468Y-110617888D01*
X88613388Y-110486388D01*
X88744888Y-110378468D01*
X88894912Y-110298279D01*
X88937273Y-110285429D01*
X89057705Y-110248896D01*
X89142288Y-110240565D01*
X89184579Y-110236400D01*
X89269421Y-110236400D01*
X89311712Y-110240565D01*
X89311712Y-110240565D01*
G37*
G36*
X161140935Y-104438429D02*
X161237534Y-104457644D01*
X161510517Y-104570717D01*
X161752920Y-104732687D01*
X161756197Y-104734876D01*
X161965124Y-104943803D01*
X162129284Y-105189485D01*
X162242356Y-105462467D01*
X162300000Y-105752261D01*
X162300000Y-106047739D01*
X162242356Y-106337533D01*
X162129284Y-106610515D01*
X161965124Y-106856197D01*
X161756197Y-107065124D01*
X161756194Y-107065126D01*
X161510517Y-107229283D01*
X161237534Y-107342356D01*
X161140935Y-107361571D01*
X160947739Y-107400000D01*
X160652261Y-107400000D01*
X160459065Y-107361571D01*
X160362466Y-107342356D01*
X160089483Y-107229283D01*
X159843806Y-107065126D01*
X159843803Y-107065124D01*
X159634876Y-106856197D01*
X159470716Y-106610515D01*
X159357644Y-106337533D01*
X159300000Y-106047739D01*
X159300000Y-105752261D01*
X159357644Y-105462467D01*
X159470716Y-105189485D01*
X159634876Y-104943803D01*
X159843803Y-104734876D01*
X159847080Y-104732687D01*
X160089483Y-104570717D01*
X160362466Y-104457644D01*
X160459065Y-104438429D01*
X160652261Y-104400000D01*
X160947739Y-104400000D01*
X161140935Y-104438429D01*
X161140935Y-104438429D01*
G37*
G36*
X105140935Y-104438429D02*
X105237534Y-104457644D01*
X105510517Y-104570717D01*
X105752920Y-104732687D01*
X105756197Y-104734876D01*
X105965124Y-104943803D01*
X106129284Y-105189485D01*
X106242356Y-105462467D01*
X106300000Y-105752261D01*
X106300000Y-106047739D01*
X106242356Y-106337533D01*
X106129284Y-106610515D01*
X105965124Y-106856197D01*
X105756197Y-107065124D01*
X105756194Y-107065126D01*
X105510517Y-107229283D01*
X105237534Y-107342356D01*
X105140935Y-107361571D01*
X104947739Y-107400000D01*
X104652261Y-107400000D01*
X104459065Y-107361571D01*
X104362466Y-107342356D01*
X104089483Y-107229283D01*
X103843806Y-107065126D01*
X103843803Y-107065124D01*
X103634876Y-106856197D01*
X103470716Y-106610515D01*
X103357644Y-106337533D01*
X103300000Y-106047739D01*
X103300000Y-105752261D01*
X103357644Y-105462467D01*
X103470716Y-105189485D01*
X103634876Y-104943803D01*
X103843803Y-104734876D01*
X103847080Y-104732687D01*
X104089483Y-104570717D01*
X104362466Y-104457644D01*
X104459065Y-104438429D01*
X104652261Y-104400000D01*
X104947739Y-104400000D01*
X105140935Y-104438429D01*
X105140935Y-104438429D01*
G37*
G36*
X139904183Y-97326900D02*
X140031574Y-97379668D01*
X140084685Y-97415155D01*
X140146225Y-97456275D01*
X140243725Y-97553775D01*
X140320332Y-97668426D01*
X140373100Y-97795817D01*
X140400000Y-97931055D01*
X140400000Y-98068945D01*
X140373100Y-98204183D01*
X140320332Y-98331574D01*
X140243726Y-98446224D01*
X140146224Y-98543726D01*
X140031574Y-98620332D01*
X139904183Y-98673100D01*
X139768945Y-98700000D01*
X139631055Y-98700000D01*
X139495817Y-98673100D01*
X139368426Y-98620332D01*
X139253776Y-98543726D01*
X139156274Y-98446224D01*
X139079668Y-98331574D01*
X139026900Y-98204183D01*
X139000000Y-98068945D01*
X139000000Y-97931055D01*
X139026900Y-97795817D01*
X139079668Y-97668426D01*
X139156275Y-97553775D01*
X139253775Y-97456275D01*
X139315316Y-97415155D01*
X139368426Y-97379668D01*
X139495817Y-97326900D01*
X139631055Y-97300000D01*
X139768945Y-97300000D01*
X139904183Y-97326900D01*
X139904183Y-97326900D01*
G37*
G36*
X147457224Y-97310128D02*
X147589175Y-97350155D01*
X147710781Y-97415155D01*
X147817370Y-97502630D01*
X147904845Y-97609219D01*
X147969845Y-97730825D01*
X148009872Y-97862776D01*
X148023387Y-98000000D01*
X148009872Y-98137224D01*
X147969845Y-98269175D01*
X147904845Y-98390781D01*
X147817370Y-98497370D01*
X147710781Y-98584845D01*
X147589175Y-98649845D01*
X147457224Y-98689872D01*
X147354390Y-98700000D01*
X147285610Y-98700000D01*
X147182776Y-98689872D01*
X147050825Y-98649845D01*
X146929219Y-98584845D01*
X146822630Y-98497370D01*
X146735155Y-98390781D01*
X146670155Y-98269175D01*
X146630128Y-98137224D01*
X146616613Y-98000000D01*
X146630128Y-97862776D01*
X146670155Y-97730825D01*
X146735155Y-97609219D01*
X146822630Y-97502630D01*
X146929219Y-97415155D01*
X147050825Y-97350155D01*
X147182776Y-97310128D01*
X147285610Y-97300000D01*
X147354390Y-97300000D01*
X147457224Y-97310128D01*
X147457224Y-97310128D01*
G37*
G36*
X92106703Y-91781486D02*
X92397883Y-91902097D01*
X92659944Y-92077201D01*
X92882799Y-92300056D01*
X93057903Y-92562117D01*
X93178514Y-92853297D01*
X93240000Y-93162412D01*
X93240000Y-93477588D01*
X93178514Y-93786703D01*
X93057903Y-94077883D01*
X92882799Y-94339944D01*
X92659944Y-94562799D01*
X92397883Y-94737903D01*
X92106703Y-94858514D01*
X91797588Y-94920000D01*
X91482412Y-94920000D01*
X91173297Y-94858514D01*
X90882117Y-94737903D01*
X90620056Y-94562799D01*
X90397201Y-94339944D01*
X90222097Y-94077883D01*
X90101486Y-93786703D01*
X90040000Y-93477588D01*
X90040000Y-93162412D01*
X90101486Y-92853297D01*
X90222097Y-92562117D01*
X90397201Y-92300056D01*
X90620056Y-92077201D01*
X90882117Y-91902097D01*
X91173297Y-91781486D01*
X91482412Y-91720000D01*
X91797588Y-91720000D01*
X92106703Y-91781486D01*
X92106703Y-91781486D01*
G37*
G36*
X116265888Y-91654470D02*
X116446274Y-91690350D01*
X116637362Y-91769502D01*
X116809336Y-91884411D01*
X116955589Y-92030664D01*
X117070498Y-92202638D01*
X117149650Y-92393726D01*
X117190000Y-92596584D01*
X117190000Y-92803416D01*
X117149650Y-93006274D01*
X117070498Y-93197362D01*
X116955589Y-93369336D01*
X116809336Y-93515589D01*
X116637362Y-93630498D01*
X116446274Y-93709650D01*
X116265888Y-93745530D01*
X116243417Y-93750000D01*
X116036583Y-93750000D01*
X116014112Y-93745530D01*
X115833726Y-93709650D01*
X115642638Y-93630498D01*
X115470664Y-93515589D01*
X115324411Y-93369336D01*
X115209502Y-93197362D01*
X115130350Y-93006274D01*
X115090000Y-92803416D01*
X115090000Y-92596584D01*
X115130350Y-92393726D01*
X115209502Y-92202638D01*
X115324411Y-92030664D01*
X115470664Y-91884411D01*
X115642638Y-91769502D01*
X115833726Y-91690350D01*
X116014112Y-91654470D01*
X116036583Y-91650000D01*
X116243417Y-91650000D01*
X116265888Y-91654470D01*
X116265888Y-91654470D01*
G37*
G36*
X114650000Y-93750000D02*
X112550000Y-93750000D01*
X112550000Y-91650000D01*
X114650000Y-91650000D01*
X114650000Y-93750000D01*
X114650000Y-93750000D01*
G37*
G36*
X40036703Y-86701486D02*
X40327883Y-86822097D01*
X40589944Y-86997201D01*
X40812799Y-87220056D01*
X40987903Y-87482117D01*
X41108514Y-87773297D01*
X41170000Y-88082412D01*
X41170000Y-88397588D01*
X41108514Y-88706703D01*
X40987903Y-88997883D01*
X40812799Y-89259944D01*
X40589944Y-89482799D01*
X40327883Y-89657903D01*
X40036703Y-89778514D01*
X39727588Y-89840000D01*
X39412412Y-89840000D01*
X39103297Y-89778514D01*
X38812117Y-89657903D01*
X38550056Y-89482799D01*
X38327201Y-89259944D01*
X38152097Y-88997883D01*
X38031486Y-88706703D01*
X37970000Y-88397588D01*
X37970000Y-88082412D01*
X38031486Y-87773297D01*
X38152097Y-87482117D01*
X38327201Y-87220056D01*
X38550056Y-86997201D01*
X38812117Y-86822097D01*
X39103297Y-86701486D01*
X39412412Y-86640000D01*
X39727588Y-86640000D01*
X40036703Y-86701486D01*
X40036703Y-86701486D01*
G37*
G36*
X56164712Y-87380565D02*
X56249295Y-87388896D01*
X56369727Y-87425429D01*
X56412088Y-87438279D01*
X56562112Y-87518468D01*
X56693612Y-87626388D01*
X56801532Y-87757888D01*
X56881721Y-87907912D01*
X56881722Y-87907916D01*
X56931104Y-88070705D01*
X56947778Y-88240000D01*
X56931104Y-88409295D01*
X56894571Y-88529727D01*
X56881721Y-88572088D01*
X56801532Y-88722112D01*
X56693612Y-88853612D01*
X56562112Y-88961532D01*
X56412088Y-89041721D01*
X56369727Y-89054571D01*
X56249295Y-89091104D01*
X56164712Y-89099435D01*
X56122421Y-89103600D01*
X56037579Y-89103600D01*
X55995288Y-89099435D01*
X55910705Y-89091104D01*
X55790273Y-89054571D01*
X55747912Y-89041721D01*
X55597888Y-88961532D01*
X55466388Y-88853612D01*
X55358468Y-88722112D01*
X55278279Y-88572088D01*
X55265429Y-88529727D01*
X55228896Y-88409295D01*
X55212222Y-88240000D01*
X55228896Y-88070705D01*
X55278278Y-87907916D01*
X55278279Y-87907912D01*
X55358468Y-87757888D01*
X55466388Y-87626388D01*
X55597888Y-87518468D01*
X55747912Y-87438279D01*
X55790273Y-87425429D01*
X55910705Y-87388896D01*
X55995288Y-87380565D01*
X56037579Y-87376400D01*
X56122421Y-87376400D01*
X56164712Y-87380565D01*
X56164712Y-87380565D01*
G37*
G36*
X58704712Y-87380565D02*
X58789295Y-87388896D01*
X58909727Y-87425429D01*
X58952088Y-87438279D01*
X59102112Y-87518468D01*
X59233612Y-87626388D01*
X59341532Y-87757888D01*
X59421721Y-87907912D01*
X59421722Y-87907916D01*
X59471104Y-88070705D01*
X59487778Y-88240000D01*
X59471104Y-88409295D01*
X59434571Y-88529727D01*
X59421721Y-88572088D01*
X59341532Y-88722112D01*
X59233612Y-88853612D01*
X59102112Y-88961532D01*
X58952088Y-89041721D01*
X58909727Y-89054571D01*
X58789295Y-89091104D01*
X58704712Y-89099435D01*
X58662421Y-89103600D01*
X58577579Y-89103600D01*
X58535288Y-89099435D01*
X58450705Y-89091104D01*
X58330273Y-89054571D01*
X58287912Y-89041721D01*
X58137888Y-88961532D01*
X58006388Y-88853612D01*
X57898468Y-88722112D01*
X57818279Y-88572088D01*
X57805429Y-88529727D01*
X57768896Y-88409295D01*
X57752222Y-88240000D01*
X57768896Y-88070705D01*
X57818278Y-87907916D01*
X57818279Y-87907912D01*
X57898468Y-87757888D01*
X58006388Y-87626388D01*
X58137888Y-87518468D01*
X58287912Y-87438279D01*
X58330273Y-87425429D01*
X58450705Y-87388896D01*
X58535288Y-87380565D01*
X58577579Y-87376400D01*
X58662421Y-87376400D01*
X58704712Y-87380565D01*
X58704712Y-87380565D01*
G37*
G36*
X61244712Y-87380565D02*
X61329295Y-87388896D01*
X61449727Y-87425429D01*
X61492088Y-87438279D01*
X61642112Y-87518468D01*
X61773612Y-87626388D01*
X61881532Y-87757888D01*
X61961721Y-87907912D01*
X61961722Y-87907916D01*
X62011104Y-88070705D01*
X62027778Y-88240000D01*
X62011104Y-88409295D01*
X61974571Y-88529727D01*
X61961721Y-88572088D01*
X61881532Y-88722112D01*
X61773612Y-88853612D01*
X61642112Y-88961532D01*
X61492088Y-89041721D01*
X61449727Y-89054571D01*
X61329295Y-89091104D01*
X61244712Y-89099435D01*
X61202421Y-89103600D01*
X61117579Y-89103600D01*
X61075288Y-89099435D01*
X60990705Y-89091104D01*
X60870273Y-89054571D01*
X60827912Y-89041721D01*
X60677888Y-88961532D01*
X60546388Y-88853612D01*
X60438468Y-88722112D01*
X60358279Y-88572088D01*
X60345429Y-88529727D01*
X60308896Y-88409295D01*
X60292222Y-88240000D01*
X60308896Y-88070705D01*
X60358278Y-87907916D01*
X60358279Y-87907912D01*
X60438468Y-87757888D01*
X60546388Y-87626388D01*
X60677888Y-87518468D01*
X60827912Y-87438279D01*
X60870273Y-87425429D01*
X60990705Y-87388896D01*
X61075288Y-87380565D01*
X61117579Y-87376400D01*
X61202421Y-87376400D01*
X61244712Y-87380565D01*
X61244712Y-87380565D01*
G37*
G36*
X63784712Y-87380565D02*
X63869295Y-87388896D01*
X63989727Y-87425429D01*
X64032088Y-87438279D01*
X64182112Y-87518468D01*
X64313612Y-87626388D01*
X64421532Y-87757888D01*
X64501721Y-87907912D01*
X64501722Y-87907916D01*
X64551104Y-88070705D01*
X64567778Y-88240000D01*
X64551104Y-88409295D01*
X64514571Y-88529727D01*
X64501721Y-88572088D01*
X64421532Y-88722112D01*
X64313612Y-88853612D01*
X64182112Y-88961532D01*
X64032088Y-89041721D01*
X63989727Y-89054571D01*
X63869295Y-89091104D01*
X63784712Y-89099435D01*
X63742421Y-89103600D01*
X63657579Y-89103600D01*
X63615288Y-89099435D01*
X63530705Y-89091104D01*
X63410273Y-89054571D01*
X63367912Y-89041721D01*
X63217888Y-88961532D01*
X63086388Y-88853612D01*
X62978468Y-88722112D01*
X62898279Y-88572088D01*
X62885429Y-88529727D01*
X62848896Y-88409295D01*
X62832222Y-88240000D01*
X62848896Y-88070705D01*
X62898278Y-87907916D01*
X62898279Y-87907912D01*
X62978468Y-87757888D01*
X63086388Y-87626388D01*
X63217888Y-87518468D01*
X63367912Y-87438279D01*
X63410273Y-87425429D01*
X63530705Y-87388896D01*
X63615288Y-87380565D01*
X63657579Y-87376400D01*
X63742421Y-87376400D01*
X63784712Y-87380565D01*
X63784712Y-87380565D01*
G37*
G36*
X68864712Y-87380565D02*
X68949295Y-87388896D01*
X69069727Y-87425429D01*
X69112088Y-87438279D01*
X69262112Y-87518468D01*
X69393612Y-87626388D01*
X69501532Y-87757888D01*
X69581721Y-87907912D01*
X69581722Y-87907916D01*
X69631104Y-88070705D01*
X69647778Y-88240000D01*
X69631104Y-88409295D01*
X69594571Y-88529727D01*
X69581721Y-88572088D01*
X69501532Y-88722112D01*
X69393612Y-88853612D01*
X69262112Y-88961532D01*
X69112088Y-89041721D01*
X69069727Y-89054571D01*
X68949295Y-89091104D01*
X68864712Y-89099435D01*
X68822421Y-89103600D01*
X68737579Y-89103600D01*
X68695288Y-89099435D01*
X68610705Y-89091104D01*
X68490273Y-89054571D01*
X68447912Y-89041721D01*
X68297888Y-88961532D01*
X68166388Y-88853612D01*
X68058468Y-88722112D01*
X67978279Y-88572088D01*
X67965429Y-88529727D01*
X67928896Y-88409295D01*
X67912222Y-88240000D01*
X67928896Y-88070705D01*
X67978278Y-87907916D01*
X67978279Y-87907912D01*
X68058468Y-87757888D01*
X68166388Y-87626388D01*
X68297888Y-87518468D01*
X68447912Y-87438279D01*
X68490273Y-87425429D01*
X68610705Y-87388896D01*
X68695288Y-87380565D01*
X68737579Y-87376400D01*
X68822421Y-87376400D01*
X68864712Y-87380565D01*
X68864712Y-87380565D01*
G37*
G36*
X71404712Y-87380565D02*
X71489295Y-87388896D01*
X71609727Y-87425429D01*
X71652088Y-87438279D01*
X71802112Y-87518468D01*
X71933612Y-87626388D01*
X72041532Y-87757888D01*
X72121721Y-87907912D01*
X72121722Y-87907916D01*
X72171104Y-88070705D01*
X72187778Y-88240000D01*
X72171104Y-88409295D01*
X72134571Y-88529727D01*
X72121721Y-88572088D01*
X72041532Y-88722112D01*
X71933612Y-88853612D01*
X71802112Y-88961532D01*
X71652088Y-89041721D01*
X71609727Y-89054571D01*
X71489295Y-89091104D01*
X71404712Y-89099435D01*
X71362421Y-89103600D01*
X71277579Y-89103600D01*
X71235288Y-89099435D01*
X71150705Y-89091104D01*
X71030273Y-89054571D01*
X70987912Y-89041721D01*
X70837888Y-88961532D01*
X70706388Y-88853612D01*
X70598468Y-88722112D01*
X70518279Y-88572088D01*
X70505429Y-88529727D01*
X70468896Y-88409295D01*
X70452222Y-88240000D01*
X70468896Y-88070705D01*
X70518278Y-87907916D01*
X70518279Y-87907912D01*
X70598468Y-87757888D01*
X70706388Y-87626388D01*
X70837888Y-87518468D01*
X70987912Y-87438279D01*
X71030273Y-87425429D01*
X71150705Y-87388896D01*
X71235288Y-87380565D01*
X71277579Y-87376400D01*
X71362421Y-87376400D01*
X71404712Y-87380565D01*
X71404712Y-87380565D01*
G37*
G36*
X76484712Y-87380565D02*
X76569295Y-87388896D01*
X76689727Y-87425429D01*
X76732088Y-87438279D01*
X76882112Y-87518468D01*
X77013612Y-87626388D01*
X77121532Y-87757888D01*
X77201721Y-87907912D01*
X77201722Y-87907916D01*
X77251104Y-88070705D01*
X77267778Y-88240000D01*
X77251104Y-88409295D01*
X77214571Y-88529727D01*
X77201721Y-88572088D01*
X77121532Y-88722112D01*
X77013612Y-88853612D01*
X76882112Y-88961532D01*
X76732088Y-89041721D01*
X76689727Y-89054571D01*
X76569295Y-89091104D01*
X76484712Y-89099435D01*
X76442421Y-89103600D01*
X76357579Y-89103600D01*
X76315288Y-89099435D01*
X76230705Y-89091104D01*
X76110273Y-89054571D01*
X76067912Y-89041721D01*
X75917888Y-88961532D01*
X75786388Y-88853612D01*
X75678468Y-88722112D01*
X75598279Y-88572088D01*
X75585429Y-88529727D01*
X75548896Y-88409295D01*
X75532222Y-88240000D01*
X75548896Y-88070705D01*
X75598278Y-87907916D01*
X75598279Y-87907912D01*
X75678468Y-87757888D01*
X75786388Y-87626388D01*
X75917888Y-87518468D01*
X76067912Y-87438279D01*
X76110273Y-87425429D01*
X76230705Y-87388896D01*
X76315288Y-87380565D01*
X76357579Y-87376400D01*
X76442421Y-87376400D01*
X76484712Y-87380565D01*
X76484712Y-87380565D01*
G37*
G36*
X79024712Y-87380565D02*
X79109295Y-87388896D01*
X79229727Y-87425429D01*
X79272088Y-87438279D01*
X79422112Y-87518468D01*
X79553612Y-87626388D01*
X79661532Y-87757888D01*
X79741721Y-87907912D01*
X79741722Y-87907916D01*
X79791104Y-88070705D01*
X79807778Y-88240000D01*
X79791104Y-88409295D01*
X79754571Y-88529727D01*
X79741721Y-88572088D01*
X79661532Y-88722112D01*
X79553612Y-88853612D01*
X79422112Y-88961532D01*
X79272088Y-89041721D01*
X79229727Y-89054571D01*
X79109295Y-89091104D01*
X79024712Y-89099435D01*
X78982421Y-89103600D01*
X78897579Y-89103600D01*
X78855288Y-89099435D01*
X78770705Y-89091104D01*
X78650273Y-89054571D01*
X78607912Y-89041721D01*
X78457888Y-88961532D01*
X78326388Y-88853612D01*
X78218468Y-88722112D01*
X78138279Y-88572088D01*
X78125429Y-88529727D01*
X78088896Y-88409295D01*
X78072222Y-88240000D01*
X78088896Y-88070705D01*
X78138278Y-87907916D01*
X78138279Y-87907912D01*
X78218468Y-87757888D01*
X78326388Y-87626388D01*
X78457888Y-87518468D01*
X78607912Y-87438279D01*
X78650273Y-87425429D01*
X78770705Y-87388896D01*
X78855288Y-87380565D01*
X78897579Y-87376400D01*
X78982421Y-87376400D01*
X79024712Y-87380565D01*
X79024712Y-87380565D01*
G37*
G36*
X53624712Y-87380565D02*
X53709295Y-87388896D01*
X53829727Y-87425429D01*
X53872088Y-87438279D01*
X54022112Y-87518468D01*
X54153612Y-87626388D01*
X54261532Y-87757888D01*
X54341721Y-87907912D01*
X54341722Y-87907916D01*
X54391104Y-88070705D01*
X54407778Y-88240000D01*
X54391104Y-88409295D01*
X54354571Y-88529727D01*
X54341721Y-88572088D01*
X54261532Y-88722112D01*
X54153612Y-88853612D01*
X54022112Y-88961532D01*
X53872088Y-89041721D01*
X53829727Y-89054571D01*
X53709295Y-89091104D01*
X53624712Y-89099435D01*
X53582421Y-89103600D01*
X53497579Y-89103600D01*
X53455288Y-89099435D01*
X53370705Y-89091104D01*
X53250273Y-89054571D01*
X53207912Y-89041721D01*
X53057888Y-88961532D01*
X52926388Y-88853612D01*
X52818468Y-88722112D01*
X52738279Y-88572088D01*
X52725429Y-88529727D01*
X52688896Y-88409295D01*
X52672222Y-88240000D01*
X52688896Y-88070705D01*
X52738278Y-87907916D01*
X52738279Y-87907912D01*
X52818468Y-87757888D01*
X52926388Y-87626388D01*
X53057888Y-87518468D01*
X53207912Y-87438279D01*
X53250273Y-87425429D01*
X53370705Y-87388896D01*
X53455288Y-87380565D01*
X53497579Y-87376400D01*
X53582421Y-87376400D01*
X53624712Y-87380565D01*
X53624712Y-87380565D01*
G37*
G36*
X66324712Y-87380565D02*
X66409295Y-87388896D01*
X66529727Y-87425429D01*
X66572088Y-87438279D01*
X66722112Y-87518468D01*
X66853612Y-87626388D01*
X66961532Y-87757888D01*
X67041721Y-87907912D01*
X67041722Y-87907916D01*
X67091104Y-88070705D01*
X67107778Y-88240000D01*
X67091104Y-88409295D01*
X67054571Y-88529727D01*
X67041721Y-88572088D01*
X66961532Y-88722112D01*
X66853612Y-88853612D01*
X66722112Y-88961532D01*
X66572088Y-89041721D01*
X66529727Y-89054571D01*
X66409295Y-89091104D01*
X66324712Y-89099435D01*
X66282421Y-89103600D01*
X66197579Y-89103600D01*
X66155288Y-89099435D01*
X66070705Y-89091104D01*
X65950273Y-89054571D01*
X65907912Y-89041721D01*
X65757888Y-88961532D01*
X65626388Y-88853612D01*
X65518468Y-88722112D01*
X65438279Y-88572088D01*
X65425429Y-88529727D01*
X65388896Y-88409295D01*
X65372222Y-88240000D01*
X65388896Y-88070705D01*
X65438278Y-87907916D01*
X65438279Y-87907912D01*
X65518468Y-87757888D01*
X65626388Y-87626388D01*
X65757888Y-87518468D01*
X65907912Y-87438279D01*
X65950273Y-87425429D01*
X66070705Y-87388896D01*
X66155288Y-87380565D01*
X66197579Y-87376400D01*
X66282421Y-87376400D01*
X66324712Y-87380565D01*
X66324712Y-87380565D01*
G37*
G36*
X89184712Y-87380565D02*
X89269295Y-87388896D01*
X89389727Y-87425429D01*
X89432088Y-87438279D01*
X89582112Y-87518468D01*
X89713612Y-87626388D01*
X89821532Y-87757888D01*
X89901721Y-87907912D01*
X89901722Y-87907916D01*
X89951104Y-88070705D01*
X89967778Y-88240000D01*
X89951104Y-88409295D01*
X89914571Y-88529727D01*
X89901721Y-88572088D01*
X89821532Y-88722112D01*
X89713612Y-88853612D01*
X89582112Y-88961532D01*
X89432088Y-89041721D01*
X89389727Y-89054571D01*
X89269295Y-89091104D01*
X89184712Y-89099435D01*
X89142421Y-89103600D01*
X89057579Y-89103600D01*
X89015288Y-89099435D01*
X88930705Y-89091104D01*
X88810273Y-89054571D01*
X88767912Y-89041721D01*
X88617888Y-88961532D01*
X88486388Y-88853612D01*
X88378468Y-88722112D01*
X88298279Y-88572088D01*
X88285429Y-88529727D01*
X88248896Y-88409295D01*
X88232222Y-88240000D01*
X88248896Y-88070705D01*
X88298278Y-87907916D01*
X88298279Y-87907912D01*
X88378468Y-87757888D01*
X88486388Y-87626388D01*
X88617888Y-87518468D01*
X88767912Y-87438279D01*
X88810273Y-87425429D01*
X88930705Y-87388896D01*
X89015288Y-87380565D01*
X89057579Y-87376400D01*
X89142421Y-87376400D01*
X89184712Y-87380565D01*
X89184712Y-87380565D01*
G37*
G36*
X84104712Y-87380565D02*
X84189295Y-87388896D01*
X84309727Y-87425429D01*
X84352088Y-87438279D01*
X84502112Y-87518468D01*
X84633612Y-87626388D01*
X84741532Y-87757888D01*
X84821721Y-87907912D01*
X84821722Y-87907916D01*
X84871104Y-88070705D01*
X84887778Y-88240000D01*
X84871104Y-88409295D01*
X84834571Y-88529727D01*
X84821721Y-88572088D01*
X84741532Y-88722112D01*
X84633612Y-88853612D01*
X84502112Y-88961532D01*
X84352088Y-89041721D01*
X84309727Y-89054571D01*
X84189295Y-89091104D01*
X84104712Y-89099435D01*
X84062421Y-89103600D01*
X83977579Y-89103600D01*
X83935288Y-89099435D01*
X83850705Y-89091104D01*
X83730273Y-89054571D01*
X83687912Y-89041721D01*
X83537888Y-88961532D01*
X83406388Y-88853612D01*
X83298468Y-88722112D01*
X83218279Y-88572088D01*
X83205429Y-88529727D01*
X83168896Y-88409295D01*
X83152222Y-88240000D01*
X83168896Y-88070705D01*
X83218278Y-87907916D01*
X83218279Y-87907912D01*
X83298468Y-87757888D01*
X83406388Y-87626388D01*
X83537888Y-87518468D01*
X83687912Y-87438279D01*
X83730273Y-87425429D01*
X83850705Y-87388896D01*
X83935288Y-87380565D01*
X83977579Y-87376400D01*
X84062421Y-87376400D01*
X84104712Y-87380565D01*
X84104712Y-87380565D01*
G37*
G36*
X81564712Y-87380565D02*
X81649295Y-87388896D01*
X81769727Y-87425429D01*
X81812088Y-87438279D01*
X81962112Y-87518468D01*
X82093612Y-87626388D01*
X82201532Y-87757888D01*
X82281721Y-87907912D01*
X82281722Y-87907916D01*
X82331104Y-88070705D01*
X82347778Y-88240000D01*
X82331104Y-88409295D01*
X82294571Y-88529727D01*
X82281721Y-88572088D01*
X82201532Y-88722112D01*
X82093612Y-88853612D01*
X81962112Y-88961532D01*
X81812088Y-89041721D01*
X81769727Y-89054571D01*
X81649295Y-89091104D01*
X81564712Y-89099435D01*
X81522421Y-89103600D01*
X81437579Y-89103600D01*
X81395288Y-89099435D01*
X81310705Y-89091104D01*
X81190273Y-89054571D01*
X81147912Y-89041721D01*
X80997888Y-88961532D01*
X80866388Y-88853612D01*
X80758468Y-88722112D01*
X80678279Y-88572088D01*
X80665429Y-88529727D01*
X80628896Y-88409295D01*
X80612222Y-88240000D01*
X80628896Y-88070705D01*
X80678278Y-87907916D01*
X80678279Y-87907912D01*
X80758468Y-87757888D01*
X80866388Y-87626388D01*
X80997888Y-87518468D01*
X81147912Y-87438279D01*
X81190273Y-87425429D01*
X81310705Y-87388896D01*
X81395288Y-87380565D01*
X81437579Y-87376400D01*
X81522421Y-87376400D01*
X81564712Y-87380565D01*
X81564712Y-87380565D01*
G37*
G36*
X86644712Y-87380565D02*
X86729295Y-87388896D01*
X86849727Y-87425429D01*
X86892088Y-87438279D01*
X87042112Y-87518468D01*
X87173612Y-87626388D01*
X87281532Y-87757888D01*
X87361721Y-87907912D01*
X87361722Y-87907916D01*
X87411104Y-88070705D01*
X87427778Y-88240000D01*
X87411104Y-88409295D01*
X87374571Y-88529727D01*
X87361721Y-88572088D01*
X87281532Y-88722112D01*
X87173612Y-88853612D01*
X87042112Y-88961532D01*
X86892088Y-89041721D01*
X86849727Y-89054571D01*
X86729295Y-89091104D01*
X86644712Y-89099435D01*
X86602421Y-89103600D01*
X86517579Y-89103600D01*
X86475288Y-89099435D01*
X86390705Y-89091104D01*
X86270273Y-89054571D01*
X86227912Y-89041721D01*
X86077888Y-88961532D01*
X85946388Y-88853612D01*
X85838468Y-88722112D01*
X85758279Y-88572088D01*
X85745429Y-88529727D01*
X85708896Y-88409295D01*
X85692222Y-88240000D01*
X85708896Y-88070705D01*
X85758278Y-87907916D01*
X85758279Y-87907912D01*
X85838468Y-87757888D01*
X85946388Y-87626388D01*
X86077888Y-87518468D01*
X86227912Y-87438279D01*
X86270273Y-87425429D01*
X86390705Y-87388896D01*
X86475288Y-87380565D01*
X86517579Y-87376400D01*
X86602421Y-87376400D01*
X86644712Y-87380565D01*
X86644712Y-87380565D01*
G37*
G36*
X147457224Y-86910128D02*
X147589175Y-86950155D01*
X147710781Y-87015155D01*
X147817370Y-87102630D01*
X147904845Y-87209219D01*
X147969845Y-87330825D01*
X148009872Y-87462776D01*
X148023387Y-87600000D01*
X148009872Y-87737224D01*
X147969845Y-87869175D01*
X147904845Y-87990781D01*
X147817370Y-88097370D01*
X147710781Y-88184845D01*
X147589175Y-88249845D01*
X147457224Y-88289872D01*
X147354390Y-88300000D01*
X147285610Y-88300000D01*
X147182776Y-88289872D01*
X147050825Y-88249845D01*
X146929219Y-88184845D01*
X146822630Y-88097370D01*
X146735155Y-87990781D01*
X146670155Y-87869175D01*
X146630128Y-87737224D01*
X146616613Y-87600000D01*
X146630128Y-87462776D01*
X146670155Y-87330825D01*
X146735155Y-87209219D01*
X146822630Y-87102630D01*
X146929219Y-87015155D01*
X147050825Y-86950155D01*
X147182776Y-86910128D01*
X147285610Y-86900000D01*
X147354390Y-86900000D01*
X147457224Y-86910128D01*
X147457224Y-86910128D01*
G37*
G36*
X139904183Y-86926900D02*
X140031574Y-86979668D01*
X140084685Y-87015155D01*
X140146225Y-87056275D01*
X140243725Y-87153775D01*
X140320332Y-87268426D01*
X140373100Y-87395817D01*
X140400000Y-87531055D01*
X140400000Y-87668945D01*
X140373100Y-87804183D01*
X140320332Y-87931574D01*
X140243726Y-88046224D01*
X140146224Y-88143726D01*
X140031574Y-88220332D01*
X139904183Y-88273100D01*
X139768945Y-88300000D01*
X139631055Y-88300000D01*
X139495817Y-88273100D01*
X139368426Y-88220332D01*
X139253776Y-88143726D01*
X139156274Y-88046224D01*
X139079668Y-87931574D01*
X139026900Y-87804183D01*
X139000000Y-87668945D01*
X139000000Y-87531055D01*
X139026900Y-87395817D01*
X139079668Y-87268426D01*
X139156275Y-87153775D01*
X139253775Y-87056275D01*
X139315316Y-87015155D01*
X139368426Y-86979668D01*
X139495817Y-86926900D01*
X139631055Y-86900000D01*
X139768945Y-86900000D01*
X139904183Y-86926900D01*
X139904183Y-86926900D01*
G37*
G36*
X103506870Y-74376859D02*
X103700068Y-74415288D01*
X104246033Y-74641434D01*
X104616990Y-74889300D01*
X104737392Y-74969750D01*
X105155250Y-75387608D01*
X105155252Y-75387611D01*
X105483566Y-75878967D01*
X105709712Y-76424932D01*
X105709712Y-76424933D01*
X105825000Y-77004524D01*
X105825000Y-77595476D01*
X105804209Y-77700000D01*
X105709712Y-78175068D01*
X105483566Y-78721033D01*
X105233221Y-79095700D01*
X105155250Y-79212392D01*
X104737392Y-79630250D01*
X104737389Y-79630252D01*
X104246033Y-79958566D01*
X103700068Y-80184712D01*
X103506870Y-80223141D01*
X103120476Y-80300000D01*
X102529524Y-80300000D01*
X102143130Y-80223141D01*
X101949932Y-80184712D01*
X101403967Y-79958566D01*
X100912611Y-79630252D01*
X100912608Y-79630250D01*
X100494750Y-79212392D01*
X100416779Y-79095700D01*
X100166434Y-78721033D01*
X99940288Y-78175068D01*
X99845791Y-77700000D01*
X99825000Y-77595476D01*
X99825000Y-77004524D01*
X99940288Y-76424933D01*
X99940288Y-76424932D01*
X100166434Y-75878967D01*
X100494748Y-75387611D01*
X100494750Y-75387608D01*
X100912608Y-74969750D01*
X101033010Y-74889300D01*
X101403967Y-74641434D01*
X101949932Y-74415288D01*
X102143130Y-74376859D01*
X102529524Y-74300000D01*
X103120476Y-74300000D01*
X103506870Y-74376859D01*
X103506870Y-74376859D01*
G37*
G36*
X76706870Y-74376859D02*
X76900068Y-74415288D01*
X77446033Y-74641434D01*
X77816990Y-74889300D01*
X77937392Y-74969750D01*
X78355250Y-75387608D01*
X78355252Y-75387611D01*
X78683566Y-75878967D01*
X78909712Y-76424932D01*
X78909712Y-76424933D01*
X79025000Y-77004524D01*
X79025000Y-77595476D01*
X79004209Y-77700000D01*
X78909712Y-78175068D01*
X78683566Y-78721033D01*
X78433221Y-79095700D01*
X78355250Y-79212392D01*
X77937392Y-79630250D01*
X77937389Y-79630252D01*
X77446033Y-79958566D01*
X76900068Y-80184712D01*
X76706870Y-80223141D01*
X76320476Y-80300000D01*
X75729524Y-80300000D01*
X75343130Y-80223141D01*
X75149932Y-80184712D01*
X74603967Y-79958566D01*
X74112611Y-79630252D01*
X74112608Y-79630250D01*
X73694750Y-79212392D01*
X73616779Y-79095700D01*
X73366434Y-78721033D01*
X73140288Y-78175068D01*
X73045791Y-77700000D01*
X73025000Y-77595476D01*
X73025000Y-77004524D01*
X73140288Y-76424933D01*
X73140288Y-76424932D01*
X73366434Y-75878967D01*
X73694748Y-75387611D01*
X73694750Y-75387608D01*
X74112608Y-74969750D01*
X74233010Y-74889300D01*
X74603967Y-74641434D01*
X75149932Y-74415288D01*
X75343130Y-74376859D01*
X75729524Y-74300000D01*
X76320476Y-74300000D01*
X76706870Y-74376859D01*
X76706870Y-74376859D01*
G37*
G36*
X134613755Y-74158337D02*
X134900068Y-74215288D01*
X135446033Y-74441434D01*
X135751476Y-74645525D01*
X135937392Y-74769750D01*
X136355250Y-75187608D01*
X136355252Y-75187611D01*
X136683566Y-75678967D01*
X136905598Y-76215000D01*
X136909712Y-76224933D01*
X137025000Y-76804524D01*
X137025000Y-77395476D01*
X136973482Y-77654475D01*
X136909712Y-77975068D01*
X136683566Y-78521033D01*
X136433221Y-78895700D01*
X136355250Y-79012392D01*
X135937392Y-79430250D01*
X135937389Y-79430252D01*
X135446033Y-79758566D01*
X134900068Y-79984712D01*
X134706870Y-80023141D01*
X134320476Y-80100000D01*
X133729524Y-80100000D01*
X133343130Y-80023141D01*
X133149932Y-79984712D01*
X132603967Y-79758566D01*
X132112611Y-79430252D01*
X132112608Y-79430250D01*
X131694750Y-79012392D01*
X131616779Y-78895700D01*
X131366434Y-78521033D01*
X131140288Y-77975068D01*
X131076518Y-77654475D01*
X131025000Y-77395476D01*
X131025000Y-76804524D01*
X131140288Y-76224933D01*
X131144402Y-76215000D01*
X131366434Y-75678967D01*
X131694748Y-75187611D01*
X131694750Y-75187608D01*
X132112608Y-74769750D01*
X132298524Y-74645525D01*
X132603967Y-74441434D01*
X133149932Y-74215288D01*
X133436245Y-74158337D01*
X133729524Y-74100000D01*
X134320476Y-74100000D01*
X134613755Y-74158337D01*
X134613755Y-74158337D01*
G37*
G36*
X161413755Y-74158337D02*
X161700068Y-74215288D01*
X162246033Y-74441434D01*
X162551476Y-74645525D01*
X162737392Y-74769750D01*
X163155250Y-75187608D01*
X163155252Y-75187611D01*
X163483566Y-75678967D01*
X163705598Y-76215000D01*
X163709712Y-76224933D01*
X163825000Y-76804524D01*
X163825000Y-77395476D01*
X163773482Y-77654475D01*
X163709712Y-77975068D01*
X163483566Y-78521033D01*
X163233221Y-78895700D01*
X163155250Y-79012392D01*
X162737392Y-79430250D01*
X162737389Y-79430252D01*
X162246033Y-79758566D01*
X161700068Y-79984712D01*
X161506870Y-80023141D01*
X161120476Y-80100000D01*
X160529524Y-80100000D01*
X160143130Y-80023141D01*
X159949932Y-79984712D01*
X159403967Y-79758566D01*
X158912611Y-79430252D01*
X158912608Y-79430250D01*
X158494750Y-79012392D01*
X158416779Y-78895700D01*
X158166434Y-78521033D01*
X157940288Y-77975068D01*
X157876518Y-77654475D01*
X157825000Y-77395476D01*
X157825000Y-76804524D01*
X157940288Y-76224933D01*
X157944402Y-76215000D01*
X158166434Y-75678967D01*
X158494748Y-75187611D01*
X158494750Y-75187608D01*
X158912608Y-74769750D01*
X159098524Y-74645525D01*
X159403967Y-74441434D01*
X159949932Y-74215288D01*
X160236245Y-74158337D01*
X160529524Y-74100000D01*
X161120476Y-74100000D01*
X161413755Y-74158337D01*
X161413755Y-74158337D01*
G37*
G36*
X51395845Y-76587215D02*
X51486839Y-76624906D01*
X51567640Y-76678896D01*
X51568734Y-76679627D01*
X51638373Y-76749266D01*
X51638375Y-76749269D01*
X51693094Y-76831161D01*
X51730785Y-76922155D01*
X51750000Y-77018754D01*
X51750000Y-77117246D01*
X51730785Y-77213845D01*
X51693094Y-77304839D01*
X51670003Y-77339397D01*
X51638373Y-77386734D01*
X51568734Y-77456373D01*
X51568731Y-77456375D01*
X51486839Y-77511094D01*
X51395845Y-77548785D01*
X51299246Y-77568000D01*
X51200754Y-77568000D01*
X51104155Y-77548785D01*
X51013161Y-77511094D01*
X50931269Y-77456375D01*
X50931266Y-77456373D01*
X50861627Y-77386734D01*
X50829997Y-77339397D01*
X50806906Y-77304839D01*
X50769215Y-77213845D01*
X50750000Y-77117246D01*
X50750000Y-77018754D01*
X50769215Y-76922155D01*
X50806906Y-76831161D01*
X50861625Y-76749269D01*
X50861627Y-76749266D01*
X50931266Y-76679627D01*
X50932360Y-76678896D01*
X51013161Y-76624906D01*
X51104155Y-76587215D01*
X51200754Y-76568000D01*
X51299246Y-76568000D01*
X51395845Y-76587215D01*
X51395845Y-76587215D01*
G37*
G36*
X46315845Y-76587215D02*
X46406839Y-76624906D01*
X46487640Y-76678896D01*
X46488734Y-76679627D01*
X46558373Y-76749266D01*
X46558375Y-76749269D01*
X46613094Y-76831161D01*
X46650785Y-76922155D01*
X46670000Y-77018754D01*
X46670000Y-77117246D01*
X46650785Y-77213845D01*
X46613094Y-77304839D01*
X46590003Y-77339397D01*
X46558373Y-77386734D01*
X46488734Y-77456373D01*
X46488731Y-77456375D01*
X46406839Y-77511094D01*
X46315845Y-77548785D01*
X46219246Y-77568000D01*
X46120754Y-77568000D01*
X46024155Y-77548785D01*
X45933161Y-77511094D01*
X45851269Y-77456375D01*
X45851266Y-77456373D01*
X45781627Y-77386734D01*
X45749997Y-77339397D01*
X45726906Y-77304839D01*
X45689215Y-77213845D01*
X45670000Y-77117246D01*
X45670000Y-77018754D01*
X45689215Y-76922155D01*
X45726906Y-76831161D01*
X45781625Y-76749269D01*
X45781627Y-76749266D01*
X45851266Y-76679627D01*
X45852360Y-76678896D01*
X45933161Y-76624906D01*
X46024155Y-76587215D01*
X46120754Y-76568000D01*
X46219246Y-76568000D01*
X46315845Y-76587215D01*
X46315845Y-76587215D01*
G37*
G36*
X48855845Y-76587215D02*
X48946839Y-76624906D01*
X49027640Y-76678896D01*
X49028734Y-76679627D01*
X49098373Y-76749266D01*
X49098375Y-76749269D01*
X49153094Y-76831161D01*
X49190785Y-76922155D01*
X49210000Y-77018754D01*
X49210000Y-77117246D01*
X49190785Y-77213845D01*
X49153094Y-77304839D01*
X49130003Y-77339397D01*
X49098373Y-77386734D01*
X49028734Y-77456373D01*
X49028731Y-77456375D01*
X48946839Y-77511094D01*
X48855845Y-77548785D01*
X48759246Y-77568000D01*
X48660754Y-77568000D01*
X48564155Y-77548785D01*
X48473161Y-77511094D01*
X48391269Y-77456375D01*
X48391266Y-77456373D01*
X48321627Y-77386734D01*
X48289997Y-77339397D01*
X48266906Y-77304839D01*
X48229215Y-77213845D01*
X48210000Y-77117246D01*
X48210000Y-77018754D01*
X48229215Y-76922155D01*
X48266906Y-76831161D01*
X48321625Y-76749269D01*
X48321627Y-76749266D01*
X48391266Y-76679627D01*
X48392360Y-76678896D01*
X48473161Y-76624906D01*
X48564155Y-76587215D01*
X48660754Y-76568000D01*
X48759246Y-76568000D01*
X48855845Y-76587215D01*
X48855845Y-76587215D01*
G37*
G36*
X43775845Y-76587215D02*
X43866839Y-76624906D01*
X43947640Y-76678896D01*
X43948734Y-76679627D01*
X44018373Y-76749266D01*
X44018375Y-76749269D01*
X44073094Y-76831161D01*
X44110785Y-76922155D01*
X44130000Y-77018754D01*
X44130000Y-77117246D01*
X44110785Y-77213845D01*
X44073094Y-77304839D01*
X44050003Y-77339397D01*
X44018373Y-77386734D01*
X43948734Y-77456373D01*
X43948731Y-77456375D01*
X43866839Y-77511094D01*
X43775845Y-77548785D01*
X43679246Y-77568000D01*
X43580754Y-77568000D01*
X43484155Y-77548785D01*
X43393161Y-77511094D01*
X43311269Y-77456375D01*
X43311266Y-77456373D01*
X43241627Y-77386734D01*
X43209997Y-77339397D01*
X43186906Y-77304839D01*
X43149215Y-77213845D01*
X43130000Y-77117246D01*
X43130000Y-77018754D01*
X43149215Y-76922155D01*
X43186906Y-76831161D01*
X43241625Y-76749269D01*
X43241627Y-76749266D01*
X43311266Y-76679627D01*
X43312360Y-76678896D01*
X43393161Y-76624906D01*
X43484155Y-76587215D01*
X43580754Y-76568000D01*
X43679246Y-76568000D01*
X43775845Y-76587215D01*
X43775845Y-76587215D01*
G37*
G36*
X41235845Y-76587215D02*
X41326839Y-76624906D01*
X41407640Y-76678896D01*
X41408734Y-76679627D01*
X41478373Y-76749266D01*
X41478375Y-76749269D01*
X41533094Y-76831161D01*
X41570785Y-76922155D01*
X41590000Y-77018754D01*
X41590000Y-77117246D01*
X41570785Y-77213845D01*
X41533094Y-77304839D01*
X41510003Y-77339397D01*
X41478373Y-77386734D01*
X41408734Y-77456373D01*
X41408731Y-77456375D01*
X41326839Y-77511094D01*
X41235845Y-77548785D01*
X41139246Y-77568000D01*
X41040754Y-77568000D01*
X40944155Y-77548785D01*
X40853161Y-77511094D01*
X40771269Y-77456375D01*
X40771266Y-77456373D01*
X40701627Y-77386734D01*
X40669997Y-77339397D01*
X40646906Y-77304839D01*
X40609215Y-77213845D01*
X40590000Y-77117246D01*
X40590000Y-77018754D01*
X40609215Y-76922155D01*
X40646906Y-76831161D01*
X40701625Y-76749269D01*
X40701627Y-76749266D01*
X40771266Y-76679627D01*
X40772360Y-76678896D01*
X40853161Y-76624906D01*
X40944155Y-76587215D01*
X41040754Y-76568000D01*
X41139246Y-76568000D01*
X41235845Y-76587215D01*
X41235845Y-76587215D01*
G37*
G36*
X38695845Y-76587215D02*
X38786839Y-76624906D01*
X38867640Y-76678896D01*
X38868734Y-76679627D01*
X38938373Y-76749266D01*
X38938375Y-76749269D01*
X38993094Y-76831161D01*
X39030785Y-76922155D01*
X39050000Y-77018754D01*
X39050000Y-77117246D01*
X39030785Y-77213845D01*
X38993094Y-77304839D01*
X38970003Y-77339397D01*
X38938373Y-77386734D01*
X38868734Y-77456373D01*
X38868731Y-77456375D01*
X38786839Y-77511094D01*
X38695845Y-77548785D01*
X38599246Y-77568000D01*
X38500754Y-77568000D01*
X38404155Y-77548785D01*
X38313161Y-77511094D01*
X38231269Y-77456375D01*
X38231266Y-77456373D01*
X38161627Y-77386734D01*
X38129997Y-77339397D01*
X38106906Y-77304839D01*
X38069215Y-77213845D01*
X38050000Y-77117246D01*
X38050000Y-77018754D01*
X38069215Y-76922155D01*
X38106906Y-76831161D01*
X38161625Y-76749269D01*
X38161627Y-76749266D01*
X38231266Y-76679627D01*
X38232360Y-76678896D01*
X38313161Y-76624906D01*
X38404155Y-76587215D01*
X38500754Y-76568000D01*
X38599246Y-76568000D01*
X38695845Y-76587215D01*
X38695845Y-76587215D01*
G37*
G36*
X47458337Y-73907685D02*
X47494732Y-73922760D01*
X47494733Y-73922761D01*
X47494736Y-73922762D01*
X47527493Y-73944650D01*
X47527497Y-73944653D01*
X47555347Y-73972503D01*
X47555349Y-73972506D01*
X47555350Y-73972507D01*
X47577238Y-74005264D01*
X47577239Y-74005267D01*
X47577240Y-74005268D01*
X47592315Y-74041663D01*
X47600000Y-74080299D01*
X47600000Y-74119701D01*
X47592315Y-74158337D01*
X47577240Y-74194732D01*
X47577238Y-74194736D01*
X47563505Y-74215288D01*
X47555347Y-74227497D01*
X47527497Y-74255347D01*
X47527494Y-74255349D01*
X47527493Y-74255350D01*
X47494736Y-74277238D01*
X47494733Y-74277239D01*
X47494732Y-74277240D01*
X47458337Y-74292315D01*
X47419701Y-74300000D01*
X47380299Y-74300000D01*
X47341663Y-74292315D01*
X47305268Y-74277240D01*
X47305267Y-74277239D01*
X47305264Y-74277238D01*
X47272507Y-74255350D01*
X47272506Y-74255349D01*
X47272503Y-74255347D01*
X47244653Y-74227497D01*
X47236495Y-74215288D01*
X47222762Y-74194736D01*
X47222760Y-74194732D01*
X47207685Y-74158337D01*
X47200000Y-74119701D01*
X47200000Y-74080299D01*
X47207685Y-74041663D01*
X47222760Y-74005268D01*
X47222761Y-74005267D01*
X47222762Y-74005264D01*
X47244650Y-73972507D01*
X47244651Y-73972506D01*
X47244653Y-73972503D01*
X47272503Y-73944653D01*
X47272507Y-73944650D01*
X47305264Y-73922762D01*
X47305267Y-73922761D01*
X47305268Y-73922760D01*
X47341663Y-73907685D01*
X47380299Y-73900000D01*
X47419701Y-73900000D01*
X47458337Y-73907685D01*
X47458337Y-73907685D01*
G37*
G36*
X39065000Y-72505000D02*
X37815000Y-72505000D01*
X37815000Y-72005000D01*
X39065000Y-72005000D01*
X39065000Y-72505000D01*
X39065000Y-72505000D01*
G37*
G36*
X52658337Y-71307685D02*
X52694732Y-71322760D01*
X52694733Y-71322761D01*
X52694736Y-71322762D01*
X52727493Y-71344650D01*
X52727497Y-71344653D01*
X52755347Y-71372503D01*
X52755349Y-71372506D01*
X52755350Y-71372507D01*
X52777238Y-71405264D01*
X52777239Y-71405267D01*
X52777240Y-71405268D01*
X52792315Y-71441663D01*
X52800000Y-71480299D01*
X52800000Y-71519701D01*
X52792315Y-71558337D01*
X52777240Y-71594732D01*
X52777238Y-71594736D01*
X52755350Y-71627493D01*
X52755347Y-71627497D01*
X52727497Y-71655347D01*
X52727494Y-71655349D01*
X52727493Y-71655350D01*
X52694736Y-71677238D01*
X52694733Y-71677239D01*
X52694732Y-71677240D01*
X52658337Y-71692315D01*
X52619701Y-71700000D01*
X52580299Y-71700000D01*
X52541663Y-71692315D01*
X52505268Y-71677240D01*
X52505267Y-71677239D01*
X52505264Y-71677238D01*
X52472507Y-71655350D01*
X52472506Y-71655349D01*
X52472503Y-71655347D01*
X52444653Y-71627497D01*
X52444650Y-71627493D01*
X52422762Y-71594736D01*
X52422760Y-71594732D01*
X52407685Y-71558337D01*
X52400000Y-71519701D01*
X52400000Y-71480299D01*
X52407685Y-71441663D01*
X52422760Y-71405268D01*
X52422761Y-71405267D01*
X52422762Y-71405264D01*
X52444650Y-71372507D01*
X52444651Y-71372506D01*
X52444653Y-71372503D01*
X52472503Y-71344653D01*
X52472507Y-71344650D01*
X52505264Y-71322762D01*
X52505267Y-71322761D01*
X52505268Y-71322760D01*
X52541663Y-71307685D01*
X52580299Y-71300000D01*
X52619701Y-71300000D01*
X52658337Y-71307685D01*
X52658337Y-71307685D01*
G37*
G36*
X39065000Y-70955000D02*
X37815000Y-70955000D01*
X37815000Y-70455000D01*
X39065000Y-70455000D01*
X39065000Y-70955000D01*
X39065000Y-70955000D01*
G37*
G36*
X22250000Y-70750000D02*
X20150000Y-70750000D01*
X20150000Y-68650000D01*
X22250000Y-68650000D01*
X22250000Y-70750000D01*
X22250000Y-70750000D01*
G37*
G36*
X51724612Y-66214037D02*
X51952096Y-66308264D01*
X52156831Y-66445064D01*
X52330936Y-66619169D01*
X52467736Y-66823904D01*
X52561963Y-67051388D01*
X52610000Y-67292885D01*
X52610000Y-67539115D01*
X52561963Y-67780612D01*
X52467736Y-68008096D01*
X52330936Y-68212831D01*
X52156831Y-68386936D01*
X51952096Y-68523736D01*
X51724612Y-68617963D01*
X51483115Y-68666000D01*
X51236885Y-68666000D01*
X50995388Y-68617963D01*
X50767904Y-68523736D01*
X50563169Y-68386936D01*
X50389064Y-68212831D01*
X50252264Y-68008096D01*
X50158037Y-67780612D01*
X50110000Y-67539115D01*
X50110000Y-67292885D01*
X50158037Y-67051388D01*
X50252264Y-66823904D01*
X50389064Y-66619169D01*
X50563169Y-66445064D01*
X50767904Y-66308264D01*
X50995388Y-66214037D01*
X51236885Y-66166000D01*
X51483115Y-66166000D01*
X51724612Y-66214037D01*
X51724612Y-66214037D01*
G37*
G36*
X38804612Y-66214037D02*
X39032096Y-66308264D01*
X39236831Y-66445064D01*
X39410936Y-66619169D01*
X39547736Y-66823904D01*
X39641963Y-67051388D01*
X39690000Y-67292885D01*
X39690000Y-67539115D01*
X39641963Y-67780612D01*
X39547736Y-68008096D01*
X39410936Y-68212831D01*
X39236831Y-68386936D01*
X39032096Y-68523736D01*
X38804612Y-68617963D01*
X38563115Y-68666000D01*
X38316885Y-68666000D01*
X38075388Y-68617963D01*
X37847904Y-68523736D01*
X37643169Y-68386936D01*
X37469064Y-68212831D01*
X37332264Y-68008096D01*
X37238037Y-67780612D01*
X37190000Y-67539115D01*
X37190000Y-67292885D01*
X37238037Y-67051388D01*
X37332264Y-66823904D01*
X37469064Y-66619169D01*
X37643169Y-66445064D01*
X37847904Y-66308264D01*
X38075388Y-66214037D01*
X38316885Y-66166000D01*
X38563115Y-66166000D01*
X38804612Y-66214037D01*
X38804612Y-66214037D01*
G37*
G36*
X21325888Y-66114470D02*
X21506274Y-66150350D01*
X21697362Y-66229502D01*
X21869336Y-66344411D01*
X22015589Y-66490664D01*
X22130498Y-66662638D01*
X22209650Y-66853726D01*
X22245530Y-67034112D01*
X22248967Y-67051388D01*
X22250000Y-67056584D01*
X22250000Y-67263416D01*
X22209650Y-67466274D01*
X22130498Y-67657362D01*
X22015589Y-67829336D01*
X21869336Y-67975589D01*
X21697362Y-68090498D01*
X21506274Y-68169650D01*
X21325888Y-68205530D01*
X21303417Y-68210000D01*
X21096583Y-68210000D01*
X21074112Y-68205530D01*
X20893726Y-68169650D01*
X20702638Y-68090498D01*
X20530664Y-67975589D01*
X20384411Y-67829336D01*
X20269502Y-67657362D01*
X20190350Y-67466274D01*
X20150000Y-67263416D01*
X20150000Y-67056584D01*
X20151034Y-67051388D01*
X20154470Y-67034112D01*
X20190350Y-66853726D01*
X20269502Y-66662638D01*
X20384411Y-66490664D01*
X20530664Y-66344411D01*
X20702638Y-66229502D01*
X20893726Y-66150350D01*
X21074112Y-66114470D01*
X21096583Y-66110000D01*
X21303417Y-66110000D01*
X21325888Y-66114470D01*
X21325888Y-66114470D01*
G37*
G36*
X31672514Y-50295363D02*
X31792627Y-50345116D01*
X31900726Y-50417345D01*
X31992655Y-50509274D01*
X32064884Y-50617373D01*
X32114637Y-50737486D01*
X32140000Y-50864994D01*
X32140000Y-50995006D01*
X32114637Y-51122514D01*
X32064884Y-51242627D01*
X31992655Y-51350726D01*
X31900726Y-51442655D01*
X31792627Y-51514884D01*
X31672514Y-51564637D01*
X31545006Y-51590000D01*
X31414994Y-51590000D01*
X31287486Y-51564637D01*
X31167373Y-51514884D01*
X31059274Y-51442655D01*
X30967345Y-51350726D01*
X30895116Y-51242627D01*
X30845363Y-51122514D01*
X30820000Y-50995006D01*
X30820000Y-50864994D01*
X30845363Y-50737486D01*
X30895116Y-50617373D01*
X30967345Y-50509274D01*
X31059274Y-50417345D01*
X31167373Y-50345116D01*
X31287486Y-50295363D01*
X31414994Y-50270000D01*
X31545006Y-50270000D01*
X31672514Y-50295363D01*
X31672514Y-50295363D01*
G37*
G36*
X34212514Y-50295363D02*
X34332627Y-50345116D01*
X34440726Y-50417345D01*
X34532655Y-50509274D01*
X34604884Y-50617373D01*
X34654637Y-50737486D01*
X34680000Y-50864994D01*
X34680000Y-50995006D01*
X34654637Y-51122514D01*
X34604884Y-51242627D01*
X34532655Y-51350726D01*
X34440726Y-51442655D01*
X34332627Y-51514884D01*
X34212514Y-51564637D01*
X34085006Y-51590000D01*
X33954994Y-51590000D01*
X33827486Y-51564637D01*
X33707373Y-51514884D01*
X33599274Y-51442655D01*
X33507345Y-51350726D01*
X33435116Y-51242627D01*
X33385363Y-51122514D01*
X33360000Y-50995006D01*
X33360000Y-50864994D01*
X33385363Y-50737486D01*
X33435116Y-50617373D01*
X33507345Y-50509274D01*
X33599274Y-50417345D01*
X33707373Y-50345116D01*
X33827486Y-50295363D01*
X33954994Y-50270000D01*
X34085006Y-50270000D01*
X34212514Y-50295363D01*
X34212514Y-50295363D01*
G37*
G36*
X26211695Y-48757652D02*
X26437359Y-48851125D01*
X26640457Y-48986831D01*
X26813169Y-49159543D01*
X26948875Y-49362641D01*
X27042348Y-49588305D01*
X27090000Y-49827869D01*
X27090000Y-50072131D01*
X27042348Y-50311695D01*
X26948875Y-50537359D01*
X26813169Y-50740457D01*
X26640457Y-50913169D01*
X26437359Y-51048875D01*
X26211695Y-51142348D01*
X25972131Y-51190000D01*
X25727869Y-51190000D01*
X25488305Y-51142348D01*
X25262641Y-51048875D01*
X25059543Y-50913169D01*
X24886831Y-50740457D01*
X24751125Y-50537359D01*
X24657652Y-50311695D01*
X24610000Y-50072131D01*
X24610000Y-49827869D01*
X24657652Y-49588305D01*
X24751125Y-49362641D01*
X24886831Y-49159543D01*
X25059543Y-48986831D01*
X25262641Y-48851125D01*
X25488305Y-48757652D01*
X25727869Y-48710000D01*
X25972131Y-48710000D01*
X26211695Y-48757652D01*
X26211695Y-48757652D01*
G37*
G36*
X55511695Y-48757652D02*
X55737359Y-48851125D01*
X55940457Y-48986831D01*
X56113169Y-49159543D01*
X56248875Y-49362641D01*
X56342348Y-49588305D01*
X56390000Y-49827869D01*
X56390000Y-50072131D01*
X56342348Y-50311695D01*
X56248875Y-50537359D01*
X56113169Y-50740457D01*
X55940457Y-50913169D01*
X55737359Y-51048875D01*
X55511695Y-51142348D01*
X55272131Y-51190000D01*
X55027869Y-51190000D01*
X54788305Y-51142348D01*
X54562641Y-51048875D01*
X54359543Y-50913169D01*
X54186831Y-50740457D01*
X54051125Y-50537359D01*
X53957652Y-50311695D01*
X53910000Y-50072131D01*
X53910000Y-49827869D01*
X53957652Y-49588305D01*
X54051125Y-49362641D01*
X54186831Y-49159543D01*
X54359543Y-48986831D01*
X54562641Y-48851125D01*
X54788305Y-48757652D01*
X55027869Y-48710000D01*
X55272131Y-48710000D01*
X55511695Y-48757652D01*
X55511695Y-48757652D01*
G37*
G36*
X31672514Y-47755363D02*
X31792627Y-47805116D01*
X31900726Y-47877345D01*
X31992655Y-47969274D01*
X32064884Y-48077373D01*
X32114637Y-48197486D01*
X32140000Y-48324994D01*
X32140000Y-48455006D01*
X32114637Y-48582514D01*
X32064884Y-48702627D01*
X31992655Y-48810726D01*
X31900726Y-48902655D01*
X31792627Y-48974884D01*
X31672514Y-49024637D01*
X31545006Y-49050000D01*
X31414994Y-49050000D01*
X31287486Y-49024637D01*
X31167373Y-48974884D01*
X31059274Y-48902655D01*
X30967345Y-48810726D01*
X30895116Y-48702627D01*
X30845363Y-48582514D01*
X30820000Y-48455006D01*
X30820000Y-48324994D01*
X30845363Y-48197486D01*
X30895116Y-48077373D01*
X30967345Y-47969274D01*
X31059274Y-47877345D01*
X31167373Y-47805116D01*
X31287486Y-47755363D01*
X31414994Y-47730000D01*
X31545006Y-47730000D01*
X31672514Y-47755363D01*
X31672514Y-47755363D01*
G37*
G36*
X34212514Y-47755363D02*
X34332627Y-47805116D01*
X34440726Y-47877345D01*
X34532655Y-47969274D01*
X34604884Y-48077373D01*
X34654637Y-48197486D01*
X34680000Y-48324994D01*
X34680000Y-48455006D01*
X34654637Y-48582514D01*
X34604884Y-48702627D01*
X34532655Y-48810726D01*
X34440726Y-48902655D01*
X34332627Y-48974884D01*
X34212514Y-49024637D01*
X34085006Y-49050000D01*
X33954994Y-49050000D01*
X33827486Y-49024637D01*
X33707373Y-48974884D01*
X33599274Y-48902655D01*
X33507345Y-48810726D01*
X33435116Y-48702627D01*
X33385363Y-48582514D01*
X33360000Y-48455006D01*
X33360000Y-48324994D01*
X33385363Y-48197486D01*
X33435116Y-48077373D01*
X33507345Y-47969274D01*
X33599274Y-47877345D01*
X33707373Y-47805116D01*
X33827486Y-47755363D01*
X33954994Y-47730000D01*
X34085006Y-47730000D01*
X34212514Y-47755363D01*
X34212514Y-47755363D01*
G37*
G36*
X31672514Y-45215363D02*
X31792627Y-45265116D01*
X31900726Y-45337345D01*
X31992655Y-45429274D01*
X32064884Y-45537373D01*
X32114637Y-45657486D01*
X32140000Y-45784994D01*
X32140000Y-45915006D01*
X32114637Y-46042514D01*
X32064884Y-46162627D01*
X31992655Y-46270726D01*
X31900726Y-46362655D01*
X31792627Y-46434884D01*
X31672514Y-46484637D01*
X31545006Y-46510000D01*
X31414994Y-46510000D01*
X31287486Y-46484637D01*
X31167373Y-46434884D01*
X31059274Y-46362655D01*
X30967345Y-46270726D01*
X30895116Y-46162627D01*
X30845363Y-46042514D01*
X30820000Y-45915006D01*
X30820000Y-45784994D01*
X30845363Y-45657486D01*
X30895116Y-45537373D01*
X30967345Y-45429274D01*
X31059274Y-45337345D01*
X31167373Y-45265116D01*
X31287486Y-45215363D01*
X31414994Y-45190000D01*
X31545006Y-45190000D01*
X31672514Y-45215363D01*
X31672514Y-45215363D01*
G37*
G36*
X34212514Y-45215363D02*
X34332627Y-45265116D01*
X34440726Y-45337345D01*
X34532655Y-45429274D01*
X34604884Y-45537373D01*
X34654637Y-45657486D01*
X34680000Y-45784994D01*
X34680000Y-45915006D01*
X34654637Y-46042514D01*
X34604884Y-46162627D01*
X34532655Y-46270726D01*
X34440726Y-46362655D01*
X34332627Y-46434884D01*
X34212514Y-46484637D01*
X34085006Y-46510000D01*
X33954994Y-46510000D01*
X33827486Y-46484637D01*
X33707373Y-46434884D01*
X33599274Y-46362655D01*
X33507345Y-46270726D01*
X33435116Y-46162627D01*
X33385363Y-46042514D01*
X33360000Y-45915006D01*
X33360000Y-45784994D01*
X33385363Y-45657486D01*
X33435116Y-45537373D01*
X33507345Y-45429274D01*
X33599274Y-45337345D01*
X33707373Y-45265116D01*
X33827486Y-45215363D01*
X33954994Y-45190000D01*
X34085006Y-45190000D01*
X34212514Y-45215363D01*
X34212514Y-45215363D01*
G37*
G36*
X54395434Y-44264970D02*
X54395436Y-44264971D01*
X54395437Y-44264971D01*
X54561047Y-44333569D01*
X54710094Y-44433159D01*
X54836841Y-44559906D01*
X54936431Y-44708953D01*
X55005030Y-44874566D01*
X55040000Y-45050371D01*
X55040000Y-45229629D01*
X55005030Y-45405434D01*
X54936431Y-45571047D01*
X54836841Y-45720094D01*
X54710094Y-45846841D01*
X54710091Y-45846843D01*
X54561047Y-45946431D01*
X54395437Y-46015029D01*
X54395436Y-46015029D01*
X54395434Y-46015030D01*
X54219629Y-46050000D01*
X54040371Y-46050000D01*
X53864566Y-46015030D01*
X53864564Y-46015029D01*
X53864563Y-46015029D01*
X53698953Y-45946431D01*
X53549909Y-45846843D01*
X53549906Y-45846841D01*
X53423159Y-45720094D01*
X53323569Y-45571047D01*
X53254970Y-45405434D01*
X53220000Y-45229629D01*
X53220000Y-45050371D01*
X53254970Y-44874566D01*
X53323569Y-44708953D01*
X53423159Y-44559906D01*
X53549906Y-44433159D01*
X53698953Y-44333569D01*
X53864563Y-44264971D01*
X53864564Y-44264971D01*
X53864566Y-44264970D01*
X54040371Y-44230000D01*
X54219629Y-44230000D01*
X54395434Y-44264970D01*
X54395434Y-44264970D01*
G37*
G36*
X54395434Y-40764970D02*
X54395436Y-40764971D01*
X54395437Y-40764971D01*
X54561047Y-40833569D01*
X54710094Y-40933159D01*
X54836841Y-41059906D01*
X54936431Y-41208953D01*
X55005030Y-41374566D01*
X55040000Y-41550371D01*
X55040000Y-41729629D01*
X55005030Y-41905434D01*
X54936431Y-42071047D01*
X54836841Y-42220094D01*
X54710094Y-42346841D01*
X54710091Y-42346843D01*
X54561047Y-42446431D01*
X54395437Y-42515029D01*
X54395436Y-42515029D01*
X54395434Y-42515030D01*
X54219629Y-42550000D01*
X54040371Y-42550000D01*
X53864566Y-42515030D01*
X53864564Y-42515029D01*
X53864563Y-42515029D01*
X53698953Y-42446431D01*
X53549909Y-42346843D01*
X53549906Y-42346841D01*
X53423159Y-42220094D01*
X53323569Y-42071047D01*
X53254970Y-41905434D01*
X53220000Y-41729629D01*
X53220000Y-41550371D01*
X53254970Y-41374566D01*
X53323569Y-41208953D01*
X53423159Y-41059906D01*
X53549906Y-40933159D01*
X53698953Y-40833569D01*
X53864563Y-40764971D01*
X53864564Y-40764971D01*
X53864566Y-40764970D01*
X54040371Y-40730000D01*
X54219629Y-40730000D01*
X54395434Y-40764970D01*
X54395434Y-40764970D01*
G37*
G36*
X54395434Y-37264970D02*
X54395436Y-37264971D01*
X54395437Y-37264971D01*
X54561047Y-37333569D01*
X54710094Y-37433159D01*
X54836841Y-37559906D01*
X54936431Y-37708953D01*
X55005030Y-37874566D01*
X55040000Y-38050371D01*
X55040000Y-38229629D01*
X55005030Y-38405434D01*
X54936431Y-38571047D01*
X54836841Y-38720094D01*
X54710094Y-38846841D01*
X54710091Y-38846843D01*
X54561047Y-38946431D01*
X54395437Y-39015029D01*
X54395436Y-39015029D01*
X54395434Y-39015030D01*
X54219629Y-39050000D01*
X54040371Y-39050000D01*
X53864566Y-39015030D01*
X53864564Y-39015029D01*
X53864563Y-39015029D01*
X53698953Y-38946431D01*
X53549909Y-38846843D01*
X53549906Y-38846841D01*
X53423159Y-38720094D01*
X53323569Y-38571047D01*
X53254970Y-38405434D01*
X53220000Y-38229629D01*
X53220000Y-38050371D01*
X53254970Y-37874566D01*
X53323569Y-37708953D01*
X53423159Y-37559906D01*
X53549906Y-37433159D01*
X53698953Y-37333569D01*
X53864563Y-37264971D01*
X53864564Y-37264971D01*
X53864566Y-37264970D01*
X54040371Y-37230000D01*
X54219629Y-37230000D01*
X54395434Y-37264970D01*
X54395434Y-37264970D01*
G37*
G36*
X54395434Y-33764970D02*
X54395436Y-33764971D01*
X54395437Y-33764971D01*
X54561047Y-33833569D01*
X54710094Y-33933159D01*
X54836841Y-34059906D01*
X54936431Y-34208953D01*
X55005030Y-34374566D01*
X55040000Y-34550371D01*
X55040000Y-34729629D01*
X55005030Y-34905434D01*
X54936431Y-35071047D01*
X54836841Y-35220094D01*
X54710094Y-35346841D01*
X54710091Y-35346843D01*
X54561047Y-35446431D01*
X54395437Y-35515029D01*
X54395436Y-35515029D01*
X54395434Y-35515030D01*
X54219629Y-35550000D01*
X54040371Y-35550000D01*
X53864566Y-35515030D01*
X53864564Y-35515029D01*
X53864563Y-35515029D01*
X53698953Y-35446431D01*
X53549909Y-35346843D01*
X53549906Y-35346841D01*
X53423159Y-35220094D01*
X53323569Y-35071047D01*
X53254970Y-34905434D01*
X53220000Y-34729629D01*
X53220000Y-34550371D01*
X53254970Y-34374566D01*
X53323569Y-34208953D01*
X53423159Y-34059906D01*
X53549906Y-33933159D01*
X53698953Y-33833569D01*
X53864563Y-33764971D01*
X53864564Y-33764971D01*
X53864566Y-33764970D01*
X54040371Y-33730000D01*
X54219629Y-33730000D01*
X54395434Y-33764970D01*
X54395434Y-33764970D01*
G37*
G36*
X55511695Y-19457652D02*
X55737359Y-19551125D01*
X55940457Y-19686831D01*
X56113169Y-19859543D01*
X56248875Y-20062641D01*
X56342348Y-20288305D01*
X56390000Y-20527869D01*
X56390000Y-20772131D01*
X56342348Y-21011695D01*
X56248875Y-21237359D01*
X56113169Y-21440457D01*
X55940457Y-21613169D01*
X55737359Y-21748875D01*
X55511695Y-21842348D01*
X55272131Y-21890000D01*
X55027869Y-21890000D01*
X54788305Y-21842348D01*
X54562641Y-21748875D01*
X54359543Y-21613169D01*
X54186831Y-21440457D01*
X54051125Y-21237359D01*
X53957652Y-21011695D01*
X53910000Y-20772131D01*
X53910000Y-20527869D01*
X53957652Y-20288305D01*
X54051125Y-20062641D01*
X54186831Y-19859543D01*
X54359543Y-19686831D01*
X54562641Y-19551125D01*
X54788305Y-19457652D01*
X55027869Y-19410000D01*
X55272131Y-19410000D01*
X55511695Y-19457652D01*
X55511695Y-19457652D01*
G37*
G36*
X76608034Y-15557199D02*
X76900068Y-15615288D01*
X77446033Y-15841434D01*
X77816990Y-16089300D01*
X77937392Y-16169750D01*
X78355250Y-16587608D01*
X78355252Y-16587611D01*
X78683566Y-17078967D01*
X78909712Y-17624932D01*
X78909712Y-17624933D01*
X79025000Y-18204524D01*
X79025000Y-18795476D01*
X78971363Y-19065126D01*
X78909712Y-19375068D01*
X78683566Y-19921033D01*
X78433221Y-20295700D01*
X78355250Y-20412392D01*
X77937392Y-20830250D01*
X77937389Y-20830252D01*
X77446033Y-21158566D01*
X76900068Y-21384712D01*
X76706870Y-21423141D01*
X76320476Y-21500000D01*
X75729524Y-21500000D01*
X75343130Y-21423141D01*
X75149932Y-21384712D01*
X74603967Y-21158566D01*
X74112611Y-20830252D01*
X74112608Y-20830250D01*
X73694750Y-20412392D01*
X73616779Y-20295700D01*
X73366434Y-19921033D01*
X73140288Y-19375068D01*
X73078637Y-19065126D01*
X73025000Y-18795476D01*
X73025000Y-18204524D01*
X73140288Y-17624933D01*
X73140288Y-17624932D01*
X73366434Y-17078967D01*
X73694748Y-16587611D01*
X73694750Y-16587608D01*
X74112608Y-16169750D01*
X74233010Y-16089300D01*
X74603967Y-15841434D01*
X75149932Y-15615288D01*
X75441966Y-15557199D01*
X75729524Y-15500000D01*
X76320476Y-15500000D01*
X76608034Y-15557199D01*
X76608034Y-15557199D01*
G37*
G36*
X103408034Y-15557199D02*
X103700068Y-15615288D01*
X104246033Y-15841434D01*
X104616990Y-16089300D01*
X104737392Y-16169750D01*
X105155250Y-16587608D01*
X105155252Y-16587611D01*
X105483566Y-17078967D01*
X105709712Y-17624932D01*
X105709712Y-17624933D01*
X105825000Y-18204524D01*
X105825000Y-18795476D01*
X105771363Y-19065126D01*
X105709712Y-19375068D01*
X105483566Y-19921033D01*
X105233221Y-20295700D01*
X105155250Y-20412392D01*
X104737392Y-20830250D01*
X104737389Y-20830252D01*
X104246033Y-21158566D01*
X103700068Y-21384712D01*
X103506870Y-21423141D01*
X103120476Y-21500000D01*
X102529524Y-21500000D01*
X102143130Y-21423141D01*
X101949932Y-21384712D01*
X101403967Y-21158566D01*
X100912611Y-20830252D01*
X100912608Y-20830250D01*
X100494750Y-20412392D01*
X100416779Y-20295700D01*
X100166434Y-19921033D01*
X99940288Y-19375068D01*
X99878637Y-19065126D01*
X99825000Y-18795476D01*
X99825000Y-18204524D01*
X99940288Y-17624933D01*
X99940288Y-17624932D01*
X100166434Y-17078967D01*
X100494748Y-16587611D01*
X100494750Y-16587608D01*
X100912608Y-16169750D01*
X101033010Y-16089300D01*
X101403967Y-15841434D01*
X101949932Y-15615288D01*
X102241966Y-15557199D01*
X102529524Y-15500000D01*
X103120476Y-15500000D01*
X103408034Y-15557199D01*
X103408034Y-15557199D01*
G37*
G36*
X134706870Y-15376859D02*
X134900068Y-15415288D01*
X135446033Y-15641434D01*
X135751476Y-15845525D01*
X135937392Y-15969750D01*
X136355250Y-16387608D01*
X136355252Y-16387611D01*
X136683566Y-16878967D01*
X136909712Y-17424932D01*
X136936158Y-17557884D01*
X137025000Y-18004524D01*
X137025000Y-18595476D01*
X136985218Y-18795474D01*
X136909712Y-19175068D01*
X136683566Y-19721033D01*
X136400270Y-20145015D01*
X136355250Y-20212392D01*
X135937392Y-20630250D01*
X135937389Y-20630252D01*
X135446033Y-20958566D01*
X134900068Y-21184712D01*
X134706870Y-21223141D01*
X134320476Y-21300000D01*
X133729524Y-21300000D01*
X133343130Y-21223141D01*
X133149932Y-21184712D01*
X132603967Y-20958566D01*
X132112611Y-20630252D01*
X132112608Y-20630250D01*
X131694750Y-20212392D01*
X131649730Y-20145015D01*
X131366434Y-19721033D01*
X131140288Y-19175068D01*
X131064782Y-18795474D01*
X131025000Y-18595476D01*
X131025000Y-18004524D01*
X131113842Y-17557884D01*
X131140288Y-17424932D01*
X131366434Y-16878967D01*
X131694748Y-16387611D01*
X131694750Y-16387608D01*
X132112608Y-15969750D01*
X132298524Y-15845525D01*
X132603967Y-15641434D01*
X133149932Y-15415288D01*
X133343130Y-15376859D01*
X133729524Y-15300000D01*
X134320476Y-15300000D01*
X134706870Y-15376859D01*
X134706870Y-15376859D01*
G37*
G36*
X161506870Y-15376859D02*
X161700068Y-15415288D01*
X162246033Y-15641434D01*
X162551476Y-15845525D01*
X162737392Y-15969750D01*
X163155250Y-16387608D01*
X163155252Y-16387611D01*
X163483566Y-16878967D01*
X163709712Y-17424932D01*
X163736158Y-17557884D01*
X163825000Y-18004524D01*
X163825000Y-18595476D01*
X163785218Y-18795474D01*
X163709712Y-19175068D01*
X163483566Y-19721033D01*
X163200270Y-20145015D01*
X163155250Y-20212392D01*
X162737392Y-20630250D01*
X162737389Y-20630252D01*
X162246033Y-20958566D01*
X161700068Y-21184712D01*
X161506870Y-21223141D01*
X161120476Y-21300000D01*
X160529524Y-21300000D01*
X160143130Y-21223141D01*
X159949932Y-21184712D01*
X159403967Y-20958566D01*
X158912611Y-20630252D01*
X158912608Y-20630250D01*
X158494750Y-20212392D01*
X158449730Y-20145015D01*
X158166434Y-19721033D01*
X157940288Y-19175068D01*
X157864782Y-18795474D01*
X157825000Y-18595476D01*
X157825000Y-18004524D01*
X157913842Y-17557884D01*
X157940288Y-17424932D01*
X158166434Y-16878967D01*
X158494748Y-16387611D01*
X158494750Y-16387608D01*
X158912608Y-15969750D01*
X159098524Y-15845525D01*
X159403967Y-15641434D01*
X159949932Y-15415288D01*
X160143130Y-15376859D01*
X160529524Y-15300000D01*
X161120476Y-15300000D01*
X161506870Y-15376859D01*
X161506870Y-15376859D01*
G37*
G36*
X97180770Y-19255372D02*
X97296689Y-19278429D01*
X97478678Y-19353811D01*
X97642463Y-19463249D01*
X97781751Y-19602537D01*
X97891189Y-19766322D01*
X97966571Y-19948311D01*
X97971774Y-19974471D01*
X98005000Y-20141507D01*
X98005000Y-20338493D01*
X98000602Y-20360603D01*
X97966571Y-20531689D01*
X97891189Y-20713678D01*
X97781751Y-20877463D01*
X97642463Y-21016751D01*
X97478678Y-21126189D01*
X97296689Y-21201571D01*
X97180770Y-21224628D01*
X97103493Y-21240000D01*
X96906507Y-21240000D01*
X96829230Y-21224628D01*
X96713311Y-21201571D01*
X96531322Y-21126189D01*
X96367537Y-21016751D01*
X96228249Y-20877463D01*
X96118811Y-20713678D01*
X96043429Y-20531689D01*
X96009398Y-20360603D01*
X96005000Y-20338493D01*
X96005000Y-20141507D01*
X96038226Y-19974471D01*
X96043429Y-19948311D01*
X96118811Y-19766322D01*
X96228249Y-19602537D01*
X96367537Y-19463249D01*
X96531322Y-19353811D01*
X96713311Y-19278429D01*
X96829230Y-19255372D01*
X96906507Y-19240000D01*
X97103493Y-19240000D01*
X97180770Y-19255372D01*
X97180770Y-19255372D01*
G37*
G36*
X92415770Y-19255372D02*
X92531689Y-19278429D01*
X92713678Y-19353811D01*
X92877463Y-19463249D01*
X93016751Y-19602537D01*
X93126189Y-19766322D01*
X93201571Y-19948311D01*
X93206774Y-19974471D01*
X93240000Y-20141507D01*
X93240000Y-20338493D01*
X93235602Y-20360603D01*
X93201571Y-20531689D01*
X93126189Y-20713678D01*
X93016751Y-20877463D01*
X92877463Y-21016751D01*
X92713678Y-21126189D01*
X92531689Y-21201571D01*
X92415770Y-21224628D01*
X92338493Y-21240000D01*
X92141507Y-21240000D01*
X92064230Y-21224628D01*
X91948311Y-21201571D01*
X91766322Y-21126189D01*
X91602537Y-21016751D01*
X91463249Y-20877463D01*
X91353811Y-20713678D01*
X91278429Y-20531689D01*
X91244398Y-20360603D01*
X91240000Y-20338493D01*
X91240000Y-20141507D01*
X91273226Y-19974471D01*
X91278429Y-19948311D01*
X91353811Y-19766322D01*
X91463249Y-19602537D01*
X91602537Y-19463249D01*
X91766322Y-19353811D01*
X91948311Y-19278429D01*
X92064230Y-19255372D01*
X92141507Y-19240000D01*
X92338493Y-19240000D01*
X92415770Y-19255372D01*
X92415770Y-19255372D01*
G37*
G36*
X87155770Y-19255372D02*
X87271689Y-19278429D01*
X87453678Y-19353811D01*
X87617463Y-19463249D01*
X87756751Y-19602537D01*
X87866189Y-19766322D01*
X87941571Y-19948311D01*
X87946774Y-19974471D01*
X87980000Y-20141507D01*
X87980000Y-20338493D01*
X87975602Y-20360603D01*
X87941571Y-20531689D01*
X87866189Y-20713678D01*
X87756751Y-20877463D01*
X87617463Y-21016751D01*
X87453678Y-21126189D01*
X87271689Y-21201571D01*
X87155770Y-21224628D01*
X87078493Y-21240000D01*
X86881507Y-21240000D01*
X86804230Y-21224628D01*
X86688311Y-21201571D01*
X86506322Y-21126189D01*
X86342537Y-21016751D01*
X86203249Y-20877463D01*
X86093811Y-20713678D01*
X86018429Y-20531689D01*
X85984398Y-20360603D01*
X85980000Y-20338493D01*
X85980000Y-20141507D01*
X86013226Y-19974471D01*
X86018429Y-19948311D01*
X86093811Y-19766322D01*
X86203249Y-19602537D01*
X86342537Y-19463249D01*
X86506322Y-19353811D01*
X86688311Y-19278429D01*
X86804230Y-19255372D01*
X86881507Y-19240000D01*
X87078493Y-19240000D01*
X87155770Y-19255372D01*
X87155770Y-19255372D01*
G37*
G36*
X82290770Y-19255372D02*
X82406689Y-19278429D01*
X82588678Y-19353811D01*
X82752463Y-19463249D01*
X82891751Y-19602537D01*
X83001189Y-19766322D01*
X83076571Y-19948311D01*
X83081774Y-19974471D01*
X83115000Y-20141507D01*
X83115000Y-20338493D01*
X83110602Y-20360603D01*
X83076571Y-20531689D01*
X83001189Y-20713678D01*
X82891751Y-20877463D01*
X82752463Y-21016751D01*
X82588678Y-21126189D01*
X82406689Y-21201571D01*
X82290770Y-21224628D01*
X82213493Y-21240000D01*
X82016507Y-21240000D01*
X81939230Y-21224628D01*
X81823311Y-21201571D01*
X81641322Y-21126189D01*
X81477537Y-21016751D01*
X81338249Y-20877463D01*
X81228811Y-20713678D01*
X81153429Y-20531689D01*
X81119398Y-20360603D01*
X81115000Y-20338493D01*
X81115000Y-20141507D01*
X81148226Y-19974471D01*
X81153429Y-19948311D01*
X81228811Y-19766322D01*
X81338249Y-19602537D01*
X81477537Y-19463249D01*
X81641322Y-19353811D01*
X81823311Y-19278429D01*
X81939230Y-19255372D01*
X82016507Y-19240000D01*
X82213493Y-19240000D01*
X82290770Y-19255372D01*
X82290770Y-19255372D01*
G37*
G36*
X140290770Y-19055372D02*
X140406689Y-19078429D01*
X140588678Y-19153811D01*
X140752463Y-19263249D01*
X140891751Y-19402537D01*
X141001189Y-19566322D01*
X141076571Y-19748311D01*
X141080154Y-19766325D01*
X141115000Y-19941507D01*
X141115000Y-20138493D01*
X141108807Y-20169628D01*
X141076571Y-20331689D01*
X141001189Y-20513678D01*
X140891751Y-20677463D01*
X140752463Y-20816751D01*
X140588678Y-20926189D01*
X140406689Y-21001571D01*
X140290770Y-21024628D01*
X140213493Y-21040000D01*
X140016507Y-21040000D01*
X139939230Y-21024628D01*
X139823311Y-21001571D01*
X139641322Y-20926189D01*
X139477537Y-20816751D01*
X139338249Y-20677463D01*
X139228811Y-20513678D01*
X139153429Y-20331689D01*
X139121193Y-20169628D01*
X139115000Y-20138493D01*
X139115000Y-19941507D01*
X139149846Y-19766325D01*
X139153429Y-19748311D01*
X139228811Y-19566322D01*
X139338249Y-19402537D01*
X139477537Y-19263249D01*
X139641322Y-19153811D01*
X139823311Y-19078429D01*
X139939230Y-19055372D01*
X140016507Y-19040000D01*
X140213493Y-19040000D01*
X140290770Y-19055372D01*
X140290770Y-19055372D01*
G37*
G36*
X155180770Y-19055372D02*
X155296689Y-19078429D01*
X155478678Y-19153811D01*
X155642463Y-19263249D01*
X155781751Y-19402537D01*
X155891189Y-19566322D01*
X155966571Y-19748311D01*
X155970154Y-19766325D01*
X156005000Y-19941507D01*
X156005000Y-20138493D01*
X155998807Y-20169628D01*
X155966571Y-20331689D01*
X155891189Y-20513678D01*
X155781751Y-20677463D01*
X155642463Y-20816751D01*
X155478678Y-20926189D01*
X155296689Y-21001571D01*
X155180770Y-21024628D01*
X155103493Y-21040000D01*
X154906507Y-21040000D01*
X154829230Y-21024628D01*
X154713311Y-21001571D01*
X154531322Y-20926189D01*
X154367537Y-20816751D01*
X154228249Y-20677463D01*
X154118811Y-20513678D01*
X154043429Y-20331689D01*
X154011193Y-20169628D01*
X154005000Y-20138493D01*
X154005000Y-19941507D01*
X154039846Y-19766325D01*
X154043429Y-19748311D01*
X154118811Y-19566322D01*
X154228249Y-19402537D01*
X154367537Y-19263249D01*
X154531322Y-19153811D01*
X154713311Y-19078429D01*
X154829230Y-19055372D01*
X154906507Y-19040000D01*
X155103493Y-19040000D01*
X155180770Y-19055372D01*
X155180770Y-19055372D01*
G37*
G36*
X150415770Y-19055372D02*
X150531689Y-19078429D01*
X150713678Y-19153811D01*
X150877463Y-19263249D01*
X151016751Y-19402537D01*
X151126189Y-19566322D01*
X151201571Y-19748311D01*
X151205154Y-19766325D01*
X151240000Y-19941507D01*
X151240000Y-20138493D01*
X151233807Y-20169628D01*
X151201571Y-20331689D01*
X151126189Y-20513678D01*
X151016751Y-20677463D01*
X150877463Y-20816751D01*
X150713678Y-20926189D01*
X150531689Y-21001571D01*
X150415770Y-21024628D01*
X150338493Y-21040000D01*
X150141507Y-21040000D01*
X150064230Y-21024628D01*
X149948311Y-21001571D01*
X149766322Y-20926189D01*
X149602537Y-20816751D01*
X149463249Y-20677463D01*
X149353811Y-20513678D01*
X149278429Y-20331689D01*
X149246193Y-20169628D01*
X149240000Y-20138493D01*
X149240000Y-19941507D01*
X149274846Y-19766325D01*
X149278429Y-19748311D01*
X149353811Y-19566322D01*
X149463249Y-19402537D01*
X149602537Y-19263249D01*
X149766322Y-19153811D01*
X149948311Y-19078429D01*
X150064230Y-19055372D01*
X150141507Y-19040000D01*
X150338493Y-19040000D01*
X150415770Y-19055372D01*
X150415770Y-19055372D01*
G37*
G36*
X145155770Y-19055372D02*
X145271689Y-19078429D01*
X145453678Y-19153811D01*
X145617463Y-19263249D01*
X145756751Y-19402537D01*
X145866189Y-19566322D01*
X145941571Y-19748311D01*
X145945154Y-19766325D01*
X145980000Y-19941507D01*
X145980000Y-20138493D01*
X145973807Y-20169628D01*
X145941571Y-20331689D01*
X145866189Y-20513678D01*
X145756751Y-20677463D01*
X145617463Y-20816751D01*
X145453678Y-20926189D01*
X145271689Y-21001571D01*
X145155770Y-21024628D01*
X145078493Y-21040000D01*
X144881507Y-21040000D01*
X144804230Y-21024628D01*
X144688311Y-21001571D01*
X144506322Y-20926189D01*
X144342537Y-20816751D01*
X144203249Y-20677463D01*
X144093811Y-20513678D01*
X144018429Y-20331689D01*
X143986193Y-20169628D01*
X143980000Y-20138493D01*
X143980000Y-19941507D01*
X144014846Y-19766325D01*
X144018429Y-19748311D01*
X144093811Y-19566322D01*
X144203249Y-19402537D01*
X144342537Y-19263249D01*
X144506322Y-19153811D01*
X144688311Y-19078429D01*
X144804230Y-19055372D01*
X144881507Y-19040000D01*
X145078493Y-19040000D01*
X145155770Y-19055372D01*
X145155770Y-19055372D01*
G37*
G36*
X278500428Y-16430372D02*
X278637534Y-16457644D01*
X278910517Y-16570717D01*
X279036632Y-16654985D01*
X279156197Y-16734876D01*
X279365124Y-16943803D01*
X279365126Y-16943806D01*
X279449437Y-17069985D01*
X279529284Y-17189485D01*
X279562402Y-17269440D01*
X279616328Y-17399628D01*
X279642356Y-17462467D01*
X279700000Y-17752261D01*
X279700000Y-18047739D01*
X279668813Y-18204524D01*
X279642356Y-18337534D01*
X279529283Y-18610517D01*
X279499911Y-18654475D01*
X279365124Y-18856197D01*
X279156197Y-19065124D01*
X279156194Y-19065126D01*
X278910517Y-19229283D01*
X278637534Y-19342356D01*
X278540935Y-19361571D01*
X278347739Y-19400000D01*
X278052261Y-19400000D01*
X277859065Y-19361571D01*
X277762466Y-19342356D01*
X277489483Y-19229283D01*
X277243806Y-19065126D01*
X277243803Y-19065124D01*
X277034876Y-18856197D01*
X276900089Y-18654475D01*
X276870717Y-18610517D01*
X276757644Y-18337534D01*
X276731187Y-18204524D01*
X276700000Y-18047739D01*
X276700000Y-17752261D01*
X276757644Y-17462467D01*
X276783673Y-17399628D01*
X276837598Y-17269440D01*
X276870716Y-17189485D01*
X276950564Y-17069985D01*
X277034874Y-16943806D01*
X277034876Y-16943803D01*
X277243803Y-16734876D01*
X277363368Y-16654985D01*
X277489483Y-16570717D01*
X277762466Y-16457644D01*
X277899572Y-16430372D01*
X278052261Y-16400000D01*
X278347739Y-16400000D01*
X278500428Y-16430372D01*
X278500428Y-16430372D01*
G37*
G36*
X172500428Y-16430372D02*
X172637534Y-16457644D01*
X172910517Y-16570717D01*
X173036632Y-16654985D01*
X173156197Y-16734876D01*
X173365124Y-16943803D01*
X173365126Y-16943806D01*
X173449437Y-17069985D01*
X173529284Y-17189485D01*
X173562402Y-17269440D01*
X173616328Y-17399628D01*
X173642356Y-17462467D01*
X173700000Y-17752261D01*
X173700000Y-18047739D01*
X173668813Y-18204524D01*
X173642356Y-18337534D01*
X173529283Y-18610517D01*
X173499911Y-18654475D01*
X173365124Y-18856197D01*
X173156197Y-19065124D01*
X173156194Y-19065126D01*
X172910517Y-19229283D01*
X172637534Y-19342356D01*
X172540935Y-19361571D01*
X172347739Y-19400000D01*
X172052261Y-19400000D01*
X171859065Y-19361571D01*
X171762466Y-19342356D01*
X171489483Y-19229283D01*
X171243806Y-19065126D01*
X171243803Y-19065124D01*
X171034876Y-18856197D01*
X170900089Y-18654475D01*
X170870717Y-18610517D01*
X170757644Y-18337534D01*
X170731187Y-18204524D01*
X170700000Y-18047739D01*
X170700000Y-17752261D01*
X170757644Y-17462467D01*
X170783673Y-17399628D01*
X170837598Y-17269440D01*
X170870716Y-17189485D01*
X170950564Y-17069985D01*
X171034874Y-16943806D01*
X171034876Y-16943803D01*
X171243803Y-16734876D01*
X171363368Y-16654985D01*
X171489483Y-16570717D01*
X171762466Y-16457644D01*
X171899572Y-16430372D01*
X172052261Y-16400000D01*
X172347739Y-16400000D01*
X172500428Y-16430372D01*
X172500428Y-16430372D01*
G37*
G36*
X17666703Y-15261486D02*
X17957883Y-15382097D01*
X18219944Y-15557201D01*
X18442799Y-15780056D01*
X18617903Y-16042117D01*
X18738514Y-16333297D01*
X18800000Y-16642412D01*
X18800000Y-16957588D01*
X18738514Y-17266703D01*
X18617903Y-17557883D01*
X18442799Y-17819944D01*
X18219944Y-18042799D01*
X17957883Y-18217903D01*
X17666703Y-18338514D01*
X17357588Y-18400000D01*
X17042412Y-18400000D01*
X16733297Y-18338514D01*
X16442117Y-18217903D01*
X16180056Y-18042799D01*
X15957201Y-17819944D01*
X15782097Y-17557883D01*
X15661486Y-17266703D01*
X15600000Y-16957588D01*
X15600000Y-16642412D01*
X15661486Y-16333297D01*
X15782097Y-16042117D01*
X15957201Y-15780056D01*
X16180056Y-15557201D01*
X16442117Y-15382097D01*
X16733297Y-15261486D01*
X17042412Y-15200000D01*
X17357588Y-15200000D01*
X17666703Y-15261486D01*
X17666703Y-15261486D01*
G37*
M02*
