G04 #@! TF.GenerationSoftware,KiCad,Pcbnew,5.0.2-bee76a0~70~ubuntu16.04.1*
G04 #@! TF.CreationDate,2021-10-26T00:07:22+01:00*
G04 #@! TF.ProjectId,Podcar_PCB,506f6463-6172-45f5-9043-422e6b696361,rev?*
G04 #@! TF.SameCoordinates,Original*
G04 #@! TF.FileFunction,Legend,Top*
G04 #@! TF.FilePolarity,Positive*
%FSLAX46Y46*%
G04 Gerber Fmt 4.6, Leading zero omitted, Abs format (unit mm)*
G04 Created by KiCad (PCBNEW 5.0.2-bee76a0~70~ubuntu16.04.1) date Tue 26 Oct 2021 00:07:22 BST*
%MOMM*%
%LPD*%
G01*
G04 APERTURE LIST*
%ADD10C,0.300000*%
%ADD11C,0.250000*%
%ADD12C,0.150000*%
%ADD13C,0.160000*%
%ADD14C,0.120000*%
G04 APERTURE END LIST*
D10*
X204180952Y-131405952D02*
X204657142Y-131405952D01*
X204895238Y-131525000D01*
X205133333Y-131763095D01*
X205252380Y-132239285D01*
X205252380Y-133072619D01*
X205133333Y-133548809D01*
X204895238Y-133786904D01*
X204657142Y-133905952D01*
X204180952Y-133905952D01*
X203942857Y-133786904D01*
X203704761Y-133548809D01*
X203585714Y-133072619D01*
X203585714Y-132239285D01*
X203704761Y-131763095D01*
X203942857Y-131525000D01*
X204180952Y-131405952D01*
X206323809Y-132239285D02*
X206323809Y-134739285D01*
X206323809Y-132358333D02*
X206561904Y-132239285D01*
X207038095Y-132239285D01*
X207276190Y-132358333D01*
X207395238Y-132477380D01*
X207514285Y-132715476D01*
X207514285Y-133429761D01*
X207395238Y-133667857D01*
X207276190Y-133786904D01*
X207038095Y-133905952D01*
X206561904Y-133905952D01*
X206323809Y-133786904D01*
X209538095Y-133786904D02*
X209300000Y-133905952D01*
X208823809Y-133905952D01*
X208585714Y-133786904D01*
X208466666Y-133548809D01*
X208466666Y-132596428D01*
X208585714Y-132358333D01*
X208823809Y-132239285D01*
X209300000Y-132239285D01*
X209538095Y-132358333D01*
X209657142Y-132596428D01*
X209657142Y-132834523D01*
X208466666Y-133072619D01*
X210728571Y-132239285D02*
X210728571Y-133905952D01*
X210728571Y-132477380D02*
X210847619Y-132358333D01*
X211085714Y-132239285D01*
X211442857Y-132239285D01*
X211680952Y-132358333D01*
X211800000Y-132596428D01*
X211800000Y-133905952D01*
X212990476Y-133905952D02*
X212990476Y-131405952D01*
X213942857Y-131405952D01*
X214180952Y-131525000D01*
X214300000Y-131644047D01*
X214419047Y-131882142D01*
X214419047Y-132239285D01*
X214300000Y-132477380D01*
X214180952Y-132596428D01*
X213942857Y-132715476D01*
X212990476Y-132715476D01*
X215847619Y-133905952D02*
X215609523Y-133786904D01*
X215490476Y-133667857D01*
X215371428Y-133429761D01*
X215371428Y-132715476D01*
X215490476Y-132477380D01*
X215609523Y-132358333D01*
X215847619Y-132239285D01*
X216204761Y-132239285D01*
X216442857Y-132358333D01*
X216561904Y-132477380D01*
X216680952Y-132715476D01*
X216680952Y-133429761D01*
X216561904Y-133667857D01*
X216442857Y-133786904D01*
X216204761Y-133905952D01*
X215847619Y-133905952D01*
X218823809Y-133905952D02*
X218823809Y-131405952D01*
X218823809Y-133786904D02*
X218585714Y-133905952D01*
X218109523Y-133905952D01*
X217871428Y-133786904D01*
X217752380Y-133667857D01*
X217633333Y-133429761D01*
X217633333Y-132715476D01*
X217752380Y-132477380D01*
X217871428Y-132358333D01*
X218109523Y-132239285D01*
X218585714Y-132239285D01*
X218823809Y-132358333D01*
X221085714Y-133786904D02*
X220847619Y-133905952D01*
X220371428Y-133905952D01*
X220133333Y-133786904D01*
X220014285Y-133667857D01*
X219895238Y-133429761D01*
X219895238Y-132715476D01*
X220014285Y-132477380D01*
X220133333Y-132358333D01*
X220371428Y-132239285D01*
X220847619Y-132239285D01*
X221085714Y-132358333D01*
X223228571Y-133905952D02*
X223228571Y-132596428D01*
X223109523Y-132358333D01*
X222871428Y-132239285D01*
X222395238Y-132239285D01*
X222157142Y-132358333D01*
X223228571Y-133786904D02*
X222990476Y-133905952D01*
X222395238Y-133905952D01*
X222157142Y-133786904D01*
X222038095Y-133548809D01*
X222038095Y-133310714D01*
X222157142Y-133072619D01*
X222395238Y-132953571D01*
X222990476Y-132953571D01*
X223228571Y-132834523D01*
X224419047Y-133905952D02*
X224419047Y-132239285D01*
X224419047Y-132715476D02*
X224538095Y-132477380D01*
X224657142Y-132358333D01*
X224895238Y-132239285D01*
X225133333Y-132239285D01*
X227871428Y-133905952D02*
X227871428Y-131405952D01*
X228823809Y-131405952D01*
X229061904Y-131525000D01*
X229180952Y-131644047D01*
X229300000Y-131882142D01*
X229300000Y-132239285D01*
X229180952Y-132477380D01*
X229061904Y-132596428D01*
X228823809Y-132715476D01*
X227871428Y-132715476D01*
X230371428Y-133905952D02*
X230371428Y-132239285D01*
X230371428Y-132715476D02*
X230490476Y-132477380D01*
X230609523Y-132358333D01*
X230847619Y-132239285D01*
X231085714Y-132239285D01*
X232276190Y-133905952D02*
X232038095Y-133786904D01*
X231919047Y-133667857D01*
X231800000Y-133429761D01*
X231800000Y-132715476D01*
X231919047Y-132477380D01*
X232038095Y-132358333D01*
X232276190Y-132239285D01*
X232633333Y-132239285D01*
X232871428Y-132358333D01*
X232990476Y-132477380D01*
X233109523Y-132715476D01*
X233109523Y-133429761D01*
X232990476Y-133667857D01*
X232871428Y-133786904D01*
X232633333Y-133905952D01*
X232276190Y-133905952D01*
X234180952Y-132239285D02*
X234180952Y-134382142D01*
X234061904Y-134620238D01*
X233823809Y-134739285D01*
X233704761Y-134739285D01*
X234180952Y-131405952D02*
X234061904Y-131525000D01*
X234180952Y-131644047D01*
X234300000Y-131525000D01*
X234180952Y-131405952D01*
X234180952Y-131644047D01*
X236323809Y-133786904D02*
X236085714Y-133905952D01*
X235609523Y-133905952D01*
X235371428Y-133786904D01*
X235252380Y-133548809D01*
X235252380Y-132596428D01*
X235371428Y-132358333D01*
X235609523Y-132239285D01*
X236085714Y-132239285D01*
X236323809Y-132358333D01*
X236442857Y-132596428D01*
X236442857Y-132834523D01*
X235252380Y-133072619D01*
X238585714Y-133786904D02*
X238347619Y-133905952D01*
X237871428Y-133905952D01*
X237633333Y-133786904D01*
X237514285Y-133667857D01*
X237395238Y-133429761D01*
X237395238Y-132715476D01*
X237514285Y-132477380D01*
X237633333Y-132358333D01*
X237871428Y-132239285D01*
X238347619Y-132239285D01*
X238585714Y-132358333D01*
X239300000Y-132239285D02*
X240252380Y-132239285D01*
X239657142Y-131405952D02*
X239657142Y-133548809D01*
X239776190Y-133786904D01*
X240014285Y-133905952D01*
X240252380Y-133905952D01*
X189061904Y-137955952D02*
X189061904Y-135455952D01*
X190014285Y-135455952D01*
X190252380Y-135575000D01*
X190371428Y-135694047D01*
X190490476Y-135932142D01*
X190490476Y-136289285D01*
X190371428Y-136527380D01*
X190252380Y-136646428D01*
X190014285Y-136765476D01*
X189061904Y-136765476D01*
X192990476Y-137717857D02*
X192871428Y-137836904D01*
X192514285Y-137955952D01*
X192276190Y-137955952D01*
X191919047Y-137836904D01*
X191680952Y-137598809D01*
X191561904Y-137360714D01*
X191442857Y-136884523D01*
X191442857Y-136527380D01*
X191561904Y-136051190D01*
X191680952Y-135813095D01*
X191919047Y-135575000D01*
X192276190Y-135455952D01*
X192514285Y-135455952D01*
X192871428Y-135575000D01*
X192990476Y-135694047D01*
X194895238Y-136646428D02*
X195252380Y-136765476D01*
X195371428Y-136884523D01*
X195490476Y-137122619D01*
X195490476Y-137479761D01*
X195371428Y-137717857D01*
X195252380Y-137836904D01*
X195014285Y-137955952D01*
X194061904Y-137955952D01*
X194061904Y-135455952D01*
X194895238Y-135455952D01*
X195133333Y-135575000D01*
X195252380Y-135694047D01*
X195371428Y-135932142D01*
X195371428Y-136170238D01*
X195252380Y-136408333D01*
X195133333Y-136527380D01*
X194895238Y-136646428D01*
X194061904Y-136646428D01*
X198109523Y-135455952D02*
X198942857Y-137955952D01*
X199776190Y-135455952D01*
X201561904Y-137836904D02*
X201323809Y-137955952D01*
X200847619Y-137955952D01*
X200609523Y-137836904D01*
X200490476Y-137598809D01*
X200490476Y-136646428D01*
X200609523Y-136408333D01*
X200847619Y-136289285D01*
X201323809Y-136289285D01*
X201561904Y-136408333D01*
X201680952Y-136646428D01*
X201680952Y-136884523D01*
X200490476Y-137122619D01*
X202752380Y-137955952D02*
X202752380Y-136289285D01*
X202752380Y-136765476D02*
X202871428Y-136527380D01*
X202990476Y-136408333D01*
X203228571Y-136289285D01*
X203466666Y-136289285D01*
X204180952Y-137836904D02*
X204419047Y-137955952D01*
X204895238Y-137955952D01*
X205133333Y-137836904D01*
X205252380Y-137598809D01*
X205252380Y-137479761D01*
X205133333Y-137241666D01*
X204895238Y-137122619D01*
X204538095Y-137122619D01*
X204300000Y-137003571D01*
X204180952Y-136765476D01*
X204180952Y-136646428D01*
X204300000Y-136408333D01*
X204538095Y-136289285D01*
X204895238Y-136289285D01*
X205133333Y-136408333D01*
X206323809Y-137955952D02*
X206323809Y-136289285D01*
X206323809Y-135455952D02*
X206204761Y-135575000D01*
X206323809Y-135694047D01*
X206442857Y-135575000D01*
X206323809Y-135455952D01*
X206323809Y-135694047D01*
X207871428Y-137955952D02*
X207633333Y-137836904D01*
X207514285Y-137717857D01*
X207395238Y-137479761D01*
X207395238Y-136765476D01*
X207514285Y-136527380D01*
X207633333Y-136408333D01*
X207871428Y-136289285D01*
X208228571Y-136289285D01*
X208466666Y-136408333D01*
X208585714Y-136527380D01*
X208704761Y-136765476D01*
X208704761Y-137479761D01*
X208585714Y-137717857D01*
X208466666Y-137836904D01*
X208228571Y-137955952D01*
X207871428Y-137955952D01*
X209776190Y-136289285D02*
X209776190Y-137955952D01*
X209776190Y-136527380D02*
X209895238Y-136408333D01*
X210133333Y-136289285D01*
X210490476Y-136289285D01*
X210728571Y-136408333D01*
X210847619Y-136646428D01*
X210847619Y-137955952D01*
X215252380Y-137955952D02*
X213823809Y-137955952D01*
X214538095Y-137955952D02*
X214538095Y-135455952D01*
X214300000Y-135813095D01*
X214061904Y-136051190D01*
X213823809Y-136170238D01*
X216323809Y-137717857D02*
X216442857Y-137836904D01*
X216323809Y-137955952D01*
X216204761Y-137836904D01*
X216323809Y-137717857D01*
X216323809Y-137955952D01*
X218704761Y-135455952D02*
X217514285Y-135455952D01*
X217395238Y-136646428D01*
X217514285Y-136527380D01*
X217752380Y-136408333D01*
X218347619Y-136408333D01*
X218585714Y-136527380D01*
X218704761Y-136646428D01*
X218823809Y-136884523D01*
X218823809Y-137479761D01*
X218704761Y-137717857D01*
X218585714Y-137836904D01*
X218347619Y-137955952D01*
X217752380Y-137955952D01*
X217514285Y-137836904D01*
X217395238Y-137717857D01*
X221800000Y-137003571D02*
X223704761Y-137003571D01*
X224895238Y-137003571D02*
X226800000Y-137003571D01*
X230371428Y-135455952D02*
X230847619Y-135455952D01*
X231085714Y-135575000D01*
X231323809Y-135813095D01*
X231442857Y-136289285D01*
X231442857Y-137122619D01*
X231323809Y-137598809D01*
X231085714Y-137836904D01*
X230847619Y-137955952D01*
X230371428Y-137955952D01*
X230133333Y-137836904D01*
X229895238Y-137598809D01*
X229776190Y-137122619D01*
X229776190Y-136289285D01*
X229895238Y-135813095D01*
X230133333Y-135575000D01*
X230371428Y-135455952D01*
X233585714Y-137836904D02*
X233347619Y-137955952D01*
X232871428Y-137955952D01*
X232633333Y-137836904D01*
X232514285Y-137717857D01*
X232395238Y-137479761D01*
X232395238Y-136765476D01*
X232514285Y-136527380D01*
X232633333Y-136408333D01*
X232871428Y-136289285D01*
X233347619Y-136289285D01*
X233585714Y-136408333D01*
X234300000Y-136289285D02*
X235252380Y-136289285D01*
X234657142Y-135455952D02*
X234657142Y-137598809D01*
X234776190Y-137836904D01*
X235014285Y-137955952D01*
X235252380Y-137955952D01*
X236442857Y-137955952D02*
X236204761Y-137836904D01*
X236085714Y-137717857D01*
X235966666Y-137479761D01*
X235966666Y-136765476D01*
X236085714Y-136527380D01*
X236204761Y-136408333D01*
X236442857Y-136289285D01*
X236799999Y-136289285D01*
X237038095Y-136408333D01*
X237157142Y-136527380D01*
X237276190Y-136765476D01*
X237276190Y-137479761D01*
X237157142Y-137717857D01*
X237038095Y-137836904D01*
X236799999Y-137955952D01*
X236442857Y-137955952D01*
X238347619Y-137955952D02*
X238347619Y-135455952D01*
X238347619Y-136408333D02*
X238585714Y-136289285D01*
X239061904Y-136289285D01*
X239299999Y-136408333D01*
X239419047Y-136527380D01*
X239538095Y-136765476D01*
X239538095Y-137479761D01*
X239419047Y-137717857D01*
X239299999Y-137836904D01*
X239061904Y-137955952D01*
X238585714Y-137955952D01*
X238347619Y-137836904D01*
X241561904Y-137836904D02*
X241323809Y-137955952D01*
X240847619Y-137955952D01*
X240609523Y-137836904D01*
X240490476Y-137598809D01*
X240490476Y-136646428D01*
X240609523Y-136408333D01*
X240847619Y-136289285D01*
X241323809Y-136289285D01*
X241561904Y-136408333D01*
X241680952Y-136646428D01*
X241680952Y-136884523D01*
X240490476Y-137122619D01*
X242752380Y-137955952D02*
X242752380Y-136289285D01*
X242752380Y-136765476D02*
X242871428Y-136527380D01*
X242990476Y-136408333D01*
X243228571Y-136289285D01*
X243466666Y-136289285D01*
X246085714Y-135694047D02*
X246204761Y-135575000D01*
X246442857Y-135455952D01*
X247038095Y-135455952D01*
X247276190Y-135575000D01*
X247395238Y-135694047D01*
X247514285Y-135932142D01*
X247514285Y-136170238D01*
X247395238Y-136527380D01*
X245966666Y-137955952D01*
X247514285Y-137955952D01*
X249061904Y-135455952D02*
X249299999Y-135455952D01*
X249538095Y-135575000D01*
X249657142Y-135694047D01*
X249776190Y-135932142D01*
X249895238Y-136408333D01*
X249895238Y-137003571D01*
X249776190Y-137479761D01*
X249657142Y-137717857D01*
X249538095Y-137836904D01*
X249299999Y-137955952D01*
X249061904Y-137955952D01*
X248823809Y-137836904D01*
X248704761Y-137717857D01*
X248585714Y-137479761D01*
X248466666Y-137003571D01*
X248466666Y-136408333D01*
X248585714Y-135932142D01*
X248704761Y-135694047D01*
X248823809Y-135575000D01*
X249061904Y-135455952D01*
X250847619Y-135694047D02*
X250966666Y-135575000D01*
X251204761Y-135455952D01*
X251799999Y-135455952D01*
X252038095Y-135575000D01*
X252157142Y-135694047D01*
X252276190Y-135932142D01*
X252276190Y-136170238D01*
X252157142Y-136527380D01*
X250728571Y-137955952D01*
X252276190Y-137955952D01*
X254657142Y-137955952D02*
X253228571Y-137955952D01*
X253942857Y-137955952D02*
X253942857Y-135455952D01*
X253704761Y-135813095D01*
X253466666Y-136051190D01*
X253228571Y-136170238D01*
X75100000Y-47878571D02*
X76100000Y-49378571D01*
X76100000Y-47878571D02*
X75100000Y-49378571D01*
X77385714Y-49378571D02*
X76671428Y-49378571D01*
X76671428Y-47878571D01*
X78528571Y-48378571D02*
X78528571Y-49378571D01*
X78171428Y-47807142D02*
X77814285Y-48878571D01*
X78742857Y-48878571D01*
X79600000Y-47878571D02*
X79742857Y-47878571D01*
X79885714Y-47950000D01*
X79957142Y-48021428D01*
X80028571Y-48164285D01*
X80100000Y-48450000D01*
X80100000Y-48807142D01*
X80028571Y-49092857D01*
X79957142Y-49235714D01*
X79885714Y-49307142D01*
X79742857Y-49378571D01*
X79600000Y-49378571D01*
X79457142Y-49307142D01*
X79385714Y-49235714D01*
X79314285Y-49092857D01*
X79242857Y-48807142D01*
X79242857Y-48450000D01*
X79314285Y-48164285D01*
X79385714Y-48021428D01*
X79457142Y-47950000D01*
X79600000Y-47878571D01*
X81528571Y-49378571D02*
X80671428Y-49378571D01*
X81100000Y-49378571D02*
X81100000Y-47878571D01*
X80957142Y-48092857D01*
X80814285Y-48235714D01*
X80671428Y-48307142D01*
X82814285Y-47878571D02*
X82528571Y-47878571D01*
X82385714Y-47950000D01*
X82314285Y-48021428D01*
X82171428Y-48235714D01*
X82100000Y-48521428D01*
X82100000Y-49092857D01*
X82171428Y-49235714D01*
X82242857Y-49307142D01*
X82385714Y-49378571D01*
X82671428Y-49378571D01*
X82814285Y-49307142D01*
X82885714Y-49235714D01*
X82957142Y-49092857D01*
X82957142Y-48735714D01*
X82885714Y-48592857D01*
X82814285Y-48521428D01*
X82671428Y-48450000D01*
X82385714Y-48450000D01*
X82242857Y-48521428D01*
X82171428Y-48592857D01*
X82100000Y-48735714D01*
X83600000Y-48592857D02*
X84100000Y-48592857D01*
X84314285Y-49378571D02*
X83600000Y-49378571D01*
X83600000Y-47878571D01*
X84314285Y-47878571D01*
X85742857Y-49378571D02*
X84885714Y-49378571D01*
X85314285Y-49378571D02*
X85314285Y-47878571D01*
X85171428Y-48092857D01*
X85028571Y-48235714D01*
X84885714Y-48307142D01*
X88028571Y-48592857D02*
X88242857Y-48664285D01*
X88314285Y-48735714D01*
X88385714Y-48878571D01*
X88385714Y-49092857D01*
X88314285Y-49235714D01*
X88242857Y-49307142D01*
X88100000Y-49378571D01*
X87528571Y-49378571D01*
X87528571Y-47878571D01*
X88028571Y-47878571D01*
X88171428Y-47950000D01*
X88242857Y-48021428D01*
X88314285Y-48164285D01*
X88314285Y-48307142D01*
X88242857Y-48450000D01*
X88171428Y-48521428D01*
X88028571Y-48592857D01*
X87528571Y-48592857D01*
X89671428Y-48378571D02*
X89671428Y-49378571D01*
X89028571Y-48378571D02*
X89028571Y-49164285D01*
X89100000Y-49307142D01*
X89242857Y-49378571D01*
X89457142Y-49378571D01*
X89600000Y-49307142D01*
X89671428Y-49235714D01*
X91028571Y-49307142D02*
X90885714Y-49378571D01*
X90600000Y-49378571D01*
X90457142Y-49307142D01*
X90385714Y-49235714D01*
X90314285Y-49092857D01*
X90314285Y-48664285D01*
X90385714Y-48521428D01*
X90457142Y-48450000D01*
X90600000Y-48378571D01*
X90885714Y-48378571D01*
X91028571Y-48450000D01*
X91671428Y-49378571D02*
X91671428Y-47878571D01*
X91814285Y-48807142D02*
X92242857Y-49378571D01*
X92242857Y-48378571D02*
X91671428Y-48950000D01*
X94885714Y-49235714D02*
X94814285Y-49307142D01*
X94600000Y-49378571D01*
X94457142Y-49378571D01*
X94242857Y-49307142D01*
X94100000Y-49164285D01*
X94028571Y-49021428D01*
X93957142Y-48735714D01*
X93957142Y-48521428D01*
X94028571Y-48235714D01*
X94100000Y-48092857D01*
X94242857Y-47950000D01*
X94457142Y-47878571D01*
X94600000Y-47878571D01*
X94814285Y-47950000D01*
X94885714Y-48021428D01*
X95742857Y-49378571D02*
X95600000Y-49307142D01*
X95528571Y-49235714D01*
X95457142Y-49092857D01*
X95457142Y-48664285D01*
X95528571Y-48521428D01*
X95600000Y-48450000D01*
X95742857Y-48378571D01*
X95957142Y-48378571D01*
X96100000Y-48450000D01*
X96171428Y-48521428D01*
X96242857Y-48664285D01*
X96242857Y-49092857D01*
X96171428Y-49235714D01*
X96100000Y-49307142D01*
X95957142Y-49378571D01*
X95742857Y-49378571D01*
X96885714Y-48378571D02*
X96885714Y-49378571D01*
X96885714Y-48521428D02*
X96957142Y-48450000D01*
X97100000Y-48378571D01*
X97314285Y-48378571D01*
X97457142Y-48450000D01*
X97528571Y-48592857D01*
X97528571Y-49378571D01*
X98100000Y-48378571D02*
X98457142Y-49378571D01*
X98814285Y-48378571D01*
X99957142Y-49307142D02*
X99814285Y-49378571D01*
X99528571Y-49378571D01*
X99385714Y-49307142D01*
X99314285Y-49164285D01*
X99314285Y-48592857D01*
X99385714Y-48450000D01*
X99528571Y-48378571D01*
X99814285Y-48378571D01*
X99957142Y-48450000D01*
X100028571Y-48592857D01*
X100028571Y-48735714D01*
X99314285Y-48878571D01*
X100671428Y-49378571D02*
X100671428Y-48378571D01*
X100671428Y-48664285D02*
X100742857Y-48521428D01*
X100814285Y-48450000D01*
X100957142Y-48378571D01*
X101100000Y-48378571D01*
X101385714Y-48378571D02*
X101957142Y-48378571D01*
X101600000Y-47878571D02*
X101600000Y-49164285D01*
X101671428Y-49307142D01*
X101814285Y-49378571D01*
X101957142Y-49378571D01*
X103028571Y-49307142D02*
X102885714Y-49378571D01*
X102600000Y-49378571D01*
X102457142Y-49307142D01*
X102385714Y-49164285D01*
X102385714Y-48592857D01*
X102457142Y-48450000D01*
X102600000Y-48378571D01*
X102885714Y-48378571D01*
X103028571Y-48450000D01*
X103100000Y-48592857D01*
X103100000Y-48735714D01*
X102385714Y-48878571D01*
X103742857Y-49378571D02*
X103742857Y-48378571D01*
X103742857Y-48664285D02*
X103814285Y-48521428D01*
X103885714Y-48450000D01*
X104028571Y-48378571D01*
X104171428Y-48378571D01*
X133100000Y-47878571D02*
X134100000Y-49378571D01*
X134100000Y-47878571D02*
X133100000Y-49378571D01*
X135385714Y-49378571D02*
X134671428Y-49378571D01*
X134671428Y-47878571D01*
X136528571Y-48378571D02*
X136528571Y-49378571D01*
X136171428Y-47807142D02*
X135814285Y-48878571D01*
X136742857Y-48878571D01*
X137600000Y-47878571D02*
X137742857Y-47878571D01*
X137885714Y-47950000D01*
X137957142Y-48021428D01*
X138028571Y-48164285D01*
X138100000Y-48450000D01*
X138100000Y-48807142D01*
X138028571Y-49092857D01*
X137957142Y-49235714D01*
X137885714Y-49307142D01*
X137742857Y-49378571D01*
X137600000Y-49378571D01*
X137457142Y-49307142D01*
X137385714Y-49235714D01*
X137314285Y-49092857D01*
X137242857Y-48807142D01*
X137242857Y-48450000D01*
X137314285Y-48164285D01*
X137385714Y-48021428D01*
X137457142Y-47950000D01*
X137600000Y-47878571D01*
X139528571Y-49378571D02*
X138671428Y-49378571D01*
X139100000Y-49378571D02*
X139100000Y-47878571D01*
X138957142Y-48092857D01*
X138814285Y-48235714D01*
X138671428Y-48307142D01*
X140814285Y-47878571D02*
X140528571Y-47878571D01*
X140385714Y-47950000D01*
X140314285Y-48021428D01*
X140171428Y-48235714D01*
X140100000Y-48521428D01*
X140100000Y-49092857D01*
X140171428Y-49235714D01*
X140242857Y-49307142D01*
X140385714Y-49378571D01*
X140671428Y-49378571D01*
X140814285Y-49307142D01*
X140885714Y-49235714D01*
X140957142Y-49092857D01*
X140957142Y-48735714D01*
X140885714Y-48592857D01*
X140814285Y-48521428D01*
X140671428Y-48450000D01*
X140385714Y-48450000D01*
X140242857Y-48521428D01*
X140171428Y-48592857D01*
X140100000Y-48735714D01*
X141600000Y-48592857D02*
X142100000Y-48592857D01*
X142314285Y-49378571D02*
X141600000Y-49378571D01*
X141600000Y-47878571D01*
X142314285Y-47878571D01*
X143742857Y-49378571D02*
X142885714Y-49378571D01*
X143314285Y-49378571D02*
X143314285Y-47878571D01*
X143171428Y-48092857D01*
X143028571Y-48235714D01*
X142885714Y-48307142D01*
X146028571Y-48592857D02*
X146242857Y-48664285D01*
X146314285Y-48735714D01*
X146385714Y-48878571D01*
X146385714Y-49092857D01*
X146314285Y-49235714D01*
X146242857Y-49307142D01*
X146100000Y-49378571D01*
X145528571Y-49378571D01*
X145528571Y-47878571D01*
X146028571Y-47878571D01*
X146171428Y-47950000D01*
X146242857Y-48021428D01*
X146314285Y-48164285D01*
X146314285Y-48307142D01*
X146242857Y-48450000D01*
X146171428Y-48521428D01*
X146028571Y-48592857D01*
X145528571Y-48592857D01*
X147671428Y-48378571D02*
X147671428Y-49378571D01*
X147028571Y-48378571D02*
X147028571Y-49164285D01*
X147100000Y-49307142D01*
X147242857Y-49378571D01*
X147457142Y-49378571D01*
X147600000Y-49307142D01*
X147671428Y-49235714D01*
X149028571Y-49307142D02*
X148885714Y-49378571D01*
X148600000Y-49378571D01*
X148457142Y-49307142D01*
X148385714Y-49235714D01*
X148314285Y-49092857D01*
X148314285Y-48664285D01*
X148385714Y-48521428D01*
X148457142Y-48450000D01*
X148600000Y-48378571D01*
X148885714Y-48378571D01*
X149028571Y-48450000D01*
X149671428Y-49378571D02*
X149671428Y-47878571D01*
X149814285Y-48807142D02*
X150242857Y-49378571D01*
X150242857Y-48378571D02*
X149671428Y-48950000D01*
X152885714Y-49235714D02*
X152814285Y-49307142D01*
X152600000Y-49378571D01*
X152457142Y-49378571D01*
X152242857Y-49307142D01*
X152100000Y-49164285D01*
X152028571Y-49021428D01*
X151957142Y-48735714D01*
X151957142Y-48521428D01*
X152028571Y-48235714D01*
X152100000Y-48092857D01*
X152242857Y-47950000D01*
X152457142Y-47878571D01*
X152600000Y-47878571D01*
X152814285Y-47950000D01*
X152885714Y-48021428D01*
X153742857Y-49378571D02*
X153600000Y-49307142D01*
X153528571Y-49235714D01*
X153457142Y-49092857D01*
X153457142Y-48664285D01*
X153528571Y-48521428D01*
X153600000Y-48450000D01*
X153742857Y-48378571D01*
X153957142Y-48378571D01*
X154100000Y-48450000D01*
X154171428Y-48521428D01*
X154242857Y-48664285D01*
X154242857Y-49092857D01*
X154171428Y-49235714D01*
X154100000Y-49307142D01*
X153957142Y-49378571D01*
X153742857Y-49378571D01*
X154885714Y-48378571D02*
X154885714Y-49378571D01*
X154885714Y-48521428D02*
X154957142Y-48450000D01*
X155100000Y-48378571D01*
X155314285Y-48378571D01*
X155457142Y-48450000D01*
X155528571Y-48592857D01*
X155528571Y-49378571D01*
X156100000Y-48378571D02*
X156457142Y-49378571D01*
X156814285Y-48378571D01*
X157957142Y-49307142D02*
X157814285Y-49378571D01*
X157528571Y-49378571D01*
X157385714Y-49307142D01*
X157314285Y-49164285D01*
X157314285Y-48592857D01*
X157385714Y-48450000D01*
X157528571Y-48378571D01*
X157814285Y-48378571D01*
X157957142Y-48450000D01*
X158028571Y-48592857D01*
X158028571Y-48735714D01*
X157314285Y-48878571D01*
X158671428Y-49378571D02*
X158671428Y-48378571D01*
X158671428Y-48664285D02*
X158742857Y-48521428D01*
X158814285Y-48450000D01*
X158957142Y-48378571D01*
X159100000Y-48378571D01*
X159385714Y-48378571D02*
X159957142Y-48378571D01*
X159600000Y-47878571D02*
X159600000Y-49164285D01*
X159671428Y-49307142D01*
X159814285Y-49378571D01*
X159957142Y-49378571D01*
X161028571Y-49307142D02*
X160885714Y-49378571D01*
X160600000Y-49378571D01*
X160457142Y-49307142D01*
X160385714Y-49164285D01*
X160385714Y-48592857D01*
X160457142Y-48450000D01*
X160600000Y-48378571D01*
X160885714Y-48378571D01*
X161028571Y-48450000D01*
X161100000Y-48592857D01*
X161100000Y-48735714D01*
X160385714Y-48878571D01*
X161742857Y-49378571D02*
X161742857Y-48378571D01*
X161742857Y-48664285D02*
X161814285Y-48521428D01*
X161885714Y-48450000D01*
X162028571Y-48378571D01*
X162171428Y-48378571D01*
X31171428Y-34078571D02*
X31171428Y-32578571D01*
X31742857Y-32578571D01*
X31885714Y-32650000D01*
X31957142Y-32721428D01*
X32028571Y-32864285D01*
X32028571Y-33078571D01*
X31957142Y-33221428D01*
X31885714Y-33292857D01*
X31742857Y-33364285D01*
X31171428Y-33364285D01*
X32885714Y-34078571D02*
X32742857Y-34007142D01*
X32671428Y-33935714D01*
X32600000Y-33792857D01*
X32600000Y-33364285D01*
X32671428Y-33221428D01*
X32742857Y-33150000D01*
X32885714Y-33078571D01*
X33100000Y-33078571D01*
X33242857Y-33150000D01*
X33314285Y-33221428D01*
X33385714Y-33364285D01*
X33385714Y-33792857D01*
X33314285Y-33935714D01*
X33242857Y-34007142D01*
X33100000Y-34078571D01*
X32885714Y-34078571D01*
X34242857Y-34078571D02*
X34100000Y-34007142D01*
X34028571Y-33864285D01*
X34028571Y-32578571D01*
X35028571Y-34078571D02*
X34885714Y-34007142D01*
X34814285Y-33935714D01*
X34742857Y-33792857D01*
X34742857Y-33364285D01*
X34814285Y-33221428D01*
X34885714Y-33150000D01*
X35028571Y-33078571D01*
X35242857Y-33078571D01*
X35385714Y-33150000D01*
X35457142Y-33221428D01*
X35528571Y-33364285D01*
X35528571Y-33792857D01*
X35457142Y-33935714D01*
X35385714Y-34007142D01*
X35242857Y-34078571D01*
X35028571Y-34078571D01*
X36385714Y-34078571D02*
X36242857Y-34007142D01*
X36171428Y-33864285D01*
X36171428Y-32578571D01*
X37600000Y-33078571D02*
X37600000Y-34078571D01*
X36957142Y-33078571D02*
X36957142Y-33864285D01*
X37028571Y-34007142D01*
X37171428Y-34078571D01*
X37385714Y-34078571D01*
X37528571Y-34007142D01*
X37600000Y-33935714D01*
X39457142Y-33078571D02*
X39457142Y-34364285D01*
X39385714Y-34507142D01*
X39242857Y-34578571D01*
X39171428Y-34578571D01*
X39457142Y-32578571D02*
X39385714Y-32650000D01*
X39457142Y-32721428D01*
X39528571Y-32650000D01*
X39457142Y-32578571D01*
X39457142Y-32721428D01*
X40171428Y-34078571D02*
X40171428Y-33078571D01*
X40171428Y-33364285D02*
X40242857Y-33221428D01*
X40314285Y-33150000D01*
X40457142Y-33078571D01*
X40600000Y-33078571D01*
X41100000Y-34078571D02*
X41100000Y-32578571D01*
X41242857Y-33507142D02*
X41671428Y-34078571D01*
X41671428Y-33078571D02*
X41100000Y-33650000D01*
X42242857Y-32721428D02*
X42314285Y-32650000D01*
X42457142Y-32578571D01*
X42814285Y-32578571D01*
X42957142Y-32650000D01*
X43028571Y-32721428D01*
X43100000Y-32864285D01*
X43100000Y-33007142D01*
X43028571Y-33221428D01*
X42171428Y-34078571D01*
X43100000Y-34078571D01*
X44528571Y-34078571D02*
X43671428Y-34078571D01*
X44100000Y-34078571D02*
X44100000Y-32578571D01*
X43957142Y-32792857D01*
X43814285Y-32935714D01*
X43671428Y-33007142D01*
X45028571Y-33078571D02*
X45385714Y-34078571D01*
X45742857Y-33078571D01*
X46171428Y-32578571D02*
X47100000Y-32578571D01*
X46600000Y-33150000D01*
X46814285Y-33150000D01*
X46957142Y-33221428D01*
X47028571Y-33292857D01*
X47100000Y-33435714D01*
X47100000Y-33792857D01*
X47028571Y-33935714D01*
X46957142Y-34007142D01*
X46814285Y-34078571D01*
X46385714Y-34078571D01*
X46242857Y-34007142D01*
X46171428Y-33935714D01*
D11*
X38328571Y-72466666D02*
X38804761Y-72466666D01*
X38233333Y-72752380D02*
X38566666Y-71752380D01*
X38900000Y-72752380D01*
X39661904Y-72752380D02*
X39661904Y-71752380D01*
X39661904Y-72704761D02*
X39566666Y-72752380D01*
X39376190Y-72752380D01*
X39280952Y-72704761D01*
X39233333Y-72657142D01*
X39185714Y-72561904D01*
X39185714Y-72276190D01*
X39233333Y-72180952D01*
X39280952Y-72133333D01*
X39376190Y-72085714D01*
X39566666Y-72085714D01*
X39661904Y-72133333D01*
X40566666Y-72752380D02*
X40566666Y-72228571D01*
X40519047Y-72133333D01*
X40423809Y-72085714D01*
X40233333Y-72085714D01*
X40138095Y-72133333D01*
X40566666Y-72704761D02*
X40471428Y-72752380D01*
X40233333Y-72752380D01*
X40138095Y-72704761D01*
X40090476Y-72609523D01*
X40090476Y-72514285D01*
X40138095Y-72419047D01*
X40233333Y-72371428D01*
X40471428Y-72371428D01*
X40566666Y-72323809D01*
X40900000Y-72085714D02*
X41280952Y-72085714D01*
X41042857Y-72752380D02*
X41042857Y-71895238D01*
X41090476Y-71800000D01*
X41185714Y-71752380D01*
X41280952Y-71752380D01*
X41614285Y-72752380D02*
X41614285Y-72085714D01*
X41614285Y-72276190D02*
X41661904Y-72180952D01*
X41709523Y-72133333D01*
X41804761Y-72085714D01*
X41900000Y-72085714D01*
X42661904Y-72085714D02*
X42661904Y-72752380D01*
X42233333Y-72085714D02*
X42233333Y-72609523D01*
X42280952Y-72704761D01*
X42376190Y-72752380D01*
X42519047Y-72752380D01*
X42614285Y-72704761D01*
X42661904Y-72657142D01*
X43138095Y-72752380D02*
X43138095Y-72085714D01*
X43138095Y-71752380D02*
X43090476Y-71800000D01*
X43138095Y-71847619D01*
X43185714Y-71800000D01*
X43138095Y-71752380D01*
X43138095Y-71847619D01*
X43471428Y-72085714D02*
X43852380Y-72085714D01*
X43614285Y-71752380D02*
X43614285Y-72609523D01*
X43661904Y-72704761D01*
X43757142Y-72752380D01*
X43852380Y-72752380D01*
X44947619Y-72752380D02*
X44947619Y-71752380D01*
X45280952Y-72466666D01*
X45614285Y-71752380D01*
X45614285Y-72752380D01*
X46661904Y-72657142D02*
X46614285Y-72704761D01*
X46471428Y-72752380D01*
X46376190Y-72752380D01*
X46233333Y-72704761D01*
X46138095Y-72609523D01*
X46090476Y-72514285D01*
X46042857Y-72323809D01*
X46042857Y-72180952D01*
X46090476Y-71990476D01*
X46138095Y-71895238D01*
X46233333Y-71800000D01*
X46376190Y-71752380D01*
X46471428Y-71752380D01*
X46614285Y-71800000D01*
X46661904Y-71847619D01*
X47090476Y-72752380D02*
X47090476Y-71752380D01*
X47471428Y-71752380D01*
X47566666Y-71800000D01*
X47614285Y-71847619D01*
X47661904Y-71942857D01*
X47661904Y-72085714D01*
X47614285Y-72180952D01*
X47566666Y-72228571D01*
X47471428Y-72276190D01*
X47090476Y-72276190D01*
X48519047Y-72085714D02*
X48519047Y-72752380D01*
X48280952Y-71704761D02*
X48042857Y-72419047D01*
X48661904Y-72419047D01*
X48947619Y-71752380D02*
X49614285Y-71752380D01*
X49185714Y-72752380D01*
X49947619Y-71847619D02*
X49995238Y-71800000D01*
X50090476Y-71752380D01*
X50328571Y-71752380D01*
X50423809Y-71800000D01*
X50471428Y-71847619D01*
X50519047Y-71942857D01*
X50519047Y-72038095D01*
X50471428Y-72180952D01*
X49900000Y-72752380D01*
X50519047Y-72752380D01*
X51423809Y-71752380D02*
X50947619Y-71752380D01*
X50900000Y-72228571D01*
X50947619Y-72180952D01*
X51042857Y-72133333D01*
X51280952Y-72133333D01*
X51376190Y-72180952D01*
X51423809Y-72228571D01*
X51471428Y-72323809D01*
X51471428Y-72561904D01*
X51423809Y-72657142D01*
X51376190Y-72704761D01*
X51280952Y-72752380D01*
X51042857Y-72752380D01*
X50947619Y-72704761D01*
X50900000Y-72657142D01*
D10*
X45842857Y-112150000D02*
X46557142Y-112150000D01*
X45700000Y-112578571D02*
X46200000Y-111078571D01*
X46700000Y-112578571D01*
X47200000Y-112578571D02*
X47200000Y-111578571D01*
X47200000Y-111864285D02*
X47271428Y-111721428D01*
X47342857Y-111650000D01*
X47485714Y-111578571D01*
X47628571Y-111578571D01*
X48771428Y-112578571D02*
X48771428Y-111078571D01*
X48771428Y-112507142D02*
X48628571Y-112578571D01*
X48342857Y-112578571D01*
X48200000Y-112507142D01*
X48128571Y-112435714D01*
X48057142Y-112292857D01*
X48057142Y-111864285D01*
X48128571Y-111721428D01*
X48200000Y-111650000D01*
X48342857Y-111578571D01*
X48628571Y-111578571D01*
X48771428Y-111650000D01*
X50128571Y-111578571D02*
X50128571Y-112578571D01*
X49485714Y-111578571D02*
X49485714Y-112364285D01*
X49557142Y-112507142D01*
X49700000Y-112578571D01*
X49914285Y-112578571D01*
X50057142Y-112507142D01*
X50128571Y-112435714D01*
X50842857Y-112578571D02*
X50842857Y-111578571D01*
X50842857Y-111078571D02*
X50771428Y-111150000D01*
X50842857Y-111221428D01*
X50914285Y-111150000D01*
X50842857Y-111078571D01*
X50842857Y-111221428D01*
X51557142Y-111578571D02*
X51557142Y-112578571D01*
X51557142Y-111721428D02*
X51628571Y-111650000D01*
X51771428Y-111578571D01*
X51985714Y-111578571D01*
X52128571Y-111650000D01*
X52200000Y-111792857D01*
X52200000Y-112578571D01*
X53128571Y-112578571D02*
X52985714Y-112507142D01*
X52914285Y-112435714D01*
X52842857Y-112292857D01*
X52842857Y-111864285D01*
X52914285Y-111721428D01*
X52985714Y-111650000D01*
X53128571Y-111578571D01*
X53342857Y-111578571D01*
X53485714Y-111650000D01*
X53557142Y-111721428D01*
X53628571Y-111864285D01*
X53628571Y-112292857D01*
X53557142Y-112435714D01*
X53485714Y-112507142D01*
X53342857Y-112578571D01*
X53128571Y-112578571D01*
X55414285Y-111078571D02*
X55414285Y-112292857D01*
X55485714Y-112435714D01*
X55557142Y-112507142D01*
X55700000Y-112578571D01*
X55985714Y-112578571D01*
X56128571Y-112507142D01*
X56200000Y-112435714D01*
X56271428Y-112292857D01*
X56271428Y-111078571D01*
X56985714Y-112578571D02*
X56985714Y-111078571D01*
X57842857Y-112578571D01*
X57842857Y-111078571D01*
X58842857Y-111078571D02*
X59128571Y-111078571D01*
X59271428Y-111150000D01*
X59414285Y-111292857D01*
X59485714Y-111578571D01*
X59485714Y-112078571D01*
X59414285Y-112364285D01*
X59271428Y-112507142D01*
X59128571Y-112578571D01*
X58842857Y-112578571D01*
X58700000Y-112507142D01*
X58557142Y-112364285D01*
X58485714Y-112078571D01*
X58485714Y-111578571D01*
X58557142Y-111292857D01*
X58700000Y-111150000D01*
X58842857Y-111078571D01*
X62128571Y-112578571D02*
X61628571Y-111864285D01*
X61271428Y-112578571D02*
X61271428Y-111078571D01*
X61842857Y-111078571D01*
X61985714Y-111150000D01*
X62057142Y-111221428D01*
X62128571Y-111364285D01*
X62128571Y-111578571D01*
X62057142Y-111721428D01*
X61985714Y-111792857D01*
X61842857Y-111864285D01*
X61271428Y-111864285D01*
X62628571Y-111078571D02*
X63557142Y-111078571D01*
X63057142Y-111650000D01*
X63271428Y-111650000D01*
X63414285Y-111721428D01*
X63485714Y-111792857D01*
X63557142Y-111935714D01*
X63557142Y-112292857D01*
X63485714Y-112435714D01*
X63414285Y-112507142D01*
X63271428Y-112578571D01*
X62842857Y-112578571D01*
X62700000Y-112507142D01*
X62628571Y-112435714D01*
X129957142Y-122078571D02*
X129242857Y-122078571D01*
X129242857Y-120578571D01*
X131314285Y-121935714D02*
X131242857Y-122007142D01*
X131028571Y-122078571D01*
X130885714Y-122078571D01*
X130671428Y-122007142D01*
X130528571Y-121864285D01*
X130457142Y-121721428D01*
X130385714Y-121435714D01*
X130385714Y-121221428D01*
X130457142Y-120935714D01*
X130528571Y-120792857D01*
X130671428Y-120650000D01*
X130885714Y-120578571D01*
X131028571Y-120578571D01*
X131242857Y-120650000D01*
X131314285Y-120721428D01*
X131957142Y-122078571D02*
X131957142Y-120578571D01*
X132314285Y-120578571D01*
X132528571Y-120650000D01*
X132671428Y-120792857D01*
X132742857Y-120935714D01*
X132814285Y-121221428D01*
X132814285Y-121435714D01*
X132742857Y-121721428D01*
X132671428Y-121864285D01*
X132528571Y-122007142D01*
X132314285Y-122078571D01*
X131957142Y-122078571D01*
X134600000Y-122078571D02*
X134600000Y-120578571D01*
X134957142Y-120578571D01*
X135171428Y-120650000D01*
X135314285Y-120792857D01*
X135385714Y-120935714D01*
X135457142Y-121221428D01*
X135457142Y-121435714D01*
X135385714Y-121721428D01*
X135314285Y-121864285D01*
X135171428Y-122007142D01*
X134957142Y-122078571D01*
X134600000Y-122078571D01*
X136100000Y-122078571D02*
X136100000Y-121078571D01*
X136100000Y-120578571D02*
X136028571Y-120650000D01*
X136100000Y-120721428D01*
X136171428Y-120650000D01*
X136100000Y-120578571D01*
X136100000Y-120721428D01*
X136742857Y-122007142D02*
X136885714Y-122078571D01*
X137171428Y-122078571D01*
X137314285Y-122007142D01*
X137385714Y-121864285D01*
X137385714Y-121792857D01*
X137314285Y-121650000D01*
X137171428Y-121578571D01*
X136957142Y-121578571D01*
X136814285Y-121507142D01*
X136742857Y-121364285D01*
X136742857Y-121292857D01*
X136814285Y-121150000D01*
X136957142Y-121078571D01*
X137171428Y-121078571D01*
X137314285Y-121150000D01*
X138028571Y-121078571D02*
X138028571Y-122578571D01*
X138028571Y-121150000D02*
X138171428Y-121078571D01*
X138457142Y-121078571D01*
X138600000Y-121150000D01*
X138671428Y-121221428D01*
X138742857Y-121364285D01*
X138742857Y-121792857D01*
X138671428Y-121935714D01*
X138600000Y-122007142D01*
X138457142Y-122078571D01*
X138171428Y-122078571D01*
X138028571Y-122007142D01*
X139600000Y-122078571D02*
X139457142Y-122007142D01*
X139385714Y-121864285D01*
X139385714Y-120578571D01*
X140814285Y-122078571D02*
X140814285Y-121292857D01*
X140742857Y-121150000D01*
X140600000Y-121078571D01*
X140314285Y-121078571D01*
X140171428Y-121150000D01*
X140814285Y-122007142D02*
X140671428Y-122078571D01*
X140314285Y-122078571D01*
X140171428Y-122007142D01*
X140100000Y-121864285D01*
X140100000Y-121721428D01*
X140171428Y-121578571D01*
X140314285Y-121507142D01*
X140671428Y-121507142D01*
X140814285Y-121435714D01*
X141385714Y-121078571D02*
X141742857Y-122078571D01*
X142100000Y-121078571D02*
X141742857Y-122078571D01*
X141600000Y-122435714D01*
X141528571Y-122507142D01*
X141385714Y-122578571D01*
X215964285Y-67678571D02*
X216892857Y-67678571D01*
X216392857Y-68250000D01*
X216607142Y-68250000D01*
X216750000Y-68321428D01*
X216821428Y-68392857D01*
X216892857Y-68535714D01*
X216892857Y-68892857D01*
X216821428Y-69035714D01*
X216750000Y-69107142D01*
X216607142Y-69178571D01*
X216178571Y-69178571D01*
X216035714Y-69107142D01*
X215964285Y-69035714D01*
X217535714Y-69178571D02*
X217535714Y-67678571D01*
X217892857Y-67678571D01*
X218107142Y-67750000D01*
X218250000Y-67892857D01*
X218321428Y-68035714D01*
X218392857Y-68321428D01*
X218392857Y-68535714D01*
X218321428Y-68821428D01*
X218250000Y-68964285D01*
X218107142Y-69107142D01*
X217892857Y-69178571D01*
X217535714Y-69178571D01*
X220892857Y-69178571D02*
X220178571Y-69178571D01*
X220178571Y-67678571D01*
X221392857Y-69178571D02*
X221392857Y-67678571D01*
X222107142Y-69178571D02*
X222107142Y-67678571D01*
X222464285Y-67678571D01*
X222678571Y-67750000D01*
X222821428Y-67892857D01*
X222892857Y-68035714D01*
X222964285Y-68321428D01*
X222964285Y-68535714D01*
X222892857Y-68821428D01*
X222821428Y-68964285D01*
X222678571Y-69107142D01*
X222464285Y-69178571D01*
X222107142Y-69178571D01*
X223535714Y-68750000D02*
X224250000Y-68750000D01*
X223392857Y-69178571D02*
X223892857Y-67678571D01*
X224392857Y-69178571D01*
X225750000Y-69178571D02*
X225250000Y-68464285D01*
X224892857Y-69178571D02*
X224892857Y-67678571D01*
X225464285Y-67678571D01*
X225607142Y-67750000D01*
X225678571Y-67821428D01*
X225750000Y-67964285D01*
X225750000Y-68178571D01*
X225678571Y-68321428D01*
X225607142Y-68392857D01*
X225464285Y-68464285D01*
X224892857Y-68464285D01*
X228035714Y-68392857D02*
X228250000Y-68464285D01*
X228321428Y-68535714D01*
X228392857Y-68678571D01*
X228392857Y-68892857D01*
X228321428Y-69035714D01*
X228250000Y-69107142D01*
X228107142Y-69178571D01*
X227535714Y-69178571D01*
X227535714Y-67678571D01*
X228035714Y-67678571D01*
X228178571Y-67750000D01*
X228250000Y-67821428D01*
X228321428Y-67964285D01*
X228321428Y-68107142D01*
X228250000Y-68250000D01*
X228178571Y-68321428D01*
X228035714Y-68392857D01*
X227535714Y-68392857D01*
X229250000Y-69178571D02*
X229107142Y-69107142D01*
X229035714Y-69035714D01*
X228964285Y-68892857D01*
X228964285Y-68464285D01*
X229035714Y-68321428D01*
X229107142Y-68250000D01*
X229250000Y-68178571D01*
X229464285Y-68178571D01*
X229607142Y-68250000D01*
X229678571Y-68321428D01*
X229750000Y-68464285D01*
X229750000Y-68892857D01*
X229678571Y-69035714D01*
X229607142Y-69107142D01*
X229464285Y-69178571D01*
X229250000Y-69178571D01*
X230250000Y-69178571D02*
X231035714Y-68178571D01*
X230250000Y-68178571D02*
X231035714Y-69178571D01*
D12*
G04 #@! TO.C,U2*
X23350000Y-52450000D02*
X23350000Y-18150000D01*
X57650000Y-52450000D02*
X23350000Y-52450000D01*
X57650000Y-18150000D02*
X57650000Y-52450000D01*
X23350000Y-18150000D02*
X57650000Y-18150000D01*
G04 #@! TO.C,U6*
X163825000Y-18300000D02*
G75*
G03X163825000Y-18300000I-3000000J0D01*
G01*
X137025000Y-18300000D02*
G75*
G03X137025000Y-18300000I-3000000J0D01*
G01*
X137025000Y-77100000D02*
G75*
G03X137025000Y-77100000I-3000000J0D01*
G01*
X163825000Y-77100000D02*
G75*
G03X163825000Y-77100000I-3000000J0D01*
G01*
D13*
X134912800Y-21942000D02*
X134509600Y-21944400D01*
X132270000Y-22812000D02*
X132270000Y-23178000D01*
X132270000Y-23178000D02*
X132039000Y-23178000D01*
X132039000Y-23178000D02*
X132039000Y-22812000D01*
X132039000Y-22812000D02*
X131712000Y-22812000D01*
X131712000Y-22812000D02*
X131712000Y-22562000D01*
X131712000Y-22562000D02*
X132039000Y-22562000D01*
X132039000Y-22562000D02*
X132039000Y-22197000D01*
X132039000Y-22197000D02*
X132270000Y-22197000D01*
X132270000Y-22197000D02*
X132270000Y-22562000D01*
X132270000Y-22562000D02*
X132597000Y-22562000D01*
X132597000Y-22562000D02*
X132597000Y-22812000D01*
X132597000Y-22812000D02*
X132270000Y-22812000D01*
X133443000Y-23466000D02*
X132731000Y-23466000D01*
X132731000Y-23466000D02*
X132731000Y-23197000D01*
X132731000Y-23197000D02*
X132962000Y-23197000D01*
X132962000Y-23197000D02*
X132962000Y-21966000D01*
X132962000Y-21966000D02*
X133212000Y-21966000D01*
X133212000Y-21966000D02*
X133212000Y-23197000D01*
X133212000Y-23197000D02*
X133443000Y-23197000D01*
X133443000Y-23197000D02*
X133443000Y-23466000D01*
X134912800Y-23466000D02*
X134509600Y-23468400D01*
X134484200Y-21944400D02*
X134484200Y-23468400D01*
X134154000Y-23468400D02*
X134179400Y-21969800D01*
X134179400Y-21969800D02*
X133717600Y-21967400D01*
X133717600Y-21967400D02*
X133722200Y-23468400D01*
X134916000Y-23468400D02*
X134912800Y-21967400D01*
X161902000Y-23466000D02*
X161632000Y-23466000D01*
X161632000Y-23466000D02*
X161632000Y-21966000D01*
X161632000Y-21966000D02*
X161902000Y-21966000D01*
X161902000Y-21966000D02*
X161902000Y-23466000D01*
X161286000Y-23466000D02*
X161044000Y-23466000D01*
X161044000Y-23466000D02*
X160363000Y-22479000D01*
X160363000Y-22479000D02*
X160363000Y-23466000D01*
X160363000Y-23466000D02*
X160094000Y-23466000D01*
X160094000Y-23466000D02*
X160094000Y-21966000D01*
X160094000Y-21966000D02*
X160338000Y-21966000D01*
X160338000Y-21966000D02*
X161017000Y-22950000D01*
X161017000Y-22950000D02*
X161017000Y-21966000D01*
X161017000Y-21966000D02*
X161286000Y-21966000D01*
X161286000Y-21966000D02*
X161286000Y-23466000D01*
X159421000Y-22812000D02*
X159421000Y-23178000D01*
X159421000Y-23178000D02*
X159171000Y-23178000D01*
X159171000Y-23178000D02*
X159171000Y-22812000D01*
X159171000Y-22812000D02*
X158786000Y-22812000D01*
X158786000Y-22812000D02*
X158786000Y-22562000D01*
X158786000Y-22562000D02*
X159171000Y-22562000D01*
X159171000Y-22562000D02*
X159171000Y-22197000D01*
X159171000Y-22197000D02*
X159421000Y-22197000D01*
X159421000Y-22197000D02*
X159421000Y-22562000D01*
X159421000Y-22562000D02*
X159805000Y-22562000D01*
X159805000Y-22562000D02*
X159805000Y-22812000D01*
X159805000Y-22812000D02*
X159421000Y-22812000D01*
X129175000Y-15050000D02*
X129175000Y-80350000D01*
X165675000Y-15050000D02*
X129175000Y-15050000D01*
X165675000Y-80350000D02*
X165675000Y-15050000D01*
X129175000Y-80350000D02*
X165675000Y-80350000D01*
D12*
G04 #@! TO.C,U5*
X105825000Y-18500000D02*
G75*
G03X105825000Y-18500000I-3000000J0D01*
G01*
X79025000Y-18500000D02*
G75*
G03X79025000Y-18500000I-3000000J0D01*
G01*
X79025000Y-77300000D02*
G75*
G03X79025000Y-77300000I-3000000J0D01*
G01*
X105825000Y-77300000D02*
G75*
G03X105825000Y-77300000I-3000000J0D01*
G01*
D13*
X76912800Y-22142000D02*
X76509600Y-22144400D01*
X74270000Y-23012000D02*
X74270000Y-23378000D01*
X74270000Y-23378000D02*
X74039000Y-23378000D01*
X74039000Y-23378000D02*
X74039000Y-23012000D01*
X74039000Y-23012000D02*
X73712000Y-23012000D01*
X73712000Y-23012000D02*
X73712000Y-22762000D01*
X73712000Y-22762000D02*
X74039000Y-22762000D01*
X74039000Y-22762000D02*
X74039000Y-22397000D01*
X74039000Y-22397000D02*
X74270000Y-22397000D01*
X74270000Y-22397000D02*
X74270000Y-22762000D01*
X74270000Y-22762000D02*
X74597000Y-22762000D01*
X74597000Y-22762000D02*
X74597000Y-23012000D01*
X74597000Y-23012000D02*
X74270000Y-23012000D01*
X75443000Y-23666000D02*
X74731000Y-23666000D01*
X74731000Y-23666000D02*
X74731000Y-23397000D01*
X74731000Y-23397000D02*
X74962000Y-23397000D01*
X74962000Y-23397000D02*
X74962000Y-22166000D01*
X74962000Y-22166000D02*
X75212000Y-22166000D01*
X75212000Y-22166000D02*
X75212000Y-23397000D01*
X75212000Y-23397000D02*
X75443000Y-23397000D01*
X75443000Y-23397000D02*
X75443000Y-23666000D01*
X76912800Y-23666000D02*
X76509600Y-23668400D01*
X76484200Y-22144400D02*
X76484200Y-23668400D01*
X76154000Y-23668400D02*
X76179400Y-22169800D01*
X76179400Y-22169800D02*
X75717600Y-22167400D01*
X75717600Y-22167400D02*
X75722200Y-23668400D01*
X76916000Y-23668400D02*
X76912800Y-22167400D01*
X103902000Y-23666000D02*
X103632000Y-23666000D01*
X103632000Y-23666000D02*
X103632000Y-22166000D01*
X103632000Y-22166000D02*
X103902000Y-22166000D01*
X103902000Y-22166000D02*
X103902000Y-23666000D01*
X103286000Y-23666000D02*
X103044000Y-23666000D01*
X103044000Y-23666000D02*
X102363000Y-22679000D01*
X102363000Y-22679000D02*
X102363000Y-23666000D01*
X102363000Y-23666000D02*
X102094000Y-23666000D01*
X102094000Y-23666000D02*
X102094000Y-22166000D01*
X102094000Y-22166000D02*
X102338000Y-22166000D01*
X102338000Y-22166000D02*
X103017000Y-23150000D01*
X103017000Y-23150000D02*
X103017000Y-22166000D01*
X103017000Y-22166000D02*
X103286000Y-22166000D01*
X103286000Y-22166000D02*
X103286000Y-23666000D01*
X101421000Y-23012000D02*
X101421000Y-23378000D01*
X101421000Y-23378000D02*
X101171000Y-23378000D01*
X101171000Y-23378000D02*
X101171000Y-23012000D01*
X101171000Y-23012000D02*
X100786000Y-23012000D01*
X100786000Y-23012000D02*
X100786000Y-22762000D01*
X100786000Y-22762000D02*
X101171000Y-22762000D01*
X101171000Y-22762000D02*
X101171000Y-22397000D01*
X101171000Y-22397000D02*
X101421000Y-22397000D01*
X101421000Y-22397000D02*
X101421000Y-22762000D01*
X101421000Y-22762000D02*
X101805000Y-22762000D01*
X101805000Y-22762000D02*
X101805000Y-23012000D01*
X101805000Y-23012000D02*
X101421000Y-23012000D01*
X71175000Y-15250000D02*
X71175000Y-80550000D01*
X107675000Y-15250000D02*
X71175000Y-15250000D01*
X107675000Y-80550000D02*
X107675000Y-15250000D01*
X71175000Y-80550000D02*
X107675000Y-80550000D01*
D12*
G04 #@! TO.C,U3*
X170200000Y-125900000D02*
X170200000Y-15900000D01*
X280200000Y-125900000D02*
X170200000Y-125900000D01*
X280200000Y-15900000D02*
X280200000Y-125900000D01*
X280200000Y-15900000D02*
X170200000Y-15900000D01*
G04 #@! TO.C,U4*
X102800000Y-138900000D02*
X102800000Y-103900000D01*
X162800000Y-138900000D02*
X102800000Y-138900000D01*
X162800000Y-103900000D02*
X162800000Y-138900000D01*
X102800000Y-103900000D02*
X162800000Y-103900000D01*
D14*
G04 #@! TO.C,J2*
X111740000Y-96310000D02*
X112140000Y-96310000D01*
X111740000Y-95670000D02*
X111740000Y-96310000D01*
X117760000Y-89330000D02*
X117760000Y-96070000D01*
X111980000Y-89330000D02*
X111980000Y-96070000D01*
X111980000Y-96070000D02*
X117760000Y-96070000D01*
X111980000Y-89330000D02*
X117760000Y-89330000D01*
X111980000Y-90450000D02*
X117760000Y-90450000D01*
X111980000Y-95550000D02*
X117760000Y-95550000D01*
G04 #@! TO.C,J1*
X24810000Y-71560000D02*
X24810000Y-71160000D01*
X24170000Y-71560000D02*
X24810000Y-71560000D01*
X17830000Y-65540000D02*
X24570000Y-65540000D01*
X17830000Y-71320000D02*
X24570000Y-71320000D01*
X24570000Y-71320000D02*
X24570000Y-65540000D01*
X17830000Y-71320000D02*
X17830000Y-65540000D01*
X18950000Y-71320000D02*
X18950000Y-65540000D01*
X24050000Y-71320000D02*
X24050000Y-65540000D01*
D13*
G04 #@! TO.C,U1*
X35900000Y-67100000D02*
X35900000Y-77100000D01*
X37900000Y-79100000D02*
G75*
G02X35900000Y-77100000I0J2000000D01*
G01*
X37900000Y-79100000D02*
X51900000Y-79100000D01*
X51900000Y-79100000D02*
X52074000Y-79092000D01*
X53899585Y-77100276D02*
G75*
G02X52074000Y-79092000I-1999585J276D01*
G01*
X53900000Y-77100000D02*
X53900000Y-67100000D01*
X53900000Y-67100000D02*
X53892000Y-66926000D01*
X51900276Y-65100415D02*
G75*
G02X53892000Y-66926000I-276J-1999585D01*
G01*
X51900000Y-65100000D02*
X37900000Y-65100000D01*
X37900000Y-65100000D02*
X37726000Y-65108000D01*
X35900415Y-67099724D02*
G75*
G02X37726000Y-65108000I1999585J-276D01*
G01*
X52800000Y-71500000D02*
G75*
G03X52800000Y-71500000I-200000J0D01*
G01*
X51750000Y-77068000D02*
G75*
G03X51750000Y-77068000I-500000J0D01*
G01*
X46670000Y-77068000D02*
G75*
G03X46670000Y-77068000I-500000J0D01*
G01*
X41590000Y-77068000D02*
G75*
G03X41590000Y-77068000I-500000J0D01*
G01*
X52610000Y-67416000D02*
G75*
G03X52610000Y-67416000I-1250000J0D01*
G01*
X39690000Y-67416000D02*
G75*
G03X39690000Y-67416000I-1250000J0D01*
G01*
X39050000Y-77068000D02*
G75*
G03X39050000Y-77068000I-500000J0D01*
G01*
X44130000Y-77068000D02*
G75*
G03X44130000Y-77068000I-500000J0D01*
G01*
X49210000Y-77068000D02*
G75*
G03X49210000Y-77068000I-500000J0D01*
G01*
X47600000Y-74100000D02*
G75*
G03X47600000Y-74100000I-200000J0D01*
G01*
D14*
G04 #@! TO.C,R2*
X146380000Y-87600000D02*
X145430000Y-87600000D01*
X140640000Y-87600000D02*
X141590000Y-87600000D01*
X145430000Y-86680000D02*
X141590000Y-86680000D01*
X145430000Y-88520000D02*
X145430000Y-86680000D01*
X141590000Y-88520000D02*
X145430000Y-88520000D01*
X141590000Y-86680000D02*
X141590000Y-88520000D01*
G04 #@! TO.C,R1*
X146380000Y-98000000D02*
X145430000Y-98000000D01*
X140640000Y-98000000D02*
X141590000Y-98000000D01*
X145430000Y-97080000D02*
X141590000Y-97080000D01*
X145430000Y-98920000D02*
X145430000Y-97080000D01*
X141590000Y-98920000D02*
X145430000Y-98920000D01*
X141590000Y-97080000D02*
X141590000Y-98920000D01*
G04 #@! TO.C,U2*
D12*
X56288095Y-52852380D02*
X56288095Y-53661904D01*
X56335714Y-53757142D01*
X56383333Y-53804761D01*
X56478571Y-53852380D01*
X56669047Y-53852380D01*
X56764285Y-53804761D01*
X56811904Y-53757142D01*
X56859523Y-53661904D01*
X56859523Y-52852380D01*
X57288095Y-52947619D02*
X57335714Y-52900000D01*
X57430952Y-52852380D01*
X57669047Y-52852380D01*
X57764285Y-52900000D01*
X57811904Y-52947619D01*
X57859523Y-53042857D01*
X57859523Y-53138095D01*
X57811904Y-53280952D01*
X57240476Y-53852380D01*
X57859523Y-53852380D01*
G04 #@! TO.C,XA1*
X91261904Y-138452380D02*
X91928571Y-139452380D01*
X91928571Y-138452380D02*
X91261904Y-139452380D01*
X92261904Y-139166666D02*
X92738095Y-139166666D01*
X92166666Y-139452380D02*
X92500000Y-138452380D01*
X92833333Y-139452380D01*
X93690476Y-139452380D02*
X93119047Y-139452380D01*
X93404761Y-139452380D02*
X93404761Y-138452380D01*
X93309523Y-138595238D01*
X93214285Y-138690476D01*
X93119047Y-138738095D01*
G04 #@! TO.C,U6*
X164088095Y-80902380D02*
X164088095Y-81711904D01*
X164135714Y-81807142D01*
X164183333Y-81854761D01*
X164278571Y-81902380D01*
X164469047Y-81902380D01*
X164564285Y-81854761D01*
X164611904Y-81807142D01*
X164659523Y-81711904D01*
X164659523Y-80902380D01*
X165564285Y-80902380D02*
X165373809Y-80902380D01*
X165278571Y-80950000D01*
X165230952Y-80997619D01*
X165135714Y-81140476D01*
X165088095Y-81330952D01*
X165088095Y-81711904D01*
X165135714Y-81807142D01*
X165183333Y-81854761D01*
X165278571Y-81902380D01*
X165469047Y-81902380D01*
X165564285Y-81854761D01*
X165611904Y-81807142D01*
X165659523Y-81711904D01*
X165659523Y-81473809D01*
X165611904Y-81378571D01*
X165564285Y-81330952D01*
X165469047Y-81283333D01*
X165278571Y-81283333D01*
X165183333Y-81330952D01*
X165135714Y-81378571D01*
X165088095Y-81473809D01*
D14*
X151961904Y-49776190D02*
X151161904Y-49776190D01*
X151161904Y-49471428D01*
X151200000Y-49395238D01*
X151238095Y-49357142D01*
X151314285Y-49319047D01*
X151428571Y-49319047D01*
X151504761Y-49357142D01*
X151542857Y-49395238D01*
X151580952Y-49471428D01*
X151580952Y-49776190D01*
X151923809Y-49014285D02*
X151961904Y-48900000D01*
X151961904Y-48709523D01*
X151923809Y-48633333D01*
X151885714Y-48595238D01*
X151809523Y-48557142D01*
X151733333Y-48557142D01*
X151657142Y-48595238D01*
X151619047Y-48633333D01*
X151580952Y-48709523D01*
X151542857Y-48861904D01*
X151504761Y-48938095D01*
X151466666Y-48976190D01*
X151390476Y-49014285D01*
X151314285Y-49014285D01*
X151238095Y-48976190D01*
X151200000Y-48938095D01*
X151161904Y-48861904D01*
X151161904Y-48671428D01*
X151200000Y-48557142D01*
X151161904Y-48214285D02*
X151809523Y-48214285D01*
X151885714Y-48176190D01*
X151923809Y-48138095D01*
X151961904Y-48061904D01*
X151961904Y-47909523D01*
X151923809Y-47833333D01*
X151885714Y-47795238D01*
X151809523Y-47757142D01*
X151161904Y-47757142D01*
X152038095Y-47566666D02*
X152038095Y-46957142D01*
X151961904Y-46347619D02*
X151961904Y-46804761D01*
X151961904Y-46576190D02*
X151161904Y-46576190D01*
X151276190Y-46652380D01*
X151352380Y-46728571D01*
X151390476Y-46804761D01*
X151161904Y-45661904D02*
X151161904Y-45814285D01*
X151200000Y-45890476D01*
X151238095Y-45928571D01*
X151352380Y-46004761D01*
X151504761Y-46042857D01*
X151809523Y-46042857D01*
X151885714Y-46004761D01*
X151923809Y-45966666D01*
X151961904Y-45890476D01*
X151961904Y-45738095D01*
X151923809Y-45661904D01*
X151885714Y-45623809D01*
X151809523Y-45585714D01*
X151619047Y-45585714D01*
X151542857Y-45623809D01*
X151504761Y-45661904D01*
X151466666Y-45738095D01*
X151466666Y-45890476D01*
X151504761Y-45966666D01*
X151542857Y-46004761D01*
X151619047Y-46042857D01*
G04 #@! TO.C,U5*
D12*
X106588095Y-81102380D02*
X106588095Y-81911904D01*
X106635714Y-82007142D01*
X106683333Y-82054761D01*
X106778571Y-82102380D01*
X106969047Y-82102380D01*
X107064285Y-82054761D01*
X107111904Y-82007142D01*
X107159523Y-81911904D01*
X107159523Y-81102380D01*
X108111904Y-81102380D02*
X107635714Y-81102380D01*
X107588095Y-81578571D01*
X107635714Y-81530952D01*
X107730952Y-81483333D01*
X107969047Y-81483333D01*
X108064285Y-81530952D01*
X108111904Y-81578571D01*
X108159523Y-81673809D01*
X108159523Y-81911904D01*
X108111904Y-82007142D01*
X108064285Y-82054761D01*
X107969047Y-82102380D01*
X107730952Y-82102380D01*
X107635714Y-82054761D01*
X107588095Y-82007142D01*
D14*
X93961904Y-49976190D02*
X93161904Y-49976190D01*
X93161904Y-49671428D01*
X93200000Y-49595238D01*
X93238095Y-49557142D01*
X93314285Y-49519047D01*
X93428571Y-49519047D01*
X93504761Y-49557142D01*
X93542857Y-49595238D01*
X93580952Y-49671428D01*
X93580952Y-49976190D01*
X93923809Y-49214285D02*
X93961904Y-49100000D01*
X93961904Y-48909523D01*
X93923809Y-48833333D01*
X93885714Y-48795238D01*
X93809523Y-48757142D01*
X93733333Y-48757142D01*
X93657142Y-48795238D01*
X93619047Y-48833333D01*
X93580952Y-48909523D01*
X93542857Y-49061904D01*
X93504761Y-49138095D01*
X93466666Y-49176190D01*
X93390476Y-49214285D01*
X93314285Y-49214285D01*
X93238095Y-49176190D01*
X93200000Y-49138095D01*
X93161904Y-49061904D01*
X93161904Y-48871428D01*
X93200000Y-48757142D01*
X93161904Y-48414285D02*
X93809523Y-48414285D01*
X93885714Y-48376190D01*
X93923809Y-48338095D01*
X93961904Y-48261904D01*
X93961904Y-48109523D01*
X93923809Y-48033333D01*
X93885714Y-47995238D01*
X93809523Y-47957142D01*
X93161904Y-47957142D01*
X94038095Y-47766666D02*
X94038095Y-47157142D01*
X93961904Y-46547619D02*
X93961904Y-47004761D01*
X93961904Y-46776190D02*
X93161904Y-46776190D01*
X93276190Y-46852380D01*
X93352380Y-46928571D01*
X93390476Y-47004761D01*
X93238095Y-46242857D02*
X93200000Y-46204761D01*
X93161904Y-46128571D01*
X93161904Y-45938095D01*
X93200000Y-45861904D01*
X93238095Y-45823809D01*
X93314285Y-45785714D01*
X93390476Y-45785714D01*
X93504761Y-45823809D01*
X93961904Y-46280952D01*
X93961904Y-45785714D01*
G04 #@! TO.C,U3*
D12*
X278438095Y-127102380D02*
X278438095Y-127911904D01*
X278485714Y-128007142D01*
X278533333Y-128054761D01*
X278628571Y-128102380D01*
X278819047Y-128102380D01*
X278914285Y-128054761D01*
X278961904Y-128007142D01*
X279009523Y-127911904D01*
X279009523Y-127102380D01*
X279390476Y-127102380D02*
X280009523Y-127102380D01*
X279676190Y-127483333D01*
X279819047Y-127483333D01*
X279914285Y-127530952D01*
X279961904Y-127578571D01*
X280009523Y-127673809D01*
X280009523Y-127911904D01*
X279961904Y-128007142D01*
X279914285Y-128054761D01*
X279819047Y-128102380D01*
X279533333Y-128102380D01*
X279438095Y-128054761D01*
X279390476Y-128007142D01*
G04 #@! TO.C,U4*
X161288095Y-139352380D02*
X161288095Y-140161904D01*
X161335714Y-140257142D01*
X161383333Y-140304761D01*
X161478571Y-140352380D01*
X161669047Y-140352380D01*
X161764285Y-140304761D01*
X161811904Y-140257142D01*
X161859523Y-140161904D01*
X161859523Y-139352380D01*
X162764285Y-139685714D02*
X162764285Y-140352380D01*
X162526190Y-139304761D02*
X162288095Y-140019047D01*
X162907142Y-140019047D01*
G04 #@! TO.C,J2*
X114536666Y-87782380D02*
X114536666Y-88496666D01*
X114489047Y-88639523D01*
X114393809Y-88734761D01*
X114250952Y-88782380D01*
X114155714Y-88782380D01*
X114965238Y-87877619D02*
X115012857Y-87830000D01*
X115108095Y-87782380D01*
X115346190Y-87782380D01*
X115441428Y-87830000D01*
X115489047Y-87877619D01*
X115536666Y-87972857D01*
X115536666Y-88068095D01*
X115489047Y-88210952D01*
X114917619Y-88782380D01*
X115536666Y-88782380D01*
G04 #@! TO.C,J1*
X25652380Y-68783333D02*
X26366666Y-68783333D01*
X26509523Y-68830952D01*
X26604761Y-68926190D01*
X26652380Y-69069047D01*
X26652380Y-69164285D01*
X26652380Y-67783333D02*
X26652380Y-68354761D01*
X26652380Y-68069047D02*
X25652380Y-68069047D01*
X25795238Y-68164285D01*
X25890476Y-68259523D01*
X25938095Y-68354761D01*
G04 #@! TO.C,U1*
X52388095Y-79802380D02*
X52388095Y-80611904D01*
X52435714Y-80707142D01*
X52483333Y-80754761D01*
X52578571Y-80802380D01*
X52769047Y-80802380D01*
X52864285Y-80754761D01*
X52911904Y-80707142D01*
X52959523Y-80611904D01*
X52959523Y-79802380D01*
X53959523Y-80802380D02*
X53388095Y-80802380D01*
X53673809Y-80802380D02*
X53673809Y-79802380D01*
X53578571Y-79945238D01*
X53483333Y-80040476D01*
X53388095Y-80088095D01*
D14*
X41061904Y-72111904D02*
X41061904Y-71311904D01*
X41252380Y-71311904D01*
X41366666Y-71350000D01*
X41442857Y-71426190D01*
X41480952Y-71502380D01*
X41519047Y-71654761D01*
X41519047Y-71769047D01*
X41480952Y-71921428D01*
X41442857Y-71997619D01*
X41366666Y-72073809D01*
X41252380Y-72111904D01*
X41061904Y-72111904D01*
X41823809Y-71883333D02*
X42204761Y-71883333D01*
X41747619Y-72111904D02*
X42014285Y-71311904D01*
X42280952Y-72111904D01*
X43004761Y-72035714D02*
X42966666Y-72073809D01*
X42852380Y-72111904D01*
X42776190Y-72111904D01*
X42661904Y-72073809D01*
X42585714Y-71997619D01*
X42547619Y-71921428D01*
X42509523Y-71769047D01*
X42509523Y-71654761D01*
X42547619Y-71502380D01*
X42585714Y-71426190D01*
X42661904Y-71350000D01*
X42776190Y-71311904D01*
X42852380Y-71311904D01*
X42966666Y-71350000D01*
X43004761Y-71388095D01*
X43157142Y-72188095D02*
X43766666Y-72188095D01*
X43957142Y-72111904D02*
X43957142Y-71311904D01*
X44223809Y-71883333D01*
X44490476Y-71311904D01*
X44490476Y-72111904D01*
X45328571Y-72035714D02*
X45290476Y-72073809D01*
X45176190Y-72111904D01*
X45100000Y-72111904D01*
X44985714Y-72073809D01*
X44909523Y-71997619D01*
X44871428Y-71921428D01*
X44833333Y-71769047D01*
X44833333Y-71654761D01*
X44871428Y-71502380D01*
X44909523Y-71426190D01*
X44985714Y-71350000D01*
X45100000Y-71311904D01*
X45176190Y-71311904D01*
X45290476Y-71350000D01*
X45328571Y-71388095D01*
X45671428Y-72111904D02*
X45671428Y-71311904D01*
X45976190Y-71311904D01*
X46052380Y-71350000D01*
X46090476Y-71388095D01*
X46128571Y-71464285D01*
X46128571Y-71578571D01*
X46090476Y-71654761D01*
X46052380Y-71692857D01*
X45976190Y-71730952D01*
X45671428Y-71730952D01*
X46814285Y-71578571D02*
X46814285Y-72111904D01*
X46623809Y-71273809D02*
X46433333Y-71845238D01*
X46928571Y-71845238D01*
X47157142Y-71311904D02*
X47690476Y-71311904D01*
X47347619Y-72111904D01*
X47957142Y-71388095D02*
X47995238Y-71350000D01*
X48071428Y-71311904D01*
X48261904Y-71311904D01*
X48338095Y-71350000D01*
X48376190Y-71388095D01*
X48414285Y-71464285D01*
X48414285Y-71540476D01*
X48376190Y-71654761D01*
X47919047Y-72111904D01*
X48414285Y-72111904D01*
X49138095Y-71311904D02*
X48757142Y-71311904D01*
X48719047Y-71692857D01*
X48757142Y-71654761D01*
X48833333Y-71616666D01*
X49023809Y-71616666D01*
X49100000Y-71654761D01*
X49138095Y-71692857D01*
X49176190Y-71769047D01*
X49176190Y-71959523D01*
X49138095Y-72035714D01*
X49100000Y-72073809D01*
X49023809Y-72111904D01*
X48833333Y-72111904D01*
X48757142Y-72073809D01*
X48719047Y-72035714D01*
G04 #@! TO.C,R2*
D12*
X143283333Y-85802380D02*
X142950000Y-85326190D01*
X142711904Y-85802380D02*
X142711904Y-84802380D01*
X143092857Y-84802380D01*
X143188095Y-84850000D01*
X143235714Y-84897619D01*
X143283333Y-84992857D01*
X143283333Y-85135714D01*
X143235714Y-85230952D01*
X143188095Y-85278571D01*
X143092857Y-85326190D01*
X142711904Y-85326190D01*
X143664285Y-84897619D02*
X143711904Y-84850000D01*
X143807142Y-84802380D01*
X144045238Y-84802380D01*
X144140476Y-84850000D01*
X144188095Y-84897619D01*
X144235714Y-84992857D01*
X144235714Y-85088095D01*
X144188095Y-85230952D01*
X143616666Y-85802380D01*
X144235714Y-85802380D01*
G04 #@! TO.C,R1*
X143343333Y-96532380D02*
X143010000Y-96056190D01*
X142771904Y-96532380D02*
X142771904Y-95532380D01*
X143152857Y-95532380D01*
X143248095Y-95580000D01*
X143295714Y-95627619D01*
X143343333Y-95722857D01*
X143343333Y-95865714D01*
X143295714Y-95960952D01*
X143248095Y-96008571D01*
X143152857Y-96056190D01*
X142771904Y-96056190D01*
X144295714Y-96532380D02*
X143724285Y-96532380D01*
X144010000Y-96532380D02*
X144010000Y-95532380D01*
X143914761Y-95675238D01*
X143819523Y-95770476D01*
X143724285Y-95818095D01*
G04 #@! TO.C,M3*
X281290476Y-143552380D02*
X281290476Y-142552380D01*
X281623809Y-143266666D01*
X281957142Y-142552380D01*
X281957142Y-143552380D01*
X282338095Y-142552380D02*
X282957142Y-142552380D01*
X282623809Y-142933333D01*
X282766666Y-142933333D01*
X282861904Y-142980952D01*
X282909523Y-143028571D01*
X282957142Y-143123809D01*
X282957142Y-143361904D01*
X282909523Y-143457142D01*
X282861904Y-143504761D01*
X282766666Y-143552380D01*
X282480952Y-143552380D01*
X282385714Y-143504761D01*
X282338095Y-143457142D01*
X12690476Y-143152380D02*
X12690476Y-142152380D01*
X13023809Y-142866666D01*
X13357142Y-142152380D01*
X13357142Y-143152380D01*
X13738095Y-142152380D02*
X14357142Y-142152380D01*
X14023809Y-142533333D01*
X14166666Y-142533333D01*
X14261904Y-142580952D01*
X14309523Y-142628571D01*
X14357142Y-142723809D01*
X14357142Y-142961904D01*
X14309523Y-143057142D01*
X14261904Y-143104761D01*
X14166666Y-143152380D01*
X13880952Y-143152380D01*
X13785714Y-143104761D01*
X13738095Y-143057142D01*
X12990476Y-13452380D02*
X12990476Y-12452380D01*
X13323809Y-13166666D01*
X13657142Y-12452380D01*
X13657142Y-13452380D01*
X14038095Y-12452380D02*
X14657142Y-12452380D01*
X14323809Y-12833333D01*
X14466666Y-12833333D01*
X14561904Y-12880952D01*
X14609523Y-12928571D01*
X14657142Y-13023809D01*
X14657142Y-13261904D01*
X14609523Y-13357142D01*
X14561904Y-13404761D01*
X14466666Y-13452380D01*
X14180952Y-13452380D01*
X14085714Y-13404761D01*
X14038095Y-13357142D01*
G04 #@! TD*
M02*
