G04 #@! TF.GenerationSoftware,KiCad,Pcbnew,5.0.2-bee76a0~70~ubuntu16.04.1*
G04 #@! TF.CreationDate,2021-10-26T00:07:22+01:00*
G04 #@! TF.ProjectId,Podcar_PCB,506f6463-6172-45f5-9043-422e6b696361,rev?*
G04 #@! TF.SameCoordinates,Original*
G04 #@! TF.FileFunction,Other,Fab,Top*
%FSLAX46Y46*%
G04 Gerber Fmt 4.6, Leading zero omitted, Abs format (unit mm)*
G04 Created by KiCad (PCBNEW 5.0.2-bee76a0~70~ubuntu16.04.1) date Tue 26 Oct 2021 00:07:22 BST*
%MOMM*%
%LPD*%
G01*
G04 APERTURE LIST*
%ADD10C,0.100000*%
%ADD11C,0.150000*%
%ADD12C,0.108000*%
G04 APERTURE END LIST*
D10*
G04 #@! TO.C,J2*
X116841000Y-91865000D02*
X115306000Y-93400000D01*
X116975000Y-92000000D02*
X115440000Y-93535000D01*
X114301000Y-91865000D02*
X112765000Y-93400000D01*
X114435000Y-92000000D02*
X112899000Y-93535000D01*
X112100000Y-90450000D02*
X117640000Y-90450000D01*
X112100000Y-95550000D02*
X117640000Y-95550000D01*
X112100000Y-95550000D02*
X112100000Y-89450000D01*
X112500000Y-95950000D02*
X112100000Y-95550000D01*
X117640000Y-95950000D02*
X112500000Y-95950000D01*
X117640000Y-89450000D02*
X117640000Y-95950000D01*
X112100000Y-89450000D02*
X117640000Y-89450000D01*
X117240000Y-92700000D02*
G75*
G03X117240000Y-92700000I-1100000J0D01*
G01*
X114700000Y-92700000D02*
G75*
G03X114700000Y-92700000I-1100000J0D01*
G01*
G04 #@! TO.C,J1*
X20365000Y-66459000D02*
X21900000Y-67994000D01*
X20500000Y-66325000D02*
X22035000Y-67860000D01*
X20365000Y-68999000D02*
X21900000Y-70535000D01*
X20500000Y-68865000D02*
X22035000Y-70401000D01*
X18950000Y-71200000D02*
X18950000Y-65660000D01*
X24050000Y-71200000D02*
X24050000Y-65660000D01*
X24050000Y-71200000D02*
X17950000Y-71200000D01*
X24450000Y-70800000D02*
X24050000Y-71200000D01*
X24450000Y-65660000D02*
X24450000Y-70800000D01*
X17950000Y-65660000D02*
X24450000Y-65660000D01*
X17950000Y-71200000D02*
X17950000Y-65660000D01*
X22300000Y-67160000D02*
G75*
G03X22300000Y-67160000I-1100000J0D01*
G01*
X22300000Y-69700000D02*
G75*
G03X22300000Y-69700000I-1100000J0D01*
G01*
G04 #@! TO.C,R2*
X147320000Y-87600000D02*
X145310000Y-87600000D01*
X139700000Y-87600000D02*
X141710000Y-87600000D01*
X145310000Y-86800000D02*
X141710000Y-86800000D01*
X145310000Y-88400000D02*
X145310000Y-86800000D01*
X141710000Y-88400000D02*
X145310000Y-88400000D01*
X141710000Y-86800000D02*
X141710000Y-88400000D01*
G04 #@! TO.C,R1*
X147320000Y-98000000D02*
X145310000Y-98000000D01*
X139700000Y-98000000D02*
X141710000Y-98000000D01*
X145310000Y-97200000D02*
X141710000Y-97200000D01*
X145310000Y-98800000D02*
X145310000Y-97200000D01*
X141710000Y-98800000D02*
X145310000Y-98800000D01*
X141710000Y-97200000D02*
X141710000Y-98800000D01*
G04 #@! TD*
G04 #@! TO.C,U2*
D11*
X35960333Y-54364314D02*
X35960333Y-55364314D01*
X35960333Y-54411933D02*
X36055571Y-54364314D01*
X36246047Y-54364314D01*
X36341285Y-54411933D01*
X36388904Y-54459552D01*
X36436523Y-54554790D01*
X36436523Y-54840504D01*
X36388904Y-54935742D01*
X36341285Y-54983361D01*
X36246047Y-55030980D01*
X36055571Y-55030980D01*
X35960333Y-54983361D01*
X37007952Y-55030980D02*
X36912714Y-54983361D01*
X36865095Y-54935742D01*
X36817476Y-54840504D01*
X36817476Y-54554790D01*
X36865095Y-54459552D01*
X36912714Y-54411933D01*
X37007952Y-54364314D01*
X37150809Y-54364314D01*
X37246047Y-54411933D01*
X37293666Y-54459552D01*
X37341285Y-54554790D01*
X37341285Y-54840504D01*
X37293666Y-54935742D01*
X37246047Y-54983361D01*
X37150809Y-55030980D01*
X37007952Y-55030980D01*
X37912714Y-55030980D02*
X37817476Y-54983361D01*
X37769857Y-54888123D01*
X37769857Y-54030980D01*
X38436523Y-55030980D02*
X38341285Y-54983361D01*
X38293666Y-54935742D01*
X38246047Y-54840504D01*
X38246047Y-54554790D01*
X38293666Y-54459552D01*
X38341285Y-54411933D01*
X38436523Y-54364314D01*
X38579380Y-54364314D01*
X38674619Y-54411933D01*
X38722238Y-54459552D01*
X38769857Y-54554790D01*
X38769857Y-54840504D01*
X38722238Y-54935742D01*
X38674619Y-54983361D01*
X38579380Y-55030980D01*
X38436523Y-55030980D01*
X39341285Y-55030980D02*
X39246047Y-54983361D01*
X39198428Y-54888123D01*
X39198428Y-54030980D01*
X40150809Y-54364314D02*
X40150809Y-55030980D01*
X39722238Y-54364314D02*
X39722238Y-54888123D01*
X39769857Y-54983361D01*
X39865095Y-55030980D01*
X40007952Y-55030980D01*
X40103190Y-54983361D01*
X40150809Y-54935742D01*
X40388904Y-55126219D02*
X41150809Y-55126219D01*
X41388904Y-54364314D02*
X41388904Y-55221457D01*
X41341285Y-55316695D01*
X41246047Y-55364314D01*
X41198428Y-55364314D01*
X41388904Y-54030980D02*
X41341285Y-54078600D01*
X41388904Y-54126219D01*
X41436523Y-54078600D01*
X41388904Y-54030980D01*
X41388904Y-54126219D01*
X41865095Y-55030980D02*
X41865095Y-54364314D01*
X41865095Y-54554790D02*
X41912714Y-54459552D01*
X41960333Y-54411933D01*
X42055571Y-54364314D01*
X42150809Y-54364314D01*
X42484142Y-55030980D02*
X42484142Y-54030980D01*
X42579380Y-54650028D02*
X42865095Y-55030980D01*
X42865095Y-54364314D02*
X42484142Y-54745266D01*
X43055571Y-55126219D02*
X43817476Y-55126219D01*
X43960333Y-54364314D02*
X44198428Y-55030980D01*
X44436523Y-54364314D01*
X44722238Y-54030980D02*
X45341285Y-54030980D01*
X45007952Y-54411933D01*
X45150809Y-54411933D01*
X45246047Y-54459552D01*
X45293666Y-54507171D01*
X45341285Y-54602409D01*
X45341285Y-54840504D01*
X45293666Y-54935742D01*
X45246047Y-54983361D01*
X45150809Y-55030980D01*
X44865095Y-55030980D01*
X44769857Y-54983361D01*
X44722238Y-54935742D01*
G04 #@! TO.C,XA1*
X33998761Y-140222666D02*
X34474952Y-140222666D01*
X33903523Y-140508380D02*
X34236857Y-139508380D01*
X34570190Y-140508380D01*
X34903523Y-140508380D02*
X34903523Y-139841714D01*
X34903523Y-140032190D02*
X34951142Y-139936952D01*
X34998761Y-139889333D01*
X35094000Y-139841714D01*
X35189238Y-139841714D01*
X35951142Y-140508380D02*
X35951142Y-139508380D01*
X35951142Y-140460761D02*
X35855904Y-140508380D01*
X35665428Y-140508380D01*
X35570190Y-140460761D01*
X35522571Y-140413142D01*
X35474952Y-140317904D01*
X35474952Y-140032190D01*
X35522571Y-139936952D01*
X35570190Y-139889333D01*
X35665428Y-139841714D01*
X35855904Y-139841714D01*
X35951142Y-139889333D01*
X36855904Y-139841714D02*
X36855904Y-140508380D01*
X36427333Y-139841714D02*
X36427333Y-140365523D01*
X36474952Y-140460761D01*
X36570190Y-140508380D01*
X36713047Y-140508380D01*
X36808285Y-140460761D01*
X36855904Y-140413142D01*
X37332095Y-140508380D02*
X37332095Y-139841714D01*
X37332095Y-139508380D02*
X37284476Y-139556000D01*
X37332095Y-139603619D01*
X37379714Y-139556000D01*
X37332095Y-139508380D01*
X37332095Y-139603619D01*
X37808285Y-139841714D02*
X37808285Y-140508380D01*
X37808285Y-139936952D02*
X37855904Y-139889333D01*
X37951142Y-139841714D01*
X38094000Y-139841714D01*
X38189238Y-139889333D01*
X38236857Y-139984571D01*
X38236857Y-140508380D01*
X38855904Y-140508380D02*
X38760666Y-140460761D01*
X38713047Y-140413142D01*
X38665428Y-140317904D01*
X38665428Y-140032190D01*
X38713047Y-139936952D01*
X38760666Y-139889333D01*
X38855904Y-139841714D01*
X38998761Y-139841714D01*
X39094000Y-139889333D01*
X39141619Y-139936952D01*
X39189238Y-140032190D01*
X39189238Y-140317904D01*
X39141619Y-140413142D01*
X39094000Y-140460761D01*
X38998761Y-140508380D01*
X38855904Y-140508380D01*
X39379714Y-140603619D02*
X40141619Y-140603619D01*
X40379714Y-139508380D02*
X40379714Y-140317904D01*
X40427333Y-140413142D01*
X40474952Y-140460761D01*
X40570190Y-140508380D01*
X40760666Y-140508380D01*
X40855904Y-140460761D01*
X40903523Y-140413142D01*
X40951142Y-140317904D01*
X40951142Y-139508380D01*
X41427333Y-139841714D02*
X41427333Y-140508380D01*
X41427333Y-139936952D02*
X41474952Y-139889333D01*
X41570190Y-139841714D01*
X41713047Y-139841714D01*
X41808285Y-139889333D01*
X41855904Y-139984571D01*
X41855904Y-140508380D01*
X42474952Y-140508380D02*
X42379714Y-140460761D01*
X42332095Y-140413142D01*
X42284476Y-140317904D01*
X42284476Y-140032190D01*
X42332095Y-139936952D01*
X42379714Y-139889333D01*
X42474952Y-139841714D01*
X42617809Y-139841714D01*
X42713047Y-139889333D01*
X42760666Y-139936952D01*
X42808285Y-140032190D01*
X42808285Y-140317904D01*
X42760666Y-140413142D01*
X42713047Y-140460761D01*
X42617809Y-140508380D01*
X42474952Y-140508380D01*
X42998761Y-140603619D02*
X43760666Y-140603619D01*
X43951142Y-140460761D02*
X44094000Y-140508380D01*
X44332095Y-140508380D01*
X44427333Y-140460761D01*
X44474952Y-140413142D01*
X44522571Y-140317904D01*
X44522571Y-140222666D01*
X44474952Y-140127428D01*
X44427333Y-140079809D01*
X44332095Y-140032190D01*
X44141619Y-139984571D01*
X44046380Y-139936952D01*
X43998761Y-139889333D01*
X43951142Y-139794095D01*
X43951142Y-139698857D01*
X43998761Y-139603619D01*
X44046380Y-139556000D01*
X44141619Y-139508380D01*
X44379714Y-139508380D01*
X44522571Y-139556000D01*
X44951142Y-140508380D02*
X44951142Y-139508380D01*
X45379714Y-140508380D02*
X45379714Y-139984571D01*
X45332095Y-139889333D01*
X45236857Y-139841714D01*
X45094000Y-139841714D01*
X44998761Y-139889333D01*
X44951142Y-139936952D01*
X45855904Y-140508380D02*
X45855904Y-139841714D01*
X45855904Y-139508380D02*
X45808285Y-139556000D01*
X45855904Y-139603619D01*
X45903523Y-139556000D01*
X45855904Y-139508380D01*
X45855904Y-139603619D01*
X46713047Y-140460761D02*
X46617809Y-140508380D01*
X46427333Y-140508380D01*
X46332095Y-140460761D01*
X46284476Y-140365523D01*
X46284476Y-139984571D01*
X46332095Y-139889333D01*
X46427333Y-139841714D01*
X46617809Y-139841714D01*
X46713047Y-139889333D01*
X46760666Y-139984571D01*
X46760666Y-140079809D01*
X46284476Y-140175047D01*
X47332095Y-140508380D02*
X47236857Y-140460761D01*
X47189238Y-140365523D01*
X47189238Y-139508380D01*
X48141619Y-140508380D02*
X48141619Y-139508380D01*
X48141619Y-140460761D02*
X48046380Y-140508380D01*
X47855904Y-140508380D01*
X47760666Y-140460761D01*
X47713047Y-140413142D01*
X47665428Y-140317904D01*
X47665428Y-140032190D01*
X47713047Y-139936952D01*
X47760666Y-139889333D01*
X47855904Y-139841714D01*
X48046380Y-139841714D01*
X48141619Y-139889333D01*
G04 #@! TO.C,U6*
X153052380Y-48461904D02*
X153861904Y-48461904D01*
X153957142Y-48414285D01*
X154004761Y-48366666D01*
X154052380Y-48271428D01*
X154052380Y-48080952D01*
X154004761Y-47985714D01*
X153957142Y-47938095D01*
X153861904Y-47890476D01*
X153052380Y-47890476D01*
X153052380Y-46985714D02*
X153052380Y-47176190D01*
X153100000Y-47271428D01*
X153147619Y-47319047D01*
X153290476Y-47414285D01*
X153480952Y-47461904D01*
X153861904Y-47461904D01*
X153957142Y-47414285D01*
X154004761Y-47366666D01*
X154052380Y-47271428D01*
X154052380Y-47080952D01*
X154004761Y-46985714D01*
X153957142Y-46938095D01*
X153861904Y-46890476D01*
X153623809Y-46890476D01*
X153528571Y-46938095D01*
X153480952Y-46985714D01*
X153433333Y-47080952D01*
X153433333Y-47271428D01*
X153480952Y-47366666D01*
X153528571Y-47414285D01*
X153623809Y-47461904D01*
G04 #@! TO.C,U5*
X95052380Y-48661904D02*
X95861904Y-48661904D01*
X95957142Y-48614285D01*
X96004761Y-48566666D01*
X96052380Y-48471428D01*
X96052380Y-48280952D01*
X96004761Y-48185714D01*
X95957142Y-48138095D01*
X95861904Y-48090476D01*
X95052380Y-48090476D01*
X95052380Y-47138095D02*
X95052380Y-47614285D01*
X95528571Y-47661904D01*
X95480952Y-47614285D01*
X95433333Y-47519047D01*
X95433333Y-47280952D01*
X95480952Y-47185714D01*
X95528571Y-47138095D01*
X95623809Y-47090476D01*
X95861904Y-47090476D01*
X95957142Y-47138095D01*
X96004761Y-47185714D01*
X96052380Y-47280952D01*
X96052380Y-47519047D01*
X96004761Y-47614285D01*
X95957142Y-47661904D01*
G04 #@! TO.C,U3*
X221076190Y-49385714D02*
X221314285Y-50052380D01*
X221552380Y-49385714D01*
X222076190Y-50052380D02*
X221980952Y-50004761D01*
X221933333Y-49909523D01*
X221933333Y-49052380D01*
X222457142Y-49385714D02*
X222457142Y-50385714D01*
X222457142Y-49433333D02*
X222552380Y-49385714D01*
X222742857Y-49385714D01*
X222838095Y-49433333D01*
X222885714Y-49480952D01*
X222933333Y-49576190D01*
X222933333Y-49861904D01*
X222885714Y-49957142D01*
X222838095Y-50004761D01*
X222742857Y-50052380D01*
X222552380Y-50052380D01*
X222457142Y-50004761D01*
X223361904Y-49671428D02*
X224123809Y-49671428D01*
X225123809Y-50052380D02*
X224552380Y-50052380D01*
X224838095Y-50052380D02*
X224838095Y-49052380D01*
X224742857Y-49195238D01*
X224647619Y-49290476D01*
X224552380Y-49338095D01*
X225980952Y-49052380D02*
X225790476Y-49052380D01*
X225695238Y-49100000D01*
X225647619Y-49147619D01*
X225552380Y-49290476D01*
X225504761Y-49480952D01*
X225504761Y-49861904D01*
X225552380Y-49957142D01*
X225600000Y-50004761D01*
X225695238Y-50052380D01*
X225885714Y-50052380D01*
X225980952Y-50004761D01*
X226028571Y-49957142D01*
X226076190Y-49861904D01*
X226076190Y-49623809D01*
X226028571Y-49528571D01*
X225980952Y-49480952D01*
X225885714Y-49433333D01*
X225695238Y-49433333D01*
X225600000Y-49480952D01*
X225552380Y-49528571D01*
X225504761Y-49623809D01*
G04 #@! TO.C,U4*
X128788095Y-108352380D02*
X128311904Y-108352380D01*
X128311904Y-107352380D01*
X129692857Y-108257142D02*
X129645238Y-108304761D01*
X129502380Y-108352380D01*
X129407142Y-108352380D01*
X129264285Y-108304761D01*
X129169047Y-108209523D01*
X129121428Y-108114285D01*
X129073809Y-107923809D01*
X129073809Y-107780952D01*
X129121428Y-107590476D01*
X129169047Y-107495238D01*
X129264285Y-107400000D01*
X129407142Y-107352380D01*
X129502380Y-107352380D01*
X129645238Y-107400000D01*
X129692857Y-107447619D01*
X130121428Y-108352380D02*
X130121428Y-107352380D01*
X130359523Y-107352380D01*
X130502380Y-107400000D01*
X130597619Y-107495238D01*
X130645238Y-107590476D01*
X130692857Y-107780952D01*
X130692857Y-107923809D01*
X130645238Y-108114285D01*
X130597619Y-108209523D01*
X130502380Y-108304761D01*
X130359523Y-108352380D01*
X130121428Y-108352380D01*
X130883333Y-108447619D02*
X131645238Y-108447619D01*
X131883333Y-108352380D02*
X131883333Y-107352380D01*
X132121428Y-107352380D01*
X132264285Y-107400000D01*
X132359523Y-107495238D01*
X132407142Y-107590476D01*
X132454761Y-107780952D01*
X132454761Y-107923809D01*
X132407142Y-108114285D01*
X132359523Y-108209523D01*
X132264285Y-108304761D01*
X132121428Y-108352380D01*
X131883333Y-108352380D01*
X132883333Y-108352380D02*
X132883333Y-107685714D01*
X132883333Y-107352380D02*
X132835714Y-107400000D01*
X132883333Y-107447619D01*
X132930952Y-107400000D01*
X132883333Y-107352380D01*
X132883333Y-107447619D01*
X133311904Y-108304761D02*
X133407142Y-108352380D01*
X133597619Y-108352380D01*
X133692857Y-108304761D01*
X133740476Y-108209523D01*
X133740476Y-108161904D01*
X133692857Y-108066666D01*
X133597619Y-108019047D01*
X133454761Y-108019047D01*
X133359523Y-107971428D01*
X133311904Y-107876190D01*
X133311904Y-107828571D01*
X133359523Y-107733333D01*
X133454761Y-107685714D01*
X133597619Y-107685714D01*
X133692857Y-107733333D01*
X134169047Y-107685714D02*
X134169047Y-108685714D01*
X134169047Y-107733333D02*
X134264285Y-107685714D01*
X134454761Y-107685714D01*
X134550000Y-107733333D01*
X134597619Y-107780952D01*
X134645238Y-107876190D01*
X134645238Y-108161904D01*
X134597619Y-108257142D01*
X134550000Y-108304761D01*
X134454761Y-108352380D01*
X134264285Y-108352380D01*
X134169047Y-108304761D01*
X135216666Y-108352380D02*
X135121428Y-108304761D01*
X135073809Y-108209523D01*
X135073809Y-107352380D01*
X136026190Y-108352380D02*
X136026190Y-107828571D01*
X135978571Y-107733333D01*
X135883333Y-107685714D01*
X135692857Y-107685714D01*
X135597619Y-107733333D01*
X136026190Y-108304761D02*
X135930952Y-108352380D01*
X135692857Y-108352380D01*
X135597619Y-108304761D01*
X135550000Y-108209523D01*
X135550000Y-108114285D01*
X135597619Y-108019047D01*
X135692857Y-107971428D01*
X135930952Y-107971428D01*
X136026190Y-107923809D01*
X136407142Y-107685714D02*
X136645238Y-108352380D01*
X136883333Y-107685714D02*
X136645238Y-108352380D01*
X136550000Y-108590476D01*
X136502380Y-108638095D01*
X136407142Y-108685714D01*
G04 #@! TO.C,J2*
X106631904Y-97474761D02*
X106774761Y-97522380D01*
X107012857Y-97522380D01*
X107108095Y-97474761D01*
X107155714Y-97427142D01*
X107203333Y-97331904D01*
X107203333Y-97236666D01*
X107155714Y-97141428D01*
X107108095Y-97093809D01*
X107012857Y-97046190D01*
X106822380Y-96998571D01*
X106727142Y-96950952D01*
X106679523Y-96903333D01*
X106631904Y-96808095D01*
X106631904Y-96712857D01*
X106679523Y-96617619D01*
X106727142Y-96570000D01*
X106822380Y-96522380D01*
X107060476Y-96522380D01*
X107203333Y-96570000D01*
X108060476Y-97474761D02*
X107965238Y-97522380D01*
X107774761Y-97522380D01*
X107679523Y-97474761D01*
X107631904Y-97427142D01*
X107584285Y-97331904D01*
X107584285Y-97046190D01*
X107631904Y-96950952D01*
X107679523Y-96903333D01*
X107774761Y-96855714D01*
X107965238Y-96855714D01*
X108060476Y-96903333D01*
X108489047Y-97522380D02*
X108489047Y-96855714D01*
X108489047Y-97046190D02*
X108536666Y-96950952D01*
X108584285Y-96903333D01*
X108679523Y-96855714D01*
X108774761Y-96855714D01*
X109489047Y-97474761D02*
X109393809Y-97522380D01*
X109203333Y-97522380D01*
X109108095Y-97474761D01*
X109060476Y-97379523D01*
X109060476Y-96998571D01*
X109108095Y-96903333D01*
X109203333Y-96855714D01*
X109393809Y-96855714D01*
X109489047Y-96903333D01*
X109536666Y-96998571D01*
X109536666Y-97093809D01*
X109060476Y-97189047D01*
X109870000Y-96855714D02*
X110060476Y-97522380D01*
X110250952Y-97046190D01*
X110441428Y-97522380D01*
X110631904Y-96855714D01*
X110774761Y-97617619D02*
X111536666Y-97617619D01*
X111631904Y-96522380D02*
X112203333Y-96522380D01*
X111917619Y-97522380D02*
X111917619Y-96522380D01*
X112917619Y-97474761D02*
X112822380Y-97522380D01*
X112631904Y-97522380D01*
X112536666Y-97474761D01*
X112489047Y-97379523D01*
X112489047Y-96998571D01*
X112536666Y-96903333D01*
X112631904Y-96855714D01*
X112822380Y-96855714D01*
X112917619Y-96903333D01*
X112965238Y-96998571D01*
X112965238Y-97093809D01*
X112489047Y-97189047D01*
X113393809Y-97522380D02*
X113393809Y-96855714D01*
X113393809Y-97046190D02*
X113441428Y-96950952D01*
X113489047Y-96903333D01*
X113584285Y-96855714D01*
X113679523Y-96855714D01*
X114012857Y-97522380D02*
X114012857Y-96855714D01*
X114012857Y-96950952D02*
X114060476Y-96903333D01*
X114155714Y-96855714D01*
X114298571Y-96855714D01*
X114393809Y-96903333D01*
X114441428Y-96998571D01*
X114441428Y-97522380D01*
X114441428Y-96998571D02*
X114489047Y-96903333D01*
X114584285Y-96855714D01*
X114727142Y-96855714D01*
X114822380Y-96903333D01*
X114870000Y-96998571D01*
X114870000Y-97522380D01*
X115346190Y-97522380D02*
X115346190Y-96855714D01*
X115346190Y-96522380D02*
X115298571Y-96570000D01*
X115346190Y-96617619D01*
X115393809Y-96570000D01*
X115346190Y-96522380D01*
X115346190Y-96617619D01*
X115822380Y-96855714D02*
X115822380Y-97522380D01*
X115822380Y-96950952D02*
X115870000Y-96903333D01*
X115965238Y-96855714D01*
X116108095Y-96855714D01*
X116203333Y-96903333D01*
X116250952Y-96998571D01*
X116250952Y-97522380D01*
X117155714Y-97522380D02*
X117155714Y-96998571D01*
X117108095Y-96903333D01*
X117012857Y-96855714D01*
X116822380Y-96855714D01*
X116727142Y-96903333D01*
X117155714Y-97474761D02*
X117060476Y-97522380D01*
X116822380Y-97522380D01*
X116727142Y-97474761D01*
X116679523Y-97379523D01*
X116679523Y-97284285D01*
X116727142Y-97189047D01*
X116822380Y-97141428D01*
X117060476Y-97141428D01*
X117155714Y-97093809D01*
X117774761Y-97522380D02*
X117679523Y-97474761D01*
X117631904Y-97379523D01*
X117631904Y-96522380D01*
X117917619Y-97617619D02*
X118679523Y-97617619D01*
X119108095Y-96522380D02*
X119203333Y-96522380D01*
X119298571Y-96570000D01*
X119346190Y-96617619D01*
X119393809Y-96712857D01*
X119441428Y-96903333D01*
X119441428Y-97141428D01*
X119393809Y-97331904D01*
X119346190Y-97427142D01*
X119298571Y-97474761D01*
X119203333Y-97522380D01*
X119108095Y-97522380D01*
X119012857Y-97474761D01*
X118965238Y-97427142D01*
X118917619Y-97331904D01*
X118870000Y-97141428D01*
X118870000Y-96903333D01*
X118917619Y-96712857D01*
X118965238Y-96617619D01*
X119012857Y-96570000D01*
X119108095Y-96522380D01*
X120393809Y-97522380D02*
X119822380Y-97522380D01*
X120108095Y-97522380D02*
X120108095Y-96522380D01*
X120012857Y-96665238D01*
X119917619Y-96760476D01*
X119822380Y-96808095D01*
X120727142Y-97522380D02*
X121250952Y-96855714D01*
X120727142Y-96855714D02*
X121250952Y-97522380D01*
X121822380Y-96522380D02*
X121917619Y-96522380D01*
X122012857Y-96570000D01*
X122060476Y-96617619D01*
X122108095Y-96712857D01*
X122155714Y-96903333D01*
X122155714Y-97141428D01*
X122108095Y-97331904D01*
X122060476Y-97427142D01*
X122012857Y-97474761D01*
X121917619Y-97522380D01*
X121822380Y-97522380D01*
X121727142Y-97474761D01*
X121679523Y-97427142D01*
X121631904Y-97331904D01*
X121584285Y-97141428D01*
X121584285Y-96903333D01*
X121631904Y-96712857D01*
X121679523Y-96617619D01*
X121727142Y-96570000D01*
X121822380Y-96522380D01*
X122536666Y-96617619D02*
X122584285Y-96570000D01*
X122679523Y-96522380D01*
X122917619Y-96522380D01*
X123012857Y-96570000D01*
X123060476Y-96617619D01*
X123108095Y-96712857D01*
X123108095Y-96808095D01*
X123060476Y-96950952D01*
X122489047Y-97522380D01*
X123108095Y-97522380D01*
X114536666Y-94152380D02*
X114536666Y-94866666D01*
X114489047Y-95009523D01*
X114393809Y-95104761D01*
X114250952Y-95152380D01*
X114155714Y-95152380D01*
X114965238Y-94247619D02*
X115012857Y-94200000D01*
X115108095Y-94152380D01*
X115346190Y-94152380D01*
X115441428Y-94200000D01*
X115489047Y-94247619D01*
X115536666Y-94342857D01*
X115536666Y-94438095D01*
X115489047Y-94580952D01*
X114917619Y-95152380D01*
X115536666Y-95152380D01*
G04 #@! TO.C,J1*
X25974761Y-76668095D02*
X26022380Y-76525238D01*
X26022380Y-76287142D01*
X25974761Y-76191904D01*
X25927142Y-76144285D01*
X25831904Y-76096666D01*
X25736666Y-76096666D01*
X25641428Y-76144285D01*
X25593809Y-76191904D01*
X25546190Y-76287142D01*
X25498571Y-76477619D01*
X25450952Y-76572857D01*
X25403333Y-76620476D01*
X25308095Y-76668095D01*
X25212857Y-76668095D01*
X25117619Y-76620476D01*
X25070000Y-76572857D01*
X25022380Y-76477619D01*
X25022380Y-76239523D01*
X25070000Y-76096666D01*
X25974761Y-75239523D02*
X26022380Y-75334761D01*
X26022380Y-75525238D01*
X25974761Y-75620476D01*
X25927142Y-75668095D01*
X25831904Y-75715714D01*
X25546190Y-75715714D01*
X25450952Y-75668095D01*
X25403333Y-75620476D01*
X25355714Y-75525238D01*
X25355714Y-75334761D01*
X25403333Y-75239523D01*
X26022380Y-74810952D02*
X25355714Y-74810952D01*
X25546190Y-74810952D02*
X25450952Y-74763333D01*
X25403333Y-74715714D01*
X25355714Y-74620476D01*
X25355714Y-74525238D01*
X25974761Y-73810952D02*
X26022380Y-73906190D01*
X26022380Y-74096666D01*
X25974761Y-74191904D01*
X25879523Y-74239523D01*
X25498571Y-74239523D01*
X25403333Y-74191904D01*
X25355714Y-74096666D01*
X25355714Y-73906190D01*
X25403333Y-73810952D01*
X25498571Y-73763333D01*
X25593809Y-73763333D01*
X25689047Y-74239523D01*
X25355714Y-73430000D02*
X26022380Y-73239523D01*
X25546190Y-73049047D01*
X26022380Y-72858571D01*
X25355714Y-72668095D01*
X26117619Y-72525238D02*
X26117619Y-71763333D01*
X25022380Y-71668095D02*
X25022380Y-71096666D01*
X26022380Y-71382380D02*
X25022380Y-71382380D01*
X25974761Y-70382380D02*
X26022380Y-70477619D01*
X26022380Y-70668095D01*
X25974761Y-70763333D01*
X25879523Y-70810952D01*
X25498571Y-70810952D01*
X25403333Y-70763333D01*
X25355714Y-70668095D01*
X25355714Y-70477619D01*
X25403333Y-70382380D01*
X25498571Y-70334761D01*
X25593809Y-70334761D01*
X25689047Y-70810952D01*
X26022380Y-69906190D02*
X25355714Y-69906190D01*
X25546190Y-69906190D02*
X25450952Y-69858571D01*
X25403333Y-69810952D01*
X25355714Y-69715714D01*
X25355714Y-69620476D01*
X26022380Y-69287142D02*
X25355714Y-69287142D01*
X25450952Y-69287142D02*
X25403333Y-69239523D01*
X25355714Y-69144285D01*
X25355714Y-69001428D01*
X25403333Y-68906190D01*
X25498571Y-68858571D01*
X26022380Y-68858571D01*
X25498571Y-68858571D02*
X25403333Y-68810952D01*
X25355714Y-68715714D01*
X25355714Y-68572857D01*
X25403333Y-68477619D01*
X25498571Y-68430000D01*
X26022380Y-68430000D01*
X26022380Y-67953809D02*
X25355714Y-67953809D01*
X25022380Y-67953809D02*
X25070000Y-68001428D01*
X25117619Y-67953809D01*
X25070000Y-67906190D01*
X25022380Y-67953809D01*
X25117619Y-67953809D01*
X25355714Y-67477619D02*
X26022380Y-67477619D01*
X25450952Y-67477619D02*
X25403333Y-67430000D01*
X25355714Y-67334761D01*
X25355714Y-67191904D01*
X25403333Y-67096666D01*
X25498571Y-67049047D01*
X26022380Y-67049047D01*
X26022380Y-66144285D02*
X25498571Y-66144285D01*
X25403333Y-66191904D01*
X25355714Y-66287142D01*
X25355714Y-66477619D01*
X25403333Y-66572857D01*
X25974761Y-66144285D02*
X26022380Y-66239523D01*
X26022380Y-66477619D01*
X25974761Y-66572857D01*
X25879523Y-66620476D01*
X25784285Y-66620476D01*
X25689047Y-66572857D01*
X25641428Y-66477619D01*
X25641428Y-66239523D01*
X25593809Y-66144285D01*
X26022380Y-65525238D02*
X25974761Y-65620476D01*
X25879523Y-65668095D01*
X25022380Y-65668095D01*
X26117619Y-65382380D02*
X26117619Y-64620476D01*
X25022380Y-64191904D02*
X25022380Y-64096666D01*
X25070000Y-64001428D01*
X25117619Y-63953809D01*
X25212857Y-63906190D01*
X25403333Y-63858571D01*
X25641428Y-63858571D01*
X25831904Y-63906190D01*
X25927142Y-63953809D01*
X25974761Y-64001428D01*
X26022380Y-64096666D01*
X26022380Y-64191904D01*
X25974761Y-64287142D01*
X25927142Y-64334761D01*
X25831904Y-64382380D01*
X25641428Y-64430000D01*
X25403333Y-64430000D01*
X25212857Y-64382380D01*
X25117619Y-64334761D01*
X25070000Y-64287142D01*
X25022380Y-64191904D01*
X26022380Y-62906190D02*
X26022380Y-63477619D01*
X26022380Y-63191904D02*
X25022380Y-63191904D01*
X25165238Y-63287142D01*
X25260476Y-63382380D01*
X25308095Y-63477619D01*
X26022380Y-62572857D02*
X25355714Y-62049047D01*
X25355714Y-62572857D02*
X26022380Y-62049047D01*
X25022380Y-61477619D02*
X25022380Y-61382380D01*
X25070000Y-61287142D01*
X25117619Y-61239523D01*
X25212857Y-61191904D01*
X25403333Y-61144285D01*
X25641428Y-61144285D01*
X25831904Y-61191904D01*
X25927142Y-61239523D01*
X25974761Y-61287142D01*
X26022380Y-61382380D01*
X26022380Y-61477619D01*
X25974761Y-61572857D01*
X25927142Y-61620476D01*
X25831904Y-61668095D01*
X25641428Y-61715714D01*
X25403333Y-61715714D01*
X25212857Y-61668095D01*
X25117619Y-61620476D01*
X25070000Y-61572857D01*
X25022380Y-61477619D01*
X25117619Y-60763333D02*
X25070000Y-60715714D01*
X25022380Y-60620476D01*
X25022380Y-60382380D01*
X25070000Y-60287142D01*
X25117619Y-60239523D01*
X25212857Y-60191904D01*
X25308095Y-60191904D01*
X25450952Y-60239523D01*
X26022380Y-60810952D01*
X26022380Y-60191904D01*
X22652380Y-68763333D02*
X23366666Y-68763333D01*
X23509523Y-68810952D01*
X23604761Y-68906190D01*
X23652380Y-69049047D01*
X23652380Y-69144285D01*
X23652380Y-67763333D02*
X23652380Y-68334761D01*
X23652380Y-68049047D02*
X22652380Y-68049047D01*
X22795238Y-68144285D01*
X22890476Y-68239523D01*
X22938095Y-68334761D01*
G04 #@! TO.C,U1*
X44138095Y-66552380D02*
X44138095Y-67361904D01*
X44185714Y-67457142D01*
X44233333Y-67504761D01*
X44328571Y-67552380D01*
X44519047Y-67552380D01*
X44614285Y-67504761D01*
X44661904Y-67457142D01*
X44709523Y-67361904D01*
X44709523Y-66552380D01*
X45709523Y-67552380D02*
X45138095Y-67552380D01*
X45423809Y-67552380D02*
X45423809Y-66552380D01*
X45328571Y-66695238D01*
X45233333Y-66790476D01*
X45138095Y-66838095D01*
G04 #@! TO.C,R2*
X142819523Y-89972380D02*
X142248095Y-89972380D01*
X142533809Y-89972380D02*
X142533809Y-88972380D01*
X142438571Y-89115238D01*
X142343333Y-89210476D01*
X142248095Y-89258095D01*
X143438571Y-88972380D02*
X143533809Y-88972380D01*
X143629047Y-89020000D01*
X143676666Y-89067619D01*
X143724285Y-89162857D01*
X143771904Y-89353333D01*
X143771904Y-89591428D01*
X143724285Y-89781904D01*
X143676666Y-89877142D01*
X143629047Y-89924761D01*
X143533809Y-89972380D01*
X143438571Y-89972380D01*
X143343333Y-89924761D01*
X143295714Y-89877142D01*
X143248095Y-89781904D01*
X143200476Y-89591428D01*
X143200476Y-89353333D01*
X143248095Y-89162857D01*
X143295714Y-89067619D01*
X143343333Y-89020000D01*
X143438571Y-88972380D01*
X144200476Y-89972380D02*
X144200476Y-88972380D01*
X144771904Y-89972380D02*
X144343333Y-89400952D01*
X144771904Y-88972380D02*
X144200476Y-89543809D01*
D12*
X143390000Y-87925714D02*
X143150000Y-87582857D01*
X142978571Y-87925714D02*
X142978571Y-87205714D01*
X143252857Y-87205714D01*
X143321428Y-87240000D01*
X143355714Y-87274285D01*
X143390000Y-87342857D01*
X143390000Y-87445714D01*
X143355714Y-87514285D01*
X143321428Y-87548571D01*
X143252857Y-87582857D01*
X142978571Y-87582857D01*
X143664285Y-87274285D02*
X143698571Y-87240000D01*
X143767142Y-87205714D01*
X143938571Y-87205714D01*
X144007142Y-87240000D01*
X144041428Y-87274285D01*
X144075714Y-87342857D01*
X144075714Y-87411428D01*
X144041428Y-87514285D01*
X143630000Y-87925714D01*
X144075714Y-87925714D01*
G04 #@! TO.C,R1*
D11*
X142759523Y-98952380D02*
X142188095Y-98952380D01*
X142473809Y-98952380D02*
X142473809Y-97952380D01*
X142378571Y-98095238D01*
X142283333Y-98190476D01*
X142188095Y-98238095D01*
X143378571Y-97952380D02*
X143473809Y-97952380D01*
X143569047Y-98000000D01*
X143616666Y-98047619D01*
X143664285Y-98142857D01*
X143711904Y-98333333D01*
X143711904Y-98571428D01*
X143664285Y-98761904D01*
X143616666Y-98857142D01*
X143569047Y-98904761D01*
X143473809Y-98952380D01*
X143378571Y-98952380D01*
X143283333Y-98904761D01*
X143235714Y-98857142D01*
X143188095Y-98761904D01*
X143140476Y-98571428D01*
X143140476Y-98333333D01*
X143188095Y-98142857D01*
X143235714Y-98047619D01*
X143283333Y-98000000D01*
X143378571Y-97952380D01*
X144140476Y-98952380D02*
X144140476Y-97952380D01*
X144711904Y-98952380D02*
X144283333Y-98380952D01*
X144711904Y-97952380D02*
X144140476Y-98523809D01*
D12*
X143390000Y-98325714D02*
X143150000Y-97982857D01*
X142978571Y-98325714D02*
X142978571Y-97605714D01*
X143252857Y-97605714D01*
X143321428Y-97640000D01*
X143355714Y-97674285D01*
X143390000Y-97742857D01*
X143390000Y-97845714D01*
X143355714Y-97914285D01*
X143321428Y-97948571D01*
X143252857Y-97982857D01*
X142978571Y-97982857D01*
X144075714Y-98325714D02*
X143664285Y-98325714D01*
X143870000Y-98325714D02*
X143870000Y-97605714D01*
X143801428Y-97708571D01*
X143732857Y-97777142D01*
X143664285Y-97811428D01*
G04 #@! TO.C,M3*
D11*
X269480952Y-145052380D02*
X269480952Y-144052380D01*
X269814285Y-144766666D01*
X270147619Y-144052380D01*
X270147619Y-145052380D01*
X270766666Y-145052380D02*
X270671428Y-145004761D01*
X270623809Y-144957142D01*
X270576190Y-144861904D01*
X270576190Y-144576190D01*
X270623809Y-144480952D01*
X270671428Y-144433333D01*
X270766666Y-144385714D01*
X270909523Y-144385714D01*
X271004761Y-144433333D01*
X271052380Y-144480952D01*
X271100000Y-144576190D01*
X271100000Y-144861904D01*
X271052380Y-144957142D01*
X271004761Y-145004761D01*
X270909523Y-145052380D01*
X270766666Y-145052380D01*
X271957142Y-144385714D02*
X271957142Y-145052380D01*
X271528571Y-144385714D02*
X271528571Y-144909523D01*
X271576190Y-145004761D01*
X271671428Y-145052380D01*
X271814285Y-145052380D01*
X271909523Y-145004761D01*
X271957142Y-144957142D01*
X272433333Y-144385714D02*
X272433333Y-145052380D01*
X272433333Y-144480952D02*
X272480952Y-144433333D01*
X272576190Y-144385714D01*
X272719047Y-144385714D01*
X272814285Y-144433333D01*
X272861904Y-144528571D01*
X272861904Y-145052380D01*
X273195238Y-144385714D02*
X273576190Y-144385714D01*
X273338095Y-144052380D02*
X273338095Y-144909523D01*
X273385714Y-145004761D01*
X273480952Y-145052380D01*
X273576190Y-145052380D01*
X273909523Y-145052380D02*
X273909523Y-144385714D01*
X273909523Y-144052380D02*
X273861904Y-144100000D01*
X273909523Y-144147619D01*
X273957142Y-144100000D01*
X273909523Y-144052380D01*
X273909523Y-144147619D01*
X274385714Y-144385714D02*
X274385714Y-145052380D01*
X274385714Y-144480952D02*
X274433333Y-144433333D01*
X274528571Y-144385714D01*
X274671428Y-144385714D01*
X274766666Y-144433333D01*
X274814285Y-144528571D01*
X274814285Y-145052380D01*
X275719047Y-144385714D02*
X275719047Y-145195238D01*
X275671428Y-145290476D01*
X275623809Y-145338095D01*
X275528571Y-145385714D01*
X275385714Y-145385714D01*
X275290476Y-145338095D01*
X275719047Y-145004761D02*
X275623809Y-145052380D01*
X275433333Y-145052380D01*
X275338095Y-145004761D01*
X275290476Y-144957142D01*
X275242857Y-144861904D01*
X275242857Y-144576190D01*
X275290476Y-144480952D01*
X275338095Y-144433333D01*
X275433333Y-144385714D01*
X275623809Y-144385714D01*
X275719047Y-144433333D01*
X276195238Y-145052380D02*
X276195238Y-144052380D01*
X276195238Y-144528571D02*
X276766666Y-144528571D01*
X276766666Y-145052380D02*
X276766666Y-144052380D01*
X277385714Y-145052380D02*
X277290476Y-145004761D01*
X277242857Y-144957142D01*
X277195238Y-144861904D01*
X277195238Y-144576190D01*
X277242857Y-144480952D01*
X277290476Y-144433333D01*
X277385714Y-144385714D01*
X277528571Y-144385714D01*
X277623809Y-144433333D01*
X277671428Y-144480952D01*
X277719047Y-144576190D01*
X277719047Y-144861904D01*
X277671428Y-144957142D01*
X277623809Y-145004761D01*
X277528571Y-145052380D01*
X277385714Y-145052380D01*
X278290476Y-145052380D02*
X278195238Y-145004761D01*
X278147619Y-144909523D01*
X278147619Y-144052380D01*
X279052380Y-145004761D02*
X278957142Y-145052380D01*
X278766666Y-145052380D01*
X278671428Y-145004761D01*
X278623809Y-144909523D01*
X278623809Y-144528571D01*
X278671428Y-144433333D01*
X278766666Y-144385714D01*
X278957142Y-144385714D01*
X279052380Y-144433333D01*
X279100000Y-144528571D01*
X279100000Y-144623809D01*
X278623809Y-144719047D01*
X279290476Y-145147619D02*
X280052380Y-145147619D01*
X280195238Y-144052380D02*
X280814285Y-144052380D01*
X280480952Y-144433333D01*
X280623809Y-144433333D01*
X280719047Y-144480952D01*
X280766666Y-144528571D01*
X280814285Y-144623809D01*
X280814285Y-144861904D01*
X280766666Y-144957142D01*
X280719047Y-145004761D01*
X280623809Y-145052380D01*
X280338095Y-145052380D01*
X280242857Y-145004761D01*
X280195238Y-144957142D01*
X281242857Y-144957142D02*
X281290476Y-145004761D01*
X281242857Y-145052380D01*
X281195238Y-145004761D01*
X281242857Y-144957142D01*
X281242857Y-145052380D01*
X281671428Y-144147619D02*
X281719047Y-144100000D01*
X281814285Y-144052380D01*
X282052380Y-144052380D01*
X282147619Y-144100000D01*
X282195238Y-144147619D01*
X282242857Y-144242857D01*
X282242857Y-144338095D01*
X282195238Y-144480952D01*
X281623809Y-145052380D01*
X282242857Y-145052380D01*
X282671428Y-145052380D02*
X282671428Y-144385714D01*
X282671428Y-144480952D02*
X282719047Y-144433333D01*
X282814285Y-144385714D01*
X282957142Y-144385714D01*
X283052380Y-144433333D01*
X283100000Y-144528571D01*
X283100000Y-145052380D01*
X283100000Y-144528571D02*
X283147619Y-144433333D01*
X283242857Y-144385714D01*
X283385714Y-144385714D01*
X283480952Y-144433333D01*
X283528571Y-144528571D01*
X283528571Y-145052380D01*
X284004761Y-145052380D02*
X284004761Y-144385714D01*
X284004761Y-144480952D02*
X284052380Y-144433333D01*
X284147619Y-144385714D01*
X284290476Y-144385714D01*
X284385714Y-144433333D01*
X284433333Y-144528571D01*
X284433333Y-145052380D01*
X284433333Y-144528571D02*
X284480952Y-144433333D01*
X284576190Y-144385714D01*
X284719047Y-144385714D01*
X284814285Y-144433333D01*
X284861904Y-144528571D01*
X284861904Y-145052380D01*
X285100000Y-145147619D02*
X285861904Y-145147619D01*
X286100000Y-145052380D02*
X286100000Y-144052380D01*
X286433333Y-144766666D01*
X286766666Y-144052380D01*
X286766666Y-145052380D01*
X287147619Y-144052380D02*
X287766666Y-144052380D01*
X287433333Y-144433333D01*
X287576190Y-144433333D01*
X287671428Y-144480952D01*
X287719047Y-144528571D01*
X287766666Y-144623809D01*
X287766666Y-144861904D01*
X287719047Y-144957142D01*
X287671428Y-145004761D01*
X287576190Y-145052380D01*
X287290476Y-145052380D01*
X287195238Y-145004761D01*
X287147619Y-144957142D01*
X278290476Y-140352380D02*
X278290476Y-139352380D01*
X278623809Y-140066666D01*
X278957142Y-139352380D01*
X278957142Y-140352380D01*
X279338095Y-139352380D02*
X279957142Y-139352380D01*
X279623809Y-139733333D01*
X279766666Y-139733333D01*
X279861904Y-139780952D01*
X279909523Y-139828571D01*
X279957142Y-139923809D01*
X279957142Y-140161904D01*
X279909523Y-140257142D01*
X279861904Y-140304761D01*
X279766666Y-140352380D01*
X279480952Y-140352380D01*
X279385714Y-140304761D01*
X279338095Y-140257142D01*
X7680952Y-144152380D02*
X7680952Y-143152380D01*
X8014285Y-143866666D01*
X8347619Y-143152380D01*
X8347619Y-144152380D01*
X8966666Y-144152380D02*
X8871428Y-144104761D01*
X8823809Y-144057142D01*
X8776190Y-143961904D01*
X8776190Y-143676190D01*
X8823809Y-143580952D01*
X8871428Y-143533333D01*
X8966666Y-143485714D01*
X9109523Y-143485714D01*
X9204761Y-143533333D01*
X9252380Y-143580952D01*
X9299999Y-143676190D01*
X9299999Y-143961904D01*
X9252380Y-144057142D01*
X9204761Y-144104761D01*
X9109523Y-144152380D01*
X8966666Y-144152380D01*
X10157142Y-143485714D02*
X10157142Y-144152380D01*
X9728571Y-143485714D02*
X9728571Y-144009523D01*
X9776190Y-144104761D01*
X9871428Y-144152380D01*
X10014285Y-144152380D01*
X10109523Y-144104761D01*
X10157142Y-144057142D01*
X10633333Y-143485714D02*
X10633333Y-144152380D01*
X10633333Y-143580952D02*
X10680952Y-143533333D01*
X10776190Y-143485714D01*
X10919047Y-143485714D01*
X11014285Y-143533333D01*
X11061904Y-143628571D01*
X11061904Y-144152380D01*
X11395238Y-143485714D02*
X11776190Y-143485714D01*
X11538095Y-143152380D02*
X11538095Y-144009523D01*
X11585714Y-144104761D01*
X11680952Y-144152380D01*
X11776190Y-144152380D01*
X12109523Y-144152380D02*
X12109523Y-143485714D01*
X12109523Y-143152380D02*
X12061904Y-143200000D01*
X12109523Y-143247619D01*
X12157142Y-143200000D01*
X12109523Y-143152380D01*
X12109523Y-143247619D01*
X12585714Y-143485714D02*
X12585714Y-144152380D01*
X12585714Y-143580952D02*
X12633333Y-143533333D01*
X12728571Y-143485714D01*
X12871428Y-143485714D01*
X12966666Y-143533333D01*
X13014285Y-143628571D01*
X13014285Y-144152380D01*
X13919047Y-143485714D02*
X13919047Y-144295238D01*
X13871428Y-144390476D01*
X13823809Y-144438095D01*
X13728571Y-144485714D01*
X13585714Y-144485714D01*
X13490476Y-144438095D01*
X13919047Y-144104761D02*
X13823809Y-144152380D01*
X13633333Y-144152380D01*
X13538095Y-144104761D01*
X13490476Y-144057142D01*
X13442857Y-143961904D01*
X13442857Y-143676190D01*
X13490476Y-143580952D01*
X13538095Y-143533333D01*
X13633333Y-143485714D01*
X13823809Y-143485714D01*
X13919047Y-143533333D01*
X14395238Y-144152380D02*
X14395238Y-143152380D01*
X14395238Y-143628571D02*
X14966666Y-143628571D01*
X14966666Y-144152380D02*
X14966666Y-143152380D01*
X15585714Y-144152380D02*
X15490476Y-144104761D01*
X15442857Y-144057142D01*
X15395238Y-143961904D01*
X15395238Y-143676190D01*
X15442857Y-143580952D01*
X15490476Y-143533333D01*
X15585714Y-143485714D01*
X15728571Y-143485714D01*
X15823809Y-143533333D01*
X15871428Y-143580952D01*
X15919047Y-143676190D01*
X15919047Y-143961904D01*
X15871428Y-144057142D01*
X15823809Y-144104761D01*
X15728571Y-144152380D01*
X15585714Y-144152380D01*
X16490476Y-144152380D02*
X16395238Y-144104761D01*
X16347619Y-144009523D01*
X16347619Y-143152380D01*
X17252380Y-144104761D02*
X17157142Y-144152380D01*
X16966666Y-144152380D01*
X16871428Y-144104761D01*
X16823809Y-144009523D01*
X16823809Y-143628571D01*
X16871428Y-143533333D01*
X16966666Y-143485714D01*
X17157142Y-143485714D01*
X17252380Y-143533333D01*
X17299999Y-143628571D01*
X17299999Y-143723809D01*
X16823809Y-143819047D01*
X17490476Y-144247619D02*
X18252380Y-144247619D01*
X18395238Y-143152380D02*
X19014285Y-143152380D01*
X18680952Y-143533333D01*
X18823809Y-143533333D01*
X18919047Y-143580952D01*
X18966666Y-143628571D01*
X19014285Y-143723809D01*
X19014285Y-143961904D01*
X18966666Y-144057142D01*
X18919047Y-144104761D01*
X18823809Y-144152380D01*
X18538095Y-144152380D01*
X18442857Y-144104761D01*
X18395238Y-144057142D01*
X19442857Y-144057142D02*
X19490476Y-144104761D01*
X19442857Y-144152380D01*
X19395238Y-144104761D01*
X19442857Y-144057142D01*
X19442857Y-144152380D01*
X19871428Y-143247619D02*
X19919047Y-143200000D01*
X20014285Y-143152380D01*
X20252380Y-143152380D01*
X20347619Y-143200000D01*
X20395238Y-143247619D01*
X20442857Y-143342857D01*
X20442857Y-143438095D01*
X20395238Y-143580952D01*
X19823809Y-144152380D01*
X20442857Y-144152380D01*
X20871428Y-144152380D02*
X20871428Y-143485714D01*
X20871428Y-143580952D02*
X20919047Y-143533333D01*
X21014285Y-143485714D01*
X21157142Y-143485714D01*
X21252380Y-143533333D01*
X21299999Y-143628571D01*
X21299999Y-144152380D01*
X21299999Y-143628571D02*
X21347619Y-143533333D01*
X21442857Y-143485714D01*
X21585714Y-143485714D01*
X21680952Y-143533333D01*
X21728571Y-143628571D01*
X21728571Y-144152380D01*
X22204761Y-144152380D02*
X22204761Y-143485714D01*
X22204761Y-143580952D02*
X22252380Y-143533333D01*
X22347619Y-143485714D01*
X22490476Y-143485714D01*
X22585714Y-143533333D01*
X22633333Y-143628571D01*
X22633333Y-144152380D01*
X22633333Y-143628571D02*
X22680952Y-143533333D01*
X22776190Y-143485714D01*
X22919047Y-143485714D01*
X23014285Y-143533333D01*
X23061904Y-143628571D01*
X23061904Y-144152380D01*
X23299999Y-144247619D02*
X24061904Y-144247619D01*
X24299999Y-144152380D02*
X24299999Y-143152380D01*
X24633333Y-143866666D01*
X24966666Y-143152380D01*
X24966666Y-144152380D01*
X25347619Y-143152380D02*
X25966666Y-143152380D01*
X25633333Y-143533333D01*
X25776190Y-143533333D01*
X25871428Y-143580952D01*
X25919047Y-143628571D01*
X25966666Y-143723809D01*
X25966666Y-143961904D01*
X25919047Y-144057142D01*
X25871428Y-144104761D01*
X25776190Y-144152380D01*
X25490476Y-144152380D01*
X25395238Y-144104761D01*
X25347619Y-144057142D01*
X16290476Y-139952380D02*
X16290476Y-138952380D01*
X16623809Y-139666666D01*
X16957142Y-138952380D01*
X16957142Y-139952380D01*
X17338095Y-138952380D02*
X17957142Y-138952380D01*
X17623809Y-139333333D01*
X17766666Y-139333333D01*
X17861904Y-139380952D01*
X17909523Y-139428571D01*
X17957142Y-139523809D01*
X17957142Y-139761904D01*
X17909523Y-139857142D01*
X17861904Y-139904761D01*
X17766666Y-139952380D01*
X17480952Y-139952380D01*
X17385714Y-139904761D01*
X17338095Y-139857142D01*
X8080952Y-21452380D02*
X8080952Y-20452380D01*
X8414285Y-21166666D01*
X8747619Y-20452380D01*
X8747619Y-21452380D01*
X9366666Y-21452380D02*
X9271428Y-21404761D01*
X9223809Y-21357142D01*
X9176190Y-21261904D01*
X9176190Y-20976190D01*
X9223809Y-20880952D01*
X9271428Y-20833333D01*
X9366666Y-20785714D01*
X9509523Y-20785714D01*
X9604761Y-20833333D01*
X9652380Y-20880952D01*
X9699999Y-20976190D01*
X9699999Y-21261904D01*
X9652380Y-21357142D01*
X9604761Y-21404761D01*
X9509523Y-21452380D01*
X9366666Y-21452380D01*
X10557142Y-20785714D02*
X10557142Y-21452380D01*
X10128571Y-20785714D02*
X10128571Y-21309523D01*
X10176190Y-21404761D01*
X10271428Y-21452380D01*
X10414285Y-21452380D01*
X10509523Y-21404761D01*
X10557142Y-21357142D01*
X11033333Y-20785714D02*
X11033333Y-21452380D01*
X11033333Y-20880952D02*
X11080952Y-20833333D01*
X11176190Y-20785714D01*
X11319047Y-20785714D01*
X11414285Y-20833333D01*
X11461904Y-20928571D01*
X11461904Y-21452380D01*
X11795238Y-20785714D02*
X12176190Y-20785714D01*
X11938095Y-20452380D02*
X11938095Y-21309523D01*
X11985714Y-21404761D01*
X12080952Y-21452380D01*
X12176190Y-21452380D01*
X12509523Y-21452380D02*
X12509523Y-20785714D01*
X12509523Y-20452380D02*
X12461904Y-20500000D01*
X12509523Y-20547619D01*
X12557142Y-20500000D01*
X12509523Y-20452380D01*
X12509523Y-20547619D01*
X12985714Y-20785714D02*
X12985714Y-21452380D01*
X12985714Y-20880952D02*
X13033333Y-20833333D01*
X13128571Y-20785714D01*
X13271428Y-20785714D01*
X13366666Y-20833333D01*
X13414285Y-20928571D01*
X13414285Y-21452380D01*
X14319047Y-20785714D02*
X14319047Y-21595238D01*
X14271428Y-21690476D01*
X14223809Y-21738095D01*
X14128571Y-21785714D01*
X13985714Y-21785714D01*
X13890476Y-21738095D01*
X14319047Y-21404761D02*
X14223809Y-21452380D01*
X14033333Y-21452380D01*
X13938095Y-21404761D01*
X13890476Y-21357142D01*
X13842857Y-21261904D01*
X13842857Y-20976190D01*
X13890476Y-20880952D01*
X13938095Y-20833333D01*
X14033333Y-20785714D01*
X14223809Y-20785714D01*
X14319047Y-20833333D01*
X14795238Y-21452380D02*
X14795238Y-20452380D01*
X14795238Y-20928571D02*
X15366666Y-20928571D01*
X15366666Y-21452380D02*
X15366666Y-20452380D01*
X15985714Y-21452380D02*
X15890476Y-21404761D01*
X15842857Y-21357142D01*
X15795238Y-21261904D01*
X15795238Y-20976190D01*
X15842857Y-20880952D01*
X15890476Y-20833333D01*
X15985714Y-20785714D01*
X16128571Y-20785714D01*
X16223809Y-20833333D01*
X16271428Y-20880952D01*
X16319047Y-20976190D01*
X16319047Y-21261904D01*
X16271428Y-21357142D01*
X16223809Y-21404761D01*
X16128571Y-21452380D01*
X15985714Y-21452380D01*
X16890476Y-21452380D02*
X16795238Y-21404761D01*
X16747619Y-21309523D01*
X16747619Y-20452380D01*
X17652380Y-21404761D02*
X17557142Y-21452380D01*
X17366666Y-21452380D01*
X17271428Y-21404761D01*
X17223809Y-21309523D01*
X17223809Y-20928571D01*
X17271428Y-20833333D01*
X17366666Y-20785714D01*
X17557142Y-20785714D01*
X17652380Y-20833333D01*
X17699999Y-20928571D01*
X17699999Y-21023809D01*
X17223809Y-21119047D01*
X17890476Y-21547619D02*
X18652380Y-21547619D01*
X18795238Y-20452380D02*
X19414285Y-20452380D01*
X19080952Y-20833333D01*
X19223809Y-20833333D01*
X19319047Y-20880952D01*
X19366666Y-20928571D01*
X19414285Y-21023809D01*
X19414285Y-21261904D01*
X19366666Y-21357142D01*
X19319047Y-21404761D01*
X19223809Y-21452380D01*
X18938095Y-21452380D01*
X18842857Y-21404761D01*
X18795238Y-21357142D01*
X19842857Y-21357142D02*
X19890476Y-21404761D01*
X19842857Y-21452380D01*
X19795238Y-21404761D01*
X19842857Y-21357142D01*
X19842857Y-21452380D01*
X20271428Y-20547619D02*
X20319047Y-20500000D01*
X20414285Y-20452380D01*
X20652380Y-20452380D01*
X20747619Y-20500000D01*
X20795238Y-20547619D01*
X20842857Y-20642857D01*
X20842857Y-20738095D01*
X20795238Y-20880952D01*
X20223809Y-21452380D01*
X20842857Y-21452380D01*
X21271428Y-21452380D02*
X21271428Y-20785714D01*
X21271428Y-20880952D02*
X21319047Y-20833333D01*
X21414285Y-20785714D01*
X21557142Y-20785714D01*
X21652380Y-20833333D01*
X21699999Y-20928571D01*
X21699999Y-21452380D01*
X21699999Y-20928571D02*
X21747619Y-20833333D01*
X21842857Y-20785714D01*
X21985714Y-20785714D01*
X22080952Y-20833333D01*
X22128571Y-20928571D01*
X22128571Y-21452380D01*
X22604761Y-21452380D02*
X22604761Y-20785714D01*
X22604761Y-20880952D02*
X22652380Y-20833333D01*
X22747619Y-20785714D01*
X22890476Y-20785714D01*
X22985714Y-20833333D01*
X23033333Y-20928571D01*
X23033333Y-21452380D01*
X23033333Y-20928571D02*
X23080952Y-20833333D01*
X23176190Y-20785714D01*
X23319047Y-20785714D01*
X23414285Y-20833333D01*
X23461904Y-20928571D01*
X23461904Y-21452380D01*
X23699999Y-21547619D02*
X24461904Y-21547619D01*
X24699999Y-21452380D02*
X24699999Y-20452380D01*
X25033333Y-21166666D01*
X25366666Y-20452380D01*
X25366666Y-21452380D01*
X25747619Y-20452380D02*
X26366666Y-20452380D01*
X26033333Y-20833333D01*
X26176190Y-20833333D01*
X26271428Y-20880952D01*
X26319047Y-20928571D01*
X26366666Y-21023809D01*
X26366666Y-21261904D01*
X26319047Y-21357142D01*
X26271428Y-21404761D01*
X26176190Y-21452380D01*
X25890476Y-21452380D01*
X25795238Y-21404761D01*
X25747619Y-21357142D01*
X16690476Y-17252380D02*
X16690476Y-16252380D01*
X17023809Y-16966666D01*
X17357142Y-16252380D01*
X17357142Y-17252380D01*
X17738095Y-16252380D02*
X18357142Y-16252380D01*
X18023809Y-16633333D01*
X18166666Y-16633333D01*
X18261904Y-16680952D01*
X18309523Y-16728571D01*
X18357142Y-16823809D01*
X18357142Y-17061904D01*
X18309523Y-17157142D01*
X18261904Y-17204761D01*
X18166666Y-17252380D01*
X17880952Y-17252380D01*
X17785714Y-17204761D01*
X17738095Y-17157142D01*
G04 #@! TD*
M02*
