M48
;DRILL file {KiCad 5.0.2-bee76a0~70~ubuntu16.04.1} date Tue 26 Oct 2021 00:06:29 BST
;FORMAT={-:-/ absolute / inch / decimal}
FMAT,2
INCH,TZ
T1C0.0197
T2C0.0276
T3C0.0296
T4C0.0394
T5C0.0400
T6C0.0402
T7C0.0433
T8C0.0598
T9C0.1181
%
G90
G05
T1
X2.9104Y-0.7283
X2.9104Y-3.0433
X2.9346Y-0.6699
X2.9346Y-0.7868
X2.9346Y-2.9848
X2.9346Y-3.1018
X2.9931Y-0.6457
X2.9931Y-0.811
X2.9931Y-2.9606
X2.9931Y-3.126
X3.0516Y-0.6699
X3.0516Y-0.7868
X3.0516Y-2.9848
X3.0516Y-3.1018
X3.0758Y-0.7283
X3.0759Y-3.0433
X3.9656Y-0.7283
X3.9656Y-3.0428
X3.9898Y-0.6699
X3.9898Y-0.7868
X3.9898Y-2.9848
X3.9898Y-3.1018
X4.0482Y-0.6457
X4.0482Y-0.811
X4.0482Y-2.9606
X4.0482Y-3.126
X4.1067Y-0.6699
X4.1067Y-0.7868
X4.1067Y-2.9848
X4.1067Y-3.1018
X4.1309Y-0.7283
X4.1309Y-3.0433
X5.1939Y-0.7205
X5.1939Y-3.0354
X5.2181Y-0.662
X5.2181Y-0.7789
X5.2181Y-2.977
X5.2181Y-3.0939
X5.2766Y-0.6378
X5.2766Y-0.8031
X5.2766Y-2.9528
X5.2766Y-3.1181
X5.335Y-0.662
X5.335Y-0.7789
X5.335Y-2.977
X5.335Y-3.0939
X5.3593Y-0.7205
X5.3594Y-3.0354
X6.249Y-0.7205
X6.249Y-3.035
X6.2732Y-0.662
X6.2732Y-0.7789
X6.2732Y-2.977
X6.2732Y-3.0939
X6.3317Y-0.6378
X6.3317Y-0.8031
X6.3317Y-2.9528
X6.3317Y-3.1181
X6.3902Y-0.662
X6.3902Y-0.7789
X6.3902Y-2.977
X6.3902Y-3.0939
X6.4144Y-0.7205
X6.4144Y-3.0354
T2
X5.5Y-3.4488
X5.8Y-3.4488
X5.5Y-3.8583
X5.8Y-3.8583
T3
X4.3228Y-4.7795
X4.4016Y-4.7795
X4.4803Y-4.7795
T4
X1.5177Y-3.0342
X1.6177Y-3.0342
X1.7177Y-3.0342
X1.8177Y-3.0342
X1.9177Y-3.0342
X2.0177Y-3.0342
T5
X1.7479Y-5.374
X1.8479Y-5.374
X1.9479Y-5.374
X2.0479Y-5.374
X2.1079Y-3.474
X2.1479Y-5.374
X2.2079Y-3.474
X2.2479Y-5.374
X2.3079Y-3.474
X2.3479Y-5.374
X2.4079Y-3.474
X2.4479Y-5.374
X2.5079Y-3.474
X2.5479Y-5.374
X2.6079Y-3.474
X2.6479Y-5.374
X2.7079Y-3.474
X2.8079Y-3.474
X2.8079Y-5.374
X2.9079Y-5.374
X3.0079Y-3.474
X3.0079Y-5.374
X3.1079Y-3.474
X3.1079Y-5.374
X3.2079Y-3.474
X3.2079Y-5.374
X3.3079Y-3.474
X3.3079Y-5.374
X3.4079Y-3.474
X3.4079Y-5.374
X3.5079Y-3.474
X3.5079Y-5.374
X3.5129Y-4.374
X3.5129Y-4.474
X3.5129Y-4.574
X3.6129Y-4.374
X3.6129Y-4.474
X3.6129Y-4.574
T6
X1.2394Y-1.8051
X1.2394Y-1.9051
X1.2394Y-2.0051
X1.3394Y-1.8051
X1.3394Y-1.9051
X1.3394Y-2.0051
T7
X4.4724Y-3.6496
X4.5724Y-3.6496
X0.8346Y-2.6441
X0.8346Y-2.7441
T8
X3.2329Y-0.7969
X3.4244Y-0.7969
X3.6315Y-0.7969
X3.8191Y-0.7969
X5.5163Y-0.789
X5.7079Y-0.789
X5.915Y-0.789
X6.1026Y-0.789
X2.1311Y-1.3638
X2.1311Y-1.5016
X2.1311Y-1.6394
X2.1311Y-1.7772
T9
X2.9931Y-0.7283
X2.9931Y-3.0433
X4.0482Y-0.7283
X4.0482Y-3.0433
X5.2766Y-0.7205
X5.2766Y-3.0354
X6.3317Y-0.7205
X6.3317Y-3.0354
T0
M30
