M48
;DRILL file {KiCad 5.0.2-bee76a0~70~ubuntu16.04.1} date Tue 26 Oct 2021 00:06:29 BST
;FORMAT={-:-/ absolute / inch / decimal}
FMAT,2
INCH,TZ
T1C0.0157
T2C0.0858
T3C0.0984
T4C0.1181
T5C0.1260
%
G90
G05
T1
X1.8661Y-2.9173
X2.0709Y-2.815
T2
X1.0177Y-1.9665
X2.1713Y-0.813
X2.1713Y-1.9665
T3
X1.5134Y-2.6542
X2.022Y-2.6542
T4
X4.126Y-4.1693
X4.126Y-5.3898
X6.3307Y-4.1693
X6.3307Y-5.3898
X6.7795Y-0.7047
X6.7795Y-4.878
X10.9528Y-0.7047
X10.9528Y-4.878
T5
X0.6772Y-0.6614
X0.6614Y-5.4921
X1.5579Y-3.474
X1.6079Y-5.374
X3.6079Y-3.674
X3.6079Y-4.774
X10.9764Y-5.5079
T0
M30
