G04 #@! TF.GenerationSoftware,KiCad,Pcbnew,5.0.2-bee76a0~70~ubuntu16.04.1*
G04 #@! TF.CreationDate,2021-10-26T00:07:22+01:00*
G04 #@! TF.ProjectId,Podcar_PCB,506f6463-6172-45f5-9043-422e6b696361,rev?*
G04 #@! TF.SameCoordinates,Original*
G04 #@! TF.FileFunction,Copper,L1,Top*
G04 #@! TF.FilePolarity,Positive*
%FSLAX46Y46*%
G04 Gerber Fmt 4.6, Leading zero omitted, Abs format (unit mm)*
G04 Created by KiCad (PCBNEW 5.0.2-bee76a0~70~ubuntu16.04.1) date Tue 26 Oct 2021 00:07:22 BST*
%MOMM*%
%LPD*%
G01*
G04 APERTURE LIST*
G04 #@! TA.AperFunction,ComponentPad*
%ADD10C,1.320000*%
G04 #@! TD*
G04 #@! TA.AperFunction,ComponentPad*
%ADD11C,1.820000*%
G04 #@! TD*
G04 #@! TA.AperFunction,WasherPad*
%ADD12C,2.480000*%
G04 #@! TD*
G04 #@! TA.AperFunction,ComponentPad*
%ADD13O,1.727200X1.727200*%
G04 #@! TD*
G04 #@! TA.AperFunction,ComponentPad*
%ADD14C,6.000000*%
G04 #@! TD*
G04 #@! TA.AperFunction,ComponentPad*
%ADD15C,2.000000*%
G04 #@! TD*
G04 #@! TA.AperFunction,ComponentPad*
%ADD16C,0.800000*%
G04 #@! TD*
G04 #@! TA.AperFunction,ComponentPad*
%ADD17C,1.524000*%
G04 #@! TD*
G04 #@! TA.AperFunction,ComponentPad*
%ADD18C,2.100000*%
G04 #@! TD*
G04 #@! TA.AperFunction,ComponentPad*
%ADD19R,2.100000X2.100000*%
G04 #@! TD*
G04 #@! TA.AperFunction,ComponentPad*
%ADD20C,1.000000*%
G04 #@! TD*
G04 #@! TA.AperFunction,SMDPad,CuDef*
%ADD21R,1.250000X0.500000*%
G04 #@! TD*
G04 #@! TA.AperFunction,ComponentPad*
%ADD22O,1.400000X1.400000*%
G04 #@! TD*
G04 #@! TA.AperFunction,ComponentPad*
%ADD23C,1.400000*%
G04 #@! TD*
G04 #@! TA.AperFunction,Conductor*
%ADD24C,0.254000*%
G04 #@! TD*
G04 APERTURE END LIST*
D10*
G04 #@! TO.P,U2,10*
G04 #@! TO.N,Net-(U2-Pad10)*
X34020000Y-50930000D03*
G04 #@! TO.P,U2,8*
G04 #@! TO.N,Net-(U2-Pad8)*
X34020000Y-48390000D03*
G04 #@! TO.P,U2,6*
G04 #@! TO.N,Net-(U2-Pad6)*
X34020000Y-45850000D03*
G04 #@! TO.P,U2,5*
G04 #@! TO.N,Net-(U2-Pad5)*
X31480000Y-45850000D03*
G04 #@! TO.P,U2,7*
G04 #@! TO.N,Net-(U2-Pad7)*
X31480000Y-48390000D03*
G04 #@! TO.P,U2,9*
G04 #@! TO.N,Net-(U2-Pad9)*
X31480000Y-50930000D03*
D11*
G04 #@! TO.P,U2,1*
G04 #@! TO.N,Net-(J1-Pad2)*
X54130000Y-34640000D03*
G04 #@! TO.P,U2,2*
G04 #@! TO.N,Net-(J1-Pad1)*
X54130000Y-38140000D03*
G04 #@! TO.P,U2,3*
G04 #@! TO.N,Net-(U2-Pad3)*
X54130000Y-41640000D03*
G04 #@! TO.P,U2,4*
G04 #@! TO.N,Net-(U2-Pad4)*
X54130000Y-45140000D03*
D12*
G04 #@! TO.P,U2,*
G04 #@! TO.N,*
X25850000Y-49950000D03*
X55150000Y-49950000D03*
X55150000Y-20650000D03*
G04 #@! TD*
D13*
G04 #@! TO.P,XA1,MISO*
G04 #@! TO.N,Net-(XA1-PadMISO)*
X89227000Y-116180000D03*
G04 #@! TO.P,XA1,A5*
G04 #@! TO.N,Net-(XA1-PadA5)*
X89100000Y-88240000D03*
G04 #@! TO.P,XA1,A4*
G04 #@! TO.N,Net-(XA1-PadA4)*
X86560000Y-88240000D03*
G04 #@! TO.P,XA1,A3*
G04 #@! TO.N,Net-(XA1-PadA3)*
X84020000Y-88240000D03*
G04 #@! TO.P,XA1,A2*
G04 #@! TO.N,Net-(XA1-PadA2)*
X81480000Y-88240000D03*
G04 #@! TO.P,XA1,A1*
G04 #@! TO.N,Net-(XA1-PadA1)*
X78940000Y-88240000D03*
G04 #@! TO.P,XA1,RESET*
G04 #@! TO.N,Net-(XA1-PadRESET)*
X53540000Y-88240000D03*
G04 #@! TO.P,XA1,D11*
G04 #@! TO.N,Net-(XA1-PadD11)*
X59636000Y-136500000D03*
G04 #@! TO.P,XA1,D12*
G04 #@! TO.N,Net-(XA1-PadD12)*
X57096000Y-136500000D03*
G04 #@! TO.P,XA1,D13*
G04 #@! TO.N,Net-(XA1-PadD13)*
X54556000Y-136500000D03*
G04 #@! TO.P,XA1,AREF*
G04 #@! TO.N,Net-(XA1-PadAREF)*
X49476000Y-136500000D03*
G04 #@! TO.P,XA1,SDA*
G04 #@! TO.N,Net-(U1-Pad4)*
X46936000Y-136500000D03*
G04 #@! TO.P,XA1,SCL*
G04 #@! TO.N,Net-(U1-Pad3)*
X44396000Y-136500000D03*
G04 #@! TO.P,XA1,D10*
G04 #@! TO.N,Net-(XA1-PadD10)*
X62176000Y-136500000D03*
G04 #@! TO.P,XA1,D9*
G04 #@! TO.N,Net-(XA1-PadD9)*
X64716000Y-136500000D03*
G04 #@! TO.P,XA1,D8*
G04 #@! TO.N,Net-(XA1-PadD8)*
X67256000Y-136500000D03*
G04 #@! TO.P,XA1,GND1*
G04 #@! TO.N,Net-(XA1-PadGND1)*
X52016000Y-136500000D03*
G04 #@! TO.P,XA1,D7*
G04 #@! TO.N,Net-(XA1-PadD7)*
X71320000Y-136500000D03*
G04 #@! TO.P,XA1,D6*
G04 #@! TO.N,Net-(XA1-PadD6)*
X73860000Y-136500000D03*
G04 #@! TO.P,XA1,D5*
G04 #@! TO.N,Net-(XA1-PadD5)*
X76400000Y-136500000D03*
G04 #@! TO.P,XA1,D4*
G04 #@! TO.N,Net-(XA1-PadD4)*
X78940000Y-136500000D03*
G04 #@! TO.P,XA1,D3*
G04 #@! TO.N,Net-(XA1-PadD3)*
X81480000Y-136500000D03*
G04 #@! TO.P,XA1,D2*
G04 #@! TO.N,Net-(XA1-PadD2)*
X84020000Y-136500000D03*
G04 #@! TO.P,XA1,D1*
G04 #@! TO.N,Net-(XA1-PadD1)*
X86560000Y-136500000D03*
G04 #@! TO.P,XA1,D0*
G04 #@! TO.N,Net-(XA1-PadD0)*
X89100000Y-136500000D03*
G04 #@! TO.P,XA1,IOREF*
G04 #@! TO.N,Net-(XA1-PadIOREF)*
X56080000Y-88240000D03*
G04 #@! TO.P,XA1,RST1*
G04 #@! TO.N,Net-(XA1-PadRST1)*
X58620000Y-88240000D03*
G04 #@! TO.P,XA1,3V3*
G04 #@! TO.N,Net-(XA1-Pad3V3)*
X61160000Y-88240000D03*
G04 #@! TO.P,XA1,5V1*
G04 #@! TO.N,Net-(U1-Pad5)*
X63700000Y-88240000D03*
G04 #@! TO.P,XA1,GND2*
G04 #@! TO.N,Net-(U1-Pad6)*
X66240000Y-88240000D03*
G04 #@! TO.P,XA1,GND3*
G04 #@! TO.N,Net-(XA1-PadGND3)*
X68780000Y-88240000D03*
G04 #@! TO.P,XA1,VIN*
G04 #@! TO.N,Net-(XA1-PadVIN)*
X71320000Y-88240000D03*
G04 #@! TO.P,XA1,A0*
G04 #@! TO.N,Net-(R1-Pad2)*
X76400000Y-88240000D03*
G04 #@! TO.P,XA1,5V2*
G04 #@! TO.N,Net-(U4-PadVIN)*
X91767000Y-116180000D03*
G04 #@! TO.P,XA1,SCK*
G04 #@! TO.N,Net-(XA1-PadSCK)*
X89227000Y-113640000D03*
G04 #@! TO.P,XA1,MOSI*
G04 #@! TO.N,Net-(XA1-PadMOSI)*
X91767000Y-113640000D03*
G04 #@! TO.P,XA1,GND4*
G04 #@! TO.N,Net-(XA1-PadGND4)*
X91767000Y-111100000D03*
G04 #@! TO.P,XA1,RST2*
G04 #@! TO.N,Net-(XA1-PadRST2)*
X89227000Y-111100000D03*
G04 #@! TD*
D14*
G04 #@! TO.P,U6,*
G04 #@! TO.N,*
X160825000Y-18300000D03*
X134025000Y-18300000D03*
X134025000Y-77100000D03*
X160825000Y-77100000D03*
D15*
G04 #@! TO.P,U6,OUT+*
G04 #@! TO.N,Net-(U6-PadOUT+)*
X140115000Y-20040000D03*
G04 #@! TO.P,U6,OUT-*
G04 #@! TO.N,Net-(U6-PadOUT-)*
X144980000Y-20040000D03*
G04 #@! TO.P,U6,IN-*
G04 #@! TO.N,Net-(J2-Pad1)*
X150240000Y-20040000D03*
G04 #@! TO.P,U6,IN+*
G04 #@! TO.N,Net-(J2-Pad2)*
X155005000Y-20040000D03*
D16*
G04 #@! TO.P,U6,*
G04 #@! TO.N,*
X162310000Y-16815000D03*
X160825000Y-16200000D03*
X159340000Y-16815000D03*
X158725000Y-18300000D03*
X159340000Y-19785000D03*
X160825000Y-20400000D03*
X162310000Y-19785000D03*
X162925000Y-18300000D03*
X135510000Y-16815000D03*
X134025000Y-16200000D03*
X132540000Y-16815000D03*
X131925000Y-18300000D03*
X132540000Y-19785000D03*
X134025000Y-20400000D03*
X135510000Y-19785000D03*
X136125000Y-18300000D03*
X135510000Y-75615000D03*
X134025000Y-75000000D03*
X132540000Y-75615000D03*
X131925000Y-77100000D03*
X132540000Y-78585000D03*
X134025000Y-79200000D03*
X135510000Y-78585000D03*
X136129000Y-77100000D03*
X159340000Y-75615000D03*
X160825000Y-75000000D03*
X162310000Y-75615000D03*
X162310000Y-78585000D03*
X160825000Y-79200000D03*
X159340000Y-78585000D03*
X158725000Y-77087800D03*
X162925000Y-77100000D03*
G04 #@! TD*
D14*
G04 #@! TO.P,U5,*
G04 #@! TO.N,*
X102825000Y-18500000D03*
X76025000Y-18500000D03*
X76025000Y-77300000D03*
X102825000Y-77300000D03*
D15*
G04 #@! TO.P,U5,OUT+*
G04 #@! TO.N,Net-(J1-Pad2)*
X82115000Y-20240000D03*
G04 #@! TO.P,U5,OUT-*
G04 #@! TO.N,Net-(J1-Pad1)*
X86980000Y-20240000D03*
G04 #@! TO.P,U5,IN-*
G04 #@! TO.N,Net-(J2-Pad1)*
X92240000Y-20240000D03*
G04 #@! TO.P,U5,IN+*
G04 #@! TO.N,Net-(J2-Pad2)*
X97005000Y-20240000D03*
D16*
G04 #@! TO.P,U5,*
G04 #@! TO.N,*
X104310000Y-17015000D03*
X102825000Y-16400000D03*
X101340000Y-17015000D03*
X100725000Y-18500000D03*
X101340000Y-19985000D03*
X102825000Y-20600000D03*
X104310000Y-19985000D03*
X104925000Y-18500000D03*
X77510000Y-17015000D03*
X76025000Y-16400000D03*
X74540000Y-17015000D03*
X73925000Y-18500000D03*
X74540000Y-19985000D03*
X76025000Y-20600000D03*
X77510000Y-19985000D03*
X78125000Y-18500000D03*
X77510000Y-75815000D03*
X76025000Y-75200000D03*
X74540000Y-75815000D03*
X73925000Y-77300000D03*
X74540000Y-78785000D03*
X76025000Y-79400000D03*
X77510000Y-78785000D03*
X78129000Y-77300000D03*
X101340000Y-75815000D03*
X102825000Y-75200000D03*
X104310000Y-75815000D03*
X104310000Y-78785000D03*
X102825000Y-79400000D03*
X101340000Y-78785000D03*
X100725000Y-77287800D03*
X104925000Y-77300000D03*
G04 #@! TD*
D17*
G04 #@! TO.P,U4,SIG*
G04 #@! TO.N,Net-(U4-PadSIG)*
X113800000Y-121400000D03*
G04 #@! TO.P,U4,VIN*
G04 #@! TO.N,Net-(U4-PadVIN)*
X111800000Y-121400000D03*
G04 #@! TO.P,U4,GND*
G04 #@! TO.N,Net-(U1-Pad6)*
X109800000Y-121400000D03*
G04 #@! TD*
D18*
G04 #@! TO.P,J2,2*
G04 #@! TO.N,Net-(J2-Pad2)*
X116140000Y-92700000D03*
D19*
G04 #@! TO.P,J2,1*
G04 #@! TO.N,Net-(J2-Pad1)*
X113600000Y-92700000D03*
G04 #@! TD*
D18*
G04 #@! TO.P,J1,2*
G04 #@! TO.N,Net-(J1-Pad2)*
X21200000Y-67160000D03*
D19*
G04 #@! TO.P,J1,1*
G04 #@! TO.N,Net-(J1-Pad1)*
X21200000Y-69700000D03*
G04 #@! TD*
D20*
G04 #@! TO.P,U1,6*
G04 #@! TO.N,Net-(U1-Pad6)*
X51250000Y-77068000D03*
G04 #@! TO.P,U1,5*
G04 #@! TO.N,Net-(U1-Pad5)*
X48710000Y-77068000D03*
G04 #@! TO.P,U1,4*
G04 #@! TO.N,Net-(U1-Pad4)*
X46170000Y-77068000D03*
G04 #@! TO.P,U1,3*
G04 #@! TO.N,Net-(U1-Pad3)*
X43630000Y-77068000D03*
G04 #@! TO.P,U1,2*
G04 #@! TO.N,Net-(U1-Pad2)*
X41090000Y-77068000D03*
G04 #@! TO.P,U1,1*
G04 #@! TO.N,Net-(U1-Pad1)*
X38550000Y-77068000D03*
D21*
G04 #@! TO.P,U1,#*
G04 #@! TO.N,N/C*
X38440000Y-72255000D03*
X38440000Y-70705000D03*
G04 #@! TD*
D22*
G04 #@! TO.P,R2,2*
G04 #@! TO.N,Net-(R1-Pad2)*
X147320000Y-87600000D03*
D23*
G04 #@! TO.P,R2,1*
G04 #@! TO.N,Net-(J2-Pad2)*
X139700000Y-87600000D03*
G04 #@! TD*
D22*
G04 #@! TO.P,R1,2*
G04 #@! TO.N,Net-(R1-Pad2)*
X147320000Y-98000000D03*
D23*
G04 #@! TO.P,R1,1*
G04 #@! TO.N,Net-(J2-Pad1)*
X139700000Y-98000000D03*
G04 #@! TD*
D24*
G04 #@! TO.N,Net-(U1-Pad6)*
G36*
X282715001Y-143215506D02*
X12985000Y-143414495D01*
X12985000Y-139055431D01*
X14565000Y-139055431D01*
X14565000Y-139944569D01*
X14905259Y-140766026D01*
X15533974Y-141394741D01*
X16355431Y-141735000D01*
X17244569Y-141735000D01*
X18066026Y-141394741D01*
X18694741Y-140766026D01*
X19035000Y-139944569D01*
X19035000Y-139455431D01*
X276565000Y-139455431D01*
X276565000Y-140344569D01*
X276905259Y-141166026D01*
X277533974Y-141794741D01*
X278355431Y-142135000D01*
X279244569Y-142135000D01*
X280066026Y-141794741D01*
X280694741Y-141166026D01*
X281035000Y-140344569D01*
X281035000Y-139455431D01*
X280694741Y-138633974D01*
X280066026Y-138005259D01*
X279244569Y-137665000D01*
X278355431Y-137665000D01*
X277533974Y-138005259D01*
X276905259Y-138633974D01*
X276565000Y-139455431D01*
X19035000Y-139455431D01*
X19035000Y-139055431D01*
X18694741Y-138233974D01*
X18066026Y-137605259D01*
X17244569Y-137265000D01*
X16355431Y-137265000D01*
X15533974Y-137605259D01*
X14905259Y-138233974D01*
X14565000Y-139055431D01*
X12985000Y-139055431D01*
X12985000Y-136055431D01*
X38605000Y-136055431D01*
X38605000Y-136944569D01*
X38945259Y-137766026D01*
X39573974Y-138394741D01*
X40395431Y-138735000D01*
X41284569Y-138735000D01*
X42106026Y-138394741D01*
X42734741Y-137766026D01*
X43004472Y-137114839D01*
X43315570Y-137580430D01*
X43811275Y-137911650D01*
X44248402Y-137998600D01*
X44543598Y-137998600D01*
X44980725Y-137911650D01*
X45476430Y-137580430D01*
X45666000Y-137296719D01*
X45855570Y-137580430D01*
X46351275Y-137911650D01*
X46788402Y-137998600D01*
X47083598Y-137998600D01*
X47520725Y-137911650D01*
X48016430Y-137580430D01*
X48206000Y-137296719D01*
X48395570Y-137580430D01*
X48891275Y-137911650D01*
X49328402Y-137998600D01*
X49623598Y-137998600D01*
X50060725Y-137911650D01*
X50556430Y-137580430D01*
X50746000Y-137296719D01*
X50935570Y-137580430D01*
X51431275Y-137911650D01*
X51868402Y-137998600D01*
X52163598Y-137998600D01*
X52600725Y-137911650D01*
X53096430Y-137580430D01*
X53286000Y-137296719D01*
X53475570Y-137580430D01*
X53971275Y-137911650D01*
X54408402Y-137998600D01*
X54703598Y-137998600D01*
X55140725Y-137911650D01*
X55636430Y-137580430D01*
X55826000Y-137296719D01*
X56015570Y-137580430D01*
X56511275Y-137911650D01*
X56948402Y-137998600D01*
X57243598Y-137998600D01*
X57680725Y-137911650D01*
X58176430Y-137580430D01*
X58366000Y-137296719D01*
X58555570Y-137580430D01*
X59051275Y-137911650D01*
X59488402Y-137998600D01*
X59783598Y-137998600D01*
X60220725Y-137911650D01*
X60716430Y-137580430D01*
X60906000Y-137296719D01*
X61095570Y-137580430D01*
X61591275Y-137911650D01*
X62028402Y-137998600D01*
X62323598Y-137998600D01*
X62760725Y-137911650D01*
X63256430Y-137580430D01*
X63446000Y-137296719D01*
X63635570Y-137580430D01*
X64131275Y-137911650D01*
X64568402Y-137998600D01*
X64863598Y-137998600D01*
X65300725Y-137911650D01*
X65796430Y-137580430D01*
X65986000Y-137296719D01*
X66175570Y-137580430D01*
X66671275Y-137911650D01*
X67108402Y-137998600D01*
X67403598Y-137998600D01*
X67840725Y-137911650D01*
X68336430Y-137580430D01*
X68667650Y-137084725D01*
X68783959Y-136500000D01*
X69792041Y-136500000D01*
X69908350Y-137084725D01*
X70239570Y-137580430D01*
X70735275Y-137911650D01*
X71172402Y-137998600D01*
X71467598Y-137998600D01*
X71904725Y-137911650D01*
X72400430Y-137580430D01*
X72590000Y-137296719D01*
X72779570Y-137580430D01*
X73275275Y-137911650D01*
X73712402Y-137998600D01*
X74007598Y-137998600D01*
X74444725Y-137911650D01*
X74940430Y-137580430D01*
X75130000Y-137296719D01*
X75319570Y-137580430D01*
X75815275Y-137911650D01*
X76252402Y-137998600D01*
X76547598Y-137998600D01*
X76984725Y-137911650D01*
X77480430Y-137580430D01*
X77670000Y-137296719D01*
X77859570Y-137580430D01*
X78355275Y-137911650D01*
X78792402Y-137998600D01*
X79087598Y-137998600D01*
X79524725Y-137911650D01*
X80020430Y-137580430D01*
X80210000Y-137296719D01*
X80399570Y-137580430D01*
X80895275Y-137911650D01*
X81332402Y-137998600D01*
X81627598Y-137998600D01*
X82064725Y-137911650D01*
X82560430Y-137580430D01*
X82750000Y-137296719D01*
X82939570Y-137580430D01*
X83435275Y-137911650D01*
X83872402Y-137998600D01*
X84167598Y-137998600D01*
X84604725Y-137911650D01*
X85100430Y-137580430D01*
X85290000Y-137296719D01*
X85479570Y-137580430D01*
X85975275Y-137911650D01*
X86412402Y-137998600D01*
X86707598Y-137998600D01*
X87144725Y-137911650D01*
X87640430Y-137580430D01*
X87830000Y-137296719D01*
X88019570Y-137580430D01*
X88515275Y-137911650D01*
X88952402Y-137998600D01*
X89247598Y-137998600D01*
X89684725Y-137911650D01*
X90180430Y-137580430D01*
X90511650Y-137084725D01*
X90627959Y-136500000D01*
X90623051Y-136475322D01*
X102665000Y-136475322D01*
X102665000Y-137324678D01*
X102990034Y-138109380D01*
X103590620Y-138709966D01*
X104375322Y-139035000D01*
X105224678Y-139035000D01*
X106009380Y-138709966D01*
X106609966Y-138109380D01*
X106935000Y-137324678D01*
X106935000Y-136475322D01*
X158665000Y-136475322D01*
X158665000Y-137324678D01*
X158990034Y-138109380D01*
X159590620Y-138709966D01*
X160375322Y-139035000D01*
X161224678Y-139035000D01*
X162009380Y-138709966D01*
X162609966Y-138109380D01*
X162935000Y-137324678D01*
X162935000Y-136475322D01*
X162609966Y-135690620D01*
X162009380Y-135090034D01*
X161224678Y-134765000D01*
X160375322Y-134765000D01*
X159590620Y-135090034D01*
X158990034Y-135690620D01*
X158665000Y-136475322D01*
X106935000Y-136475322D01*
X106609966Y-135690620D01*
X106009380Y-135090034D01*
X105224678Y-134765000D01*
X104375322Y-134765000D01*
X103590620Y-135090034D01*
X102990034Y-135690620D01*
X102665000Y-136475322D01*
X90623051Y-136475322D01*
X90511650Y-135915275D01*
X90180430Y-135419570D01*
X89684725Y-135088350D01*
X89247598Y-135001400D01*
X88952402Y-135001400D01*
X88515275Y-135088350D01*
X88019570Y-135419570D01*
X87830000Y-135703281D01*
X87640430Y-135419570D01*
X87144725Y-135088350D01*
X86707598Y-135001400D01*
X86412402Y-135001400D01*
X85975275Y-135088350D01*
X85479570Y-135419570D01*
X85290000Y-135703281D01*
X85100430Y-135419570D01*
X84604725Y-135088350D01*
X84167598Y-135001400D01*
X83872402Y-135001400D01*
X83435275Y-135088350D01*
X82939570Y-135419570D01*
X82750000Y-135703281D01*
X82560430Y-135419570D01*
X82064725Y-135088350D01*
X81627598Y-135001400D01*
X81332402Y-135001400D01*
X80895275Y-135088350D01*
X80399570Y-135419570D01*
X80210000Y-135703281D01*
X80020430Y-135419570D01*
X79524725Y-135088350D01*
X79087598Y-135001400D01*
X78792402Y-135001400D01*
X78355275Y-135088350D01*
X77859570Y-135419570D01*
X77670000Y-135703281D01*
X77480430Y-135419570D01*
X76984725Y-135088350D01*
X76547598Y-135001400D01*
X76252402Y-135001400D01*
X75815275Y-135088350D01*
X75319570Y-135419570D01*
X75130000Y-135703281D01*
X74940430Y-135419570D01*
X74444725Y-135088350D01*
X74007598Y-135001400D01*
X73712402Y-135001400D01*
X73275275Y-135088350D01*
X72779570Y-135419570D01*
X72590000Y-135703281D01*
X72400430Y-135419570D01*
X71904725Y-135088350D01*
X71467598Y-135001400D01*
X71172402Y-135001400D01*
X70735275Y-135088350D01*
X70239570Y-135419570D01*
X69908350Y-135915275D01*
X69792041Y-136500000D01*
X68783959Y-136500000D01*
X68667650Y-135915275D01*
X68336430Y-135419570D01*
X67840725Y-135088350D01*
X67403598Y-135001400D01*
X67108402Y-135001400D01*
X66671275Y-135088350D01*
X66175570Y-135419570D01*
X65986000Y-135703281D01*
X65796430Y-135419570D01*
X65300725Y-135088350D01*
X64863598Y-135001400D01*
X64568402Y-135001400D01*
X64131275Y-135088350D01*
X63635570Y-135419570D01*
X63446000Y-135703281D01*
X63256430Y-135419570D01*
X62760725Y-135088350D01*
X62323598Y-135001400D01*
X62028402Y-135001400D01*
X61591275Y-135088350D01*
X61095570Y-135419570D01*
X60906000Y-135703281D01*
X60716430Y-135419570D01*
X60220725Y-135088350D01*
X59783598Y-135001400D01*
X59488402Y-135001400D01*
X59051275Y-135088350D01*
X58555570Y-135419570D01*
X58366000Y-135703281D01*
X58176430Y-135419570D01*
X57680725Y-135088350D01*
X57243598Y-135001400D01*
X56948402Y-135001400D01*
X56511275Y-135088350D01*
X56015570Y-135419570D01*
X55826000Y-135703281D01*
X55636430Y-135419570D01*
X55140725Y-135088350D01*
X54703598Y-135001400D01*
X54408402Y-135001400D01*
X53971275Y-135088350D01*
X53475570Y-135419570D01*
X53286000Y-135703281D01*
X53096430Y-135419570D01*
X52600725Y-135088350D01*
X52163598Y-135001400D01*
X51868402Y-135001400D01*
X51431275Y-135088350D01*
X50935570Y-135419570D01*
X50746000Y-135703281D01*
X50556430Y-135419570D01*
X50060725Y-135088350D01*
X49623598Y-135001400D01*
X49328402Y-135001400D01*
X48891275Y-135088350D01*
X48395570Y-135419570D01*
X48206000Y-135703281D01*
X48016430Y-135419570D01*
X47520725Y-135088350D01*
X47083598Y-135001400D01*
X46788402Y-135001400D01*
X46351275Y-135088350D01*
X45855570Y-135419570D01*
X45666000Y-135703281D01*
X45476430Y-135419570D01*
X44980725Y-135088350D01*
X44543598Y-135001400D01*
X44248402Y-135001400D01*
X43811275Y-135088350D01*
X43315570Y-135419570D01*
X43004472Y-135885161D01*
X42734741Y-135233974D01*
X42106026Y-134605259D01*
X41284569Y-134265000D01*
X40395431Y-134265000D01*
X39573974Y-134605259D01*
X38945259Y-135233974D01*
X38605000Y-136055431D01*
X12985000Y-136055431D01*
X12985000Y-120815431D01*
X89405000Y-120815431D01*
X89405000Y-121704569D01*
X89745259Y-122526026D01*
X90373974Y-123154741D01*
X91195431Y-123495000D01*
X92084569Y-123495000D01*
X92132075Y-123475322D01*
X170065000Y-123475322D01*
X170065000Y-124324678D01*
X170390034Y-125109380D01*
X170990620Y-125709966D01*
X171775322Y-126035000D01*
X172624678Y-126035000D01*
X173409380Y-125709966D01*
X174009966Y-125109380D01*
X174335000Y-124324678D01*
X174335000Y-123475322D01*
X276065000Y-123475322D01*
X276065000Y-124324678D01*
X276390034Y-125109380D01*
X276990620Y-125709966D01*
X277775322Y-126035000D01*
X278624678Y-126035000D01*
X279409380Y-125709966D01*
X280009966Y-125109380D01*
X280335000Y-124324678D01*
X280335000Y-123475322D01*
X280009966Y-122690620D01*
X279409380Y-122090034D01*
X278624678Y-121765000D01*
X277775322Y-121765000D01*
X276990620Y-122090034D01*
X276390034Y-122690620D01*
X276065000Y-123475322D01*
X174335000Y-123475322D01*
X174009966Y-122690620D01*
X173409380Y-122090034D01*
X172624678Y-121765000D01*
X171775322Y-121765000D01*
X170990620Y-122090034D01*
X170390034Y-122690620D01*
X170065000Y-123475322D01*
X92132075Y-123475322D01*
X92906026Y-123154741D01*
X93534741Y-122526026D01*
X93595138Y-122380213D01*
X108999392Y-122380213D01*
X109068857Y-122622397D01*
X109592302Y-122809144D01*
X110147368Y-122781362D01*
X110531143Y-122622397D01*
X110600608Y-122380213D01*
X109800000Y-121579605D01*
X108999392Y-122380213D01*
X93595138Y-122380213D01*
X93875000Y-121704569D01*
X93875000Y-121192302D01*
X108390856Y-121192302D01*
X108418638Y-121747368D01*
X108577603Y-122131143D01*
X108819787Y-122200608D01*
X109620395Y-121400000D01*
X109979605Y-121400000D01*
X110505894Y-121926289D01*
X110615680Y-122191337D01*
X111008663Y-122584320D01*
X111522119Y-122797000D01*
X112077881Y-122797000D01*
X112591337Y-122584320D01*
X112800000Y-122375657D01*
X113008663Y-122584320D01*
X113522119Y-122797000D01*
X114077881Y-122797000D01*
X114591337Y-122584320D01*
X114984320Y-122191337D01*
X115197000Y-121677881D01*
X115197000Y-121122119D01*
X114984320Y-120608663D01*
X114591337Y-120215680D01*
X114077881Y-120003000D01*
X113522119Y-120003000D01*
X113008663Y-120215680D01*
X112800000Y-120424343D01*
X112591337Y-120215680D01*
X112077881Y-120003000D01*
X111522119Y-120003000D01*
X111008663Y-120215680D01*
X110615680Y-120608663D01*
X110505894Y-120873711D01*
X109979605Y-121400000D01*
X109620395Y-121400000D01*
X108819787Y-120599392D01*
X108577603Y-120668857D01*
X108390856Y-121192302D01*
X93875000Y-121192302D01*
X93875000Y-120815431D01*
X93711119Y-120419787D01*
X108999392Y-120419787D01*
X109800000Y-121220395D01*
X110600608Y-120419787D01*
X110531143Y-120177603D01*
X110007698Y-119990856D01*
X109452632Y-120018638D01*
X109068857Y-120177603D01*
X108999392Y-120419787D01*
X93711119Y-120419787D01*
X93534741Y-119993974D01*
X92906026Y-119365259D01*
X92084569Y-119025000D01*
X91195431Y-119025000D01*
X90373974Y-119365259D01*
X89745259Y-119993974D01*
X89405000Y-120815431D01*
X12985000Y-120815431D01*
X12985000Y-111100000D01*
X87699041Y-111100000D01*
X87815350Y-111684725D01*
X88146570Y-112180430D01*
X88430281Y-112370000D01*
X88146570Y-112559570D01*
X87815350Y-113055275D01*
X87699041Y-113640000D01*
X87815350Y-114224725D01*
X88146570Y-114720430D01*
X88430281Y-114910000D01*
X88146570Y-115099570D01*
X87815350Y-115595275D01*
X87699041Y-116180000D01*
X87815350Y-116764725D01*
X88146570Y-117260430D01*
X88642275Y-117591650D01*
X89079402Y-117678600D01*
X89374598Y-117678600D01*
X89811725Y-117591650D01*
X90307430Y-117260430D01*
X90497000Y-116976719D01*
X90686570Y-117260430D01*
X91182275Y-117591650D01*
X91619402Y-117678600D01*
X91914598Y-117678600D01*
X92351725Y-117591650D01*
X92847430Y-117260430D01*
X93178650Y-116764725D01*
X93294959Y-116180000D01*
X93178650Y-115595275D01*
X92847430Y-115099570D01*
X92563719Y-114910000D01*
X92847430Y-114720430D01*
X93178650Y-114224725D01*
X93294959Y-113640000D01*
X93178650Y-113055275D01*
X92847430Y-112559570D01*
X92563719Y-112370000D01*
X92847430Y-112180430D01*
X93178650Y-111684725D01*
X93294959Y-111100000D01*
X93178650Y-110515275D01*
X92847430Y-110019570D01*
X92351725Y-109688350D01*
X91914598Y-109601400D01*
X91619402Y-109601400D01*
X91182275Y-109688350D01*
X90686570Y-110019570D01*
X90497000Y-110303281D01*
X90307430Y-110019570D01*
X89811725Y-109688350D01*
X89374598Y-109601400D01*
X89079402Y-109601400D01*
X88642275Y-109688350D01*
X88146570Y-110019570D01*
X87815350Y-110515275D01*
X87699041Y-111100000D01*
X12985000Y-111100000D01*
X12985000Y-105475322D01*
X102665000Y-105475322D01*
X102665000Y-106324678D01*
X102990034Y-107109380D01*
X103590620Y-107709966D01*
X104375322Y-108035000D01*
X105224678Y-108035000D01*
X106009380Y-107709966D01*
X106609966Y-107109380D01*
X106935000Y-106324678D01*
X106935000Y-105475322D01*
X158665000Y-105475322D01*
X158665000Y-106324678D01*
X158990034Y-107109380D01*
X159590620Y-107709966D01*
X160375322Y-108035000D01*
X161224678Y-108035000D01*
X162009380Y-107709966D01*
X162609966Y-107109380D01*
X162935000Y-106324678D01*
X162935000Y-105475322D01*
X162609966Y-104690620D01*
X162009380Y-104090034D01*
X161224678Y-103765000D01*
X160375322Y-103765000D01*
X159590620Y-104090034D01*
X158990034Y-104690620D01*
X158665000Y-105475322D01*
X106935000Y-105475322D01*
X106609966Y-104690620D01*
X106009380Y-104090034D01*
X105224678Y-103765000D01*
X104375322Y-103765000D01*
X103590620Y-104090034D01*
X102990034Y-104690620D01*
X102665000Y-105475322D01*
X12985000Y-105475322D01*
X12985000Y-97734452D01*
X138365000Y-97734452D01*
X138365000Y-98265548D01*
X138568242Y-98756217D01*
X138943783Y-99131758D01*
X139434452Y-99335000D01*
X139965548Y-99335000D01*
X140456217Y-99131758D01*
X140831758Y-98756217D01*
X141035000Y-98265548D01*
X141035000Y-98000000D01*
X145958846Y-98000000D01*
X146062458Y-98520891D01*
X146357519Y-98962481D01*
X146799109Y-99257542D01*
X147188515Y-99335000D01*
X147451485Y-99335000D01*
X147840891Y-99257542D01*
X148282481Y-98962481D01*
X148577542Y-98520891D01*
X148681154Y-98000000D01*
X148577542Y-97479109D01*
X148282481Y-97037519D01*
X147840891Y-96742458D01*
X147451485Y-96665000D01*
X147188515Y-96665000D01*
X146799109Y-96742458D01*
X146357519Y-97037519D01*
X146062458Y-97479109D01*
X145958846Y-98000000D01*
X141035000Y-98000000D01*
X141035000Y-97734452D01*
X140831758Y-97243783D01*
X140456217Y-96868242D01*
X139965548Y-96665000D01*
X139434452Y-96665000D01*
X138943783Y-96868242D01*
X138568242Y-97243783D01*
X138365000Y-97734452D01*
X12985000Y-97734452D01*
X12985000Y-92875431D01*
X89405000Y-92875431D01*
X89405000Y-93764569D01*
X89745259Y-94586026D01*
X90373974Y-95214741D01*
X91195431Y-95555000D01*
X92084569Y-95555000D01*
X92906026Y-95214741D01*
X93534741Y-94586026D01*
X93875000Y-93764569D01*
X93875000Y-92875431D01*
X93534741Y-92053974D01*
X93130767Y-91650000D01*
X111902560Y-91650000D01*
X111902560Y-93750000D01*
X111951843Y-93997765D01*
X112092191Y-94207809D01*
X112302235Y-94348157D01*
X112550000Y-94397440D01*
X114650000Y-94397440D01*
X114897765Y-94348157D01*
X115107809Y-94207809D01*
X115170715Y-94113665D01*
X115185524Y-94128474D01*
X115804833Y-94385000D01*
X116475167Y-94385000D01*
X117094476Y-94128474D01*
X117568474Y-93654476D01*
X117825000Y-93035167D01*
X117825000Y-92364833D01*
X117568474Y-91745524D01*
X117094476Y-91271526D01*
X116475167Y-91015000D01*
X115804833Y-91015000D01*
X115185524Y-91271526D01*
X115170715Y-91286335D01*
X115107809Y-91192191D01*
X114897765Y-91051843D01*
X114650000Y-91002560D01*
X112550000Y-91002560D01*
X112302235Y-91051843D01*
X112092191Y-91192191D01*
X111951843Y-91402235D01*
X111902560Y-91650000D01*
X93130767Y-91650000D01*
X92906026Y-91425259D01*
X92084569Y-91085000D01*
X91195431Y-91085000D01*
X90373974Y-91425259D01*
X89745259Y-92053974D01*
X89405000Y-92875431D01*
X12985000Y-92875431D01*
X12985000Y-87795431D01*
X37335000Y-87795431D01*
X37335000Y-88684569D01*
X37675259Y-89506026D01*
X38303974Y-90134741D01*
X39125431Y-90475000D01*
X40014569Y-90475000D01*
X40836026Y-90134741D01*
X41464741Y-89506026D01*
X41805000Y-88684569D01*
X41805000Y-88240000D01*
X52012041Y-88240000D01*
X52128350Y-88824725D01*
X52459570Y-89320430D01*
X52955275Y-89651650D01*
X53392402Y-89738600D01*
X53687598Y-89738600D01*
X54124725Y-89651650D01*
X54620430Y-89320430D01*
X54810000Y-89036719D01*
X54999570Y-89320430D01*
X55495275Y-89651650D01*
X55932402Y-89738600D01*
X56227598Y-89738600D01*
X56664725Y-89651650D01*
X57160430Y-89320430D01*
X57350000Y-89036719D01*
X57539570Y-89320430D01*
X58035275Y-89651650D01*
X58472402Y-89738600D01*
X58767598Y-89738600D01*
X59204725Y-89651650D01*
X59700430Y-89320430D01*
X59890000Y-89036719D01*
X60079570Y-89320430D01*
X60575275Y-89651650D01*
X61012402Y-89738600D01*
X61307598Y-89738600D01*
X61744725Y-89651650D01*
X62240430Y-89320430D01*
X62430000Y-89036719D01*
X62619570Y-89320430D01*
X63115275Y-89651650D01*
X63552402Y-89738600D01*
X63847598Y-89738600D01*
X64284725Y-89651650D01*
X64780430Y-89320430D01*
X64973037Y-89032174D01*
X65351510Y-89446821D01*
X65880973Y-89694968D01*
X66113000Y-89574469D01*
X66113000Y-88367000D01*
X66093000Y-88367000D01*
X66093000Y-88113000D01*
X66113000Y-88113000D01*
X66113000Y-86905531D01*
X66367000Y-86905531D01*
X66367000Y-88113000D01*
X66387000Y-88113000D01*
X66387000Y-88367000D01*
X66367000Y-88367000D01*
X66367000Y-89574469D01*
X66599027Y-89694968D01*
X67128490Y-89446821D01*
X67506963Y-89032174D01*
X67699570Y-89320430D01*
X68195275Y-89651650D01*
X68632402Y-89738600D01*
X68927598Y-89738600D01*
X69364725Y-89651650D01*
X69860430Y-89320430D01*
X70050000Y-89036719D01*
X70239570Y-89320430D01*
X70735275Y-89651650D01*
X71172402Y-89738600D01*
X71467598Y-89738600D01*
X71904725Y-89651650D01*
X72400430Y-89320430D01*
X72731650Y-88824725D01*
X72847959Y-88240000D01*
X74872041Y-88240000D01*
X74988350Y-88824725D01*
X75319570Y-89320430D01*
X75815275Y-89651650D01*
X76252402Y-89738600D01*
X76547598Y-89738600D01*
X76984725Y-89651650D01*
X77480430Y-89320430D01*
X77670000Y-89036719D01*
X77859570Y-89320430D01*
X78355275Y-89651650D01*
X78792402Y-89738600D01*
X79087598Y-89738600D01*
X79524725Y-89651650D01*
X80020430Y-89320430D01*
X80210000Y-89036719D01*
X80399570Y-89320430D01*
X80895275Y-89651650D01*
X81332402Y-89738600D01*
X81627598Y-89738600D01*
X82064725Y-89651650D01*
X82560430Y-89320430D01*
X82750000Y-89036719D01*
X82939570Y-89320430D01*
X83435275Y-89651650D01*
X83872402Y-89738600D01*
X84167598Y-89738600D01*
X84604725Y-89651650D01*
X85100430Y-89320430D01*
X85290000Y-89036719D01*
X85479570Y-89320430D01*
X85975275Y-89651650D01*
X86412402Y-89738600D01*
X86707598Y-89738600D01*
X87144725Y-89651650D01*
X87640430Y-89320430D01*
X87830000Y-89036719D01*
X88019570Y-89320430D01*
X88515275Y-89651650D01*
X88952402Y-89738600D01*
X89247598Y-89738600D01*
X89684725Y-89651650D01*
X90180430Y-89320430D01*
X90511650Y-88824725D01*
X90627959Y-88240000D01*
X90511650Y-87655275D01*
X90297283Y-87334452D01*
X138365000Y-87334452D01*
X138365000Y-87865548D01*
X138568242Y-88356217D01*
X138943783Y-88731758D01*
X139434452Y-88935000D01*
X139965548Y-88935000D01*
X140456217Y-88731758D01*
X140831758Y-88356217D01*
X141035000Y-87865548D01*
X141035000Y-87600000D01*
X145958846Y-87600000D01*
X146062458Y-88120891D01*
X146357519Y-88562481D01*
X146799109Y-88857542D01*
X147188515Y-88935000D01*
X147451485Y-88935000D01*
X147840891Y-88857542D01*
X148282481Y-88562481D01*
X148577542Y-88120891D01*
X148681154Y-87600000D01*
X148577542Y-87079109D01*
X148282481Y-86637519D01*
X147840891Y-86342458D01*
X147451485Y-86265000D01*
X147188515Y-86265000D01*
X146799109Y-86342458D01*
X146357519Y-86637519D01*
X146062458Y-87079109D01*
X145958846Y-87600000D01*
X141035000Y-87600000D01*
X141035000Y-87334452D01*
X140831758Y-86843783D01*
X140456217Y-86468242D01*
X139965548Y-86265000D01*
X139434452Y-86265000D01*
X138943783Y-86468242D01*
X138568242Y-86843783D01*
X138365000Y-87334452D01*
X90297283Y-87334452D01*
X90180430Y-87159570D01*
X89684725Y-86828350D01*
X89247598Y-86741400D01*
X88952402Y-86741400D01*
X88515275Y-86828350D01*
X88019570Y-87159570D01*
X87830000Y-87443281D01*
X87640430Y-87159570D01*
X87144725Y-86828350D01*
X86707598Y-86741400D01*
X86412402Y-86741400D01*
X85975275Y-86828350D01*
X85479570Y-87159570D01*
X85290000Y-87443281D01*
X85100430Y-87159570D01*
X84604725Y-86828350D01*
X84167598Y-86741400D01*
X83872402Y-86741400D01*
X83435275Y-86828350D01*
X82939570Y-87159570D01*
X82750000Y-87443281D01*
X82560430Y-87159570D01*
X82064725Y-86828350D01*
X81627598Y-86741400D01*
X81332402Y-86741400D01*
X80895275Y-86828350D01*
X80399570Y-87159570D01*
X80210000Y-87443281D01*
X80020430Y-87159570D01*
X79524725Y-86828350D01*
X79087598Y-86741400D01*
X78792402Y-86741400D01*
X78355275Y-86828350D01*
X77859570Y-87159570D01*
X77670000Y-87443281D01*
X77480430Y-87159570D01*
X76984725Y-86828350D01*
X76547598Y-86741400D01*
X76252402Y-86741400D01*
X75815275Y-86828350D01*
X75319570Y-87159570D01*
X74988350Y-87655275D01*
X74872041Y-88240000D01*
X72847959Y-88240000D01*
X72731650Y-87655275D01*
X72400430Y-87159570D01*
X71904725Y-86828350D01*
X71467598Y-86741400D01*
X71172402Y-86741400D01*
X70735275Y-86828350D01*
X70239570Y-87159570D01*
X70050000Y-87443281D01*
X69860430Y-87159570D01*
X69364725Y-86828350D01*
X68927598Y-86741400D01*
X68632402Y-86741400D01*
X68195275Y-86828350D01*
X67699570Y-87159570D01*
X67506963Y-87447826D01*
X67128490Y-87033179D01*
X66599027Y-86785032D01*
X66367000Y-86905531D01*
X66113000Y-86905531D01*
X65880973Y-86785032D01*
X65351510Y-87033179D01*
X64973037Y-87447826D01*
X64780430Y-87159570D01*
X64284725Y-86828350D01*
X63847598Y-86741400D01*
X63552402Y-86741400D01*
X63115275Y-86828350D01*
X62619570Y-87159570D01*
X62430000Y-87443281D01*
X62240430Y-87159570D01*
X61744725Y-86828350D01*
X61307598Y-86741400D01*
X61012402Y-86741400D01*
X60575275Y-86828350D01*
X60079570Y-87159570D01*
X59890000Y-87443281D01*
X59700430Y-87159570D01*
X59204725Y-86828350D01*
X58767598Y-86741400D01*
X58472402Y-86741400D01*
X58035275Y-86828350D01*
X57539570Y-87159570D01*
X57350000Y-87443281D01*
X57160430Y-87159570D01*
X56664725Y-86828350D01*
X56227598Y-86741400D01*
X55932402Y-86741400D01*
X55495275Y-86828350D01*
X54999570Y-87159570D01*
X54810000Y-87443281D01*
X54620430Y-87159570D01*
X54124725Y-86828350D01*
X53687598Y-86741400D01*
X53392402Y-86741400D01*
X52955275Y-86828350D01*
X52459570Y-87159570D01*
X52128350Y-87655275D01*
X52012041Y-88240000D01*
X41805000Y-88240000D01*
X41805000Y-87795431D01*
X41464741Y-86973974D01*
X40836026Y-86345259D01*
X40014569Y-86005000D01*
X39125431Y-86005000D01*
X38303974Y-86345259D01*
X37675259Y-86973974D01*
X37335000Y-87795431D01*
X12985000Y-87795431D01*
X12985000Y-76842234D01*
X37415000Y-76842234D01*
X37415000Y-77293766D01*
X37587793Y-77710926D01*
X37907074Y-78030207D01*
X38324234Y-78203000D01*
X38775766Y-78203000D01*
X39192926Y-78030207D01*
X39512207Y-77710926D01*
X39685000Y-77293766D01*
X39685000Y-76842234D01*
X39955000Y-76842234D01*
X39955000Y-77293766D01*
X40127793Y-77710926D01*
X40447074Y-78030207D01*
X40864234Y-78203000D01*
X41315766Y-78203000D01*
X41732926Y-78030207D01*
X42052207Y-77710926D01*
X42225000Y-77293766D01*
X42225000Y-76842234D01*
X42495000Y-76842234D01*
X42495000Y-77293766D01*
X42667793Y-77710926D01*
X42987074Y-78030207D01*
X43404234Y-78203000D01*
X43855766Y-78203000D01*
X44272926Y-78030207D01*
X44592207Y-77710926D01*
X44765000Y-77293766D01*
X44765000Y-76842234D01*
X45035000Y-76842234D01*
X45035000Y-77293766D01*
X45207793Y-77710926D01*
X45527074Y-78030207D01*
X45944234Y-78203000D01*
X46395766Y-78203000D01*
X46812926Y-78030207D01*
X47132207Y-77710926D01*
X47305000Y-77293766D01*
X47305000Y-76842234D01*
X47575000Y-76842234D01*
X47575000Y-77293766D01*
X47747793Y-77710926D01*
X48067074Y-78030207D01*
X48484234Y-78203000D01*
X48935766Y-78203000D01*
X49352926Y-78030207D01*
X49525029Y-77858104D01*
X50639501Y-77858104D01*
X50676648Y-78073217D01*
X51104972Y-78216112D01*
X51555375Y-78184217D01*
X51823352Y-78073217D01*
X51860499Y-77858104D01*
X51250000Y-77247605D01*
X50639501Y-77858104D01*
X49525029Y-77858104D01*
X49672207Y-77710926D01*
X49845000Y-77293766D01*
X49845000Y-76922972D01*
X50101888Y-76922972D01*
X50133783Y-77373375D01*
X50244783Y-77641352D01*
X50459896Y-77678499D01*
X51070395Y-77068000D01*
X51429605Y-77068000D01*
X52040104Y-77678499D01*
X52255217Y-77641352D01*
X52398112Y-77213028D01*
X52366217Y-76762625D01*
X52289310Y-76576954D01*
X72390000Y-76576954D01*
X72390000Y-78023046D01*
X72943396Y-79359062D01*
X73965938Y-80381604D01*
X75301954Y-80935000D01*
X76748046Y-80935000D01*
X78084062Y-80381604D01*
X79106604Y-79359062D01*
X79660000Y-78023046D01*
X79660000Y-76576954D01*
X99190000Y-76576954D01*
X99190000Y-78023046D01*
X99743396Y-79359062D01*
X100765938Y-80381604D01*
X102101954Y-80935000D01*
X103548046Y-80935000D01*
X104884062Y-80381604D01*
X105906604Y-79359062D01*
X106460000Y-78023046D01*
X106460000Y-76576954D01*
X106377158Y-76376954D01*
X130390000Y-76376954D01*
X130390000Y-77823046D01*
X130943396Y-79159062D01*
X131965938Y-80181604D01*
X133301954Y-80735000D01*
X134748046Y-80735000D01*
X136084062Y-80181604D01*
X137106604Y-79159062D01*
X137660000Y-77823046D01*
X137660000Y-76376954D01*
X157190000Y-76376954D01*
X157190000Y-77823046D01*
X157743396Y-79159062D01*
X158765938Y-80181604D01*
X160101954Y-80735000D01*
X161548046Y-80735000D01*
X162884062Y-80181604D01*
X163906604Y-79159062D01*
X164460000Y-77823046D01*
X164460000Y-76376954D01*
X163906604Y-75040938D01*
X162884062Y-74018396D01*
X161548046Y-73465000D01*
X160101954Y-73465000D01*
X158765938Y-74018396D01*
X157743396Y-75040938D01*
X157190000Y-76376954D01*
X137660000Y-76376954D01*
X137106604Y-75040938D01*
X136084062Y-74018396D01*
X134748046Y-73465000D01*
X133301954Y-73465000D01*
X131965938Y-74018396D01*
X130943396Y-75040938D01*
X130390000Y-76376954D01*
X106377158Y-76376954D01*
X105906604Y-75240938D01*
X104884062Y-74218396D01*
X103548046Y-73665000D01*
X102101954Y-73665000D01*
X100765938Y-74218396D01*
X99743396Y-75240938D01*
X99190000Y-76576954D01*
X79660000Y-76576954D01*
X79106604Y-75240938D01*
X78084062Y-74218396D01*
X76748046Y-73665000D01*
X75301954Y-73665000D01*
X73965938Y-74218396D01*
X72943396Y-75240938D01*
X72390000Y-76576954D01*
X52289310Y-76576954D01*
X52255217Y-76494648D01*
X52040104Y-76457501D01*
X51429605Y-77068000D01*
X51070395Y-77068000D01*
X50459896Y-76457501D01*
X50244783Y-76494648D01*
X50101888Y-76922972D01*
X49845000Y-76922972D01*
X49845000Y-76842234D01*
X49672207Y-76425074D01*
X49525029Y-76277896D01*
X50639501Y-76277896D01*
X51250000Y-76888395D01*
X51860499Y-76277896D01*
X51823352Y-76062783D01*
X51395028Y-75919888D01*
X50944625Y-75951783D01*
X50676648Y-76062783D01*
X50639501Y-76277896D01*
X49525029Y-76277896D01*
X49352926Y-76105793D01*
X48935766Y-75933000D01*
X48484234Y-75933000D01*
X48067074Y-76105793D01*
X47747793Y-76425074D01*
X47575000Y-76842234D01*
X47305000Y-76842234D01*
X47132207Y-76425074D01*
X46812926Y-76105793D01*
X46395766Y-75933000D01*
X45944234Y-75933000D01*
X45527074Y-76105793D01*
X45207793Y-76425074D01*
X45035000Y-76842234D01*
X44765000Y-76842234D01*
X44592207Y-76425074D01*
X44272926Y-76105793D01*
X43855766Y-75933000D01*
X43404234Y-75933000D01*
X42987074Y-76105793D01*
X42667793Y-76425074D01*
X42495000Y-76842234D01*
X42225000Y-76842234D01*
X42052207Y-76425074D01*
X41732926Y-76105793D01*
X41315766Y-75933000D01*
X40864234Y-75933000D01*
X40447074Y-76105793D01*
X40127793Y-76425074D01*
X39955000Y-76842234D01*
X39685000Y-76842234D01*
X39512207Y-76425074D01*
X39192926Y-76105793D01*
X38775766Y-75933000D01*
X38324234Y-75933000D01*
X37907074Y-76105793D01*
X37587793Y-76425074D01*
X37415000Y-76842234D01*
X12985000Y-76842234D01*
X12985000Y-73933908D01*
X46565000Y-73933908D01*
X46565000Y-74266092D01*
X46692121Y-74572990D01*
X46927010Y-74807879D01*
X47233908Y-74935000D01*
X47566092Y-74935000D01*
X47872990Y-74807879D01*
X48107879Y-74572990D01*
X48235000Y-74266092D01*
X48235000Y-73933908D01*
X48107879Y-73627010D01*
X47872990Y-73392121D01*
X47566092Y-73265000D01*
X47233908Y-73265000D01*
X46927010Y-73392121D01*
X46692121Y-73627010D01*
X46565000Y-73933908D01*
X12985000Y-73933908D01*
X12985000Y-68650000D01*
X19502560Y-68650000D01*
X19502560Y-70750000D01*
X19551843Y-70997765D01*
X19692191Y-71207809D01*
X19902235Y-71348157D01*
X20150000Y-71397440D01*
X22250000Y-71397440D01*
X22497765Y-71348157D01*
X22707809Y-71207809D01*
X22848157Y-70997765D01*
X22897440Y-70750000D01*
X22897440Y-70455000D01*
X37167560Y-70455000D01*
X37167560Y-70955000D01*
X37216843Y-71202765D01*
X37357191Y-71412809D01*
X37457749Y-71480000D01*
X37357191Y-71547191D01*
X37216843Y-71757235D01*
X37167560Y-72005000D01*
X37167560Y-72505000D01*
X37216843Y-72752765D01*
X37357191Y-72962809D01*
X37567235Y-73103157D01*
X37815000Y-73152440D01*
X39065000Y-73152440D01*
X39312765Y-73103157D01*
X39522809Y-72962809D01*
X39663157Y-72752765D01*
X39712440Y-72505000D01*
X39712440Y-72005000D01*
X39663157Y-71757235D01*
X39522809Y-71547191D01*
X39422251Y-71480000D01*
X39522809Y-71412809D01*
X39575529Y-71333908D01*
X51765000Y-71333908D01*
X51765000Y-71666092D01*
X51892121Y-71972990D01*
X52127010Y-72207879D01*
X52433908Y-72335000D01*
X52766092Y-72335000D01*
X53072990Y-72207879D01*
X53307879Y-71972990D01*
X53435000Y-71666092D01*
X53435000Y-71333908D01*
X53307879Y-71027010D01*
X53072990Y-70792121D01*
X52766092Y-70665000D01*
X52433908Y-70665000D01*
X52127010Y-70792121D01*
X51892121Y-71027010D01*
X51765000Y-71333908D01*
X39575529Y-71333908D01*
X39663157Y-71202765D01*
X39712440Y-70955000D01*
X39712440Y-70455000D01*
X39663157Y-70207235D01*
X39522809Y-69997191D01*
X39312765Y-69856843D01*
X39065000Y-69807560D01*
X37815000Y-69807560D01*
X37567235Y-69856843D01*
X37357191Y-69997191D01*
X37216843Y-70207235D01*
X37167560Y-70455000D01*
X22897440Y-70455000D01*
X22897440Y-68650000D01*
X22848157Y-68402235D01*
X22707809Y-68192191D01*
X22613665Y-68129285D01*
X22628474Y-68114476D01*
X22885000Y-67495167D01*
X22885000Y-67041050D01*
X36555000Y-67041050D01*
X36555000Y-67790950D01*
X36841974Y-68483767D01*
X37372233Y-69014026D01*
X38065050Y-69301000D01*
X38814950Y-69301000D01*
X39507767Y-69014026D01*
X40038026Y-68483767D01*
X40325000Y-67790950D01*
X40325000Y-67041050D01*
X49475000Y-67041050D01*
X49475000Y-67790950D01*
X49761974Y-68483767D01*
X50292233Y-69014026D01*
X50985050Y-69301000D01*
X51734950Y-69301000D01*
X52427767Y-69014026D01*
X52958026Y-68483767D01*
X53245000Y-67790950D01*
X53245000Y-67041050D01*
X52958026Y-66348233D01*
X52427767Y-65817974D01*
X51734950Y-65531000D01*
X50985050Y-65531000D01*
X50292233Y-65817974D01*
X49761974Y-66348233D01*
X49475000Y-67041050D01*
X40325000Y-67041050D01*
X40038026Y-66348233D01*
X39507767Y-65817974D01*
X38814950Y-65531000D01*
X38065050Y-65531000D01*
X37372233Y-65817974D01*
X36841974Y-66348233D01*
X36555000Y-67041050D01*
X22885000Y-67041050D01*
X22885000Y-66824833D01*
X22628474Y-66205524D01*
X22154476Y-65731526D01*
X21535167Y-65475000D01*
X20864833Y-65475000D01*
X20245524Y-65731526D01*
X19771526Y-66205524D01*
X19515000Y-66824833D01*
X19515000Y-67495167D01*
X19771526Y-68114476D01*
X19786335Y-68129285D01*
X19692191Y-68192191D01*
X19551843Y-68402235D01*
X19502560Y-68650000D01*
X12985000Y-68650000D01*
X12985000Y-49577039D01*
X23975000Y-49577039D01*
X23975000Y-50322961D01*
X24260452Y-51012102D01*
X24787898Y-51539548D01*
X25477039Y-51825000D01*
X26222961Y-51825000D01*
X26912102Y-51539548D01*
X27439548Y-51012102D01*
X27725000Y-50322961D01*
X27725000Y-49577039D01*
X27439548Y-48887898D01*
X26912102Y-48360452D01*
X26222961Y-48075000D01*
X25477039Y-48075000D01*
X24787898Y-48360452D01*
X24260452Y-48887898D01*
X23975000Y-49577039D01*
X12985000Y-49577039D01*
X12985000Y-45592408D01*
X30185000Y-45592408D01*
X30185000Y-46107592D01*
X30382152Y-46583559D01*
X30746441Y-46947848D01*
X31162053Y-47120000D01*
X30746441Y-47292152D01*
X30382152Y-47656441D01*
X30185000Y-48132408D01*
X30185000Y-48647592D01*
X30382152Y-49123559D01*
X30746441Y-49487848D01*
X31162053Y-49660000D01*
X30746441Y-49832152D01*
X30382152Y-50196441D01*
X30185000Y-50672408D01*
X30185000Y-51187592D01*
X30382152Y-51663559D01*
X30746441Y-52027848D01*
X31222408Y-52225000D01*
X31737592Y-52225000D01*
X32213559Y-52027848D01*
X32577848Y-51663559D01*
X32750000Y-51247947D01*
X32922152Y-51663559D01*
X33286441Y-52027848D01*
X33762408Y-52225000D01*
X34277592Y-52225000D01*
X34753559Y-52027848D01*
X35117848Y-51663559D01*
X35315000Y-51187592D01*
X35315000Y-50672408D01*
X35117848Y-50196441D01*
X34753559Y-49832152D01*
X34337947Y-49660000D01*
X34538232Y-49577039D01*
X53275000Y-49577039D01*
X53275000Y-50322961D01*
X53560452Y-51012102D01*
X54087898Y-51539548D01*
X54777039Y-51825000D01*
X55522961Y-51825000D01*
X56212102Y-51539548D01*
X56739548Y-51012102D01*
X57025000Y-50322961D01*
X57025000Y-49577039D01*
X56739548Y-48887898D01*
X56212102Y-48360452D01*
X55522961Y-48075000D01*
X54777039Y-48075000D01*
X54087898Y-48360452D01*
X53560452Y-48887898D01*
X53275000Y-49577039D01*
X34538232Y-49577039D01*
X34753559Y-49487848D01*
X35117848Y-49123559D01*
X35315000Y-48647592D01*
X35315000Y-48132408D01*
X35117848Y-47656441D01*
X34753559Y-47292152D01*
X34337947Y-47120000D01*
X34753559Y-46947848D01*
X35117848Y-46583559D01*
X35315000Y-46107592D01*
X35315000Y-45592408D01*
X35117848Y-45116441D01*
X34834087Y-44832680D01*
X52585000Y-44832680D01*
X52585000Y-45447320D01*
X52820213Y-46015172D01*
X53254828Y-46449787D01*
X53822680Y-46685000D01*
X54437320Y-46685000D01*
X55005172Y-46449787D01*
X55439787Y-46015172D01*
X55675000Y-45447320D01*
X55675000Y-44832680D01*
X55439787Y-44264828D01*
X55005172Y-43830213D01*
X54437320Y-43595000D01*
X53822680Y-43595000D01*
X53254828Y-43830213D01*
X52820213Y-44264828D01*
X52585000Y-44832680D01*
X34834087Y-44832680D01*
X34753559Y-44752152D01*
X34277592Y-44555000D01*
X33762408Y-44555000D01*
X33286441Y-44752152D01*
X32922152Y-45116441D01*
X32750000Y-45532053D01*
X32577848Y-45116441D01*
X32213559Y-44752152D01*
X31737592Y-44555000D01*
X31222408Y-44555000D01*
X30746441Y-44752152D01*
X30382152Y-45116441D01*
X30185000Y-45592408D01*
X12985000Y-45592408D01*
X12985000Y-41332680D01*
X52585000Y-41332680D01*
X52585000Y-41947320D01*
X52820213Y-42515172D01*
X53254828Y-42949787D01*
X53822680Y-43185000D01*
X54437320Y-43185000D01*
X55005172Y-42949787D01*
X55439787Y-42515172D01*
X55675000Y-41947320D01*
X55675000Y-41332680D01*
X55439787Y-40764828D01*
X55005172Y-40330213D01*
X54437320Y-40095000D01*
X53822680Y-40095000D01*
X53254828Y-40330213D01*
X52820213Y-40764828D01*
X52585000Y-41332680D01*
X12985000Y-41332680D01*
X12985000Y-37832680D01*
X52585000Y-37832680D01*
X52585000Y-38447320D01*
X52820213Y-39015172D01*
X53254828Y-39449787D01*
X53822680Y-39685000D01*
X54437320Y-39685000D01*
X55005172Y-39449787D01*
X55439787Y-39015172D01*
X55675000Y-38447320D01*
X55675000Y-37832680D01*
X55439787Y-37264828D01*
X55005172Y-36830213D01*
X54437320Y-36595000D01*
X53822680Y-36595000D01*
X53254828Y-36830213D01*
X52820213Y-37264828D01*
X52585000Y-37832680D01*
X12985000Y-37832680D01*
X12985000Y-34332680D01*
X52585000Y-34332680D01*
X52585000Y-34947320D01*
X52820213Y-35515172D01*
X53254828Y-35949787D01*
X53822680Y-36185000D01*
X54437320Y-36185000D01*
X55005172Y-35949787D01*
X55439787Y-35515172D01*
X55675000Y-34947320D01*
X55675000Y-34332680D01*
X55439787Y-33764828D01*
X55005172Y-33330213D01*
X54437320Y-33095000D01*
X53822680Y-33095000D01*
X53254828Y-33330213D01*
X52820213Y-33764828D01*
X52585000Y-34332680D01*
X12985000Y-34332680D01*
X12985000Y-20277039D01*
X53275000Y-20277039D01*
X53275000Y-21022961D01*
X53560452Y-21712102D01*
X54087898Y-22239548D01*
X54777039Y-22525000D01*
X55522961Y-22525000D01*
X56212102Y-22239548D01*
X56739548Y-21712102D01*
X57025000Y-21022961D01*
X57025000Y-20277039D01*
X56739548Y-19587898D01*
X56212102Y-19060452D01*
X55522961Y-18775000D01*
X54777039Y-18775000D01*
X54087898Y-19060452D01*
X53560452Y-19587898D01*
X53275000Y-20277039D01*
X12985000Y-20277039D01*
X12985000Y-16355431D01*
X14965000Y-16355431D01*
X14965000Y-17244569D01*
X15305259Y-18066026D01*
X15933974Y-18694741D01*
X16755431Y-19035000D01*
X17644569Y-19035000D01*
X18466026Y-18694741D01*
X19094741Y-18066026D01*
X19214478Y-17776954D01*
X72390000Y-17776954D01*
X72390000Y-19223046D01*
X72943396Y-20559062D01*
X73965938Y-21581604D01*
X75301954Y-22135000D01*
X76748046Y-22135000D01*
X78084062Y-21581604D01*
X79106604Y-20559062D01*
X79373475Y-19914778D01*
X80480000Y-19914778D01*
X80480000Y-20565222D01*
X80728914Y-21166153D01*
X81188847Y-21626086D01*
X81789778Y-21875000D01*
X82440222Y-21875000D01*
X83041153Y-21626086D01*
X83501086Y-21166153D01*
X83750000Y-20565222D01*
X83750000Y-19914778D01*
X85345000Y-19914778D01*
X85345000Y-20565222D01*
X85593914Y-21166153D01*
X86053847Y-21626086D01*
X86654778Y-21875000D01*
X87305222Y-21875000D01*
X87906153Y-21626086D01*
X88366086Y-21166153D01*
X88615000Y-20565222D01*
X88615000Y-19914778D01*
X90605000Y-19914778D01*
X90605000Y-20565222D01*
X90853914Y-21166153D01*
X91313847Y-21626086D01*
X91914778Y-21875000D01*
X92565222Y-21875000D01*
X93166153Y-21626086D01*
X93626086Y-21166153D01*
X93875000Y-20565222D01*
X93875000Y-19914778D01*
X95370000Y-19914778D01*
X95370000Y-20565222D01*
X95618914Y-21166153D01*
X96078847Y-21626086D01*
X96679778Y-21875000D01*
X97330222Y-21875000D01*
X97931153Y-21626086D01*
X98391086Y-21166153D01*
X98640000Y-20565222D01*
X98640000Y-19914778D01*
X98391086Y-19313847D01*
X97931153Y-18853914D01*
X97330222Y-18605000D01*
X96679778Y-18605000D01*
X96078847Y-18853914D01*
X95618914Y-19313847D01*
X95370000Y-19914778D01*
X93875000Y-19914778D01*
X93626086Y-19313847D01*
X93166153Y-18853914D01*
X92565222Y-18605000D01*
X91914778Y-18605000D01*
X91313847Y-18853914D01*
X90853914Y-19313847D01*
X90605000Y-19914778D01*
X88615000Y-19914778D01*
X88366086Y-19313847D01*
X87906153Y-18853914D01*
X87305222Y-18605000D01*
X86654778Y-18605000D01*
X86053847Y-18853914D01*
X85593914Y-19313847D01*
X85345000Y-19914778D01*
X83750000Y-19914778D01*
X83501086Y-19313847D01*
X83041153Y-18853914D01*
X82440222Y-18605000D01*
X81789778Y-18605000D01*
X81188847Y-18853914D01*
X80728914Y-19313847D01*
X80480000Y-19914778D01*
X79373475Y-19914778D01*
X79660000Y-19223046D01*
X79660000Y-17776954D01*
X99190000Y-17776954D01*
X99190000Y-19223046D01*
X99743396Y-20559062D01*
X100765938Y-21581604D01*
X102101954Y-22135000D01*
X103548046Y-22135000D01*
X104884062Y-21581604D01*
X105906604Y-20559062D01*
X106460000Y-19223046D01*
X106460000Y-17776954D01*
X106377158Y-17576954D01*
X130390000Y-17576954D01*
X130390000Y-19023046D01*
X130943396Y-20359062D01*
X131965938Y-21381604D01*
X133301954Y-21935000D01*
X134748046Y-21935000D01*
X136084062Y-21381604D01*
X137106604Y-20359062D01*
X137373475Y-19714778D01*
X138480000Y-19714778D01*
X138480000Y-20365222D01*
X138728914Y-20966153D01*
X139188847Y-21426086D01*
X139789778Y-21675000D01*
X140440222Y-21675000D01*
X141041153Y-21426086D01*
X141501086Y-20966153D01*
X141750000Y-20365222D01*
X141750000Y-19714778D01*
X143345000Y-19714778D01*
X143345000Y-20365222D01*
X143593914Y-20966153D01*
X144053847Y-21426086D01*
X144654778Y-21675000D01*
X145305222Y-21675000D01*
X145906153Y-21426086D01*
X146366086Y-20966153D01*
X146615000Y-20365222D01*
X146615000Y-19714778D01*
X148605000Y-19714778D01*
X148605000Y-20365222D01*
X148853914Y-20966153D01*
X149313847Y-21426086D01*
X149914778Y-21675000D01*
X150565222Y-21675000D01*
X151166153Y-21426086D01*
X151626086Y-20966153D01*
X151875000Y-20365222D01*
X151875000Y-19714778D01*
X153370000Y-19714778D01*
X153370000Y-20365222D01*
X153618914Y-20966153D01*
X154078847Y-21426086D01*
X154679778Y-21675000D01*
X155330222Y-21675000D01*
X155931153Y-21426086D01*
X156391086Y-20966153D01*
X156640000Y-20365222D01*
X156640000Y-19714778D01*
X156391086Y-19113847D01*
X155931153Y-18653914D01*
X155330222Y-18405000D01*
X154679778Y-18405000D01*
X154078847Y-18653914D01*
X153618914Y-19113847D01*
X153370000Y-19714778D01*
X151875000Y-19714778D01*
X151626086Y-19113847D01*
X151166153Y-18653914D01*
X150565222Y-18405000D01*
X149914778Y-18405000D01*
X149313847Y-18653914D01*
X148853914Y-19113847D01*
X148605000Y-19714778D01*
X146615000Y-19714778D01*
X146366086Y-19113847D01*
X145906153Y-18653914D01*
X145305222Y-18405000D01*
X144654778Y-18405000D01*
X144053847Y-18653914D01*
X143593914Y-19113847D01*
X143345000Y-19714778D01*
X141750000Y-19714778D01*
X141501086Y-19113847D01*
X141041153Y-18653914D01*
X140440222Y-18405000D01*
X139789778Y-18405000D01*
X139188847Y-18653914D01*
X138728914Y-19113847D01*
X138480000Y-19714778D01*
X137373475Y-19714778D01*
X137660000Y-19023046D01*
X137660000Y-17576954D01*
X157190000Y-17576954D01*
X157190000Y-19023046D01*
X157743396Y-20359062D01*
X158765938Y-21381604D01*
X160101954Y-21935000D01*
X161548046Y-21935000D01*
X162884062Y-21381604D01*
X163906604Y-20359062D01*
X164460000Y-19023046D01*
X164460000Y-17576954D01*
X164417903Y-17475322D01*
X170065000Y-17475322D01*
X170065000Y-18324678D01*
X170390034Y-19109380D01*
X170990620Y-19709966D01*
X171775322Y-20035000D01*
X172624678Y-20035000D01*
X173409380Y-19709966D01*
X174009966Y-19109380D01*
X174335000Y-18324678D01*
X174335000Y-17475322D01*
X276065000Y-17475322D01*
X276065000Y-18324678D01*
X276390034Y-19109380D01*
X276990620Y-19709966D01*
X277775322Y-20035000D01*
X278624678Y-20035000D01*
X279409380Y-19709966D01*
X280009966Y-19109380D01*
X280335000Y-18324678D01*
X280335000Y-17475322D01*
X280009966Y-16690620D01*
X279409380Y-16090034D01*
X278624678Y-15765000D01*
X277775322Y-15765000D01*
X276990620Y-16090034D01*
X276390034Y-16690620D01*
X276065000Y-17475322D01*
X174335000Y-17475322D01*
X174009966Y-16690620D01*
X173409380Y-16090034D01*
X172624678Y-15765000D01*
X171775322Y-15765000D01*
X170990620Y-16090034D01*
X170390034Y-16690620D01*
X170065000Y-17475322D01*
X164417903Y-17475322D01*
X163906604Y-16240938D01*
X162884062Y-15218396D01*
X161548046Y-14665000D01*
X160101954Y-14665000D01*
X158765938Y-15218396D01*
X157743396Y-16240938D01*
X157190000Y-17576954D01*
X137660000Y-17576954D01*
X137106604Y-16240938D01*
X136084062Y-15218396D01*
X134748046Y-14665000D01*
X133301954Y-14665000D01*
X131965938Y-15218396D01*
X130943396Y-16240938D01*
X130390000Y-17576954D01*
X106377158Y-17576954D01*
X105906604Y-16440938D01*
X104884062Y-15418396D01*
X103548046Y-14865000D01*
X102101954Y-14865000D01*
X100765938Y-15418396D01*
X99743396Y-16440938D01*
X99190000Y-17776954D01*
X79660000Y-17776954D01*
X79106604Y-16440938D01*
X78084062Y-15418396D01*
X76748046Y-14865000D01*
X75301954Y-14865000D01*
X73965938Y-15418396D01*
X72943396Y-16440938D01*
X72390000Y-17776954D01*
X19214478Y-17776954D01*
X19435000Y-17244569D01*
X19435000Y-16355431D01*
X19094741Y-15533974D01*
X18466026Y-14905259D01*
X17644569Y-14565000D01*
X16755431Y-14565000D01*
X15933974Y-14905259D01*
X15305259Y-15533974D01*
X14965000Y-16355431D01*
X12985000Y-16355431D01*
X12985000Y-12585000D01*
X282715000Y-12585000D01*
X282715001Y-143215506D01*
X282715001Y-143215506D01*
G37*
X282715001Y-143215506D02*
X12985000Y-143414495D01*
X12985000Y-139055431D01*
X14565000Y-139055431D01*
X14565000Y-139944569D01*
X14905259Y-140766026D01*
X15533974Y-141394741D01*
X16355431Y-141735000D01*
X17244569Y-141735000D01*
X18066026Y-141394741D01*
X18694741Y-140766026D01*
X19035000Y-139944569D01*
X19035000Y-139455431D01*
X276565000Y-139455431D01*
X276565000Y-140344569D01*
X276905259Y-141166026D01*
X277533974Y-141794741D01*
X278355431Y-142135000D01*
X279244569Y-142135000D01*
X280066026Y-141794741D01*
X280694741Y-141166026D01*
X281035000Y-140344569D01*
X281035000Y-139455431D01*
X280694741Y-138633974D01*
X280066026Y-138005259D01*
X279244569Y-137665000D01*
X278355431Y-137665000D01*
X277533974Y-138005259D01*
X276905259Y-138633974D01*
X276565000Y-139455431D01*
X19035000Y-139455431D01*
X19035000Y-139055431D01*
X18694741Y-138233974D01*
X18066026Y-137605259D01*
X17244569Y-137265000D01*
X16355431Y-137265000D01*
X15533974Y-137605259D01*
X14905259Y-138233974D01*
X14565000Y-139055431D01*
X12985000Y-139055431D01*
X12985000Y-136055431D01*
X38605000Y-136055431D01*
X38605000Y-136944569D01*
X38945259Y-137766026D01*
X39573974Y-138394741D01*
X40395431Y-138735000D01*
X41284569Y-138735000D01*
X42106026Y-138394741D01*
X42734741Y-137766026D01*
X43004472Y-137114839D01*
X43315570Y-137580430D01*
X43811275Y-137911650D01*
X44248402Y-137998600D01*
X44543598Y-137998600D01*
X44980725Y-137911650D01*
X45476430Y-137580430D01*
X45666000Y-137296719D01*
X45855570Y-137580430D01*
X46351275Y-137911650D01*
X46788402Y-137998600D01*
X47083598Y-137998600D01*
X47520725Y-137911650D01*
X48016430Y-137580430D01*
X48206000Y-137296719D01*
X48395570Y-137580430D01*
X48891275Y-137911650D01*
X49328402Y-137998600D01*
X49623598Y-137998600D01*
X50060725Y-137911650D01*
X50556430Y-137580430D01*
X50746000Y-137296719D01*
X50935570Y-137580430D01*
X51431275Y-137911650D01*
X51868402Y-137998600D01*
X52163598Y-137998600D01*
X52600725Y-137911650D01*
X53096430Y-137580430D01*
X53286000Y-137296719D01*
X53475570Y-137580430D01*
X53971275Y-137911650D01*
X54408402Y-137998600D01*
X54703598Y-137998600D01*
X55140725Y-137911650D01*
X55636430Y-137580430D01*
X55826000Y-137296719D01*
X56015570Y-137580430D01*
X56511275Y-137911650D01*
X56948402Y-137998600D01*
X57243598Y-137998600D01*
X57680725Y-137911650D01*
X58176430Y-137580430D01*
X58366000Y-137296719D01*
X58555570Y-137580430D01*
X59051275Y-137911650D01*
X59488402Y-137998600D01*
X59783598Y-137998600D01*
X60220725Y-137911650D01*
X60716430Y-137580430D01*
X60906000Y-137296719D01*
X61095570Y-137580430D01*
X61591275Y-137911650D01*
X62028402Y-137998600D01*
X62323598Y-137998600D01*
X62760725Y-137911650D01*
X63256430Y-137580430D01*
X63446000Y-137296719D01*
X63635570Y-137580430D01*
X64131275Y-137911650D01*
X64568402Y-137998600D01*
X64863598Y-137998600D01*
X65300725Y-137911650D01*
X65796430Y-137580430D01*
X65986000Y-137296719D01*
X66175570Y-137580430D01*
X66671275Y-137911650D01*
X67108402Y-137998600D01*
X67403598Y-137998600D01*
X67840725Y-137911650D01*
X68336430Y-137580430D01*
X68667650Y-137084725D01*
X68783959Y-136500000D01*
X69792041Y-136500000D01*
X69908350Y-137084725D01*
X70239570Y-137580430D01*
X70735275Y-137911650D01*
X71172402Y-137998600D01*
X71467598Y-137998600D01*
X71904725Y-137911650D01*
X72400430Y-137580430D01*
X72590000Y-137296719D01*
X72779570Y-137580430D01*
X73275275Y-137911650D01*
X73712402Y-137998600D01*
X74007598Y-137998600D01*
X74444725Y-137911650D01*
X74940430Y-137580430D01*
X75130000Y-137296719D01*
X75319570Y-137580430D01*
X75815275Y-137911650D01*
X76252402Y-137998600D01*
X76547598Y-137998600D01*
X76984725Y-137911650D01*
X77480430Y-137580430D01*
X77670000Y-137296719D01*
X77859570Y-137580430D01*
X78355275Y-137911650D01*
X78792402Y-137998600D01*
X79087598Y-137998600D01*
X79524725Y-137911650D01*
X80020430Y-137580430D01*
X80210000Y-137296719D01*
X80399570Y-137580430D01*
X80895275Y-137911650D01*
X81332402Y-137998600D01*
X81627598Y-137998600D01*
X82064725Y-137911650D01*
X82560430Y-137580430D01*
X82750000Y-137296719D01*
X82939570Y-137580430D01*
X83435275Y-137911650D01*
X83872402Y-137998600D01*
X84167598Y-137998600D01*
X84604725Y-137911650D01*
X85100430Y-137580430D01*
X85290000Y-137296719D01*
X85479570Y-137580430D01*
X85975275Y-137911650D01*
X86412402Y-137998600D01*
X86707598Y-137998600D01*
X87144725Y-137911650D01*
X87640430Y-137580430D01*
X87830000Y-137296719D01*
X88019570Y-137580430D01*
X88515275Y-137911650D01*
X88952402Y-137998600D01*
X89247598Y-137998600D01*
X89684725Y-137911650D01*
X90180430Y-137580430D01*
X90511650Y-137084725D01*
X90627959Y-136500000D01*
X90623051Y-136475322D01*
X102665000Y-136475322D01*
X102665000Y-137324678D01*
X102990034Y-138109380D01*
X103590620Y-138709966D01*
X104375322Y-139035000D01*
X105224678Y-139035000D01*
X106009380Y-138709966D01*
X106609966Y-138109380D01*
X106935000Y-137324678D01*
X106935000Y-136475322D01*
X158665000Y-136475322D01*
X158665000Y-137324678D01*
X158990034Y-138109380D01*
X159590620Y-138709966D01*
X160375322Y-139035000D01*
X161224678Y-139035000D01*
X162009380Y-138709966D01*
X162609966Y-138109380D01*
X162935000Y-137324678D01*
X162935000Y-136475322D01*
X162609966Y-135690620D01*
X162009380Y-135090034D01*
X161224678Y-134765000D01*
X160375322Y-134765000D01*
X159590620Y-135090034D01*
X158990034Y-135690620D01*
X158665000Y-136475322D01*
X106935000Y-136475322D01*
X106609966Y-135690620D01*
X106009380Y-135090034D01*
X105224678Y-134765000D01*
X104375322Y-134765000D01*
X103590620Y-135090034D01*
X102990034Y-135690620D01*
X102665000Y-136475322D01*
X90623051Y-136475322D01*
X90511650Y-135915275D01*
X90180430Y-135419570D01*
X89684725Y-135088350D01*
X89247598Y-135001400D01*
X88952402Y-135001400D01*
X88515275Y-135088350D01*
X88019570Y-135419570D01*
X87830000Y-135703281D01*
X87640430Y-135419570D01*
X87144725Y-135088350D01*
X86707598Y-135001400D01*
X86412402Y-135001400D01*
X85975275Y-135088350D01*
X85479570Y-135419570D01*
X85290000Y-135703281D01*
X85100430Y-135419570D01*
X84604725Y-135088350D01*
X84167598Y-135001400D01*
X83872402Y-135001400D01*
X83435275Y-135088350D01*
X82939570Y-135419570D01*
X82750000Y-135703281D01*
X82560430Y-135419570D01*
X82064725Y-135088350D01*
X81627598Y-135001400D01*
X81332402Y-135001400D01*
X80895275Y-135088350D01*
X80399570Y-135419570D01*
X80210000Y-135703281D01*
X80020430Y-135419570D01*
X79524725Y-135088350D01*
X79087598Y-135001400D01*
X78792402Y-135001400D01*
X78355275Y-135088350D01*
X77859570Y-135419570D01*
X77670000Y-135703281D01*
X77480430Y-135419570D01*
X76984725Y-135088350D01*
X76547598Y-135001400D01*
X76252402Y-135001400D01*
X75815275Y-135088350D01*
X75319570Y-135419570D01*
X75130000Y-135703281D01*
X74940430Y-135419570D01*
X74444725Y-135088350D01*
X74007598Y-135001400D01*
X73712402Y-135001400D01*
X73275275Y-135088350D01*
X72779570Y-135419570D01*
X72590000Y-135703281D01*
X72400430Y-135419570D01*
X71904725Y-135088350D01*
X71467598Y-135001400D01*
X71172402Y-135001400D01*
X70735275Y-135088350D01*
X70239570Y-135419570D01*
X69908350Y-135915275D01*
X69792041Y-136500000D01*
X68783959Y-136500000D01*
X68667650Y-135915275D01*
X68336430Y-135419570D01*
X67840725Y-135088350D01*
X67403598Y-135001400D01*
X67108402Y-135001400D01*
X66671275Y-135088350D01*
X66175570Y-135419570D01*
X65986000Y-135703281D01*
X65796430Y-135419570D01*
X65300725Y-135088350D01*
X64863598Y-135001400D01*
X64568402Y-135001400D01*
X64131275Y-135088350D01*
X63635570Y-135419570D01*
X63446000Y-135703281D01*
X63256430Y-135419570D01*
X62760725Y-135088350D01*
X62323598Y-135001400D01*
X62028402Y-135001400D01*
X61591275Y-135088350D01*
X61095570Y-135419570D01*
X60906000Y-135703281D01*
X60716430Y-135419570D01*
X60220725Y-135088350D01*
X59783598Y-135001400D01*
X59488402Y-135001400D01*
X59051275Y-135088350D01*
X58555570Y-135419570D01*
X58366000Y-135703281D01*
X58176430Y-135419570D01*
X57680725Y-135088350D01*
X57243598Y-135001400D01*
X56948402Y-135001400D01*
X56511275Y-135088350D01*
X56015570Y-135419570D01*
X55826000Y-135703281D01*
X55636430Y-135419570D01*
X55140725Y-135088350D01*
X54703598Y-135001400D01*
X54408402Y-135001400D01*
X53971275Y-135088350D01*
X53475570Y-135419570D01*
X53286000Y-135703281D01*
X53096430Y-135419570D01*
X52600725Y-135088350D01*
X52163598Y-135001400D01*
X51868402Y-135001400D01*
X51431275Y-135088350D01*
X50935570Y-135419570D01*
X50746000Y-135703281D01*
X50556430Y-135419570D01*
X50060725Y-135088350D01*
X49623598Y-135001400D01*
X49328402Y-135001400D01*
X48891275Y-135088350D01*
X48395570Y-135419570D01*
X48206000Y-135703281D01*
X48016430Y-135419570D01*
X47520725Y-135088350D01*
X47083598Y-135001400D01*
X46788402Y-135001400D01*
X46351275Y-135088350D01*
X45855570Y-135419570D01*
X45666000Y-135703281D01*
X45476430Y-135419570D01*
X44980725Y-135088350D01*
X44543598Y-135001400D01*
X44248402Y-135001400D01*
X43811275Y-135088350D01*
X43315570Y-135419570D01*
X43004472Y-135885161D01*
X42734741Y-135233974D01*
X42106026Y-134605259D01*
X41284569Y-134265000D01*
X40395431Y-134265000D01*
X39573974Y-134605259D01*
X38945259Y-135233974D01*
X38605000Y-136055431D01*
X12985000Y-136055431D01*
X12985000Y-120815431D01*
X89405000Y-120815431D01*
X89405000Y-121704569D01*
X89745259Y-122526026D01*
X90373974Y-123154741D01*
X91195431Y-123495000D01*
X92084569Y-123495000D01*
X92132075Y-123475322D01*
X170065000Y-123475322D01*
X170065000Y-124324678D01*
X170390034Y-125109380D01*
X170990620Y-125709966D01*
X171775322Y-126035000D01*
X172624678Y-126035000D01*
X173409380Y-125709966D01*
X174009966Y-125109380D01*
X174335000Y-124324678D01*
X174335000Y-123475322D01*
X276065000Y-123475322D01*
X276065000Y-124324678D01*
X276390034Y-125109380D01*
X276990620Y-125709966D01*
X277775322Y-126035000D01*
X278624678Y-126035000D01*
X279409380Y-125709966D01*
X280009966Y-125109380D01*
X280335000Y-124324678D01*
X280335000Y-123475322D01*
X280009966Y-122690620D01*
X279409380Y-122090034D01*
X278624678Y-121765000D01*
X277775322Y-121765000D01*
X276990620Y-122090034D01*
X276390034Y-122690620D01*
X276065000Y-123475322D01*
X174335000Y-123475322D01*
X174009966Y-122690620D01*
X173409380Y-122090034D01*
X172624678Y-121765000D01*
X171775322Y-121765000D01*
X170990620Y-122090034D01*
X170390034Y-122690620D01*
X170065000Y-123475322D01*
X92132075Y-123475322D01*
X92906026Y-123154741D01*
X93534741Y-122526026D01*
X93595138Y-122380213D01*
X108999392Y-122380213D01*
X109068857Y-122622397D01*
X109592302Y-122809144D01*
X110147368Y-122781362D01*
X110531143Y-122622397D01*
X110600608Y-122380213D01*
X109800000Y-121579605D01*
X108999392Y-122380213D01*
X93595138Y-122380213D01*
X93875000Y-121704569D01*
X93875000Y-121192302D01*
X108390856Y-121192302D01*
X108418638Y-121747368D01*
X108577603Y-122131143D01*
X108819787Y-122200608D01*
X109620395Y-121400000D01*
X109979605Y-121400000D01*
X110505894Y-121926289D01*
X110615680Y-122191337D01*
X111008663Y-122584320D01*
X111522119Y-122797000D01*
X112077881Y-122797000D01*
X112591337Y-122584320D01*
X112800000Y-122375657D01*
X113008663Y-122584320D01*
X113522119Y-122797000D01*
X114077881Y-122797000D01*
X114591337Y-122584320D01*
X114984320Y-122191337D01*
X115197000Y-121677881D01*
X115197000Y-121122119D01*
X114984320Y-120608663D01*
X114591337Y-120215680D01*
X114077881Y-120003000D01*
X113522119Y-120003000D01*
X113008663Y-120215680D01*
X112800000Y-120424343D01*
X112591337Y-120215680D01*
X112077881Y-120003000D01*
X111522119Y-120003000D01*
X111008663Y-120215680D01*
X110615680Y-120608663D01*
X110505894Y-120873711D01*
X109979605Y-121400000D01*
X109620395Y-121400000D01*
X108819787Y-120599392D01*
X108577603Y-120668857D01*
X108390856Y-121192302D01*
X93875000Y-121192302D01*
X93875000Y-120815431D01*
X93711119Y-120419787D01*
X108999392Y-120419787D01*
X109800000Y-121220395D01*
X110600608Y-120419787D01*
X110531143Y-120177603D01*
X110007698Y-119990856D01*
X109452632Y-120018638D01*
X109068857Y-120177603D01*
X108999392Y-120419787D01*
X93711119Y-120419787D01*
X93534741Y-119993974D01*
X92906026Y-119365259D01*
X92084569Y-119025000D01*
X91195431Y-119025000D01*
X90373974Y-119365259D01*
X89745259Y-119993974D01*
X89405000Y-120815431D01*
X12985000Y-120815431D01*
X12985000Y-111100000D01*
X87699041Y-111100000D01*
X87815350Y-111684725D01*
X88146570Y-112180430D01*
X88430281Y-112370000D01*
X88146570Y-112559570D01*
X87815350Y-113055275D01*
X87699041Y-113640000D01*
X87815350Y-114224725D01*
X88146570Y-114720430D01*
X88430281Y-114910000D01*
X88146570Y-115099570D01*
X87815350Y-115595275D01*
X87699041Y-116180000D01*
X87815350Y-116764725D01*
X88146570Y-117260430D01*
X88642275Y-117591650D01*
X89079402Y-117678600D01*
X89374598Y-117678600D01*
X89811725Y-117591650D01*
X90307430Y-117260430D01*
X90497000Y-116976719D01*
X90686570Y-117260430D01*
X91182275Y-117591650D01*
X91619402Y-117678600D01*
X91914598Y-117678600D01*
X92351725Y-117591650D01*
X92847430Y-117260430D01*
X93178650Y-116764725D01*
X93294959Y-116180000D01*
X93178650Y-115595275D01*
X92847430Y-115099570D01*
X92563719Y-114910000D01*
X92847430Y-114720430D01*
X93178650Y-114224725D01*
X93294959Y-113640000D01*
X93178650Y-113055275D01*
X92847430Y-112559570D01*
X92563719Y-112370000D01*
X92847430Y-112180430D01*
X93178650Y-111684725D01*
X93294959Y-111100000D01*
X93178650Y-110515275D01*
X92847430Y-110019570D01*
X92351725Y-109688350D01*
X91914598Y-109601400D01*
X91619402Y-109601400D01*
X91182275Y-109688350D01*
X90686570Y-110019570D01*
X90497000Y-110303281D01*
X90307430Y-110019570D01*
X89811725Y-109688350D01*
X89374598Y-109601400D01*
X89079402Y-109601400D01*
X88642275Y-109688350D01*
X88146570Y-110019570D01*
X87815350Y-110515275D01*
X87699041Y-111100000D01*
X12985000Y-111100000D01*
X12985000Y-105475322D01*
X102665000Y-105475322D01*
X102665000Y-106324678D01*
X102990034Y-107109380D01*
X103590620Y-107709966D01*
X104375322Y-108035000D01*
X105224678Y-108035000D01*
X106009380Y-107709966D01*
X106609966Y-107109380D01*
X106935000Y-106324678D01*
X106935000Y-105475322D01*
X158665000Y-105475322D01*
X158665000Y-106324678D01*
X158990034Y-107109380D01*
X159590620Y-107709966D01*
X160375322Y-108035000D01*
X161224678Y-108035000D01*
X162009380Y-107709966D01*
X162609966Y-107109380D01*
X162935000Y-106324678D01*
X162935000Y-105475322D01*
X162609966Y-104690620D01*
X162009380Y-104090034D01*
X161224678Y-103765000D01*
X160375322Y-103765000D01*
X159590620Y-104090034D01*
X158990034Y-104690620D01*
X158665000Y-105475322D01*
X106935000Y-105475322D01*
X106609966Y-104690620D01*
X106009380Y-104090034D01*
X105224678Y-103765000D01*
X104375322Y-103765000D01*
X103590620Y-104090034D01*
X102990034Y-104690620D01*
X102665000Y-105475322D01*
X12985000Y-105475322D01*
X12985000Y-97734452D01*
X138365000Y-97734452D01*
X138365000Y-98265548D01*
X138568242Y-98756217D01*
X138943783Y-99131758D01*
X139434452Y-99335000D01*
X139965548Y-99335000D01*
X140456217Y-99131758D01*
X140831758Y-98756217D01*
X141035000Y-98265548D01*
X141035000Y-98000000D01*
X145958846Y-98000000D01*
X146062458Y-98520891D01*
X146357519Y-98962481D01*
X146799109Y-99257542D01*
X147188515Y-99335000D01*
X147451485Y-99335000D01*
X147840891Y-99257542D01*
X148282481Y-98962481D01*
X148577542Y-98520891D01*
X148681154Y-98000000D01*
X148577542Y-97479109D01*
X148282481Y-97037519D01*
X147840891Y-96742458D01*
X147451485Y-96665000D01*
X147188515Y-96665000D01*
X146799109Y-96742458D01*
X146357519Y-97037519D01*
X146062458Y-97479109D01*
X145958846Y-98000000D01*
X141035000Y-98000000D01*
X141035000Y-97734452D01*
X140831758Y-97243783D01*
X140456217Y-96868242D01*
X139965548Y-96665000D01*
X139434452Y-96665000D01*
X138943783Y-96868242D01*
X138568242Y-97243783D01*
X138365000Y-97734452D01*
X12985000Y-97734452D01*
X12985000Y-92875431D01*
X89405000Y-92875431D01*
X89405000Y-93764569D01*
X89745259Y-94586026D01*
X90373974Y-95214741D01*
X91195431Y-95555000D01*
X92084569Y-95555000D01*
X92906026Y-95214741D01*
X93534741Y-94586026D01*
X93875000Y-93764569D01*
X93875000Y-92875431D01*
X93534741Y-92053974D01*
X93130767Y-91650000D01*
X111902560Y-91650000D01*
X111902560Y-93750000D01*
X111951843Y-93997765D01*
X112092191Y-94207809D01*
X112302235Y-94348157D01*
X112550000Y-94397440D01*
X114650000Y-94397440D01*
X114897765Y-94348157D01*
X115107809Y-94207809D01*
X115170715Y-94113665D01*
X115185524Y-94128474D01*
X115804833Y-94385000D01*
X116475167Y-94385000D01*
X117094476Y-94128474D01*
X117568474Y-93654476D01*
X117825000Y-93035167D01*
X117825000Y-92364833D01*
X117568474Y-91745524D01*
X117094476Y-91271526D01*
X116475167Y-91015000D01*
X115804833Y-91015000D01*
X115185524Y-91271526D01*
X115170715Y-91286335D01*
X115107809Y-91192191D01*
X114897765Y-91051843D01*
X114650000Y-91002560D01*
X112550000Y-91002560D01*
X112302235Y-91051843D01*
X112092191Y-91192191D01*
X111951843Y-91402235D01*
X111902560Y-91650000D01*
X93130767Y-91650000D01*
X92906026Y-91425259D01*
X92084569Y-91085000D01*
X91195431Y-91085000D01*
X90373974Y-91425259D01*
X89745259Y-92053974D01*
X89405000Y-92875431D01*
X12985000Y-92875431D01*
X12985000Y-87795431D01*
X37335000Y-87795431D01*
X37335000Y-88684569D01*
X37675259Y-89506026D01*
X38303974Y-90134741D01*
X39125431Y-90475000D01*
X40014569Y-90475000D01*
X40836026Y-90134741D01*
X41464741Y-89506026D01*
X41805000Y-88684569D01*
X41805000Y-88240000D01*
X52012041Y-88240000D01*
X52128350Y-88824725D01*
X52459570Y-89320430D01*
X52955275Y-89651650D01*
X53392402Y-89738600D01*
X53687598Y-89738600D01*
X54124725Y-89651650D01*
X54620430Y-89320430D01*
X54810000Y-89036719D01*
X54999570Y-89320430D01*
X55495275Y-89651650D01*
X55932402Y-89738600D01*
X56227598Y-89738600D01*
X56664725Y-89651650D01*
X57160430Y-89320430D01*
X57350000Y-89036719D01*
X57539570Y-89320430D01*
X58035275Y-89651650D01*
X58472402Y-89738600D01*
X58767598Y-89738600D01*
X59204725Y-89651650D01*
X59700430Y-89320430D01*
X59890000Y-89036719D01*
X60079570Y-89320430D01*
X60575275Y-89651650D01*
X61012402Y-89738600D01*
X61307598Y-89738600D01*
X61744725Y-89651650D01*
X62240430Y-89320430D01*
X62430000Y-89036719D01*
X62619570Y-89320430D01*
X63115275Y-89651650D01*
X63552402Y-89738600D01*
X63847598Y-89738600D01*
X64284725Y-89651650D01*
X64780430Y-89320430D01*
X64973037Y-89032174D01*
X65351510Y-89446821D01*
X65880973Y-89694968D01*
X66113000Y-89574469D01*
X66113000Y-88367000D01*
X66093000Y-88367000D01*
X66093000Y-88113000D01*
X66113000Y-88113000D01*
X66113000Y-86905531D01*
X66367000Y-86905531D01*
X66367000Y-88113000D01*
X66387000Y-88113000D01*
X66387000Y-88367000D01*
X66367000Y-88367000D01*
X66367000Y-89574469D01*
X66599027Y-89694968D01*
X67128490Y-89446821D01*
X67506963Y-89032174D01*
X67699570Y-89320430D01*
X68195275Y-89651650D01*
X68632402Y-89738600D01*
X68927598Y-89738600D01*
X69364725Y-89651650D01*
X69860430Y-89320430D01*
X70050000Y-89036719D01*
X70239570Y-89320430D01*
X70735275Y-89651650D01*
X71172402Y-89738600D01*
X71467598Y-89738600D01*
X71904725Y-89651650D01*
X72400430Y-89320430D01*
X72731650Y-88824725D01*
X72847959Y-88240000D01*
X74872041Y-88240000D01*
X74988350Y-88824725D01*
X75319570Y-89320430D01*
X75815275Y-89651650D01*
X76252402Y-89738600D01*
X76547598Y-89738600D01*
X76984725Y-89651650D01*
X77480430Y-89320430D01*
X77670000Y-89036719D01*
X77859570Y-89320430D01*
X78355275Y-89651650D01*
X78792402Y-89738600D01*
X79087598Y-89738600D01*
X79524725Y-89651650D01*
X80020430Y-89320430D01*
X80210000Y-89036719D01*
X80399570Y-89320430D01*
X80895275Y-89651650D01*
X81332402Y-89738600D01*
X81627598Y-89738600D01*
X82064725Y-89651650D01*
X82560430Y-89320430D01*
X82750000Y-89036719D01*
X82939570Y-89320430D01*
X83435275Y-89651650D01*
X83872402Y-89738600D01*
X84167598Y-89738600D01*
X84604725Y-89651650D01*
X85100430Y-89320430D01*
X85290000Y-89036719D01*
X85479570Y-89320430D01*
X85975275Y-89651650D01*
X86412402Y-89738600D01*
X86707598Y-89738600D01*
X87144725Y-89651650D01*
X87640430Y-89320430D01*
X87830000Y-89036719D01*
X88019570Y-89320430D01*
X88515275Y-89651650D01*
X88952402Y-89738600D01*
X89247598Y-89738600D01*
X89684725Y-89651650D01*
X90180430Y-89320430D01*
X90511650Y-88824725D01*
X90627959Y-88240000D01*
X90511650Y-87655275D01*
X90297283Y-87334452D01*
X138365000Y-87334452D01*
X138365000Y-87865548D01*
X138568242Y-88356217D01*
X138943783Y-88731758D01*
X139434452Y-88935000D01*
X139965548Y-88935000D01*
X140456217Y-88731758D01*
X140831758Y-88356217D01*
X141035000Y-87865548D01*
X141035000Y-87600000D01*
X145958846Y-87600000D01*
X146062458Y-88120891D01*
X146357519Y-88562481D01*
X146799109Y-88857542D01*
X147188515Y-88935000D01*
X147451485Y-88935000D01*
X147840891Y-88857542D01*
X148282481Y-88562481D01*
X148577542Y-88120891D01*
X148681154Y-87600000D01*
X148577542Y-87079109D01*
X148282481Y-86637519D01*
X147840891Y-86342458D01*
X147451485Y-86265000D01*
X147188515Y-86265000D01*
X146799109Y-86342458D01*
X146357519Y-86637519D01*
X146062458Y-87079109D01*
X145958846Y-87600000D01*
X141035000Y-87600000D01*
X141035000Y-87334452D01*
X140831758Y-86843783D01*
X140456217Y-86468242D01*
X139965548Y-86265000D01*
X139434452Y-86265000D01*
X138943783Y-86468242D01*
X138568242Y-86843783D01*
X138365000Y-87334452D01*
X90297283Y-87334452D01*
X90180430Y-87159570D01*
X89684725Y-86828350D01*
X89247598Y-86741400D01*
X88952402Y-86741400D01*
X88515275Y-86828350D01*
X88019570Y-87159570D01*
X87830000Y-87443281D01*
X87640430Y-87159570D01*
X87144725Y-86828350D01*
X86707598Y-86741400D01*
X86412402Y-86741400D01*
X85975275Y-86828350D01*
X85479570Y-87159570D01*
X85290000Y-87443281D01*
X85100430Y-87159570D01*
X84604725Y-86828350D01*
X84167598Y-86741400D01*
X83872402Y-86741400D01*
X83435275Y-86828350D01*
X82939570Y-87159570D01*
X82750000Y-87443281D01*
X82560430Y-87159570D01*
X82064725Y-86828350D01*
X81627598Y-86741400D01*
X81332402Y-86741400D01*
X80895275Y-86828350D01*
X80399570Y-87159570D01*
X80210000Y-87443281D01*
X80020430Y-87159570D01*
X79524725Y-86828350D01*
X79087598Y-86741400D01*
X78792402Y-86741400D01*
X78355275Y-86828350D01*
X77859570Y-87159570D01*
X77670000Y-87443281D01*
X77480430Y-87159570D01*
X76984725Y-86828350D01*
X76547598Y-86741400D01*
X76252402Y-86741400D01*
X75815275Y-86828350D01*
X75319570Y-87159570D01*
X74988350Y-87655275D01*
X74872041Y-88240000D01*
X72847959Y-88240000D01*
X72731650Y-87655275D01*
X72400430Y-87159570D01*
X71904725Y-86828350D01*
X71467598Y-86741400D01*
X71172402Y-86741400D01*
X70735275Y-86828350D01*
X70239570Y-87159570D01*
X70050000Y-87443281D01*
X69860430Y-87159570D01*
X69364725Y-86828350D01*
X68927598Y-86741400D01*
X68632402Y-86741400D01*
X68195275Y-86828350D01*
X67699570Y-87159570D01*
X67506963Y-87447826D01*
X67128490Y-87033179D01*
X66599027Y-86785032D01*
X66367000Y-86905531D01*
X66113000Y-86905531D01*
X65880973Y-86785032D01*
X65351510Y-87033179D01*
X64973037Y-87447826D01*
X64780430Y-87159570D01*
X64284725Y-86828350D01*
X63847598Y-86741400D01*
X63552402Y-86741400D01*
X63115275Y-86828350D01*
X62619570Y-87159570D01*
X62430000Y-87443281D01*
X62240430Y-87159570D01*
X61744725Y-86828350D01*
X61307598Y-86741400D01*
X61012402Y-86741400D01*
X60575275Y-86828350D01*
X60079570Y-87159570D01*
X59890000Y-87443281D01*
X59700430Y-87159570D01*
X59204725Y-86828350D01*
X58767598Y-86741400D01*
X58472402Y-86741400D01*
X58035275Y-86828350D01*
X57539570Y-87159570D01*
X57350000Y-87443281D01*
X57160430Y-87159570D01*
X56664725Y-86828350D01*
X56227598Y-86741400D01*
X55932402Y-86741400D01*
X55495275Y-86828350D01*
X54999570Y-87159570D01*
X54810000Y-87443281D01*
X54620430Y-87159570D01*
X54124725Y-86828350D01*
X53687598Y-86741400D01*
X53392402Y-86741400D01*
X52955275Y-86828350D01*
X52459570Y-87159570D01*
X52128350Y-87655275D01*
X52012041Y-88240000D01*
X41805000Y-88240000D01*
X41805000Y-87795431D01*
X41464741Y-86973974D01*
X40836026Y-86345259D01*
X40014569Y-86005000D01*
X39125431Y-86005000D01*
X38303974Y-86345259D01*
X37675259Y-86973974D01*
X37335000Y-87795431D01*
X12985000Y-87795431D01*
X12985000Y-76842234D01*
X37415000Y-76842234D01*
X37415000Y-77293766D01*
X37587793Y-77710926D01*
X37907074Y-78030207D01*
X38324234Y-78203000D01*
X38775766Y-78203000D01*
X39192926Y-78030207D01*
X39512207Y-77710926D01*
X39685000Y-77293766D01*
X39685000Y-76842234D01*
X39955000Y-76842234D01*
X39955000Y-77293766D01*
X40127793Y-77710926D01*
X40447074Y-78030207D01*
X40864234Y-78203000D01*
X41315766Y-78203000D01*
X41732926Y-78030207D01*
X42052207Y-77710926D01*
X42225000Y-77293766D01*
X42225000Y-76842234D01*
X42495000Y-76842234D01*
X42495000Y-77293766D01*
X42667793Y-77710926D01*
X42987074Y-78030207D01*
X43404234Y-78203000D01*
X43855766Y-78203000D01*
X44272926Y-78030207D01*
X44592207Y-77710926D01*
X44765000Y-77293766D01*
X44765000Y-76842234D01*
X45035000Y-76842234D01*
X45035000Y-77293766D01*
X45207793Y-77710926D01*
X45527074Y-78030207D01*
X45944234Y-78203000D01*
X46395766Y-78203000D01*
X46812926Y-78030207D01*
X47132207Y-77710926D01*
X47305000Y-77293766D01*
X47305000Y-76842234D01*
X47575000Y-76842234D01*
X47575000Y-77293766D01*
X47747793Y-77710926D01*
X48067074Y-78030207D01*
X48484234Y-78203000D01*
X48935766Y-78203000D01*
X49352926Y-78030207D01*
X49525029Y-77858104D01*
X50639501Y-77858104D01*
X50676648Y-78073217D01*
X51104972Y-78216112D01*
X51555375Y-78184217D01*
X51823352Y-78073217D01*
X51860499Y-77858104D01*
X51250000Y-77247605D01*
X50639501Y-77858104D01*
X49525029Y-77858104D01*
X49672207Y-77710926D01*
X49845000Y-77293766D01*
X49845000Y-76922972D01*
X50101888Y-76922972D01*
X50133783Y-77373375D01*
X50244783Y-77641352D01*
X50459896Y-77678499D01*
X51070395Y-77068000D01*
X51429605Y-77068000D01*
X52040104Y-77678499D01*
X52255217Y-77641352D01*
X52398112Y-77213028D01*
X52366217Y-76762625D01*
X52289310Y-76576954D01*
X72390000Y-76576954D01*
X72390000Y-78023046D01*
X72943396Y-79359062D01*
X73965938Y-80381604D01*
X75301954Y-80935000D01*
X76748046Y-80935000D01*
X78084062Y-80381604D01*
X79106604Y-79359062D01*
X79660000Y-78023046D01*
X79660000Y-76576954D01*
X99190000Y-76576954D01*
X99190000Y-78023046D01*
X99743396Y-79359062D01*
X100765938Y-80381604D01*
X102101954Y-80935000D01*
X103548046Y-80935000D01*
X104884062Y-80381604D01*
X105906604Y-79359062D01*
X106460000Y-78023046D01*
X106460000Y-76576954D01*
X106377158Y-76376954D01*
X130390000Y-76376954D01*
X130390000Y-77823046D01*
X130943396Y-79159062D01*
X131965938Y-80181604D01*
X133301954Y-80735000D01*
X134748046Y-80735000D01*
X136084062Y-80181604D01*
X137106604Y-79159062D01*
X137660000Y-77823046D01*
X137660000Y-76376954D01*
X157190000Y-76376954D01*
X157190000Y-77823046D01*
X157743396Y-79159062D01*
X158765938Y-80181604D01*
X160101954Y-80735000D01*
X161548046Y-80735000D01*
X162884062Y-80181604D01*
X163906604Y-79159062D01*
X164460000Y-77823046D01*
X164460000Y-76376954D01*
X163906604Y-75040938D01*
X162884062Y-74018396D01*
X161548046Y-73465000D01*
X160101954Y-73465000D01*
X158765938Y-74018396D01*
X157743396Y-75040938D01*
X157190000Y-76376954D01*
X137660000Y-76376954D01*
X137106604Y-75040938D01*
X136084062Y-74018396D01*
X134748046Y-73465000D01*
X133301954Y-73465000D01*
X131965938Y-74018396D01*
X130943396Y-75040938D01*
X130390000Y-76376954D01*
X106377158Y-76376954D01*
X105906604Y-75240938D01*
X104884062Y-74218396D01*
X103548046Y-73665000D01*
X102101954Y-73665000D01*
X100765938Y-74218396D01*
X99743396Y-75240938D01*
X99190000Y-76576954D01*
X79660000Y-76576954D01*
X79106604Y-75240938D01*
X78084062Y-74218396D01*
X76748046Y-73665000D01*
X75301954Y-73665000D01*
X73965938Y-74218396D01*
X72943396Y-75240938D01*
X72390000Y-76576954D01*
X52289310Y-76576954D01*
X52255217Y-76494648D01*
X52040104Y-76457501D01*
X51429605Y-77068000D01*
X51070395Y-77068000D01*
X50459896Y-76457501D01*
X50244783Y-76494648D01*
X50101888Y-76922972D01*
X49845000Y-76922972D01*
X49845000Y-76842234D01*
X49672207Y-76425074D01*
X49525029Y-76277896D01*
X50639501Y-76277896D01*
X51250000Y-76888395D01*
X51860499Y-76277896D01*
X51823352Y-76062783D01*
X51395028Y-75919888D01*
X50944625Y-75951783D01*
X50676648Y-76062783D01*
X50639501Y-76277896D01*
X49525029Y-76277896D01*
X49352926Y-76105793D01*
X48935766Y-75933000D01*
X48484234Y-75933000D01*
X48067074Y-76105793D01*
X47747793Y-76425074D01*
X47575000Y-76842234D01*
X47305000Y-76842234D01*
X47132207Y-76425074D01*
X46812926Y-76105793D01*
X46395766Y-75933000D01*
X45944234Y-75933000D01*
X45527074Y-76105793D01*
X45207793Y-76425074D01*
X45035000Y-76842234D01*
X44765000Y-76842234D01*
X44592207Y-76425074D01*
X44272926Y-76105793D01*
X43855766Y-75933000D01*
X43404234Y-75933000D01*
X42987074Y-76105793D01*
X42667793Y-76425074D01*
X42495000Y-76842234D01*
X42225000Y-76842234D01*
X42052207Y-76425074D01*
X41732926Y-76105793D01*
X41315766Y-75933000D01*
X40864234Y-75933000D01*
X40447074Y-76105793D01*
X40127793Y-76425074D01*
X39955000Y-76842234D01*
X39685000Y-76842234D01*
X39512207Y-76425074D01*
X39192926Y-76105793D01*
X38775766Y-75933000D01*
X38324234Y-75933000D01*
X37907074Y-76105793D01*
X37587793Y-76425074D01*
X37415000Y-76842234D01*
X12985000Y-76842234D01*
X12985000Y-73933908D01*
X46565000Y-73933908D01*
X46565000Y-74266092D01*
X46692121Y-74572990D01*
X46927010Y-74807879D01*
X47233908Y-74935000D01*
X47566092Y-74935000D01*
X47872990Y-74807879D01*
X48107879Y-74572990D01*
X48235000Y-74266092D01*
X48235000Y-73933908D01*
X48107879Y-73627010D01*
X47872990Y-73392121D01*
X47566092Y-73265000D01*
X47233908Y-73265000D01*
X46927010Y-73392121D01*
X46692121Y-73627010D01*
X46565000Y-73933908D01*
X12985000Y-73933908D01*
X12985000Y-68650000D01*
X19502560Y-68650000D01*
X19502560Y-70750000D01*
X19551843Y-70997765D01*
X19692191Y-71207809D01*
X19902235Y-71348157D01*
X20150000Y-71397440D01*
X22250000Y-71397440D01*
X22497765Y-71348157D01*
X22707809Y-71207809D01*
X22848157Y-70997765D01*
X22897440Y-70750000D01*
X22897440Y-70455000D01*
X37167560Y-70455000D01*
X37167560Y-70955000D01*
X37216843Y-71202765D01*
X37357191Y-71412809D01*
X37457749Y-71480000D01*
X37357191Y-71547191D01*
X37216843Y-71757235D01*
X37167560Y-72005000D01*
X37167560Y-72505000D01*
X37216843Y-72752765D01*
X37357191Y-72962809D01*
X37567235Y-73103157D01*
X37815000Y-73152440D01*
X39065000Y-73152440D01*
X39312765Y-73103157D01*
X39522809Y-72962809D01*
X39663157Y-72752765D01*
X39712440Y-72505000D01*
X39712440Y-72005000D01*
X39663157Y-71757235D01*
X39522809Y-71547191D01*
X39422251Y-71480000D01*
X39522809Y-71412809D01*
X39575529Y-71333908D01*
X51765000Y-71333908D01*
X51765000Y-71666092D01*
X51892121Y-71972990D01*
X52127010Y-72207879D01*
X52433908Y-72335000D01*
X52766092Y-72335000D01*
X53072990Y-72207879D01*
X53307879Y-71972990D01*
X53435000Y-71666092D01*
X53435000Y-71333908D01*
X53307879Y-71027010D01*
X53072990Y-70792121D01*
X52766092Y-70665000D01*
X52433908Y-70665000D01*
X52127010Y-70792121D01*
X51892121Y-71027010D01*
X51765000Y-71333908D01*
X39575529Y-71333908D01*
X39663157Y-71202765D01*
X39712440Y-70955000D01*
X39712440Y-70455000D01*
X39663157Y-70207235D01*
X39522809Y-69997191D01*
X39312765Y-69856843D01*
X39065000Y-69807560D01*
X37815000Y-69807560D01*
X37567235Y-69856843D01*
X37357191Y-69997191D01*
X37216843Y-70207235D01*
X37167560Y-70455000D01*
X22897440Y-70455000D01*
X22897440Y-68650000D01*
X22848157Y-68402235D01*
X22707809Y-68192191D01*
X22613665Y-68129285D01*
X22628474Y-68114476D01*
X22885000Y-67495167D01*
X22885000Y-67041050D01*
X36555000Y-67041050D01*
X36555000Y-67790950D01*
X36841974Y-68483767D01*
X37372233Y-69014026D01*
X38065050Y-69301000D01*
X38814950Y-69301000D01*
X39507767Y-69014026D01*
X40038026Y-68483767D01*
X40325000Y-67790950D01*
X40325000Y-67041050D01*
X49475000Y-67041050D01*
X49475000Y-67790950D01*
X49761974Y-68483767D01*
X50292233Y-69014026D01*
X50985050Y-69301000D01*
X51734950Y-69301000D01*
X52427767Y-69014026D01*
X52958026Y-68483767D01*
X53245000Y-67790950D01*
X53245000Y-67041050D01*
X52958026Y-66348233D01*
X52427767Y-65817974D01*
X51734950Y-65531000D01*
X50985050Y-65531000D01*
X50292233Y-65817974D01*
X49761974Y-66348233D01*
X49475000Y-67041050D01*
X40325000Y-67041050D01*
X40038026Y-66348233D01*
X39507767Y-65817974D01*
X38814950Y-65531000D01*
X38065050Y-65531000D01*
X37372233Y-65817974D01*
X36841974Y-66348233D01*
X36555000Y-67041050D01*
X22885000Y-67041050D01*
X22885000Y-66824833D01*
X22628474Y-66205524D01*
X22154476Y-65731526D01*
X21535167Y-65475000D01*
X20864833Y-65475000D01*
X20245524Y-65731526D01*
X19771526Y-66205524D01*
X19515000Y-66824833D01*
X19515000Y-67495167D01*
X19771526Y-68114476D01*
X19786335Y-68129285D01*
X19692191Y-68192191D01*
X19551843Y-68402235D01*
X19502560Y-68650000D01*
X12985000Y-68650000D01*
X12985000Y-49577039D01*
X23975000Y-49577039D01*
X23975000Y-50322961D01*
X24260452Y-51012102D01*
X24787898Y-51539548D01*
X25477039Y-51825000D01*
X26222961Y-51825000D01*
X26912102Y-51539548D01*
X27439548Y-51012102D01*
X27725000Y-50322961D01*
X27725000Y-49577039D01*
X27439548Y-48887898D01*
X26912102Y-48360452D01*
X26222961Y-48075000D01*
X25477039Y-48075000D01*
X24787898Y-48360452D01*
X24260452Y-48887898D01*
X23975000Y-49577039D01*
X12985000Y-49577039D01*
X12985000Y-45592408D01*
X30185000Y-45592408D01*
X30185000Y-46107592D01*
X30382152Y-46583559D01*
X30746441Y-46947848D01*
X31162053Y-47120000D01*
X30746441Y-47292152D01*
X30382152Y-47656441D01*
X30185000Y-48132408D01*
X30185000Y-48647592D01*
X30382152Y-49123559D01*
X30746441Y-49487848D01*
X31162053Y-49660000D01*
X30746441Y-49832152D01*
X30382152Y-50196441D01*
X30185000Y-50672408D01*
X30185000Y-51187592D01*
X30382152Y-51663559D01*
X30746441Y-52027848D01*
X31222408Y-52225000D01*
X31737592Y-52225000D01*
X32213559Y-52027848D01*
X32577848Y-51663559D01*
X32750000Y-51247947D01*
X32922152Y-51663559D01*
X33286441Y-52027848D01*
X33762408Y-52225000D01*
X34277592Y-52225000D01*
X34753559Y-52027848D01*
X35117848Y-51663559D01*
X35315000Y-51187592D01*
X35315000Y-50672408D01*
X35117848Y-50196441D01*
X34753559Y-49832152D01*
X34337947Y-49660000D01*
X34538232Y-49577039D01*
X53275000Y-49577039D01*
X53275000Y-50322961D01*
X53560452Y-51012102D01*
X54087898Y-51539548D01*
X54777039Y-51825000D01*
X55522961Y-51825000D01*
X56212102Y-51539548D01*
X56739548Y-51012102D01*
X57025000Y-50322961D01*
X57025000Y-49577039D01*
X56739548Y-48887898D01*
X56212102Y-48360452D01*
X55522961Y-48075000D01*
X54777039Y-48075000D01*
X54087898Y-48360452D01*
X53560452Y-48887898D01*
X53275000Y-49577039D01*
X34538232Y-49577039D01*
X34753559Y-49487848D01*
X35117848Y-49123559D01*
X35315000Y-48647592D01*
X35315000Y-48132408D01*
X35117848Y-47656441D01*
X34753559Y-47292152D01*
X34337947Y-47120000D01*
X34753559Y-46947848D01*
X35117848Y-46583559D01*
X35315000Y-46107592D01*
X35315000Y-45592408D01*
X35117848Y-45116441D01*
X34834087Y-44832680D01*
X52585000Y-44832680D01*
X52585000Y-45447320D01*
X52820213Y-46015172D01*
X53254828Y-46449787D01*
X53822680Y-46685000D01*
X54437320Y-46685000D01*
X55005172Y-46449787D01*
X55439787Y-46015172D01*
X55675000Y-45447320D01*
X55675000Y-44832680D01*
X55439787Y-44264828D01*
X55005172Y-43830213D01*
X54437320Y-43595000D01*
X53822680Y-43595000D01*
X53254828Y-43830213D01*
X52820213Y-44264828D01*
X52585000Y-44832680D01*
X34834087Y-44832680D01*
X34753559Y-44752152D01*
X34277592Y-44555000D01*
X33762408Y-44555000D01*
X33286441Y-44752152D01*
X32922152Y-45116441D01*
X32750000Y-45532053D01*
X32577848Y-45116441D01*
X32213559Y-44752152D01*
X31737592Y-44555000D01*
X31222408Y-44555000D01*
X30746441Y-44752152D01*
X30382152Y-45116441D01*
X30185000Y-45592408D01*
X12985000Y-45592408D01*
X12985000Y-41332680D01*
X52585000Y-41332680D01*
X52585000Y-41947320D01*
X52820213Y-42515172D01*
X53254828Y-42949787D01*
X53822680Y-43185000D01*
X54437320Y-43185000D01*
X55005172Y-42949787D01*
X55439787Y-42515172D01*
X55675000Y-41947320D01*
X55675000Y-41332680D01*
X55439787Y-40764828D01*
X55005172Y-40330213D01*
X54437320Y-40095000D01*
X53822680Y-40095000D01*
X53254828Y-40330213D01*
X52820213Y-40764828D01*
X52585000Y-41332680D01*
X12985000Y-41332680D01*
X12985000Y-37832680D01*
X52585000Y-37832680D01*
X52585000Y-38447320D01*
X52820213Y-39015172D01*
X53254828Y-39449787D01*
X53822680Y-39685000D01*
X54437320Y-39685000D01*
X55005172Y-39449787D01*
X55439787Y-39015172D01*
X55675000Y-38447320D01*
X55675000Y-37832680D01*
X55439787Y-37264828D01*
X55005172Y-36830213D01*
X54437320Y-36595000D01*
X53822680Y-36595000D01*
X53254828Y-36830213D01*
X52820213Y-37264828D01*
X52585000Y-37832680D01*
X12985000Y-37832680D01*
X12985000Y-34332680D01*
X52585000Y-34332680D01*
X52585000Y-34947320D01*
X52820213Y-35515172D01*
X53254828Y-35949787D01*
X53822680Y-36185000D01*
X54437320Y-36185000D01*
X55005172Y-35949787D01*
X55439787Y-35515172D01*
X55675000Y-34947320D01*
X55675000Y-34332680D01*
X55439787Y-33764828D01*
X55005172Y-33330213D01*
X54437320Y-33095000D01*
X53822680Y-33095000D01*
X53254828Y-33330213D01*
X52820213Y-33764828D01*
X52585000Y-34332680D01*
X12985000Y-34332680D01*
X12985000Y-20277039D01*
X53275000Y-20277039D01*
X53275000Y-21022961D01*
X53560452Y-21712102D01*
X54087898Y-22239548D01*
X54777039Y-22525000D01*
X55522961Y-22525000D01*
X56212102Y-22239548D01*
X56739548Y-21712102D01*
X57025000Y-21022961D01*
X57025000Y-20277039D01*
X56739548Y-19587898D01*
X56212102Y-19060452D01*
X55522961Y-18775000D01*
X54777039Y-18775000D01*
X54087898Y-19060452D01*
X53560452Y-19587898D01*
X53275000Y-20277039D01*
X12985000Y-20277039D01*
X12985000Y-16355431D01*
X14965000Y-16355431D01*
X14965000Y-17244569D01*
X15305259Y-18066026D01*
X15933974Y-18694741D01*
X16755431Y-19035000D01*
X17644569Y-19035000D01*
X18466026Y-18694741D01*
X19094741Y-18066026D01*
X19214478Y-17776954D01*
X72390000Y-17776954D01*
X72390000Y-19223046D01*
X72943396Y-20559062D01*
X73965938Y-21581604D01*
X75301954Y-22135000D01*
X76748046Y-22135000D01*
X78084062Y-21581604D01*
X79106604Y-20559062D01*
X79373475Y-19914778D01*
X80480000Y-19914778D01*
X80480000Y-20565222D01*
X80728914Y-21166153D01*
X81188847Y-21626086D01*
X81789778Y-21875000D01*
X82440222Y-21875000D01*
X83041153Y-21626086D01*
X83501086Y-21166153D01*
X83750000Y-20565222D01*
X83750000Y-19914778D01*
X85345000Y-19914778D01*
X85345000Y-20565222D01*
X85593914Y-21166153D01*
X86053847Y-21626086D01*
X86654778Y-21875000D01*
X87305222Y-21875000D01*
X87906153Y-21626086D01*
X88366086Y-21166153D01*
X88615000Y-20565222D01*
X88615000Y-19914778D01*
X90605000Y-19914778D01*
X90605000Y-20565222D01*
X90853914Y-21166153D01*
X91313847Y-21626086D01*
X91914778Y-21875000D01*
X92565222Y-21875000D01*
X93166153Y-21626086D01*
X93626086Y-21166153D01*
X93875000Y-20565222D01*
X93875000Y-19914778D01*
X95370000Y-19914778D01*
X95370000Y-20565222D01*
X95618914Y-21166153D01*
X96078847Y-21626086D01*
X96679778Y-21875000D01*
X97330222Y-21875000D01*
X97931153Y-21626086D01*
X98391086Y-21166153D01*
X98640000Y-20565222D01*
X98640000Y-19914778D01*
X98391086Y-19313847D01*
X97931153Y-18853914D01*
X97330222Y-18605000D01*
X96679778Y-18605000D01*
X96078847Y-18853914D01*
X95618914Y-19313847D01*
X95370000Y-19914778D01*
X93875000Y-19914778D01*
X93626086Y-19313847D01*
X93166153Y-18853914D01*
X92565222Y-18605000D01*
X91914778Y-18605000D01*
X91313847Y-18853914D01*
X90853914Y-19313847D01*
X90605000Y-19914778D01*
X88615000Y-19914778D01*
X88366086Y-19313847D01*
X87906153Y-18853914D01*
X87305222Y-18605000D01*
X86654778Y-18605000D01*
X86053847Y-18853914D01*
X85593914Y-19313847D01*
X85345000Y-19914778D01*
X83750000Y-19914778D01*
X83501086Y-19313847D01*
X83041153Y-18853914D01*
X82440222Y-18605000D01*
X81789778Y-18605000D01*
X81188847Y-18853914D01*
X80728914Y-19313847D01*
X80480000Y-19914778D01*
X79373475Y-19914778D01*
X79660000Y-19223046D01*
X79660000Y-17776954D01*
X99190000Y-17776954D01*
X99190000Y-19223046D01*
X99743396Y-20559062D01*
X100765938Y-21581604D01*
X102101954Y-22135000D01*
X103548046Y-22135000D01*
X104884062Y-21581604D01*
X105906604Y-20559062D01*
X106460000Y-19223046D01*
X106460000Y-17776954D01*
X106377158Y-17576954D01*
X130390000Y-17576954D01*
X130390000Y-19023046D01*
X130943396Y-20359062D01*
X131965938Y-21381604D01*
X133301954Y-21935000D01*
X134748046Y-21935000D01*
X136084062Y-21381604D01*
X137106604Y-20359062D01*
X137373475Y-19714778D01*
X138480000Y-19714778D01*
X138480000Y-20365222D01*
X138728914Y-20966153D01*
X139188847Y-21426086D01*
X139789778Y-21675000D01*
X140440222Y-21675000D01*
X141041153Y-21426086D01*
X141501086Y-20966153D01*
X141750000Y-20365222D01*
X141750000Y-19714778D01*
X143345000Y-19714778D01*
X143345000Y-20365222D01*
X143593914Y-20966153D01*
X144053847Y-21426086D01*
X144654778Y-21675000D01*
X145305222Y-21675000D01*
X145906153Y-21426086D01*
X146366086Y-20966153D01*
X146615000Y-20365222D01*
X146615000Y-19714778D01*
X148605000Y-19714778D01*
X148605000Y-20365222D01*
X148853914Y-20966153D01*
X149313847Y-21426086D01*
X149914778Y-21675000D01*
X150565222Y-21675000D01*
X151166153Y-21426086D01*
X151626086Y-20966153D01*
X151875000Y-20365222D01*
X151875000Y-19714778D01*
X153370000Y-19714778D01*
X153370000Y-20365222D01*
X153618914Y-20966153D01*
X154078847Y-21426086D01*
X154679778Y-21675000D01*
X155330222Y-21675000D01*
X155931153Y-21426086D01*
X156391086Y-20966153D01*
X156640000Y-20365222D01*
X156640000Y-19714778D01*
X156391086Y-19113847D01*
X155931153Y-18653914D01*
X155330222Y-18405000D01*
X154679778Y-18405000D01*
X154078847Y-18653914D01*
X153618914Y-19113847D01*
X153370000Y-19714778D01*
X151875000Y-19714778D01*
X151626086Y-19113847D01*
X151166153Y-18653914D01*
X150565222Y-18405000D01*
X149914778Y-18405000D01*
X149313847Y-18653914D01*
X148853914Y-19113847D01*
X148605000Y-19714778D01*
X146615000Y-19714778D01*
X146366086Y-19113847D01*
X145906153Y-18653914D01*
X145305222Y-18405000D01*
X144654778Y-18405000D01*
X144053847Y-18653914D01*
X143593914Y-19113847D01*
X143345000Y-19714778D01*
X141750000Y-19714778D01*
X141501086Y-19113847D01*
X141041153Y-18653914D01*
X140440222Y-18405000D01*
X139789778Y-18405000D01*
X139188847Y-18653914D01*
X138728914Y-19113847D01*
X138480000Y-19714778D01*
X137373475Y-19714778D01*
X137660000Y-19023046D01*
X137660000Y-17576954D01*
X157190000Y-17576954D01*
X157190000Y-19023046D01*
X157743396Y-20359062D01*
X158765938Y-21381604D01*
X160101954Y-21935000D01*
X161548046Y-21935000D01*
X162884062Y-21381604D01*
X163906604Y-20359062D01*
X164460000Y-19023046D01*
X164460000Y-17576954D01*
X164417903Y-17475322D01*
X170065000Y-17475322D01*
X170065000Y-18324678D01*
X170390034Y-19109380D01*
X170990620Y-19709966D01*
X171775322Y-20035000D01*
X172624678Y-20035000D01*
X173409380Y-19709966D01*
X174009966Y-19109380D01*
X174335000Y-18324678D01*
X174335000Y-17475322D01*
X276065000Y-17475322D01*
X276065000Y-18324678D01*
X276390034Y-19109380D01*
X276990620Y-19709966D01*
X277775322Y-20035000D01*
X278624678Y-20035000D01*
X279409380Y-19709966D01*
X280009966Y-19109380D01*
X280335000Y-18324678D01*
X280335000Y-17475322D01*
X280009966Y-16690620D01*
X279409380Y-16090034D01*
X278624678Y-15765000D01*
X277775322Y-15765000D01*
X276990620Y-16090034D01*
X276390034Y-16690620D01*
X276065000Y-17475322D01*
X174335000Y-17475322D01*
X174009966Y-16690620D01*
X173409380Y-16090034D01*
X172624678Y-15765000D01*
X171775322Y-15765000D01*
X170990620Y-16090034D01*
X170390034Y-16690620D01*
X170065000Y-17475322D01*
X164417903Y-17475322D01*
X163906604Y-16240938D01*
X162884062Y-15218396D01*
X161548046Y-14665000D01*
X160101954Y-14665000D01*
X158765938Y-15218396D01*
X157743396Y-16240938D01*
X157190000Y-17576954D01*
X137660000Y-17576954D01*
X137106604Y-16240938D01*
X136084062Y-15218396D01*
X134748046Y-14665000D01*
X133301954Y-14665000D01*
X131965938Y-15218396D01*
X130943396Y-16240938D01*
X130390000Y-17576954D01*
X106377158Y-17576954D01*
X105906604Y-16440938D01*
X104884062Y-15418396D01*
X103548046Y-14865000D01*
X102101954Y-14865000D01*
X100765938Y-15418396D01*
X99743396Y-16440938D01*
X99190000Y-17776954D01*
X79660000Y-17776954D01*
X79106604Y-16440938D01*
X78084062Y-15418396D01*
X76748046Y-14865000D01*
X75301954Y-14865000D01*
X73965938Y-15418396D01*
X72943396Y-16440938D01*
X72390000Y-17776954D01*
X19214478Y-17776954D01*
X19435000Y-17244569D01*
X19435000Y-16355431D01*
X19094741Y-15533974D01*
X18466026Y-14905259D01*
X17644569Y-14565000D01*
X16755431Y-14565000D01*
X15933974Y-14905259D01*
X15305259Y-15533974D01*
X14965000Y-16355431D01*
X12985000Y-16355431D01*
X12985000Y-12585000D01*
X282715000Y-12585000D01*
X282715001Y-143215506D01*
G04 #@! TD*
M02*
